<?xml version="1.0" standalone="no"?>
<!DOCTYPE svg PUBLIC "-//W3C//DTD SVG 1.1//EN" "http://www.w3.org/Graphics/SVG/1.1/DTD/svg11.dtd" >
<svg xmlns="http://www.w3.org/2000/svg" xmlns:xlink="http://www.w3.org/1999/xlink" version="1.1">
<metadata>
Created by FontForge 20170731 at Fri Dec  2 17:23:42 2016
 By Aleksey,,,
Copyright (c) 2016 by Red Hat, Inc. All rights reserved.
</metadata>
<defs>
<font id="OverpassMono-SemiBold" horiz-adv-x="616" >
  <font-face 
    font-family="Overpass Mono SemiBold"
    font-weight="600"
    font-stretch="normal"
    units-per-em="1000"
    panose-1="0 0 7 9 0 0 0 0 0 0"
    ascent="750"
    descent="-250"
    x-height="511"
    cap-height="700"
    bbox="-551 -378 1220 1062"
    underline-thickness="55"
    underline-position="-263"
    unicode-range="U+0020-1F514"
  />
<missing-glyph 
 />
    <glyph glyph-name=".notdef" 
 />
    <glyph glyph-name="uni0000" 
 />
    <glyph glyph-name="nonmarkingreturn" horiz-adv-x="333" 
 />
    <glyph glyph-name="space" unicode=" " 
 />
    <glyph glyph-name="exclam" unicode="!" 
d="M280 193l-22 298v221h101v-221l-22 -298h-57zM308 -13q-32 0 -53.5 22t-21.5 52q0 31 21.5 53t53.5 22q31 0 53 -22.5t22 -52.5t-22 -52t-53 -22z" />
    <glyph glyph-name="quotedbl" unicode="&#x22;" 
d="M152 700h122l-21 -279h-81zM342 700h122l-21 -279h-81z" />
    <glyph glyph-name="numbersign" unicode="#" 
d="M97 0l29 190h-115l14 88h114l24 159h-111l13 87h111l27 176h91l-27 -176h132l27 176h91l-27 -176h115l-13 -87h-115l-25 -159h112l-14 -88h-111l-29 -190h-91l29 190h-131l-29 -190h-91zM230 278h131l25 159h-132z" />
    <glyph glyph-name="dollar" unicode="$" 
d="M261 -95v89q-68 13 -116 55.5t-69 104.5l94 35q21 -48 59.5 -76t88.5 -28q54 0 85.5 27.5t31.5 78.5q0 49 -37 80t-103 57q-35 14 -56.5 23.5t-51 28.5t-46.5 38.5t-29.5 50t-12.5 67.5q0 64 43 112t119 60v79h101v-80q58 -12 96 -47t52 -84l-93 -31q-13 31 -42 51
t-72 20q-46 0 -72 -21t-26 -58q0 -40 33.5 -64.5t99.5 -50.5q34 -13 57.5 -24t53 -31t47.5 -42.5t31 -57t13 -75.5q0 -84 -49 -136t-129 -64v-87h-101z" />
    <glyph glyph-name="percent" unicode="%" 
d="M111 -12h-87l478 724h86zM156 371q-73 0 -109 48t-36 113q0 61 36 110.5t109 49.5t109 -47.5t36 -112.5q0 -38 -13 -72.5t-47 -61.5t-85 -27zM156 434q36 0 55.5 28t19.5 70q0 44 -19.5 70.5t-55.5 26.5q-37 0 -56 -27.5t-19 -69.5q0 -45 19 -71.5t56 -26.5zM461 8
q-74 0 -109.5 48t-35.5 113q0 61 36 110.5t109 49.5t109 -47.5t36 -112.5q0 -62 -35.5 -111.5t-109.5 -49.5zM461 71q36 0 55.5 28t19.5 70q0 44 -19.5 70.5t-55.5 26.5q-37 0 -56 -27.5t-19 -69.5q0 -45 18.5 -71.5t56.5 -26.5z" />
    <glyph glyph-name="ampersand" unicode="&#x26;" 
d="M606 0h-128l-57 72q-87 -84 -207 -84q-92 0 -148 53t-56 140q0 74 41 121.5t115 90.5q-39 53 -56.5 90.5t-17.5 75.5q0 71 48 112t122 41q73 0 120 -43t47 -112q0 -58 -33.5 -100t-92.5 -80l115 -143q20 51 23 101h97q-5 -99 -54 -184zM186 560q0 -24 14 -49t50 -70
q41 27 63 53t22 61t-21.5 55.5t-54.5 20.5t-53 -19t-20 -52zM230 82q75 0 133 63l-144 181q-53 -34 -80.5 -65t-27.5 -73q0 -47 32.5 -76.5t86.5 -29.5z" />
    <glyph glyph-name="quotesingle" unicode="'" 
d="M247 700h122l-21 -279h-81z" />
    <glyph glyph-name="parenleft" unicode="(" 
d="M375 -130q-182 160 -182 414q0 140 55.5 250t137.5 178h98q-25 -21 -54.5 -57.5t-62 -91t-53.5 -129t-21 -150.5q0 -77 20 -148.5t52.5 -124.5t57.5 -85t50 -56h-98z" />
    <glyph glyph-name="parenright" unicode=")" 
d="M144 -130q25 24 49.5 55.5t57.5 85t53 125t20 148.5q0 76 -21.5 150.5t-54 129t-61.5 90.5t-54 58h98q82 -68 137.5 -178t55.5 -250q0 -254 -182 -414h-98z" />
    <glyph glyph-name="asterisk" unicode="*" 
d="M220 115l-78 52l62 95l54 50l-73 -17h-109v95h109l73 -16l-53 49l-62 95l78 52l69 -104l18 -67l19 67l69 104l78 -52l-62 -95l-54 -49l73 16h109v-95h-109l-73 17l54 -50l62 -95l-78 -52l-69 104l-19 68l-19 -68z" />
    <glyph glyph-name="plus" unicode="+" 
d="M358 294v-186h-101v186h-184v97h184v187h101v-187h185v-97h-185z" />
    <glyph glyph-name="comma" unicode="," 
d="M279 -181l-47 25q57 66 64 142q-28 5 -45 23.5t-17 47.5q0 33 22 53.5t52 20.5q33 0 55 -24t22 -68q0 -69 -32.5 -129.5t-73.5 -90.5z" />
    <glyph glyph-name="hyphen" unicode="-" 
d="M73 249v96h470v-96h-470z" />
    <glyph glyph-name="period" unicode="." 
d="M308 -13q-31 0 -52.5 21.5t-21.5 51.5t21.5 51.5t52.5 21.5t52.5 -21.5t21.5 -51.5t-21.5 -51.5t-52.5 -21.5z" />
    <glyph glyph-name="slash" unicode="/" 
d="M61 -130l393 842h101l-393 -842h-101z" />
    <glyph glyph-name="zero" unicode="0" 
d="M308 -12q-69 0 -119.5 31.5t-77.5 85.5t-39.5 114.5t-12.5 130.5q0 52 6.5 99.5t24 96.5t45 85t72 58.5t101.5 22.5q69 0 119.5 -31.5t77.5 -85.5t39.5 -114.5t12.5 -130.5q0 -52 -6.5 -99.5t-24.5 -96.5t-45 -85t-71.5 -58.5t-101.5 -22.5zM308 84q42 0 72 23.5
t44.5 64.5t21 84t6.5 94q0 53 -7 97.5t-22 84.5t-44.5 62.5t-70.5 22.5q-42 0 -72 -24t-45 -64.5t-21.5 -84.5t-6.5 -94q0 -73 11.5 -129t45.5 -96.5t88 -40.5zM308 282q-29 0 -48.5 20t-19.5 48t19.5 48t48.5 20t48.5 -20t19.5 -48t-19.5 -48t-48.5 -20z" />
    <glyph glyph-name="one" unicode="1" 
d="M361 99h171v-99h-448v99h174v469l-153 -47v98l256 83v-603z" />
    <glyph glyph-name="two" unicode="2" 
d="M82 0q0 70 17 126t50.5 97.5t67.5 69.5t83 58q41 28 62.5 45t41.5 48t20 65q0 48 -29.5 78t-79.5 30q-105 0 -136 -96l-92 41q23 67 84.5 108.5t142.5 41.5q99 0 156.5 -56t57.5 -146q0 -46 -13.5 -82.5t-43 -67t-55 -49t-71.5 -47.5q-63 -40 -100.5 -79t-45.5 -86h335
v-99h-452z" />
    <glyph glyph-name="three" unicode="3" 
d="M307 -12q-171 0 -232 164l94 38q44 -105 140 -105q56 0 92 29.5t36 83.5t-34 86t-98 32h-58v96h53q50 0 80.5 28t30.5 75q0 45 -29 73t-74 28q-79 0 -118 -86l-94 36q27 65 81 105.5t131 40.5q90 0 148.5 -52.5t58.5 -133.5q0 -48 -23.5 -88t-63.5 -64q51 -20 82 -66
t31 -109q0 -95 -66.5 -153t-167.5 -58z" />
    <glyph glyph-name="four" unicode="4" 
d="M377 0v165h-329v61l338 474h92v-443h93v-92h-93v-165h-101zM377 257v288l-196 -288h196z" />
    <glyph glyph-name="five" unicode="5" 
d="M288 -12q-71 0 -125.5 23t-85.5 55l57 79q71 -61 153 -61q65 0 106.5 40.5t41.5 103.5q0 60 -31.5 97t-86.5 37q-73 0 -124 -58l-92 39l38 357h360v-96h-270l-24 -186q50 41 122 41q97 0 154.5 -64.5t57.5 -163.5q0 -103 -70 -173t-181 -70z" />
    <glyph glyph-name="six" unicode="6" 
d="M311 -12q-116 0 -179.5 76t-63.5 195q0 164 102 291t281 162v-91q-89 -22 -161 -85t-94 -146q46 49 134 49q94 0 156 -64.5t62 -156.5q0 -99 -67.5 -164.5t-169.5 -65.5zM309 84q61 0 99.5 35.5t38.5 93.5q0 59 -38 95.5t-100 36.5q-60 0 -99 -37t-39 -95q0 -57 39.5 -93
t98.5 -36z" />
    <glyph glyph-name="seven" unicode="7" 
d="M83 700h450v-82q-80 -91 -130.5 -212t-66.5 -217.5t-16 -188.5h-103q1 174 46.5 319.5t151.5 285.5h-332v95z" />
    <glyph glyph-name="eight" unicode="8" 
d="M308 -12q-109 0 -177.5 61t-68.5 155q0 62 34 110t91 71q-42 20 -68.5 58t-26.5 86q0 79 60 131t156 52q95 0 155.5 -52.5t60.5 -130.5q0 -48 -26.5 -86t-69.5 -57q57 -23 91.5 -71.5t34.5 -110.5q0 -94 -68.5 -155t-177.5 -61zM308 425q51 0 82 26.5t31 68.5
q0 45 -31.5 73t-81.5 28t-81.5 -27.5t-31.5 -73.5q0 -42 30.5 -68.5t82.5 -26.5zM308 81q62 0 102 35.5t40 93.5q0 55 -40 92.5t-102 37.5q-63 0 -102.5 -37.5t-39.5 -92.5q0 -59 39.5 -94t102.5 -35z" />
    <glyph glyph-name="nine" unicode="9" 
d="M181 -12v92q92 16 161 79t89 158q-50 -53 -143 -53q-95 0 -157.5 62t-62.5 158q0 100 68.5 164t173.5 64q118 0 178 -74.5t60 -196.5q0 -180 -97.5 -305.5t-269.5 -147.5zM307 356q62 0 100.5 36.5t38.5 95.5q0 56 -39 93t-99 37q-63 0 -101 -36.5t-38 -93.5
q0 -60 37.5 -96t100.5 -36z" />
    <glyph glyph-name="colon" unicode=":" 
d="M308 339q-31 0 -52.5 21.5t-21.5 51.5t21.5 51.5t52.5 21.5t52.5 -21.5t21.5 -51.5t-21.5 -51.5t-52.5 -21.5zM308 -13q-31 0 -52.5 21.5t-21.5 51.5t21.5 51.5t52.5 21.5t52.5 -21.5t21.5 -51.5t-21.5 -51.5t-52.5 -21.5z" />
    <glyph glyph-name="semicolon" unicode=";" 
d="M308 339q-31 0 -52.5 21.5t-21.5 51.5t21.5 51.5t52.5 21.5t52.5 -21.5t21.5 -51.5t-21.5 -51.5t-52.5 -21.5zM279 -181l-47 25q57 66 64 142q-28 5 -45 23.5t-17 47.5q0 33 22 53.5t52 20.5q33 0 55 -24t22 -68q0 -69 -32.5 -129.5t-73.5 -90.5z" />
    <glyph glyph-name="less" unicode="&#x3c;" 
d="M543 113l-470 190v86l470 191v-101l-334 -132l334 -133v-101z" />
    <glyph glyph-name="equal" unicode="=" 
d="M73 408v99h470v-99h-470zM73 179v99h470v-99h-470z" />
    <glyph glyph-name="greater" unicode="&#x3e;" 
d="M543 306l-470 -191v101l335 133l-335 133v101l470 -191v-86z" />
    <glyph glyph-name="question" unicode="?" 
d="M253 180v29q0 52 18 92t43.5 64t51.5 45.5t44 49t18 60.5q0 42 -30 69.5t-83 27.5q-61 0 -95 -34t-34 -93h-98q0 101 61.5 161.5t165.5 60.5q100 0 157 -54.5t57 -138.5q0 -47 -18 -83t-43.5 -59t-51.5 -44.5t-44 -52.5t-18 -71v-29h-101zM303 -13q-31 0 -52 21.5
t-21 51.5t21 51.5t52 21.5t52.5 -21.5t21.5 -51.5t-21.5 -51.5t-52.5 -21.5z" />
    <glyph glyph-name="at" unicode="@" 
d="M310 -12q-123 0 -201 93t-78 256q0 162 84.5 268.5t205.5 106.5q118 0 191 -84.5t73 -214.5q0 -109 -42.5 -181.5t-104.5 -72.5q-25 0 -44.5 17t-25.5 47q-30 -68 -89 -68q-49 0 -81 47.5t-32 123.5q0 79 41 143t105 64q60 0 76 -69l7 56h64l-29 -205q-6 -34 -6 -49
q0 -34 25 -34q31 0 52.5 51t21.5 131q0 106 -55.5 170.5t-143.5 64.5q-99 0 -163 -88.5t-64 -224.5q0 -128 58.5 -205t158.5 -77q57 0 109 19l-17 -74q-46 -11 -96 -11zM292 227q35 0 57 41t22 96q0 44 -16 70.5t-40 26.5q-36 0 -58.5 -40t-22.5 -97q0 -44 15.5 -70.5
t42.5 -26.5z" />
    <glyph glyph-name="A" unicode="A" 
d="M476 0l-50 163h-235l-49 -163h-110l229 700h93l231 -700h-109zM220 256h177l-71 232q-11 36 -18 73q-7 -37 -18 -73z" />
    <glyph glyph-name="B" unicode="B" 
d="M86 0v700h219q116 0 168 -53t52 -132q0 -104 -97 -146q57 -18 89.5 -62.5t32.5 -104.5q0 -84 -55.5 -143t-174.5 -59h-234zM189 410h99q67 0 101.5 26.5t34.5 73.5q0 96 -115 96h-120v-196zM189 95h140q65 0 92.5 30t27.5 74q0 117 -150 117h-110v-221z" />
    <glyph glyph-name="C" unicode="C" 
d="M326 -12q-71 0 -124.5 31t-84.5 83.5t-46 115t-15 132.5q0 69 15.5 131.5t47 115t85 84t122.5 31.5q79 0 129.5 -38.5t75.5 -97.5l-92 -45q-22 41 -47.5 62.5t-65.5 21.5q-57 0 -95.5 -42.5t-53 -99.5t-14.5 -123q0 -108 42 -186.5t121 -78.5q75 0 117 90l93 -36
q-62 -151 -210 -151z" />
    <glyph glyph-name="D" unicode="D" 
d="M86 0v700h170q65 0 117 -20t86.5 -53t57.5 -78.5t33 -95t10 -103.5q0 -51 -9 -98t-31.5 -94t-56.5 -81t-88.5 -55.5t-122.5 -21.5h-166zM188 96h72q53 0 92 22.5t60.5 60.5t31.5 80.5t10 90.5q0 106 -46 180.5t-137 74.5h-83v-509z" />
    <glyph glyph-name="E" unicode="E" 
d="M86 0v700h429v-97h-326v-193h217v-97h-217v-215h348v-98h-451z" />
    <glyph glyph-name="F" unicode="F" 
d="M86 0v700h456v-97h-353v-193h252v-97h-252v-313h-103z" />
    <glyph glyph-name="G" unicode="G" 
d="M322 -12q-88 0 -149.5 53.5t-88 133t-26.5 175.5q0 94 27.5 174.5t89.5 134t147 53.5q78 0 125 -35t80 -96l-91 -52q-47 87 -114 87q-55 0 -92 -42.5t-51.5 -100t-14.5 -123.5q0 -111 40.5 -188t117.5 -77q57 0 88 39.5t31 104.5v24h-124v95h230v-90q0 -127 -63 -198.5
t-162 -71.5z" />
    <glyph glyph-name="H" unicode="H" 
d="M86 0v700h103v-289h239v289h102v-700h-102v314h-239v-314h-103z" />
    <glyph glyph-name="I" unicode="I" 
d="M513 608h-154v-516h154v-92h-409v92h153v516h-153v92h409v-92z" />
    <glyph glyph-name="J" unicode="J" 
d="M301 -12q-153 0 -212 137l86 42q22 -43 49.5 -62.5t76.5 -19.5q53 0 88 33.5t35 114.5v467h103v-467q0 -70 -20.5 -120.5t-55.5 -76t-72 -37t-78 -11.5z" />
    <glyph glyph-name="K" unicode="K" 
d="M456 0l-194 366l-73 -91v-275h-103v700h103v-282l221 282h119l-198 -247l243 -453h-118z" />
    <glyph glyph-name="L" unicode="L" 
d="M86 0v700h103v-601h328v-99h-431z" />
    <glyph glyph-name="M" unicode="M" 
d="M86 0v700h104l103 -401q13 -49 16 -71q5 34 16 71l105 401h100v-700h-91v410q0 43 2 60q-2 -6 -8 -27t-9 -33l-110 -410h-12l-110 410q-1 4 -17 60q2 -34 2 -60v-410h-91z" />
    <glyph glyph-name="N" unicode="N" 
d="M86 0v700h99l229 -461q14 -26 21 -43q-2 38 -2 43v461h97v-700h-95l-232 459l-6.5 13l-8.5 17l-7 14q2 -16 2 -43v-460h-97z" />
    <glyph glyph-name="O" unicode="O" 
d="M308 -12q-65 0 -115 30.5t-79 82.5t-43.5 115t-14.5 134t14.5 134t43.5 115t79 82.5t115 30.5q66 0 116 -30.5t79 -82.5t43 -115t14 -134t-14 -134t-43 -115t-79 -82.5t-116 -30.5zM308 85q49 0 83.5 40t48.5 98t14 127q0 115 -36 190.5t-110 75.5q-49 0 -83 -40.5
t-48 -98.5t-14 -127q0 -114 36 -189.5t109 -75.5z" />
    <glyph glyph-name="P" unicode="P" 
d="M86 0v700h232q119 0 174.5 -61.5t55.5 -151.5q0 -84 -57.5 -148.5t-172.5 -64.5h-129v-274h-103zM189 369h135q61 0 90.5 35t29.5 83q0 46 -28 82t-92 36h-135v-236z" />
    <glyph glyph-name="Q" unicode="Q" 
d="M560 350q0 -204 -98 -301l53 -79l-74 -51l-55 82q-33 -13 -78 -13q-65 0 -115 30.5t-79 82.5t-43.5 115t-14.5 134t14.5 134t43.5 115t79 82.5t115 30.5q66 0 116 -30.5t79 -82.5t43 -115t14 -134zM308 85q8 0 20 2l-48 71l76 51l47 -70q51 74 51 211q0 115 -36 190.5
t-110 75.5q-49 0 -83 -40.5t-48 -98.5t-14 -127q0 -114 36 -189.5t109 -75.5z" />
    <glyph glyph-name="R" unicode="R" 
d="M539 495q0 -68 -37 -122.5t-110 -75.5l145 -297h-114l-140 287h-94v-287h-103v700h228q119 0 172 -58t53 -147zM189 605v-222h127q63 0 91.5 31.5t28.5 78.5q0 45 -27.5 78.5t-92.5 33.5h-127z" />
    <glyph glyph-name="S" unicode="S" 
d="M315 -12q-83 0 -147 46.5t-90 120.5l95 35q21 -48 60.5 -77t88.5 -29q51 0 80.5 27t29.5 78q0 45 -38 77.5t-104 61.5q-42 18 -68 33t-58 40t-47.5 58t-15.5 75q0 75 56.5 126.5t149.5 51.5q74 0 127.5 -38t70.5 -98l-93 -31q-14 31 -42.5 51.5t-67.5 20.5
q-43 0 -70 -22.5t-27 -60.5q0 -20 9.5 -36t30.5 -30.5t38 -23t50 -23.5l3 -1.5t3 -1t3 -1.5q40 -19 68 -35.5t60 -43.5t49 -64t17 -82q0 -94 -63 -149t-158 -55z" />
    <glyph glyph-name="T" unicode="T" 
d="M257 0v602h-203v98h508v-98h-203v-602h-102z" />
    <glyph glyph-name="U" unicode="U" 
d="M308 -12q-105 0 -168 66.5t-63 211.5v434h103v-434q0 -181 128 -181q129 0 129 181v434h102v-434q0 -144 -62.5 -211t-168.5 -67z" />
    <glyph glyph-name="V" unicode="V" 
d="M262 0l-230 700h112l150 -498q6 -21 14 -60q10 49 13 60l151 498h112l-229 -700h-93z" />
    <glyph glyph-name="W" unicode="W" 
d="M133 0l-107 700h94l61 -439l6 -47q3 24 9 47l81 439h63l82 -436q6 -25 9 -44q1 9 3 23.5t2 19.5l56 437h98l-107 -700h-82l-85 444q-3 14 -8 48q-2 -15 -8 -47l-85 -445h-82z" />
    <glyph glyph-name="X" unicode="X" 
d="M569 0h-117l-146 268l-143 -268h-116l207 362l-192 338h117l129 -239l128 239h116l-191 -333z" />
    <glyph glyph-name="Y" unicode="Y" 
d="M451 700h112l-203 -425v-275h-102v275l-204 425h114l141 -319z" />
    <glyph glyph-name="Z" unicode="Z" 
d="M540 700v-77l-331 -526h329v-97h-461v76l329 527h-306v97h440z" />
    <glyph glyph-name="bracketleft" unicode="[" 
d="M215 -130v842h240v-94h-140v-654h140v-94h-240z" />
    <glyph glyph-name="backslash" unicode="\" 
d="M476 -130l-393 842h101l393 -842h-101z" />
    <glyph glyph-name="bracketright" unicode="]" 
d="M445 -130h-240v94h139v654h-139v94h240v-842z" />
    <glyph glyph-name="asciicircum" unicode="^" 
d="M470 351l-140 233l-140 -233h-103l199 361h87l201 -361h-104z" />
    <glyph glyph-name="underscore" unicode="_" 
d="M40 -177v88h536v-88h-536z" />
    <glyph glyph-name="grave" unicode="`" 
d="M327 576l-178 156h135l142 -156h-99z" />
    <glyph glyph-name="a" unicode="a" 
d="M272 -12q-83 0 -135 44.5t-52 126.5q0 83 58.5 126t141.5 43q76 0 133 -30v35q0 103 -104 103q-79 0 -163 -53l-30 82q91 58 202 58q192 0 192 -187v-336h-97v44q-58 -56 -146 -56zM288 76q74 0 130 60v77q-53 30 -118 30q-51 0 -85 -21.5t-34 -62.5q0 -38 28.5 -60.5
t78.5 -22.5z" />
    <glyph glyph-name="b" unicode="b" 
d="M332 -12q-83 0 -137 54v-42h-100v675l100 47v-254q23 24 60.5 39.5t75.5 15.5q97 0 157 -71.5t60 -195.5q0 -128 -57.5 -198t-158.5 -70zM316 82q65 0 97.5 46t32.5 128q0 173 -130 173q-41 0 -73 -18t-48 -42v-226q42 -61 121 -61z" />
    <glyph glyph-name="c" unicode="c" 
d="M319 -12q-104 0 -165 70.5t-61 196.5q0 125 62 196.5t168 71.5q151 0 197 -128l-94 -33q-27 67 -103 67q-62 0 -94.5 -46.5t-32.5 -127.5q0 -82 32 -127.5t92 -45.5q85 0 110 76l94 -30q-44 -140 -205 -140z" />
    <glyph glyph-name="d" unicode="d" 
d="M291 -12q-103 0 -162.5 71t-59.5 197q0 124 60.5 195.5t159.5 71.5q84 0 132 -48v200l100 47v-722h-100v41q-45 -53 -130 -53zM304 82q81 0 117 61v228q-37 58 -118 58q-64 0 -98.5 -44.5t-34.5 -128.5q0 -77 36 -125.5t98 -48.5z" />
    <glyph glyph-name="e" unicode="e" 
d="M536 279q0 -38 -3 -63h-352q11 -64 46.5 -101t92.5 -37q67 0 116 46l59 -64q-72 -72 -176 -72q-111 0 -175 74.5t-64 193.5q0 125 64.5 196t174.5 71q95 0 156 -62t61 -182zM179 303h258q-3 68 -37 100t-81 32q-62 0 -97 -34.5t-43 -97.5z" />
    <glyph glyph-name="f" unicode="f" 
d="M416 623q-82 0 -82 -58v-54h161v-88h-161v-334h136v-89h-344v89h108v334h-108v88h108v73q0 37 14 63t39 39.5t52 19.5t58 6q65 0 116 -24v-85q-46 20 -97 20z" />
    <glyph glyph-name="g" unicode="g" 
d="M275 -207l-52 82q109 7 150.5 35.5t41.5 85.5v47q-45 -55 -128 -55q-93 0 -153.5 70t-60.5 198q0 123 59.5 195t156.5 72q79 0 126 -49v37h100v-472q0 -126 -58.5 -182t-181.5 -64zM305 82q72 0 110 63v224q-38 60 -110 60q-64 0 -97 -44.5t-33 -128.5q0 -80 35 -127
t95 -47z" />
    <glyph glyph-name="h" unicode="h" 
d="M93 0v676l100 46v-263q49 64 142 64q189 0 189 -220v-303h-100v296q0 70 -31 101.5t-81 31.5q-119 0 -119 -131v-298h-100z" />
    <glyph glyph-name="i" unicode="i" 
d="M316 594q-26 0 -43.5 18t-17.5 43t17.5 43t43.5 18t43.5 -17.5t17.5 -43.5t-17.5 -43.5t-43.5 -17.5zM366 89h141v-89h-382v89h141v334h-141v88h241v-422z" />
    <glyph glyph-name="j" unicode="j" 
d="M360 594q-26 0 -43.5 18t-17.5 43t17.5 43t43.5 18t43.5 -17.5t17.5 -43.5t-17.5 -43.5t-43.5 -17.5zM410 511v-513q0 -102 -49 -150t-157 -62l-49 82q90 13 122.5 40t32.5 88v427h-141v88h241z" />
    <glyph glyph-name="k" unicode="k" 
d="M431 0l-151 296l-85 -84v-212h-100v675l100 47v-397l183 186h118l-144 -143l189 -368h-110z" />
    <glyph glyph-name="l" unicode="l" 
d="M358 89h146v-89h-393v89h147v545h-121l-46 88h267v-633z" />
    <glyph glyph-name="m" unicode="m" 
d="M444 523q64 0 94.5 -43t30.5 -142v-338h-94v312q0 62 -11 89t-42 27q-32 0 -48.5 -32t-16.5 -87v-309h-94v319q0 109 -53 109q-32 0 -50.5 -32.5t-18.5 -86.5v-309h-94v511h88v-67q29 79 100 79q36 0 61 -22.5t35 -53.5q42 76 113 76z" />
    <glyph glyph-name="n" unicode="n" 
d="M335 523q189 0 189 -220v-303h-100v296q0 133 -112 133q-119 0 -119 -131v-298h-100v511h93v-62q19 33 59 53.5t90 20.5z" />
    <glyph glyph-name="o" unicode="o" 
d="M308 -12q-111 0 -176.5 71.5t-65.5 195.5t65.5 196t176.5 72t176.5 -72t65.5 -195q0 -124 -65.5 -196t-176.5 -72zM308 82q67 0 104 47t37 127t-36.5 126.5t-104.5 46.5t-104 -45.5t-36 -128.5q0 -80 36.5 -126.5t103.5 -46.5z" />
    <glyph glyph-name="p" unicode="p" 
d="M95 -202v713h100v-41q53 53 132 53q103 0 163 -71t60 -196t-62 -196.5t-160 -71.5q-85 0 -133 57v-200zM314 82q64 0 99 45t35 129q0 80 -35.5 126.5t-100.5 46.5q-78 0 -117 -60v-226q46 -61 119 -61z" />
    <glyph glyph-name="q" unicode="q" 
d="M421 -200v245q-47 -57 -131 -57q-101 0 -161.5 71t-60.5 196t60.5 196.5t164.5 71.5q75 0 128 -53v41h100v-666zM302 82q73 0 119 62v225q-38 60 -116 60q-64 0 -100 -48.5t-36 -125.5q0 -83 34.5 -128t98.5 -45z" />
    <glyph glyph-name="r" unicode="r" 
d="M437 523q71 0 116 -26v-183h-98v113q-7 1 -21 1q-77 0 -125.5 -38t-48.5 -109v-192h146v-89h-355v89h107v334h-107v88h202v-84q24 44 75.5 70t108.5 26z" />
    <glyph glyph-name="s" unicode="s" 
d="M308 -12q-61 0 -113.5 24.5t-85.5 66.5l67 59q60 -64 139 -64q40 0 65.5 15.5t25.5 44.5q0 41 -113 87l-3 1.5l-3 1.5t-3.5 1.5t-3.5 1.5q-43 18 -66 29.5t-49 30.5t-37.5 43t-11.5 56q0 63 53.5 100t135.5 37q114 0 184 -80l-66 -55q-55 49 -122 49q-41 0 -66 -14
t-25 -38q0 -35 110 -78l6 -3q36 -14 52 -21t44.5 -23t42 -31t24.5 -39.5t11 -53.5q0 -69 -52 -108.5t-140 -39.5z" />
    <glyph glyph-name="t" unicode="t" 
d="M355 -12q-140 0 -140 134v301h-112v88h112v163l100 48v-211h172v-88h-172v-277q0 -34 16 -51t57 -17q45 0 90 26l-11 -93q-44 -23 -112 -23z" />
    <glyph glyph-name="u" unicode="u" 
d="M284 -12q-192 0 -192 224v299h101v-292q0 -71 30.5 -103.5t80.5 -32.5q119 0 119 134v294h101v-511h-101v50q-48 -62 -139 -62z" />
    <glyph glyph-name="v" unicode="v" 
d="M263 0l-197 511h105l123 -333q11 -31 16 -54q5 23 16 54l121 333h104l-197 -511h-91z" />
    <glyph glyph-name="w" unicode="w" 
d="M150 0l-130 511h94l70 -297q6 -24 9 -46q7 37 9 47l67 296h78l68 -296q2 -8 9 -50q4 26 10 50l68 296h94l-130 -511h-80l-66 287q-11 57 -12 61q-2 -11 -7 -32t-6 -28l-64 -288h-81z" />
    <glyph glyph-name="x" unicode="x" 
d="M64 0l187 264l-175 247h114l91 -129q16 -21 27 -41q8 15 26 41l92 129h114l-175 -247l187 -264h-113l-105 147q-18 26 -26 41q-11 -20 -27 -41l-104 -147h-113z" />
    <glyph glyph-name="y" unicode="y" 
d="M180 -194l77 206l-189 499h102l120 -329q7 -20 16 -49q5 17 17 49l121 329h104l-266 -705h-102z" />
    <glyph glyph-name="z" unicode="z" 
d="M107 0v73l273 349h-253v89h382v-70l-273 -351h272v-90h-401z" />
    <glyph glyph-name="braceleft" unicode="{" 
d="M438 -130q-97 2 -153 61t-56 172v58q0 39 -15.5 63t-42.5 24h-23v87h23q27 0 42.5 24t15.5 63v57q0 113 56 172t153 61h31v-89h-31q-108 -3 -108 -126v-64q0 -69 -22.5 -100t-66.5 -40v-4q45 -8 67 -39t22 -101v-64q0 -124 108 -127h31v-88h-31z" />
    <glyph glyph-name="bar" unicode="|" 
d="M258 -378v1440h100v-1440h-100z" />
    <glyph glyph-name="braceright" unicode="}" 
d="M148 -130v88h31q53 1 80.5 34.5t27.5 92.5v64q0 70 22 101t67 39v4q-45 9 -67 40t-22 100v64q0 123 -108 126h-31v89h31q97 -2 153 -61t56 -172v-57q0 -40 15.5 -63.5t42.5 -23.5h23v-87h-23q-27 0 -42.5 -24t-15.5 -63v-58q0 -112 -56 -171.5t-153 -61.5h-31z" />
    <glyph glyph-name="asciitilde" unicode="~" 
d="M432 265q-45 0 -111 29.5t-92 29.5q-28 0 -44 -16t-18 -43h-72q0 67 32.5 111.5t100.5 44.5q46 0 112 -29.5t91 -29.5q28 0 44 16t18 43h72q0 -67 -32.5 -111.5t-100.5 -44.5z" />
    <glyph glyph-name="uni00A0" unicode="&#xa0;" 
 />
    <glyph glyph-name="exclamdown" unicode="&#xa1;" 
d="M309 375q-32 0 -54 22t-22 52t22 52t54 22q31 0 52.5 -22t21.5 -52t-21.5 -52t-52.5 -22zM257 -200v220l30 298h42l29 -298v-220h-101z" />
    <glyph glyph-name="cent" unicode="&#xa2;" 
d="M263 -12v102q-77 19 -119.5 86.5t-42.5 173.5t42.5 173t119.5 87v102h97v-97q115 -16 153 -127l-96 -33q-25 66 -91 66q-59 0 -91 -45.5t-32 -125.5t31.5 -125t87.5 -45q75 0 97 75l96 -30q-35 -124 -155 -139v-98h-97z" />
    <glyph glyph-name="sterling" unicode="&#xa3;" 
d="M99 0v102q41 18 61 65t24 99q0 4 0.5 10t0.5 9h-91v88h68q-13 26 -18.5 39t-12.5 41t-7 59q0 82 58.5 141t167.5 59q112 0 207 -69l-39 -94q-25 20 -40 30t-51.5 23t-76.5 13q-59 0 -90 -30.5t-31 -72.5q0 -23 7 -45t19.5 -50t18.5 -44h156v-88h-140q0 -3 -0.5 -8.5
t-0.5 -8.5q-5 -98 -77 -172h354v-96h-467z" />
    <glyph glyph-name="currency" unicode="&#xa4;" 
d="M308 86q-80 0 -136 37l-67 -68l-75 76l71 70q-31 55 -31 132q0 73 31 133l-71 71l72 73l68 -68q62 39 138 39t135 -38l67 67l76 -76l-70 -69q30 -57 30 -132q0 -77 -32 -135l72 -70l-73 -73l-69 69q-56 -38 -136 -38zM308 183q61 0 98.5 42t37.5 108t-37.5 108.5
t-98.5 42.5q-60 0 -98 -42.5t-38 -108.5t38 -108t98 -42z" />
    <glyph glyph-name="yen" unicode="&#xa5;" 
d="M365 327h137v-79h-144v-66h144v-79h-144v-103h-100v103h-149v79h149v66h-149v79h141l-211 373h114l155 -286l157 286h112z" />
    <glyph glyph-name="brokenbar" unicode="&#xa6;" 
d="M258 366v459h100v-459h-100zM258 -225v459h100v-459h-100z" />
    <glyph glyph-name="section" unicode="&#xa7;" 
d="M311 -120q-70 0 -126.5 25.5t-87.5 66.5l74 64q55 -60 139 -60q105 0 105 71q0 14 -7.5 26.5t-17 21.5t-28.5 19.5t-32.5 16t-38.5 16t-38 16.5q-36 15 -55.5 25.5t-43.5 28.5t-34.5 42.5t-10.5 56.5q0 76 68 108q-68 45 -68 131q0 73 55.5 115t140.5 42q126 0 194 -83
l-76 -61q-47 47 -118 47q-42 0 -66.5 -16t-24.5 -45q0 -30 35.5 -51t109.5 -49q31 -12 49 -20t42 -23t37 -31t22.5 -40.5t9.5 -54.5q0 -73 -59 -108q59 -47 59 -127q0 -81 -55 -125.5t-153 -44.5zM378 224q37 14 37 54q0 23 -22 42t-46.5 29.5t-73.5 27.5q-59 -9 -59 -54
q0 -10 4 -18.5t13.5 -16t19 -13.5t27 -13t29.5 -12t35 -13t36 -13z" />
    <glyph glyph-name="dieresis" unicode="&#xa8;" 
d="M219 594q-25 0 -42.5 17t-17.5 43t17.5 43t42.5 17t42.5 -17t17.5 -43t-17.5 -43t-42.5 -17zM397 594q-25 0 -42.5 17t-17.5 43t17.5 43t42.5 17t42.5 -17t17.5 -43t-17.5 -43t-42.5 -17z" />
    <glyph glyph-name="copyright" unicode="&#xa9;" 
d="M308 -12q-124 0 -208 104t-84 258t84 258t208 104t208 -104t84 -258t-84 -258t-208 -104zM308 58q94 0 155.5 83.5t61.5 208.5t-61.5 208.5t-155.5 83.5q-93 0 -155 -83.5t-62 -208.5t62 -208.5t155 -83.5zM312 140q-80 0 -123.5 59.5t-43.5 153.5q0 90 45.5 151.5
t125.5 61.5q98 0 137 -100l-75 -33q-21 53 -66 53q-42 0 -62.5 -37.5t-20.5 -95.5q0 -61 21.5 -97.5t62.5 -36.5q55 0 69 58l73 -27q-39 -110 -143 -110z" />
    <glyph glyph-name="ordfeminine" unicode="&#xaa;" 
d="M395 283v30q-44 -40 -111 -40q-66 0 -107.5 36.5t-41.5 104.5q0 67 48 103.5t113 36.5q55 0 99 -21v17q0 46 -20.5 65.5t-65.5 19.5q-67 0 -117 -39l-26 72q59 44 154 44q32 0 56.5 -5.5t50.5 -20.5t40 -48.5t14 -83.5v-271h-86zM299 350q56 0 96 40v68q-40 20 -86 20
q-37 0 -61.5 -16t-24.5 -48q0 -29 20.5 -46.5t55.5 -17.5z" />
    <glyph glyph-name="guillemotleft" unicode="&#xab;" 
d="M223 0l-152 256l152 255h109l-152 -255l152 -256h-109zM435 0l-152 256l152 255h110l-152 -255l152 -256h-110z" />
    <glyph glyph-name="logicalnot" unicode="&#xac;" 
d="M442 169v206h-369v97h470v-303h-101z" />
    <glyph glyph-name="uni00AD" unicode="&#xad;" 
d="M73 249v96h470v-96h-470z" />
    <glyph glyph-name="registered" unicode="&#xae;" 
d="M308 712q124 0 208 -104t84 -258t-84 -258t-208 -104t-208 104t-84 258t84 258t208 104zM308 58q94 0 155.5 83.5t61.5 208.5t-61.5 208.5t-155.5 83.5q-93 0 -155 -83.5t-62 -208.5t62 -208.5t155 -83.5zM462 428q0 -42 -23.5 -73.5t-62.5 -45.5l80 -154h-91l-70 145
h-40v-145h-82v392h162q66 0 96.5 -36t30.5 -83zM255 476v-102h81q22 0 34 15.5t12 37.5q0 19 -11.5 34t-34.5 15h-81z" />
    <glyph glyph-name="macron" unicode="&#xaf;" 
d="M143 598v84h330v-84h-330z" />
    <glyph glyph-name="degree" unicode="&#xb0;" 
d="M309 449q-74 0 -125 50t-51 123q0 74 51 123t125 49q73 0 123.5 -49t50.5 -123q0 -73 -50.5 -123t-123.5 -50zM309 539q34 0 55.5 23.5t21.5 59.5t-21.5 59t-55.5 23t-56.5 -23t-22.5 -59q0 -35 22.5 -59t56.5 -24z" />
    <glyph glyph-name="plusminus" unicode="&#xb1;" 
d="M358 355v-156h-101v156h-184v97h184v156h101v-156h185v-97h-185zM73 0v97h470v-97h-470z" />
    <glyph glyph-name="uni00B2" unicode="&#xb2;" 
d="M173 601q0 56 28 91.5t61 47.5t61 25t28 28q0 29 -39 29q-24 0 -42 -13.5t-25 -37.5l-71 18q12 41 48.5 66t91.5 25t88.5 -23.5t33.5 -66.5q0 -29 -24.5 -50t-55 -30.5t-58.5 -22t-32 -25.5h169v-61h-262z" />
    <glyph glyph-name="uni00B3" unicode="&#xb3;" 
d="M310 591q-103 0 -140 78l75 20q19 -40 68 -40q21 0 34 10t13 26q0 28 -50 28h-30v55h23q42 0 42 26q0 12 -10.5 20.5t-27.5 8.5q-39 0 -56 -34l-70 20q16 32 51 51.5t79 19.5q52 0 84 -22t32 -57q0 -20 -14.5 -35.5t-35.5 -21.5q66 -12 66 -65q0 -38 -35 -63t-98 -25z
" />
    <glyph glyph-name="acute" unicode="&#xb4;" 
d="M222 576l142 156h134l-178 -156h-98z" />
    <glyph glyph-name="uni00B5" unicode="&#xb5;" 
d="M416 0v49q-50 -61 -124 -61q-61 0 -91 43v-184l-101 -47v711h100v-306q0 -69 26.5 -96t77.5 -27q112 0 112 121v308h100v-511h-100z" />
    <glyph glyph-name="paragraph" unicode="&#xb6;" 
d="M470 -121v724h-88v-758l-100 -45v476q-120 2 -178.5 65.5t-58.5 146.5q0 89 56 150.5t175 61.5h294v-776z" />
    <glyph glyph-name="periodcentered" unicode="&#xb7;" 
d="M308 277q-31 0 -52.5 21.5t-21.5 50.5q0 30 21.5 51.5t52.5 21.5t52.5 -21.5t21.5 -51.5q0 -29 -21.5 -50.5t-52.5 -21.5z" />
    <glyph glyph-name="cedilla" unicode="&#xb8;" 
d="M295 -239q-65 0 -99 37l51 36q11 -14 39 -14q22 0 36 12.5t14 32.5q0 18 -16 30.5t-39 12.5t-39 -9l-20 24l70 87h56l-37 -61q55 0 82 -24t27 -61q0 -46 -34 -74.5t-91 -28.5z" />
    <glyph glyph-name="uni00B9" unicode="&#xb9;" 
d="M268 601v167h-49v63q52 0 70 42h61v-272h-82z" />
    <glyph glyph-name="ordmasculine" unicode="&#xba;" 
d="M308 273q-88 0 -139.5 58t-51.5 161t51.5 161.5t139.5 58.5t139.5 -58.5t51.5 -161.5t-51.5 -161t-139.5 -58zM308 357q49 0 76 35t27 100t-27 101t-76 36q-48 0 -75.5 -36t-27.5 -101q0 -64 27.5 -99.5t75.5 -35.5z" />
    <glyph glyph-name="guillemotright" unicode="&#xbb;" 
d="M71 0l152 256l-152 255h109l152 -255l-152 -256h-109zM283 0l152 256l-152 255h110l152 -255l-152 -256h-110z" />
    <glyph glyph-name="onequarter" unicode="&#xbc;" 
d="M268 433v167h-49v63q52 0 70 42h61v-272h-82zM40 316v76h536v-76h-536zM328 0v55h-178v43l181 174h75v-160h53v-57h-53v-55h-78zM328 112v83l-85 -83h85z" />
    <glyph glyph-name="onehalf" unicode="&#xbd;" 
d="M268 433v167h-49v63q52 0 70 42h61v-272h-82zM40 316v76h536v-76h-536zM173 0q0 56 28 91.5t61 47.5t61 25t28 28q0 29 -39 29q-24 0 -42 -13.5t-25 -37.5l-71 18q12 41 48.5 66t91.5 25t88.5 -23.5t33.5 -66.5q0 -29 -24.5 -50t-55 -30.5t-58.5 -22t-32 -25.5h169v-61
h-262z" />
    <glyph glyph-name="threequarters" unicode="&#xbe;" 
d="M310 423q-103 0 -140 78l75 20q19 -40 68 -40q21 0 34 10t13 26q0 28 -50 28h-30v55h23q42 0 42 26q0 12 -10.5 20.5t-27.5 8.5q-39 0 -56 -34l-70 20q16 32 51 51.5t79 19.5q52 0 84 -22t32 -57q0 -20 -14.5 -35.5t-35.5 -21.5q66 -12 66 -65q0 -38 -35 -63t-98 -25z
M40 316v76h536v-76h-536zM328 0v55h-178v43l181 174h75v-160h53v-57h-53v-55h-78zM328 112v83l-85 -83h85z" />
    <glyph glyph-name="questiondown" unicode="&#xbf;" 
d="M311 378q-31 0 -52.5 21t-21.5 51t21.5 51.5t52.5 21.5t53 -21.5t22 -51.5q0 -29 -22 -50.5t-53 -21.5zM298 -200q-101 0 -157 55t-56 142q0 45 18 80t43.5 57.5t51 44t44 53t18.5 72.5v29h100v-29q0 -53 -18 -92.5t-43.5 -62.5t-51 -43.5t-43.5 -47t-18 -61.5
q0 -46 29.5 -74.5t82.5 -28.5q63 0 97.5 36.5t34.5 102.5h101q0 -108 -64.5 -170.5t-168.5 -62.5z" />
    <glyph glyph-name="Agrave" unicode="&#xc0;" 
d="M370 766h-99l-178 156h135zM476 0l-50 163h-235l-49 -163h-110l229 700h93l231 -700h-109zM220 256h177l-71 232q-11 36 -18 73q-7 -37 -18 -73z" />
    <glyph glyph-name="Aacute" unicode="&#xc1;" 
d="M511 922l-178 -156h-98l142 156h134zM476 0l-50 163h-235l-49 -163h-110l229 700h93l231 -700h-109zM220 256h177l-71 232q-11 36 -18 73q-7 -37 -18 -73z" />
    <glyph glyph-name="Acircumflex" unicode="&#xc2;" 
d="M307 851l-100 -85h-92l141 156h103l141 -156h-93zM476 0l-50 163h-235l-49 -163h-110l229 700h93l231 -700h-109zM220 256h177l-71 232q-11 36 -18 73q-7 -37 -18 -73z" />
    <glyph glyph-name="Atilde" unicode="&#xc3;" 
d="M222 831q-44 0 -47 -44h-50q0 124 104 124q39 0 91 -24.5t74 -24.5q20 0 33 11.5t14 33.5h50q0 -124 -104 -124q-38 0 -90.5 24t-74.5 24zM476 0l-50 163h-235l-49 -163h-110l229 700h93l231 -700h-109zM220 256h177l-71 232q-11 36 -18 73q-7 -37 -18 -73z" />
    <glyph glyph-name="Adieresis" unicode="&#xc4;" 
d="M218 784q-26 0 -43 17t-17 43t17 43t43 17t43 -17t17 -43t-17 -43t-43 -17zM396 784q-26 0 -43 17t-17 43t17 43t43 17t43 -17t17 -43t-17 -43t-43 -17zM476 0l-50 163h-235l-49 -163h-110l229 700h93l231 -700h-109zM220 256h177l-71 232q-11 36 -18 73q-7 -37 -18 -73z
" />
    <glyph glyph-name="Aring" unicode="&#xc5;" 
d="M476 0l-50 163h-235l-49 -163h-110l213 651q-27 16 -43 43.5t-16 59.5q0 50 36 85t86 35q51 0 87 -35t36 -85q0 -68 -61 -104l215 -650h-109zM308 804q-20 0 -33.5 -14t-13.5 -36t13.5 -36.5t33.5 -14.5t34 14.5t14 36.5t-14 36t-34 14zM220 256h177l-71 232
q-11 36 -18 73q-7 -37 -18 -73z" />
    <glyph glyph-name="AE" unicode="&#xc6;" 
d="M434 96h179v-96h-276v163h-160l-66 -163h-111l297 700h295v-96h-158v-195h119v-95h-119v-218zM214 256l123 1v310q-3 -7 -10 -28t-10 -28z" />
    <glyph glyph-name="Ccedilla" unicode="&#xc7;" 
d="M536 139q-58 -141 -191 -150l-24 -40q55 0 82 -24t27 -61q0 -46 -34 -74.5t-91 -28.5q-65 0 -99 37l51 36q11 -14 39 -14q22 0 36 12.5t14 32.5q0 18 -16 30.5t-39 12.5t-39 -9l-20 24l54 68q-79 11 -132.5 67t-75.5 130t-22 162q0 69 15.5 131.5t47 115t85 84
t122.5 31.5q79 0 129.5 -38.5t75.5 -97.5l-92 -45q-22 41 -47.5 62.5t-65.5 21.5q-57 0 -95.5 -42.5t-53 -99.5t-14.5 -123q0 -108 42 -186.5t121 -78.5q75 0 117 90z" />
    <glyph glyph-name="Egrave" unicode="&#xc8;" 
d="M283 766l-178 156h135l142 -156h-99zM86 0v700h429v-97h-326v-193h217v-97h-217v-215h348v-98h-451z" />
    <glyph glyph-name="Eacute" unicode="&#xc9;" 
d="M227 769l142 156h134l-178 -156h-98zM86 0v700h429v-97h-326v-193h217v-97h-217v-215h348v-98h-451z" />
    <glyph glyph-name="Ecircumflex" unicode="&#xca;" 
d="M399 766l-100 85l-100 -85h-92l141 156h103l141 -156h-93zM86 0v700h429v-97h-326v-193h217v-97h-217v-215h348v-98h-451z" />
    <glyph glyph-name="Edieresis" unicode="&#xcb;" 
d="M210 784q-26 0 -43 17t-17 43t17 43t43 17t43 -17t17 -43t-17 -43t-43 -17zM388 784q-26 0 -43 17t-17 43t17 43t43 17t43 -17t17 -43t-17 -43t-43 -17zM86 0v700h429v-97h-326v-193h217v-97h-217v-215h348v-98h-451z" />
    <glyph glyph-name="Igrave" unicode="&#xcc;" 
d="M366 766h-99l-178 156h135zM513 608h-154v-516h154v-92h-409v92h153v516h-153v92h409v-92z" />
    <glyph glyph-name="Iacute" unicode="&#xcd;" 
d="M520 925l-178 -156h-98l142 156h134zM513 700v-92h-154v-516h154v-92h-409v92h153v516h-153v92h409z" />
    <glyph glyph-name="Icircumflex" unicode="&#xce;" 
d="M308 851l-100 -85h-92l141 156h103l141 -156h-93zM514 608h-154v-516h154v-92h-409v92h153v516h-153v92h409v-92z" />
    <glyph glyph-name="Idieresis" unicode="&#xcf;" 
d="M219 784q-25 0 -42.5 17t-17.5 43t17.5 43t42.5 17t42.5 -17t17.5 -43t-17.5 -43t-42.5 -17zM397 784q-25 0 -42.5 17t-17.5 43t17.5 43t42.5 17t42.5 -17t17.5 -43t-17.5 -43t-42.5 -17zM514 608h-154v-516h154v-92h-409v92h153v516h-153v92h409v-92z" />
    <glyph glyph-name="Eth" unicode="&#xd0;" 
d="M256 700q65 0 117 -20t86.5 -53t57.5 -78.5t33 -95t10 -103.5q0 -51 -9 -98t-31.5 -94t-56.5 -81t-88.5 -55.5t-122.5 -21.5h-166v303h-61v94h61v303h170zM260 96q53 0 92 22.5t60.5 60.5t31.5 80.5t10 90.5q0 106 -46 180.5t-137 74.5h-83v-208h144v-94h-144v-207h72z
" />
    <glyph glyph-name="Ntilde" unicode="&#xd1;" 
d="M387 783q-38 0 -90.5 24t-74.5 24q-44 0 -47 -44h-50q0 124 104 124q39 0 91 -24.5t74 -24.5q20 0 33 11.5t14 33.5h50q0 -124 -104 -124zM86 0v700h99l229 -461q14 -26 21 -43q-2 38 -2 43v461h97v-700h-95l-232 459l-6.5 13l-8.5 17l-7 14q2 -16 2 -43v-460h-97z" />
    <glyph glyph-name="Ograve" unicode="&#xd2;" 
d="M282 766l-178 156h135l142 -156h-99zM308 -12q-65 0 -115 30.5t-79 82.5t-43.5 115t-14.5 134t14.5 134t43.5 115t79 82.5t115 30.5q66 0 116 -30.5t79 -82.5t43 -115t14 -134t-14 -134t-43 -115t-79 -82.5t-116 -30.5zM308 85q49 0 83.5 40t48.5 98t14 127
q0 115 -36 190.5t-110 75.5q-49 0 -83 -40.5t-48 -98.5t-14 -127q0 -114 36 -189.5t109 -75.5z" />
    <glyph glyph-name="Oacute" unicode="&#xd3;" 
d="M244 766l142 156h134l-178 -156h-98zM308 -12q-65 0 -115 30.5t-79 82.5t-43.5 115t-14.5 134t14.5 134t43.5 115t79 82.5t115 30.5q66 0 116 -30.5t79 -82.5t43 -115t14 -134t-14 -134t-43 -115t-79 -82.5t-116 -30.5zM308 85q49 0 83.5 40t48.5 98t14 127
q0 115 -36 190.5t-110 75.5q-49 0 -83 -40.5t-48 -98.5t-14 -127q0 -114 36 -189.5t109 -75.5z" />
    <glyph glyph-name="Ocircumflex" unicode="&#xd4;" 
d="M408 766l-100 85l-100 -85h-92l141 156h103l141 -156h-93zM308 -12q-65 0 -115 30.5t-79 82.5t-43.5 115t-14.5 134t14.5 134t43.5 115t79 82.5t115 30.5q66 0 116 -30.5t79 -82.5t43 -115t14 -134t-14 -134t-43 -115t-79 -82.5t-116 -30.5zM308 85q49 0 83.5 40t48.5 98
t14 127q0 115 -36 190.5t-110 75.5q-49 0 -83 -40.5t-48 -98.5t-14 -127q0 -114 36 -189.5t109 -75.5z" />
    <glyph glyph-name="Otilde" unicode="&#xd5;" 
d="M388 783q-38 0 -90.5 24t-74.5 24q-44 0 -47 -44h-50q0 124 104 124q39 0 91 -24.5t74 -24.5q20 0 33 11.5t14 33.5h50q0 -124 -104 -124zM308 -12q-65 0 -115 30.5t-79 82.5t-43.5 115t-14.5 134t14.5 134t43.5 115t79 82.5t115 30.5q66 0 116 -30.5t79 -82.5t43 -115
t14 -134t-14 -134t-43 -115t-79 -82.5t-116 -30.5zM308 85q49 0 83.5 40t48.5 98t14 127q0 115 -36 190.5t-110 75.5q-49 0 -83 -40.5t-48 -98.5t-14 -127q0 -114 36 -189.5t109 -75.5z" />
    <glyph glyph-name="Odieresis" unicode="&#xd6;" 
d="M219 784q-25 0 -42.5 17t-17.5 43t17.5 43t42.5 17t42.5 -17t17.5 -43t-17.5 -43t-42.5 -17zM397 784q-25 0 -42.5 17t-17.5 43t17.5 43t42.5 17t42.5 -17t17.5 -43t-17.5 -43t-42.5 -17zM308 -12q-65 0 -115 30.5t-79 82.5t-43.5 115t-14.5 134t14.5 134t43.5 115
t79 82.5t115 30.5q66 0 116 -30.5t79 -82.5t43 -115t14 -134t-14 -134t-43 -115t-79 -82.5t-116 -30.5zM308 85q49 0 83.5 40t48.5 98t14 127q0 115 -36 190.5t-110 75.5q-49 0 -83 -40.5t-48 -98.5t-14 -127q0 -114 36 -189.5t109 -75.5z" />
    <glyph glyph-name="multiply" unicode="&#xd7;" 
d="M310 272l-160 -160l-73 72l161 160l-160 159l70 70l160 -159l159 160l72 -73l-160 -159l159 -160l-69 -69z" />
    <glyph glyph-name="Oslash" unicode="&#xd8;" 
d="M601 712l-88 -131q47 -94 47 -231q0 -71 -14 -134t-43 -115t-79 -82.5t-116 -30.5q-91 0 -153 60l-40 -60h-100l88 132q-47 95 -47 230q0 71 14.5 134t43.5 115t79 82.5t115 30.5q91 0 152 -59l40 59h101zM163 350q0 -69 13 -122l226 338q-35 50 -94 50q-49 0 -83 -40.5
t-48 -98.5t-14 -127zM454 350q0 69 -13 124l-227 -339q37 -50 94 -50q49 0 83.5 40t48.5 98t14 127z" />
    <glyph glyph-name="Ugrave" unicode="&#xd9;" 
d="M295 766l-178 156h135l142 -156h-99zM308 -12q-105 0 -168 66.5t-63 211.5v434h103v-434q0 -181 128 -181q129 0 129 181v434h102v-434q0 -144 -62.5 -211t-168.5 -67z" />
    <glyph glyph-name="Uacute" unicode="&#xda;" 
d="M232 769l142 156h134l-178 -156h-98zM308 -12q-105 0 -168 66.5t-63 211.5v434h103v-434q0 -181 128 -181q129 0 129 181v434h102v-434q0 -144 -62.5 -211t-168.5 -67z" />
    <glyph glyph-name="Ucircumflex" unicode="&#xdb;" 
d="M408 766l-100 85l-100 -85h-92l141 156h103l141 -156h-93zM308 -12q-105 0 -168 66.5t-63 211.5v434h103v-434q0 -181 128 -181q129 0 129 181v434h102v-434q0 -144 -62.5 -211t-168.5 -67z" />
    <glyph glyph-name="Udieresis" unicode="&#xdc;" 
d="M219 784q-25 0 -42.5 17t-17.5 43t17.5 43t42.5 17t42.5 -17t17.5 -43t-17.5 -43t-42.5 -17zM397 784q-25 0 -42.5 17t-17.5 43t17.5 43t42.5 17t42.5 -17t17.5 -43t-17.5 -43t-42.5 -17zM308 -12q-105 0 -168 66.5t-63 211.5v434h103v-434q0 -181 128 -181
q129 0 129 181v434h102v-434q0 -144 -62.5 -211t-168.5 -67z" />
    <glyph glyph-name="Yacute" unicode="&#xdd;" 
d="M516 925l-178 -156h-98l142 156h134zM451 700h112l-203 -425v-275h-102v275l-204 425h114l141 -319z" />
    <glyph glyph-name="Thorn" unicode="&#xde;" 
d="M86 0v700h103v-131h129q119 0 174.5 -61.5t55.5 -151.5q0 -85 -57.5 -149t-172.5 -64h-129v-143h-103zM324 238q61 0 90.5 35t29.5 83q0 46 -28 82t-92 36h-135v-236h135z" />
    <glyph glyph-name="germandbls" unicode="&#xdf;" 
d="M89 -202v676q0 82 31.5 137.5t77 78t101.5 22.5q92 0 148.5 -50.5t56.5 -132.5q0 -109 -94 -144q62 -20 96 -66t34 -108q0 -103 -59 -163t-151 -60q-59 0 -93 20l46 74q20 -6 44 -6q44 0 77.5 35t33.5 97q0 54 -34 91t-105 37h-21v88h21q46 0 74.5 26t28.5 73
q0 46 -26.5 74t-75.5 28q-51 0 -81 -36.5t-30 -112.5v-629z" />
    <glyph glyph-name="agrave" unicode="&#xe0;" 
d="M294 576l-178 156h135l142 -156h-99zM272 -12q-83 0 -135 44.5t-52 126.5q0 83 58.5 126t141.5 43q76 0 133 -30v35q0 103 -104 103q-79 0 -163 -53l-30 82q91 58 202 58q192 0 192 -187v-336h-97v44q-58 -56 -146 -56zM288 76q74 0 130 60v77q-53 30 -118 30
q-51 0 -85 -21.5t-34 -62.5q0 -38 28.5 -60.5t78.5 -22.5z" />
    <glyph glyph-name="aacute" unicode="&#xe1;" 
d="M247 576l142 156h134l-178 -156h-98zM272 -12q-83 0 -135 44.5t-52 126.5q0 83 58.5 126t141.5 43q76 0 133 -30v35q0 103 -104 103q-79 0 -163 -53l-30 82q91 58 202 58q192 0 192 -187v-336h-97v44q-58 -56 -146 -56zM288 76q74 0 130 60v77q-53 30 -118 30
q-51 0 -85 -21.5t-34 -62.5q0 -38 28.5 -60.5t78.5 -22.5z" />
    <glyph glyph-name="acircumflex" unicode="&#xe2;" 
d="M413 576l-100 85l-100 -85h-92l141 156h103l141 -156h-93zM272 -12q-83 0 -135 44.5t-52 126.5q0 83 58.5 126t141.5 43q76 0 133 -30v35q0 103 -104 103q-79 0 -163 -53l-30 82q91 58 202 58q192 0 192 -187v-336h-97v44q-58 -56 -146 -56zM288 76q74 0 130 60v77
q-53 30 -118 30q-51 0 -85 -21.5t-34 -62.5q0 -38 28.5 -60.5t78.5 -22.5z" />
    <glyph glyph-name="atilde" unicode="&#xe3;" 
d="M397 593q-38 0 -90.5 24t-74.5 24q-44 0 -47 -44h-50q0 124 104 124q39 0 91 -24.5t74 -24.5q20 0 33 11.5t14 33.5h50q0 -124 -104 -124zM272 -12q-83 0 -135 44.5t-52 126.5q0 83 58.5 126t141.5 43q76 0 133 -30v35q0 103 -104 103q-79 0 -163 -53l-30 82
q91 58 202 58q192 0 192 -187v-336h-97v44q-58 -56 -146 -56zM288 76q74 0 130 60v77q-53 30 -118 30q-51 0 -85 -21.5t-34 -62.5q0 -38 28.5 -60.5t78.5 -22.5z" />
    <glyph glyph-name="adieresis" unicode="&#xe4;" 
d="M237 594q-25 0 -42.5 17t-17.5 43t17.5 43t42.5 17t42.5 -17t17.5 -43t-17.5 -43t-42.5 -17zM415 594q-25 0 -42.5 17t-17.5 43t17.5 43t42.5 17t42.5 -17t17.5 -43t-17.5 -43t-42.5 -17zM272 -12q-83 0 -135 44.5t-52 126.5q0 83 58.5 126t141.5 43q76 0 133 -30v35
q0 103 -104 103q-79 0 -163 -53l-30 82q91 58 202 58q192 0 192 -187v-336h-97v44q-58 -56 -146 -56zM288 76q74 0 130 60v77q-53 30 -118 30q-51 0 -85 -21.5t-34 -62.5q0 -38 28.5 -60.5t78.5 -22.5z" />
    <glyph glyph-name="aring" unicode="&#xe5;" 
d="M325 568q-50 0 -86 35.5t-36 85.5t36 85t86 35q51 0 87 -35t36 -85q0 -49 -36.5 -85t-86.5 -36zM325 638q20 0 34 14.5t14 36.5t-14 36t-34 14t-33.5 -14t-13.5 -36t13.5 -36.5t33.5 -14.5zM272 -12q-83 0 -135 44.5t-52 126.5q0 83 58.5 126t141.5 43q76 0 133 -30v35
q0 103 -104 103q-79 0 -163 -53l-30 82q91 58 202 58q192 0 192 -187v-336h-97v44q-58 -56 -146 -56zM288 76q74 0 130 60v77q-53 30 -118 30q-51 0 -85 -21.5t-34 -62.5q0 -38 28.5 -60.5t78.5 -22.5z" />
    <glyph glyph-name="ae" unicode="&#xe6;" 
d="M160 -12q-61 0 -99 44.5t-38 126.5q0 84 42.5 127t105.5 43q46 0 87 -28v26q0 115 -73 115q-56 0 -112 -56l-23 79q70 58 146 58q82 0 113 -78q45 78 128 78q68 0 112 -63.5t44 -180.5q0 -19 -4 -63h-250q2 -61 30 -104t67 -43q44 0 82 54l43 -63q-56 -72 -129 -72
q-84 0 -132 93q-25 -47 -62.5 -70t-77.5 -23zM339 296h171q-1 74 -23 109.5t-55 35.5q-38 0 -63.5 -36.5t-29.5 -108.5zM172 68q28 0 54 24t41 56q-7 29 -9 67q-35 35 -78 35q-32 0 -54 -23.5t-22 -68.5q0 -40 18 -65t50 -25z" />
    <glyph glyph-name="ccedilla" unicode="&#xe7;" 
d="M524 128q-40 -128 -181 -139l-24 -40q55 0 82 -24t27 -61q0 -46 -34 -74.5t-91 -28.5q-65 0 -99 37l51 36q11 -14 39 -14q22 0 36 12.5t14 32.5q0 18 -16 30.5t-39 12.5t-39 -9l-20 24l54 67q-89 12 -140 81.5t-51 183.5q0 125 62 196.5t168 71.5q151 0 197 -128l-94 -33
q-27 67 -103 67q-62 0 -94.5 -46.5t-32.5 -127.5q0 -82 32 -127.5t92 -45.5q85 0 110 76z" />
    <glyph glyph-name="egrave" unicode="&#xe8;" 
d="M419 576h-99l-178 156h135zM536 279q0 -38 -3 -63h-352q11 -64 46.5 -101t92.5 -37q67 0 116 46l59 -64q-72 -72 -176 -72q-111 0 -175 74.5t-64 193.5q0 125 64.5 196t174.5 71q95 0 156 -62t61 -182zM179 303h258q-3 68 -37 100t-81 32q-62 0 -97 -34.5t-43 -97.5z" />
    <glyph glyph-name="eacute" unicode="&#xe9;" 
d="M512 732l-178 -156h-98l142 156h134zM536 279q0 -38 -3 -63h-352q11 -64 46.5 -101t92.5 -37q67 0 116 46l59 -64q-72 -72 -176 -72q-111 0 -175 74.5t-64 193.5q0 125 64.5 196t174.5 71q95 0 156 -62t61 -182zM179 303h258q-3 68 -37 100t-81 32q-62 0 -97 -34.5
t-43 -97.5z" />
    <glyph glyph-name="ecircumflex" unicode="&#xea;" 
d="M313 661l-100 -85h-92l141 156h103l141 -156h-93zM536 279q0 -38 -3 -63h-352q11 -64 46.5 -101t92.5 -37q67 0 116 46l59 -64q-72 -72 -176 -72q-111 0 -175 74.5t-64 193.5q0 125 64.5 196t174.5 71q95 0 156 -62t61 -182zM179 303h258q-3 68 -37 100t-81 32
q-62 0 -97 -34.5t-43 -97.5z" />
    <glyph glyph-name="edieresis" unicode="&#xeb;" 
d="M224 594q-26 0 -43 17t-17 43t17 43t43 17t43 -17t17 -43t-17 -43t-43 -17zM402 594q-26 0 -43 17t-17 43t17 43t43 17t43 -17t17 -43t-17 -43t-43 -17zM536 279q0 -38 -3 -63h-352q11 -64 46.5 -101t92.5 -37q67 0 116 46l59 -64q-72 -72 -176 -72q-111 0 -175 74.5
t-64 193.5q0 125 64.5 196t174.5 71q95 0 156 -62t61 -182zM179 303h258q-3 68 -37 100t-81 32q-62 0 -97 -34.5t-43 -97.5z" />
    <glyph glyph-name="igrave" unicode="&#xec;" 
d="M361 576h-99l-178 156h135zM366 89h141v-89h-382v89h141v342h-141v89h241v-431z" />
    <glyph glyph-name="iacute" unicode="&#xed;" 
d="M485 732l-178 -156h-98l142 156h134zM366 89h141v-89h-382v89h141v342h-141v89h241v-431z" />
    <glyph glyph-name="icircumflex" unicode="&#xee;" 
d="M298 661l-100 -85h-92l141 156h103l141 -156h-93zM366 89h141v-89h-382v89h141v342h-141v89h241v-431z" />
    <glyph glyph-name="idieresis" unicode="&#xef;" 
d="M209 594q-25 0 -42.5 17t-17.5 43t17.5 43t42.5 17t42.5 -17t17.5 -43t-17.5 -43t-42.5 -17zM387 594q-25 0 -42.5 17t-17.5 43t17.5 43t42.5 17t42.5 -17t17.5 -43t-17.5 -43t-42.5 -17zM366 89h141v-89h-382v89h141v342h-141v89h241v-431z" />
    <glyph glyph-name="eth" unicode="&#xf0;" 
d="M308 -12q-100 0 -163.5 66t-63.5 167t63 168t159 67q78 0 122 -58q-17 105 -93 168l-62 -65l-53 50l49 52q-49 22 -106 25v84q95 -3 170 -41l57 61l53 -52l-47 -50q68 -56 105 -149.5t37 -211.5q0 -128 -58.5 -204.5t-168.5 -76.5zM308 82q53 0 89.5 40t36.5 98
q0 61 -36 101.5t-90 40.5q-53 0 -89 -39.5t-36 -101.5q0 -59 36.5 -99t88.5 -40z" />
    <glyph glyph-name="ntilde" unicode="&#xf1;" 
d="M225 641q-44 0 -47 -44h-50q0 124 104 124q39 0 91 -24.5t74 -24.5q20 0 33 11.5t14 33.5h50q0 -124 -104 -124q-38 0 -90.5 24t-74.5 24zM335 523q189 0 189 -220v-303h-100v296q0 133 -112 133q-119 0 -119 -131v-298h-100v511h93v-62q19 33 59 53.5t90 20.5z" />
    <glyph glyph-name="ograve" unicode="&#xf2;" 
d="M302 576l-178 156h135l142 -156h-99zM308 -12q-111 0 -176.5 71.5t-65.5 195.5t65.5 196t176.5 72t176.5 -72t65.5 -195q0 -124 -65.5 -196t-176.5 -72zM308 82q67 0 104 47t37 127t-36.5 126.5t-104.5 46.5t-104 -45.5t-36 -128.5q0 -80 36.5 -126.5t103.5 -46.5z" />
    <glyph glyph-name="oacute" unicode="&#xf3;" 
d="M230 576l142 156h134l-178 -156h-98zM308 -12q-111 0 -176.5 71.5t-65.5 195.5t65.5 196t176.5 72t176.5 -72t65.5 -195q0 -124 -65.5 -196t-176.5 -72zM308 82q67 0 104 47t37 127t-36.5 126.5t-104.5 46.5t-104 -45.5t-36 -128.5q0 -80 36.5 -126.5t103.5 -46.5z" />
    <glyph glyph-name="ocircumflex" unicode="&#xf4;" 
d="M408 576l-100 85l-100 -85h-92l141 156h103l141 -156h-93zM308 -12q-111 0 -176.5 71.5t-65.5 195.5t65.5 196t176.5 72t176.5 -72t65.5 -195q0 -124 -65.5 -196t-176.5 -72zM308 82q67 0 104 47t37 127t-36.5 126.5t-104.5 46.5t-104 -45.5t-36 -128.5
q0 -80 36.5 -126.5t103.5 -46.5z" />
    <glyph glyph-name="otilde" unicode="&#xf5;" 
d="M388 593q-38 0 -90.5 24t-74.5 24q-44 0 -47 -44h-50q0 124 104 124q39 0 91 -24.5t74 -24.5q20 0 33 11.5t14 33.5h50q0 -124 -104 -124zM308 -12q-111 0 -176.5 71.5t-65.5 195.5t65.5 196t176.5 72t176.5 -72t65.5 -195q0 -124 -65.5 -196t-176.5 -72zM308 82
q67 0 104 47t37 127t-36.5 126.5t-104.5 46.5t-104 -45.5t-36 -128.5q0 -80 36.5 -126.5t103.5 -46.5z" />
    <glyph glyph-name="odieresis" unicode="&#xf6;" 
d="M219 594q-25 0 -42.5 17t-17.5 43t17.5 43t42.5 17t42.5 -17t17.5 -43t-17.5 -43t-42.5 -17zM397 594q-25 0 -42.5 17t-17.5 43t17.5 43t42.5 17t42.5 -17t17.5 -43t-17.5 -43t-42.5 -17zM308 -12q-111 0 -176.5 71.5t-65.5 195.5t65.5 196t176.5 72t176.5 -72t65.5 -195
q0 -124 -65.5 -196t-176.5 -72zM308 82q67 0 104 47t37 127t-36.5 126.5t-104.5 46.5t-104 -45.5t-36 -128.5q0 -80 36.5 -126.5t103.5 -46.5z" />
    <glyph glyph-name="divide" unicode="&#xf7;" 
d="M307 474q-27 0 -45 18t-18 44q0 25 18 43.5t45 18.5t45.5 -18.5t18.5 -43.5q0 -26 -18.5 -44t-45.5 -18zM73 294v97h470v-97h-470zM307 88q-27 0 -45 17.5t-18 43.5t18 44.5t45 18.5t45.5 -18.5t18.5 -44.5t-18.5 -43.5t-45.5 -17.5z" />
    <glyph glyph-name="oslash" unicode="&#xf8;" 
d="M486 450q64 -72 64 -194q0 -124 -65.5 -196t-176.5 -72q-67 0 -118 27l-18 -27h-91l49 73q-64 72 -64 194q0 124 65.5 196t176.5 72q67 0 117 -26l18 26h92zM168 255q0 -61 22 -105l181 266q-29 13 -63 13q-68 0 -104 -45.5t-36 -128.5zM308 82q67 0 104 47t37 127
q0 63 -23 106l-181 -266q28 -14 63 -14z" />
    <glyph glyph-name="ugrave" unicode="&#xf9;" 
d="M287 576l-178 156h135l142 -156h-99zM284 -12q-192 0 -192 224v299h101v-292q0 -71 30.5 -103.5t80.5 -32.5q119 0 119 134v294h101v-511h-101v50q-48 -62 -139 -62z" />
    <glyph glyph-name="uacute" unicode="&#xfa;" 
d="M230 576l142 156h134l-178 -156h-98zM284 -12q-192 0 -192 224v299h101v-292q0 -71 30.5 -103.5t80.5 -32.5q119 0 119 134v294h101v-511h-101v50q-48 -62 -139 -62z" />
    <glyph glyph-name="ucircumflex" unicode="&#xfb;" 
d="M406 576l-100 85l-100 -85h-92l141 156h103l141 -156h-93zM284 -12q-192 0 -192 224v299h101v-292q0 -71 30.5 -103.5t80.5 -32.5q119 0 119 134v294h101v-511h-101v50q-48 -62 -139 -62z" />
    <glyph glyph-name="udieresis" unicode="&#xfc;" 
d="M217 594q-25 0 -42.5 17t-17.5 43t17.5 43t42.5 17t42.5 -17t17.5 -43t-17.5 -43t-42.5 -17zM395 594q-25 0 -42.5 17t-17.5 43t17.5 43t42.5 17t42.5 -17t17.5 -43t-17.5 -43t-42.5 -17zM284 -12q-192 0 -192 224v299h101v-292q0 -71 30.5 -103.5t80.5 -32.5
q119 0 119 134v294h101v-511h-101v50q-48 -62 -139 -62z" />
    <glyph glyph-name="yacute" unicode="&#xfd;" 
d="M242 576l142 156h134l-178 -156h-98zM180 -194l77 206l-189 499h102l120 -329q7 -20 16 -49q5 17 17 49l121 329h104l-266 -705h-102z" />
    <glyph glyph-name="thorn" unicode="&#xfe;" 
d="M95 -205v869l101 49v-236q55 55 133 55q101 0 161 -72.5t60 -199.5q0 -126 -62 -199t-160 -73q-81 0 -132 58v-204zM314 83q64 0 98.5 46t34.5 131q0 81 -35 129t-98 48q-78 0 -118 -61v-231q46 -62 118 -62z" />
    <glyph glyph-name="ydieresis" unicode="&#xff;" 
d="M217 594q-25 0 -42.5 17t-17.5 43t17.5 43t42.5 17t42.5 -17t17.5 -43t-17.5 -43t-42.5 -17zM395 594q-25 0 -42.5 17t-17.5 43t17.5 43t42.5 17t42.5 -17t17.5 -43t-17.5 -43t-42.5 -17zM180 -194l77 206l-189 499h102l120 -329q7 -20 16 -49q5 17 17 49l121 329h104
l-266 -705h-102z" />
    <glyph glyph-name="Amacron" unicode="&#x100;" 
d="M472 872v-84h-330v84h330zM476 0l-50 163h-235l-49 -163h-110l229 700h93l231 -700h-109zM220 256h177l-71 232q-11 36 -18 73q-7 -37 -18 -73z" />
    <glyph glyph-name="amacron" unicode="&#x101;" 
d="M151 598v84h330v-84h-330zM272 -12q-83 0 -135 44.5t-52 126.5q0 83 58.5 126t141.5 43q76 0 133 -30v35q0 103 -104 103q-79 0 -163 -53l-30 82q91 58 202 58q192 0 192 -187v-336h-97v44q-58 -56 -146 -56zM288 76q74 0 130 60v77q-53 30 -118 30q-51 0 -85 -21.5
t-34 -62.5q0 -38 28.5 -60.5t78.5 -22.5z" />
    <glyph glyph-name="Abreve" unicode="&#x102;" 
d="M308 767q-91 0 -138 46.5t-47 118.5h84q0 -38 27.5 -62.5t73.5 -24.5t73.5 24.5t27.5 62.5h84q0 -72 -47 -118.5t-138 -46.5zM476 0l-50 163h-235l-49 -163h-110l229 700h93l231 -700h-109zM220 256h177l-71 232q-11 36 -18 73q-7 -37 -18 -73z" />
    <glyph glyph-name="abreve" unicode="&#x103;" 
d="M316 577q-91 0 -138 46.5t-47 118.5h84q0 -38 27.5 -62.5t73.5 -24.5t73.5 24.5t27.5 62.5h84q0 -72 -47 -118.5t-138 -46.5zM272 -12q-83 0 -135 44.5t-52 126.5q0 83 58.5 126t141.5 43q76 0 133 -30v35q0 103 -104 103q-79 0 -163 -53l-30 82q91 58 202 58
q192 0 192 -187v-336h-97v44q-58 -56 -146 -56zM288 76q74 0 130 60v77q-53 30 -118 30q-51 0 -85 -21.5t-34 -62.5q0 -38 28.5 -60.5t78.5 -22.5z" />
    <glyph glyph-name="Aogonek" unicode="&#x104;" 
d="M455 -249q-51 0 -83.5 27.5t-32.5 75.5q0 49 36 87t101 59l-51 163h-234l-49 -163h-110l229 700h93l231 -700q-65 -7 -114 -46.5t-49 -89.5q0 -25 13.5 -38t32.5 -13q28 0 47 21l50 -36q-43 -47 -110 -47zM219 256h178l-71 232q-11 36 -18 73q-7 -37 -18 -73z" />
    <glyph glyph-name="aogonek" unicode="&#x105;" 
d="M438 -239q-51 0 -83.5 27.5t-32.5 75.5q0 89 112 137v43q-60 -56 -141 -56t-131 44.5t-50 126.5q0 83 56.5 126t137.5 43q69 0 128 -30v35q0 103 -102 103q-76 0 -155 -53l-30 82q87 58 194 58q189 0 189 -187v-336q-58 -22 -91.5 -55.5t-33.5 -70.5q0 -25 13.5 -38
t32.5 -13q28 0 47 21l50 -36q-45 -47 -110 -47zM309 76q69 0 125 60v77q-53 30 -113 30q-50 0 -81.5 -21.5t-31.5 -62.5q0 -38 26.5 -60.5t74.5 -22.5z" />
    <glyph glyph-name="Cacute" unicode="&#x106;" 
d="M255 766l142 156h134l-178 -156h-98zM326 -12q-71 0 -124.5 31t-84.5 83.5t-46 115t-15 132.5q0 69 15.5 131.5t47 115t85 84t122.5 31.5q79 0 129.5 -38.5t75.5 -97.5l-92 -45q-22 41 -47.5 62.5t-65.5 21.5q-57 0 -95.5 -42.5t-53 -99.5t-14.5 -123q0 -108 42 -186.5
t121 -78.5q75 0 117 90l93 -36q-62 -151 -210 -151z" />
    <glyph glyph-name="cacute" unicode="&#x107;" 
d="M255 576l142 156h134l-178 -156h-98zM319 -12q-104 0 -165 70.5t-61 196.5q0 125 62 196.5t168 71.5q151 0 197 -128l-94 -33q-27 67 -103 67q-62 0 -94.5 -46.5t-32.5 -127.5q0 -82 32 -127.5t92 -45.5q85 0 110 76l94 -30q-44 -140 -205 -140z" />
    <glyph glyph-name="Ccircumflex" unicode="&#x108;" 
d="M423 766l-100 85l-100 -85h-92l141 156h103l141 -156h-93zM326 -12q-71 0 -124.5 31t-84.5 83.5t-46 115t-15 132.5q0 69 15.5 131.5t47 115t85 84t122.5 31.5q79 0 129.5 -38.5t75.5 -97.5l-92 -45q-22 41 -47.5 62.5t-65.5 21.5q-57 0 -95.5 -42.5t-53 -99.5
t-14.5 -123q0 -108 42 -186.5t121 -78.5q75 0 117 90l93 -36q-62 -151 -210 -151z" />
    <glyph glyph-name="ccircumflex" unicode="&#x109;" 
d="M417 576l-100 85l-100 -85h-92l141 156h103l141 -156h-93zM319 -12q-104 0 -165 70.5t-61 196.5q0 125 62 196.5t168 71.5q151 0 197 -128l-94 -33q-27 67 -103 67q-62 0 -94.5 -46.5t-32.5 -127.5q0 -82 32 -127.5t92 -45.5q85 0 110 76l94 -30q-44 -140 -205 -140z" />
    <glyph glyph-name="Cdotaccent" unicode="&#x10a;" 
d="M322 784q-26 0 -43 17t-17 43t17 43t43 17t43 -17t17 -43t-17 -43t-43 -17zM326 -12q-71 0 -124.5 31t-84.5 83.5t-46 115t-15 132.5q0 69 15.5 131.5t47 115t85 84t122.5 31.5q79 0 129.5 -38.5t75.5 -97.5l-92 -45q-22 41 -47.5 62.5t-65.5 21.5q-57 0 -95.5 -42.5
t-53 -99.5t-14.5 -123q0 -108 42 -186.5t121 -78.5q75 0 117 90l93 -36q-62 -151 -210 -151z" />
    <glyph glyph-name="cdotaccent" unicode="&#x10b;" 
d="M320 594q-26 0 -43 17t-17 43t17 43t43 17t43 -17t17 -43t-17 -43t-43 -17zM319 -12q-104 0 -165 70.5t-61 196.5q0 125 62 196.5t168 71.5q151 0 197 -128l-94 -33q-27 67 -103 67q-62 0 -94.5 -46.5t-32.5 -127.5q0 -82 32 -127.5t92 -45.5q85 0 110 76l94 -30
q-44 -140 -205 -140z" />
    <glyph glyph-name="Ccaron" unicode="&#x10c;" 
d="M377 766h-102l-141 156h92l100 -85l100 85h93zM326 -12q-71 0 -124.5 31t-84.5 83.5t-46 115t-15 132.5q0 69 15.5 131.5t47 115t85 84t122.5 31.5q79 0 129.5 -38.5t75.5 -97.5l-92 -45q-22 41 -47.5 62.5t-65.5 21.5q-57 0 -95.5 -42.5t-53 -99.5t-14.5 -123
q0 -108 42 -186.5t121 -78.5q75 0 117 90l93 -36q-62 -151 -210 -151z" />
    <glyph glyph-name="ccaron" unicode="&#x10d;" 
d="M367 576h-102l-141 156h92l100 -85l100 85h93zM316 -12q-104 0 -165 70.5t-61 196.5q0 125 62 196.5t168 71.5q151 0 197 -128l-94 -33q-27 67 -103 67q-62 0 -94.5 -46.5t-32.5 -127.5q0 -82 32 -127.5t92 -45.5q85 0 110 76l94 -30q-44 -140 -205 -140z" />
    <glyph glyph-name="Dcaron" unicode="&#x10e;" 
d="M320 766h-102l-141 156h92l100 -85l100 85h93zM86 0v700h170q65 0 117 -20t86.5 -53t57.5 -78.5t33 -95t10 -103.5q0 -51 -9 -98t-31.5 -94t-56.5 -81t-88.5 -55.5t-122.5 -21.5h-166zM188 96h72q53 0 92 22.5t60.5 60.5t31.5 80.5t10 90.5q0 106 -46 180.5t-137 74.5
h-83v-509z" />
    <glyph glyph-name="dcaron" unicode="&#x10f;" 
d="M235 -12q-103 0 -162.5 71t-59.5 197q0 124 60.5 195.5t159.5 71.5q84 0 132 -48v200l100 47v-722h-100v41q-45 -53 -130 -53zM547 469l-31 23q13 27 22 91.5t9 128.5h95v-8q0 -144 -95 -235zM248 82q81 0 117 61v228q-37 58 -118 58q-64 0 -98.5 -44.5t-34.5 -128.5
q0 -77 36 -125.5t98 -48.5z" />
    <glyph glyph-name="Dcroat" unicode="&#x110;" 
d="M256 700q65 0 117 -20t86.5 -53t57.5 -78.5t33 -95t10 -103.5q0 -51 -9 -98t-31.5 -94t-56.5 -81t-88.5 -55.5t-122.5 -21.5h-166v303h-61v94h61v303h170zM260 96q53 0 92 22.5t60.5 60.5t31.5 80.5t10 90.5q0 106 -46 180.5t-137 74.5h-83v-208h144v-94h-144v-207h72z
" />
    <glyph glyph-name="dcroat" unicode="&#x111;" 
d="M504 545v-545h-100v41q-46 -53 -127 -53q-98 0 -156 68.5t-58 183.5q0 114 59.5 182t155.5 68q80 0 126 -49v104h-129v82h129v48l100 47v-95h65v-82h-65zM291 82q75 0 113 61v195q-35 58 -112 58q-59 0 -93.5 -41.5t-34.5 -114.5q0 -66 35 -112t92 -46z" />
    <glyph glyph-name="Emacron" unicode="&#x112;" 
d="M136 788v84h330v-84h-330zM86 0v700h429v-97h-326v-193h217v-97h-217v-215h348v-98h-451z" />
    <glyph glyph-name="emacron" unicode="&#x113;" 
d="M478 682v-84h-330v84h330zM536 279q0 -38 -3 -63h-352q11 -64 46.5 -101t92.5 -37q67 0 116 46l59 -64q-72 -72 -176 -72q-111 0 -175 74.5t-64 193.5q0 125 64.5 196t174.5 71q95 0 156 -62t61 -182zM179 303h258q-3 68 -37 100t-81 32q-62 0 -97 -34.5t-43 -97.5z" />
    <glyph glyph-name="Ebreve" unicode="&#x114;" 
d="M299 767q-91 0 -138 46.5t-47 118.5h84q0 -38 27.5 -62.5t73.5 -24.5t73.5 24.5t27.5 62.5h84q0 -72 -47 -118.5t-138 -46.5zM86 0v700h429v-97h-326v-193h217v-97h-217v-215h348v-98h-451z" />
    <glyph glyph-name="ebreve" unicode="&#x115;" 
d="M313 577q-91 0 -138 46.5t-47 118.5h84q0 -38 27.5 -62.5t73.5 -24.5t73.5 24.5t27.5 62.5h84q0 -72 -47 -118.5t-138 -46.5zM536 279q0 -38 -3 -63h-352q11 -64 46.5 -101t92.5 -37q67 0 116 46l59 -64q-72 -72 -176 -72q-111 0 -175 74.5t-64 193.5q0 125 64.5 196
t174.5 71q95 0 156 -62t61 -182zM179 303h258q-3 68 -37 100t-81 32q-62 0 -97 -34.5t-43 -97.5z" />
    <glyph glyph-name="Edotaccent" unicode="&#x116;" 
d="M299 784q-25 0 -42.5 17t-17.5 43t17.5 43t42.5 17t42.5 -17t17.5 -43t-17.5 -43t-42.5 -17zM86 0v700h429v-97h-326v-193h217v-97h-217v-215h348v-98h-451z" />
    <glyph glyph-name="edotaccent" unicode="&#x117;" 
d="M313 594q-25 0 -42.5 17t-17.5 43t17.5 43t42.5 17t42.5 -17t17.5 -43t-17.5 -43t-42.5 -17zM536 279q0 -38 -3 -63h-352q11 -64 46.5 -101t92.5 -37q67 0 116 46l59 -64q-72 -72 -176 -72q-111 0 -175 74.5t-64 193.5q0 125 64.5 196t174.5 71q95 0 156 -62t61 -182z
M179 303h258q-3 68 -37 100t-81 32q-62 0 -97 -34.5t-43 -97.5z" />
    <glyph glyph-name="Eogonek" unicode="&#x118;" 
d="M419 -239q-51 0 -83.5 27.5t-32.5 75.5q0 90 110 136h-313v700h438v-97h-336v-193h212v-97h-212v-215h358v-98h-30q-57 0 -100.5 -40.5t-43.5 -85.5q0 -25 13.5 -38t32.5 -13q28 0 47 21l50 -36q-45 -47 -110 -47z" />
    <glyph glyph-name="eogonek" unicode="&#x119;" 
d="M330 -239q-51 0 -84 27.5t-33 75.5q0 78 87 125q-102 6 -161 79.5t-59 187.5q0 125 64.5 196t174.5 71q95 0 156 -62t61 -182q0 -38 -3 -63h-352q10 -64 46.5 -101t92.5 -37q67 0 116 46l59 -64q-35 -35 -90 -59q-52 -23 -80 -57.5t-28 -69.5q0 -25 13 -38t33 -13
q26 0 47 21l49 -36q-41 -47 -109 -47zM180 303h257q-3 68 -37 100t-81 32q-62 0 -97 -35t-42 -97z" />
    <glyph glyph-name="Ecaron" unicode="&#x11a;" 
d="M353 766h-102l-141 156h92l100 -85l100 85h93zM86 0v700h429v-97h-326v-193h217v-97h-217v-215h348v-98h-451z" />
    <glyph glyph-name="ecaron" unicode="&#x11b;" 
d="M364 576h-102l-141 156h92l100 -85l100 85h93zM536 279q0 -38 -3 -63h-352q11 -64 46.5 -101t92.5 -37q67 0 116 46l59 -64q-72 -72 -176 -72q-111 0 -175 74.5t-64 193.5q0 125 64.5 196t174.5 71q95 0 156 -62t61 -182zM179 303h258q-3 68 -37 100t-81 32
q-62 0 -97 -34.5t-43 -97.5z" />
    <glyph glyph-name="Gcircumflex" unicode="&#x11c;" 
d="M422 766l-100 85l-100 -85h-92l141 156h103l141 -156h-93zM322 -12q-88 0 -149.5 53.5t-88 133t-26.5 175.5q0 94 27.5 174.5t89.5 134t147 53.5q78 0 125 -35t80 -96l-91 -52q-47 87 -114 87q-55 0 -92 -42.5t-51.5 -100t-14.5 -123.5q0 -111 40.5 -188t117.5 -77
q57 0 88 39.5t31 104.5v24h-124v95h230v-90q0 -127 -63 -198.5t-162 -71.5z" />
    <glyph glyph-name="gcircumflex" unicode="&#x11d;" 
d="M425 576l-100 85l-100 -85h-92l141 156h103l141 -156h-93zM270 -207l-52 82q109 7 150.5 35.5t41.5 85.5v47q-45 -55 -128 -55q-93 0 -153.5 70t-60.5 198q0 123 59.5 195t156.5 72q79 0 126 -49v37h100v-472q0 -126 -58.5 -182t-181.5 -64zM300 82q72 0 110 63v224
q-38 60 -110 60q-64 0 -97 -44.5t-33 -128.5q0 -80 35 -127t95 -47z" />
    <glyph glyph-name="Gbreve" unicode="&#x11e;" 
d="M322 767q-91 0 -138 46.5t-47 118.5h84q0 -38 27.5 -62.5t73.5 -24.5t73.5 24.5t27.5 62.5h84q0 -72 -47 -118.5t-138 -46.5zM322 -12q-88 0 -149.5 53.5t-88 133t-26.5 175.5q0 94 27.5 174.5t89.5 134t147 53.5q78 0 125 -35t80 -96l-91 -52q-47 87 -114 87
q-55 0 -92 -42.5t-51.5 -100t-14.5 -123.5q0 -111 40.5 -188t117.5 -77q57 0 88 39.5t31 104.5v24h-124v95h230v-90q0 -127 -63 -198.5t-162 -71.5z" />
    <glyph glyph-name="gbreve" unicode="&#x11f;" 
d="M326 577q-91 0 -138 46.5t-47 118.5h84q0 -38 27.5 -62.5t73.5 -24.5t73.5 24.5t27.5 62.5h84q0 -72 -47 -118.5t-138 -46.5zM273 -207l-52 82q109 7 150.5 35.5t41.5 85.5v47q-45 -55 -128 -55q-93 0 -153.5 70t-60.5 198q0 123 59.5 195t156.5 72q79 0 126 -49v37h100
v-472q0 -126 -58.5 -182t-181.5 -64zM303 82q72 0 110 63v224q-38 60 -110 60q-64 0 -97 -44.5t-33 -128.5q0 -80 35 -127t95 -47z" />
    <glyph glyph-name="Gdotaccent" unicode="&#x120;" 
d="M320 784q-26 0 -43 17t-17 43t17 43t43 17t43 -17t17 -43t-17 -43t-43 -17zM322 -12q-88 0 -149.5 53.5t-88 133t-26.5 175.5q0 94 27.5 174.5t89.5 134t147 53.5q78 0 125 -35t80 -96l-91 -52q-47 87 -114 87q-55 0 -92 -42.5t-51.5 -100t-14.5 -123.5q0 -111 40.5 -188
t117.5 -77q57 0 88 39.5t31 104.5v24h-124v95h230v-90q0 -127 -63 -198.5t-162 -71.5z" />
    <glyph glyph-name="gdotaccent" unicode="&#x121;" 
d="M328 594q-26 0 -43 17t-17 43t17 43t43 17t43 -17t17 -43t-17 -43t-43 -17zM280 -207l-52 82q109 7 150.5 35.5t41.5 85.5v47q-45 -55 -128 -55q-93 0 -153.5 70t-60.5 198q0 123 59.5 195t156.5 72q79 0 126 -49v37h100v-472q0 -126 -58.5 -182t-181.5 -64zM310 82
q72 0 110 63v224q-38 60 -110 60q-64 0 -97 -44.5t-33 -128.5q0 -80 35 -127t95 -47z" />
    <glyph glyph-name="Gcommaaccent" unicode="&#x122;" 
d="M322 -12q-88 0 -149.5 53.5t-88 133t-26.5 175.5q0 94 27.5 174.5t89.5 134t147 53.5q78 0 125 -35t80 -96l-91 -52q-47 87 -114 87q-55 0 -92 -42.5t-51.5 -100t-14.5 -123.5q0 -111 40.5 -188t117.5 -77q57 0 88 39.5t31 104.5v24h-124v95h230v-90q0 -127 -63 -198.5
t-162 -71.5zM296 -279l-31 19q37 31 46 74q-23 3 -36.5 19t-13.5 39q0 26 18 43t42 17q25 0 43 -18.5t18 -49.5q0 -42 -23.5 -80.5t-62.5 -62.5z" />
    <glyph glyph-name="gcommaaccent" unicode="&#x123;" 
d="M311 578q-25 0 -43 18.5t-18 49.5q0 42 23.5 80.5t61.5 62.5l31 -19q-37 -31 -45 -74q23 -3 36 -19t13 -39q0 -26 -18 -43t-41 -17zM275 -207l-52 82q109 7 150.5 35.5t41.5 85.5v47q-45 -55 -128 -55q-93 0 -153.5 70t-60.5 198q0 123 59.5 195t156.5 72q79 0 126 -49
v37h100v-472q0 -126 -58.5 -182t-181.5 -64zM305 82q72 0 110 63v224q-38 60 -110 60q-64 0 -97 -44.5t-33 -128.5q0 -80 35 -127t95 -47z" />
    <glyph glyph-name="Hcircumflex" unicode="&#x124;" 
d="M408 766l-100 85l-100 -85h-92l141 156h103l141 -156h-93zM86 0v700h103v-289h239v289h102v-700h-102v314h-239v-314h-103z" />
    <glyph glyph-name="hcircumflex" unicode="&#x125;" 
d="M416 765l-100 85l-100 -85h-92l141 156h103l141 -156h-93zM93 0v676l100 46v-263q49 64 142 64q189 0 189 -220v-303h-100v296q0 70 -31 101.5t-81 31.5q-119 0 -119 -131v-298h-100z" />
    <glyph glyph-name="Hbar" unicode="&#x126;" 
d="M428 0v314h-239v-314h-103v515h-76v97h76v88h103v-88h239v88h102v-88h76v-97h-76v-515h-102zM428 411v104h-239v-104h239z" />
    <glyph glyph-name="hbar" unicode="&#x127;" 
d="M153 0v545h-61v82h61v49l100 46v-95h144v-82h-144v-118q47 64 135 64q180 0 180 -220v-271h-100v274q0 64 -28 93.5t-75 29.5q-112 0 -112 -121v-276h-100z" />
    <glyph glyph-name="Itilde" unicode="&#x128;" 
d="M222 831q-44 0 -47 -44h-50q0 124 104 124q39 0 91 -24.5t74 -24.5q20 0 33 11.5t14 33.5h50q0 -124 -104 -124q-38 0 -90.5 24t-74.5 24zM512 608h-154v-516h154v-92h-409v92h153v516h-153v92h409v-92z" />
    <glyph glyph-name="itilde" unicode="&#x129;" 
d="M207 641q-44 0 -47 -44h-50q0 124 104 124q39 0 91 -24.5t74 -24.5q20 0 33 11.5t14 33.5h50q0 -124 -104 -124q-38 0 -90.5 24t-74.5 24zM366 89h141v-89h-382v89h141v342h-141v89h241v-431z" />
    <glyph glyph-name="Imacron" unicode="&#x12a;" 
d="M473 872v-84h-330v84h330zM513 608h-154v-516h154v-92h-409v92h153v516h-153v92h409v-92z" />
    <glyph glyph-name="imacron" unicode="&#x12b;" 
d="M442 682v-84h-330v84h330zM366 89h141v-89h-382v89h141v342h-141v89h241v-431z" />
    <glyph glyph-name="Ibreve" unicode="&#x12c;" 
d="M308 767q-91 0 -138 46.5t-47 118.5h84q0 -38 27.5 -62.5t73.5 -24.5t73.5 24.5t27.5 62.5h84q0 -72 -47 -118.5t-138 -46.5zM513 608h-154v-516h154v-92h-409v92h153v516h-153v92h409v-92z" />
    <glyph glyph-name="ibreve" unicode="&#x12d;" 
d="M288 577q-91 0 -138 46.5t-47 118.5h84q0 -38 27.5 -62.5t73.5 -24.5t73.5 24.5t27.5 62.5h84q0 -72 -47 -118.5t-138 -46.5zM366 89h141v-89h-382v89h141v342h-141v89h241v-431z" />
    <glyph glyph-name="Iogonek" unicode="&#x12e;" 
d="M341 -239q-51 0 -83.5 27.5t-32.5 75.5q0 90 110 136h-231v92h153v516h-153v92h409v-92h-154v-516h154v-92h-51q-68 0 -111 -40.5t-43 -85.5q0 -25 13.5 -38t32.5 -13q28 0 47 21l50 -36q-43 -47 -110 -47z" />
    <glyph glyph-name="iogonek" unicode="&#x12f;" 
d="M316 594q-26 0 -43.5 18t-17.5 43t17.5 43t43.5 18t43.5 -17.5t17.5 -43.5t-17.5 -43.5t-43.5 -17.5zM332 -239q-51 0 -83.5 27.5t-32.5 75.5q0 88 110 136h-201v89h141v334h-141v88h241v-422h141v-89h-55q-68 0 -110.5 -41t-42.5 -85q0 -25 13.5 -38t32.5 -13
q28 0 47 21l50 -36q-43 -47 -110 -47z" />
    <glyph glyph-name="Idotaccent" unicode="&#x130;" 
d="M308 784q-26 0 -43 17t-17 43t17 43t43 17t43 -17t17 -43t-17 -43t-43 -17zM513 608h-154v-516h154v-92h-409v92h153v516h-153v92h409v-92z" />
    <glyph glyph-name="dotlessi" unicode="&#x131;" 
d="M366 89h141v-89h-382v89h141v342h-141v89h241v-431z" />
    <glyph glyph-name="IJ" unicode="&#x132;" horiz-adv-x="1232" 
d="M513 700v-92h-154v-516h154v-92h-409v92h153v516h-153v92h409zM1040 700h103v-467q0 -70 -20.5 -120.5t-55.5 -76t-72 -37t-78 -11.5q-153 0 -212 137l86 42q22 -43 49.5 -62.5t76.5 -19.5q53 0 88 33.5t35 114.5v467z" />
    <glyph glyph-name="ij" unicode="&#x133;" horiz-adv-x="1232" 
d="M316 594q-26 0 -43.5 18t-17.5 43t17.5 43t43.5 18t43.5 -17.5t17.5 -43.5t-17.5 -43.5t-43.5 -17.5zM976 594q-26 0 -43.5 18t-17.5 43t17.5 43t43.5 18t43.5 -17.5t17.5 -43.5t-17.5 -43.5t-43.5 -17.5zM366 511v-422h141v-89h-382v89h141v334h-141v88h241zM1026 511
v-513q0 -102 -49 -150t-157 -62l-49 82q90 13 122.5 40t32.5 88v427h-141v88h241z" />
    <glyph glyph-name="Jcircumflex" unicode="&#x134;" 
d="M539 766l-100 85l-100 -85h-92l141 156h103l141 -156h-93zM264 -12q-153 0 -212 137l86 42q22 -43 49.5 -62.5t76.5 -19.5q53 0 88 33.5t35 114.5v467h103v-467q0 -70 -20.5 -120.5t-55.5 -76t-72 -37t-78 -11.5z" />
    <glyph glyph-name="jcircumflex" unicode="&#x135;" 
d="M375 732l141 -156h-93l-100 85l-100 -85h-92l141 156h103zM410 511v-513q0 -98 -45 -146q-54 -54 -161 -66l-49 82q90 13 122.5 40t32.5 88v427h-141v88h241z" />
    <glyph glyph-name="Kcommaaccent" unicode="&#x136;" 
d="M331 453l243 -453h-118l-194 366l-73 -91v-275h-103v700h103v-282l221 282h119zM315 -68q25 0 43 -18.5t18 -49.5q0 -42 -23.5 -80.5t-62.5 -62.5l-31 19q37 31 46 74q-23 3 -36.5 19t-13.5 39q0 26 18 43t42 17z" />
    <glyph glyph-name="kcommaaccent" unicode="&#x137;" 
d="M352 368l189 -368h-110l-151 296l-85 -84v-212h-100v675l100 47v-397l183 186h118zM302 -68q25 0 43 -18.5t18 -49.5q0 -42 -23.5 -80.5t-62.5 -62.5l-31 19q37 31 46 74q-23 3 -36.5 19t-13.5 39q0 26 18 43t42 17z" />
    <glyph glyph-name="kgreenlandic" unicode="&#x138;" 
d="M432 0l-129 240l-87 -107v-133h-100v511h100v-246l195 246h110l-152 -189l175 -322h-112z" />
    <glyph glyph-name="Lacute" unicode="&#x139;" 
d="M72 769l142 156h134l-178 -156h-98zM98 0v700h103v-601h328v-99h-431z" />
    <glyph glyph-name="lacute" unicode="&#x13a;" 
d="M493 912l-178 -156h-98l142 156h134zM358 89h146v-89h-393v89h147v545h-121l-46 88h267v-633z" />
    <glyph glyph-name="Lcommaaccent" unicode="&#x13b;" 
d="M86 0v700h103v-601h328v-99h-431zM277 -279l-31 19q37 31 46 74q-23 3 -36.5 19t-13.5 39q0 26 18 43t42 17q25 0 43 -18.5t18 -49.5q0 -42 -23.5 -80.5t-62.5 -62.5z" />
    <glyph glyph-name="lcommaaccent" unicode="&#x13c;" 
d="M358 89h146v-89h-393v89h147v545h-121l-46 88h267v-633zM308 -68q25 0 43 -18.5t18 -49.5q0 -42 -23.5 -80.5t-62.5 -62.5l-31 19q37 31 46 74q-23 3 -36.5 19t-13.5 39q0 26 18 43t42 17z" />
    <glyph glyph-name="Lcaron" unicode="&#x13d;" 
d="M123 0v700h103v-601h328v-99h-431zM328 457l-31 23q13 27 22 91.5t9 128.5h95v-8q0 -144 -95 -235z" />
    <glyph glyph-name="lcaron" unicode="&#x13e;" 
d="M358 722v-633h146v-89h-393v89h147v545h-121l-46 88h267zM454 722h95v-8q0 -144 -95 -235l-31 23q13 27 22 91.5t9 128.5z" />
    <glyph glyph-name="Ldot" unicode="&#x13f;" 
d="M86 0v700h103v-601h328v-99h-431zM446 277q-31 0 -52.5 21.5t-21.5 50.5q0 30 21.5 51.5t52.5 21.5t52.5 -21.5t21.5 -51.5q0 -29 -21.5 -50.5t-52.5 -21.5z" />
    <glyph glyph-name="ldot" unicode="&#x140;" 
d="M358 722v-633h146v-89h-393v89h147v545h-121l-46 88h267zM616 422q31 0 52.5 -21.5t21.5 -51.5q0 -29 -21.5 -50.5t-52.5 -21.5t-52.5 21.5t-21.5 50.5q0 30 21.5 51.5t52.5 21.5z" />
    <glyph glyph-name="Lslash" unicode="&#x141;" 
d="M121 0v241l-71 -53v112l71 53v347h102v-267l127 96v-112l-127 -96v-222h333v-99h-435z" />
    <glyph glyph-name="lslash" unicode="&#x142;" 
d="M358 89h146v-89h-393v89h147v166l-76 -58v94l76 58v285h-121l-46 88h267v-296l76 58v-94l-76 -58v-243z" />
    <glyph glyph-name="Nacute" unicode="&#x143;" 
d="M239 769l142 156h134l-178 -156h-98zM86 0v700h99l229 -461q14 -26 21 -43q-2 38 -2 43v461h97v-700h-95l-232 459l-6.5 13l-8.5 17l-7 14q2 -16 2 -43v-460h-97z" />
    <glyph glyph-name="nacute" unicode="&#x144;" 
d="M496 732l-178 -156h-98l142 156h134zM335 523q189 0 189 -220v-303h-100v296q0 133 -112 133q-119 0 -119 -131v-298h-100v511h93v-62q19 33 59 53.5t90 20.5z" />
    <glyph glyph-name="Ncommaaccent" unicode="&#x145;" 
d="M86 0v700h99l229 -461q14 -26 21 -43q-2 38 -2 43v461h97v-700h-95l-232 459l-6.5 13l-8.5 17l-7 14q2 -16 2 -43v-460h-97zM285 -279l-31 19q37 31 46 74q-23 3 -36.5 19t-13.5 39q0 26 18 43t42 17q25 0 43 -18.5t18 -49.5q0 -42 -23.5 -80.5t-62.5 -62.5z" />
    <glyph glyph-name="ncommaaccent" unicode="&#x146;" 
d="M335 523q189 0 189 -220v-303h-100v296q0 133 -112 133q-119 0 -119 -131v-298h-100v511h93v-62q19 33 59 53.5t90 20.5zM308 -68q25 0 43 -18.5t18 -49.5q0 -42 -23.5 -80.5t-62.5 -62.5l-31 19q37 31 46 74q-23 3 -36.5 19t-13.5 39q0 26 18 43t42 17z" />
    <glyph glyph-name="Ncaron" unicode="&#x147;" 
d="M364 766h-102l-141 156h92l100 -85l100 85h93zM86 0v700h99l229 -461q14 -26 21 -43q-2 38 -2 43v461h97v-700h-95l-232 459l-6.5 13l-8.5 17l-7 14q2 -16 2 -43v-460h-97z" />
    <glyph glyph-name="ncaron" unicode="&#x148;" 
d="M367 576h-102l-141 156h92l100 -85l100 85h93zM332 523q189 0 189 -220v-303h-100v296q0 133 -112 133q-119 0 -119 -131v-298h-100v511h93v-62q19 33 59 53.5t90 20.5z" />
    <glyph glyph-name="napostrophe" unicode="&#x149;" 
d="M39 752q33 0 55 -24t22 -68q0 -68 -32.5 -128.5t-73.5 -91.5l-47 26q57 64 64 142q-28 5 -45 23t-17 47q0 33 22 53.5t52 20.5zM427 523q189 0 189 -220v-303h-100v296q0 133 -112 133q-119 0 -119 -131v-298h-100v511h93v-62q19 33 59 53.5t90 20.5z" />
    <glyph glyph-name="Eng" unicode="&#x14a;" 
d="M361 -244l-49 80q74 11 104.5 42t30.5 78v54l-257 449q-12 20 -22 44q2 -16 2 -43v-460h-102v700h99l260 -461q18 -33 22 -43q-2 38 -2 43v461h102v-722q0 -96 -45 -150.5t-143 -71.5z" />
    <glyph glyph-name="eng" unicode="&#x14b;" 
d="M341 -229l-49 79q73 12 102.5 36.5t29.5 66.5v343q0 133 -112 133q-119 0 -119 -131v-298h-100v511h100v-52q47 64 142 64q189 0 189 -220v-320q0 -92 -39 -139q-48 -59 -144 -73z" />
    <glyph glyph-name="Omacron" unicode="&#x14c;" 
d="M144 788v84h330v-84h-330zM308 -12q-65 0 -115 30.5t-79 82.5t-43.5 115t-14.5 134t14.5 134t43.5 115t79 82.5t115 30.5q66 0 116 -30.5t79 -82.5t43 -115t14 -134t-14 -134t-43 -115t-79 -82.5t-116 -30.5zM308 85q49 0 83.5 40t48.5 98t14 127q0 115 -36 190.5
t-110 75.5q-49 0 -83 -40.5t-48 -98.5t-14 -127q0 -114 36 -189.5t109 -75.5z" />
    <glyph glyph-name="omacron" unicode="&#x14d;" 
d="M143 598v84h330v-84h-330zM308 -12q-111 0 -176.5 71.5t-65.5 195.5t65.5 196t176.5 72t176.5 -72t65.5 -195q0 -124 -65.5 -196t-176.5 -72zM308 82q67 0 104 47t37 127t-36.5 126.5t-104.5 46.5t-104 -45.5t-36 -128.5q0 -80 36.5 -126.5t103.5 -46.5z" />
    <glyph glyph-name="Obreve" unicode="&#x14e;" 
d="M308 767q-91 0 -138 46.5t-47 118.5h84q0 -38 27.5 -62.5t73.5 -24.5t73.5 24.5t27.5 62.5h84q0 -72 -47 -118.5t-138 -46.5zM308 -12q-65 0 -115 30.5t-79 82.5t-43.5 115t-14.5 134t14.5 134t43.5 115t79 82.5t115 30.5q66 0 116 -30.5t79 -82.5t43 -115t14 -134
t-14 -134t-43 -115t-79 -82.5t-116 -30.5zM308 85q49 0 83.5 40t48.5 98t14 127q0 115 -36 190.5t-110 75.5q-49 0 -83 -40.5t-48 -98.5t-14 -127q0 -114 36 -189.5t109 -75.5z" />
    <glyph glyph-name="obreve" unicode="&#x14f;" 
d="M308 577q-91 0 -138 46.5t-47 118.5h84q0 -38 27.5 -62.5t73.5 -24.5t73.5 24.5t27.5 62.5h84q0 -72 -47 -118.5t-138 -46.5zM308 -12q-111 0 -176.5 71.5t-65.5 195.5t65.5 196t176.5 72t176.5 -72t65.5 -195q0 -124 -65.5 -196t-176.5 -72zM308 82q67 0 104 47t37 127
t-36.5 126.5t-104.5 46.5t-104 -45.5t-36 -128.5q0 -80 36.5 -126.5t103.5 -46.5z" />
    <glyph glyph-name="Ohungarumlaut" unicode="&#x150;" 
d="M238 766h-99l142 156h135zM447 766h-99l142 156h135zM308 -12q-65 0 -115 30.5t-79 82.5t-43.5 115t-14.5 134t14.5 134t43.5 115t79 82.5t115 30.5q66 0 116 -30.5t79 -82.5t43 -115t14 -134t-14 -134t-43 -115t-79 -82.5t-116 -30.5zM308 85q49 0 83.5 40t48.5 98
t14 127q0 115 -36 190.5t-110 75.5q-49 0 -83 -40.5t-48 -98.5t-14 -127q0 -114 36 -189.5t109 -75.5z" />
    <glyph glyph-name="ohungarumlaut" unicode="&#x151;" 
d="M217 576h-99l142 156h135zM426 576h-99l142 156h135zM308 -12q-111 0 -176.5 71.5t-65.5 195.5t65.5 196t176.5 72t176.5 -72t65.5 -195q0 -124 -65.5 -196t-176.5 -72zM308 82q67 0 104 47t37 127t-36.5 126.5t-104.5 46.5t-104 -45.5t-36 -128.5q0 -80 36.5 -126.5
t103.5 -46.5z" />
    <glyph glyph-name="OE" unicode="&#x152;" 
d="M606 98v-98h-295q-29 -12 -65 -12q-80 0 -134.5 54t-76.5 132.5t-22 176.5q0 72 13 135t40 115.5t73 82.5t107 30q36 0 65 -12h286v-97h-186v-183h139v-97h-139v-227h195zM246 85q35 0 63 31v471q-26 31 -63 31q-34 0 -59.5 -23t-40 -61.5t-22 -84.5t-7.5 -98
q0 -115 32 -190.5t97 -75.5z" />
    <glyph glyph-name="oe" unicode="&#x153;" 
d="M183 -12q-76 0 -119.5 70t-43.5 197q0 126 44 197t120 71q83 0 127 -92q43 92 132 92q65 0 108.5 -62.5t43.5 -181.5q0 -34 -4 -63h-244q5 -64 30 -105.5t65 -41.5q41 0 80 55l42 -64q-53 -72 -126 -72q-83 0 -129 86q-43 -86 -126 -86zM183 69q40 0 62 50t22 137
t-21.5 137t-62.5 50q-38 0 -59.5 -49.5t-21.5 -138.5q0 -86 21.5 -136t59.5 -50zM346 295h169q-1 76 -22.5 112t-54.5 36q-37 0 -62.5 -37t-29.5 -111z" />
    <glyph glyph-name="Racute" unicode="&#x154;" 
d="M506 921l-178 -156h-98l142 156h134zM539 495q0 -68 -37 -122.5t-110 -75.5l145 -297h-114l-140 287h-94v-287h-103v700h228q119 0 172 -58t53 -147zM189 605v-222h127q63 0 91.5 31.5t28.5 78.5q0 45 -27.5 78.5t-92.5 33.5h-127z" />
    <glyph glyph-name="racute" unicode="&#x155;" 
d="M505 732l-178 -156h-98l142 156h134zM437 523q71 0 116 -26v-183h-98v113q-7 1 -21 1q-77 0 -125.5 -38t-48.5 -109v-192h146v-89h-355v89h107v334h-107v88h202v-84q24 44 75.5 70t108.5 26z" />
    <glyph glyph-name="Rcommaaccent" unicode="&#x156;" 
d="M539 495q0 -68 -37 -122.5t-110 -75.5l145 -297h-114l-140 287h-94v-287h-103v700h228q119 0 172 -58t53 -147zM189 605v-222h127q63 0 91.5 31.5t28.5 78.5q0 45 -27.5 78.5t-92.5 33.5h-127zM306 -68q25 0 43 -18.5t18 -49.5q0 -42 -23.5 -80.5t-62.5 -62.5l-31 19
q37 31 46 74q-23 3 -36.5 19t-13.5 39q0 26 18 43t42 17z" />
    <glyph glyph-name="rcommaaccent" unicode="&#x157;" 
d="M441 523q71 0 116 -26v-183h-98v113q-7 1 -21 1q-77 0 -125.5 -38t-48.5 -109v-192h146v-89h-355v89h107v334h-107v88h202v-84q24 44 75.5 70t108.5 26zM228 -78q25 0 43 -18.5t18 -49.5q0 -42 -23.5 -80.5t-62.5 -62.5l-31 19q37 31 46 74q-23 3 -36.5 19t-13.5 39
q0 26 18 43t42 17z" />
    <glyph glyph-name="Rcaron" unicode="&#x158;" 
d="M359 761h-102l-141 156h92l100 -85l100 85h93zM539 495q0 -68 -37 -122.5t-110 -75.5l145 -297h-114l-140 287h-94v-287h-103v700h228q119 0 172 -58t53 -147zM189 605v-222h127q63 0 91.5 31.5t28.5 78.5q0 45 -27.5 78.5t-92.5 33.5h-127z" />
    <glyph glyph-name="rcaron" unicode="&#x159;" 
d="M359 576h-102l-141 156h92l100 -85l100 85h93zM434 523q71 0 116 -26v-183h-98v113q-7 1 -21 1q-77 0 -125.5 -38t-48.5 -109v-192h146v-89h-355v89h107v334h-107v88h202v-84q24 44 75.5 70t108.5 26z" />
    <glyph glyph-name="Sacute" unicode="&#x15a;" 
d="M234 766l142 156h134l-178 -156h-98zM315 -12q-83 0 -147 46.5t-90 120.5l95 35q21 -48 60.5 -77t88.5 -29q51 0 80.5 27t29.5 78q0 45 -38 77.5t-104 61.5q-42 18 -68 33t-58 40t-47.5 58t-15.5 75q0 75 56.5 126.5t149.5 51.5q74 0 127.5 -38t70.5 -98l-93 -31
q-14 31 -42.5 51.5t-67.5 20.5q-43 0 -70 -22.5t-27 -60.5q0 -20 9.5 -36t30.5 -30.5t38 -23t50 -23.5l3 -1.5t3 -1t3 -1.5q40 -19 68 -35.5t60 -43.5t49 -64t17 -82q0 -94 -63 -149t-158 -55z" />
    <glyph glyph-name="sacute" unicode="&#x15b;" 
d="M232 576l142 156h134l-178 -156h-98zM308 -12q-61 0 -113.5 24.5t-85.5 66.5l67 59q60 -64 139 -64q40 0 65.5 15.5t25.5 44.5q0 41 -113 87l-3 1.5l-3 1.5t-3.5 1.5t-3.5 1.5q-43 18 -66 29.5t-49 30.5t-37.5 43t-11.5 56q0 63 53.5 100t135.5 37q114 0 184 -80l-66 -55
q-55 49 -122 49q-41 0 -66 -14t-25 -38q0 -35 110 -78l6 -3q36 -14 52 -21t44.5 -23t42 -31t24.5 -39.5t11 -53.5q0 -69 -52 -108.5t-140 -39.5z" />
    <glyph glyph-name="Scircumflex" unicode="&#x15c;" 
d="M409 766l-100 85l-100 -85h-92l141 156h103l141 -156h-93zM315 -12q-83 0 -147 46.5t-90 120.5l95 35q21 -48 60.5 -77t88.5 -29q51 0 80.5 27t29.5 78q0 45 -38 77.5t-104 61.5q-42 18 -68 33t-58 40t-47.5 58t-15.5 75q0 75 56.5 126.5t149.5 51.5q74 0 127.5 -38
t70.5 -98l-93 -31q-14 31 -42.5 51.5t-67.5 20.5q-43 0 -70 -22.5t-27 -60.5q0 -20 9.5 -36t30.5 -30.5t38 -23t50 -23.5l3 -1.5t3 -1t3 -1.5q40 -19 68 -35.5t60 -43.5t49 -64t17 -82q0 -94 -63 -149t-158 -55z" />
    <glyph glyph-name="scircumflex" unicode="&#x15d;" 
d="M408 576l-100 85l-100 -85h-92l141 156h103l141 -156h-93zM309 -12q-61 0 -113.5 24.5t-85.5 66.5l67 59q60 -64 139 -64q40 0 65.5 15.5t25.5 44.5q0 41 -113 87l-3 1.5l-3 1.5t-3.5 1.5t-3.5 1.5q-43 18 -66 29.5t-49 30.5t-37.5 43t-11.5 56q0 63 53.5 100t135.5 37
q114 0 184 -80l-66 -55q-55 49 -122 49q-41 0 -66 -14t-25 -38q0 -35 110 -78l6 -3q36 -14 52 -21t44.5 -23t42 -31t24.5 -39.5t11 -53.5q0 -69 -52 -108.5t-140 -39.5z" />
    <glyph glyph-name="Scedilla" unicode="&#x15e;" 
d="M333 -239q-65 0 -99 37l51 36q11 -14 38 -14q23 0 37 12.5t14 32.5q0 18 -16 30.5t-39 12.5t-40 -9l-19 24l53 66q-82 6 -143 51.5t-85 114.5l95 35q22 -48 64 -76.5t96 -28.5q61 0 95.5 27t34.5 79q0 48 -39 78.5t-110 55.5q-38 14 -61.5 23.5t-55.5 28.5t-50.5 39
t-32 50.5t-13.5 67.5q0 76 60 127t162 51q83 0 139.5 -37.5t74.5 -98.5l-93 -31q-33 71 -127 71q-52 0 -81.5 -22t-29.5 -60q0 -39 36.5 -63.5t106.5 -49.5q37 -13 62 -24t57.5 -31t52 -42.5t33.5 -56.5t14 -75q0 -87 -55.5 -140t-147.5 -62l-24 -41q55 0 82 -24t27 -61
q0 -46 -34 -74.5t-90 -28.5z" />
    <glyph glyph-name="scedilla" unicode="&#x15f;" 
d="M316 -239q-65 0 -99 37l51 36q11 -14 39 -14q23 0 36.5 12.5t13.5 32.5q0 18 -16 30.5t-39 12.5q-22 0 -39 -9l-20 24l54 68q-100 16 -155 88l68 58q56 -63 126 -63q40 0 64.5 15t24.5 45q0 23 -18.5 41t-37.5 27t-63 26q-78 30 -116.5 63.5t-38.5 94.5q0 63 49.5 100
t125.5 37q109 0 177 -80l-67 -55q-51 49 -111 49q-37 0 -59 -14t-22 -38q0 -27 27.5 -44t81.5 -36q29 -11 49 -19.5t44 -23.5t38 -31.5t24 -41t10 -53.5q0 -64 -43.5 -102.5t-118.5 -44.5l-24 -40q55 0 82 -24t27 -61q0 -46 -34 -74.5t-91 -28.5z" />
    <glyph glyph-name="Scaron" unicode="&#x160;" 
d="M257 761l-141 156h92l100 -85l100 85h93l-142 -156h-102zM315 -12q-83 0 -147 46.5t-90 120.5l95 35q21 -48 60.5 -77t88.5 -29q51 0 80.5 27t29.5 78q0 45 -38 77.5t-104 61.5q-42 18 -68 33t-58 40t-47.5 58t-15.5 75q0 75 56.5 126.5t149.5 51.5q74 0 127.5 -38
t70.5 -98l-93 -31q-14 31 -42.5 51.5t-67.5 20.5q-43 0 -70 -22.5t-27 -60.5q0 -20 9.5 -36t30.5 -30.5t38 -23t50 -23.5l3 -1.5t3 -1t3 -1.5q40 -19 68 -35.5t60 -43.5t49 -64t17 -82q0 -94 -63 -149t-158 -55z" />
    <glyph glyph-name="scaron" unicode="&#x161;" 
d="M359 576h-102l-141 156h92l100 -85l100 85h93zM308 -12q-61 0 -113.5 24.5t-85.5 66.5l67 59q60 -64 139 -64q40 0 65.5 15.5t25.5 44.5q0 41 -113 87l-3 1.5l-3 1.5t-3.5 1.5t-3.5 1.5q-43 18 -66 29.5t-49 30.5t-37.5 43t-11.5 56q0 63 53.5 100t135.5 37
q114 0 184 -80l-66 -55q-55 49 -122 49q-41 0 -66 -14t-25 -38q0 -35 110 -78l6 -3q36 -14 52 -21t44.5 -23t42 -31t24.5 -39.5t11 -53.5q0 -69 -52 -108.5t-140 -39.5z" />
    <glyph glyph-name="uni0162" unicode="&#x162;" 
d="M312 -239q-65 0 -99 37l51 36q11 -14 39 -14q23 0 36.5 12.5t13.5 32.5q0 18 -15.5 30.5t-39.5 12.5q-22 0 -39 -9l-20 24l63 77h-24v603h-196v97h495v-97h-196v-603h-22l-31 -51q55 0 82 -24t27 -61q0 -46 -34 -74.5t-91 -28.5z" />
    <glyph glyph-name="uni0163" unicode="&#x163;" 
d="M339 -239q-65 0 -99 37l51 36q11 -14 39 -14q22 0 36 12.5t14 32.5q0 18 -15.5 30.5t-39.5 12.5q-23 0 -39 -9l-20 24l58 72q-67 22 -67 119v309h-80v88h80v163l100 48v-211h122v-88h-122v-284q0 -61 45 -61q36 0 81 26l-12 -93q-37 -19 -79 -22h-13l-24 -40q55 0 82 -24
t27 -61q0 -46 -34 -74.5t-91 -28.5z" />
    <glyph glyph-name="Tcaron" unicode="&#x164;" 
d="M257 761l-141 156h92l100 -85l100 85h93l-142 -156h-102zM257 0v602h-203v98h508v-98h-203v-602h-102z" />
    <glyph glyph-name="tcaron" unicode="&#x165;" 
d="M399 597l-31 23q13 27 22 91.5t9 128.5h95v-8q0 -144 -95 -235zM327 -12q-140 0 -140 134v301h-112v88h112v163l100 48v-211h172v-88h-172v-277q0 -34 16 -51t57 -17q45 0 90 26l-11 -93q-44 -23 -112 -23z" />
    <glyph glyph-name="Tbar" unicode="&#x166;" 
d="M256 0v270h-121v96h121v236h-196v98h495v-98h-196v-236h121v-96h-121v-270h-103z" />
    <glyph glyph-name="tbar" unicode="&#x167;" 
d="M488 217h-173v-71q0 -34 16 -51t57 -17q45 0 90 26l-11 -93q-44 -23 -112 -23q-140 0 -140 134v95h-112v88h112v118h-112v88h112v163l100 48v-211h172v-88h-172v-118h173v-88z" />
    <glyph glyph-name="Utilde" unicode="&#x168;" 
d="M387 783q-38 0 -90.5 24t-74.5 24q-44 0 -47 -44h-50q0 124 104 124q39 0 91 -24.5t74 -24.5q20 0 33 11.5t14 33.5h50q0 -124 -104 -124zM308 -12q-105 0 -168 66.5t-63 211.5v434h103v-434q0 -181 128 -181q129 0 129 181v434h102v-434q0 -144 -62.5 -211t-168.5 -67z
" />
    <glyph glyph-name="utilde" unicode="&#x169;" 
d="M387 593q-38 0 -90.5 24t-74.5 24q-44 0 -47 -44h-50q0 124 104 124q39 0 91 -24.5t74 -24.5q20 0 33 11.5t14 33.5h50q0 -124 -104 -124zM284 -12q-192 0 -192 224v299h101v-292q0 -71 30.5 -103.5t80.5 -32.5q119 0 119 134v294h101v-511h-101v50q-48 -62 -139 -62z
" />
    <glyph glyph-name="Umacron" unicode="&#x16a;" 
d="M143 788v84h330v-84h-330zM308 -12q-105 0 -168 66.5t-63 211.5v434h103v-434q0 -181 128 -181q129 0 129 181v434h102v-434q0 -144 -62.5 -211t-168.5 -67z" />
    <glyph glyph-name="umacron" unicode="&#x16b;" 
d="M142 598v84h330v-84h-330zM284 -12q-192 0 -192 224v299h101v-292q0 -71 30.5 -103.5t80.5 -32.5q119 0 119 134v294h101v-511h-101v50q-48 -62 -139 -62z" />
    <glyph glyph-name="Ubreve" unicode="&#x16c;" 
d="M308 767q-91 0 -138 46.5t-47 118.5h84q0 -38 27.5 -62.5t73.5 -24.5t73.5 24.5t27.5 62.5h84q0 -72 -47 -118.5t-138 -46.5zM308 -12q-105 0 -168 66.5t-63 211.5v434h103v-434q0 -181 128 -181q129 0 129 181v434h102v-434q0 -144 -62.5 -211t-168.5 -67z" />
    <glyph glyph-name="ubreve" unicode="&#x16d;" 
d="M307 577q-91 0 -138 46.5t-47 118.5h84q0 -38 27.5 -62.5t73.5 -24.5t73.5 24.5t27.5 62.5h84q0 -72 -47 -118.5t-138 -46.5zM284 -12q-192 0 -192 224v299h101v-292q0 -71 30.5 -103.5t80.5 -32.5q119 0 119 134v294h101v-511h-101v50q-48 -62 -139 -62z" />
    <glyph glyph-name="Uring" unicode="&#x16e;" 
d="M308 723q-50 0 -86 35.5t-36 85.5t36 85t86 35q51 0 87 -35t36 -85q0 -49 -36.5 -85t-86.5 -36zM308 793q20 0 34 14.5t14 36.5t-14 36t-34 14t-33.5 -14t-13.5 -36t13.5 -36.5t33.5 -14.5zM308 -12q-105 0 -168 66.5t-63 211.5v434h103v-434q0 -181 128 -181
q129 0 129 181v434h102v-434q0 -144 -62.5 -211t-168.5 -67z" />
    <glyph glyph-name="uring" unicode="&#x16f;" 
d="M308 533q-50 0 -86 35.5t-36 85.5t36 85t86 35q51 0 87 -35t36 -85q0 -49 -36.5 -85t-86.5 -36zM308 603q20 0 34 14.5t14 36.5t-14 36t-34 14t-33.5 -14t-13.5 -36t13.5 -36.5t33.5 -14.5zM284 -12q-192 0 -192 224v299h101v-292q0 -71 30.5 -103.5t80.5 -32.5
q119 0 119 134v294h101v-511h-101v50q-48 -62 -139 -62z" />
    <glyph glyph-name="Uhungarumlaut" unicode="&#x170;" 
d="M217 766h-99l142 156h135zM426 766h-99l142 156h135zM300 -12q-105 0 -168 66.5t-63 211.5v434h103v-434q0 -181 128 -181q129 0 129 181v434h102v-434q0 -144 -62.5 -211t-168.5 -67z" />
    <glyph glyph-name="uhungarumlaut" unicode="&#x171;" 
d="M210 576h-99l142 156h135zM419 576h-99l142 156h135zM262 -12q-192 0 -192 224v299h101v-292q0 -71 30.5 -103.5t80.5 -32.5q119 0 119 134v294h101v-511h-101v50q-48 -62 -139 -62z" />
    <glyph glyph-name="Uogonek" unicode="&#x172;" 
d="M437 700h102v-434q0 -211 -138 -263q-57 -26 -84.5 -60t-27.5 -69q0 -25 13.5 -38t32.5 -13q28 0 47 21l50 -36q-43 -47 -110 -47q-51 0 -83.5 27.5t-32.5 75.5q0 78 86 124q-99 5 -157 72t-58 206v434h103v-434q0 -181 128 -181q129 0 129 181v434z" />
    <glyph glyph-name="uogonek" unicode="&#x173;" 
d="M419 -249q-53 0 -86 27.5t-33 75.5t32 86.5t91 59.5v50q-48 -62 -139 -62q-192 0 -192 224v299h101v-292q0 -71 30.5 -103.5t80.5 -32.5q119 0 119 134v294h101v-511q-67 -14 -104 -54t-37 -82q0 -25 13.5 -38t32.5 -13q28 0 47 21l50 -36q-43 -47 -107 -47z" />
    <glyph glyph-name="Wcircumflex" unicode="&#x174;" 
d="M408 766l-100 85l-100 -85h-92l141 156h103l141 -156h-93zM133 0l-107 700h94l61 -439l6 -47q3 24 9 47l81 439h63l82 -436q6 -25 9 -44q1 9 3 23.5t2 19.5l56 437h98l-107 -700h-82l-85 444q-3 14 -8 48q-2 -15 -8 -47l-85 -445h-82z" />
    <glyph glyph-name="wcircumflex" unicode="&#x175;" 
d="M408 576l-100 85l-100 -85h-92l141 156h103l141 -156h-93zM150 0l-130 511h94l70 -297q6 -24 9 -46q7 37 9 47l67 296h78l68 -296q2 -8 9 -50q4 26 10 50l68 296h94l-130 -511h-80l-66 287q-11 57 -12 61q-2 -11 -7 -32t-6 -28l-64 -288h-81z" />
    <glyph glyph-name="Ycircumflex" unicode="&#x176;" 
d="M308 851l-100 -85h-92l141 156h103l141 -156h-93zM451 700h112l-203 -425v-275h-102v275l-204 425h114l141 -319z" />
    <glyph glyph-name="ycircumflex" unicode="&#x177;" 
d="M406 576l-100 85l-100 -85h-92l141 156h103l141 -156h-93zM180 -194l77 206l-189 499h102l120 -329q7 -20 16 -49q5 17 17 49l121 329h104l-266 -705h-102z" />
    <glyph glyph-name="Ydieresis" unicode="&#x178;" 
d="M219 784q-25 0 -42.5 17t-17.5 43t17.5 43t42.5 17t42.5 -17t17.5 -43t-17.5 -43t-42.5 -17zM397 784q-25 0 -42.5 17t-17.5 43t17.5 43t42.5 17t42.5 -17t17.5 -43t-17.5 -43t-42.5 -17zM451 700h112l-203 -425v-275h-102v275l-204 425h114l141 -319z" />
    <glyph glyph-name="Zacute" unicode="&#x179;" 
d="M516 925l-178 -156h-98l142 156h134zM540 700v-77l-331 -526h329v-97h-461v76l329 527h-306v97h440z" />
    <glyph glyph-name="zacute" unicode="&#x17a;" 
d="M244 576l142 156h134l-178 -156h-98zM107 0v73l273 349h-253v89h382v-70l-273 -351h272v-90h-401z" />
    <glyph glyph-name="Zdotaccent" unicode="&#x17b;" 
d="M318 784q-26 0 -43 17t-17 43t17 43t43 17t43 -17t17 -43t-17 -43t-43 -17zM540 700v-77l-331 -526h329v-97h-461v76l329 527h-306v97h440z" />
    <glyph glyph-name="zdotaccent" unicode="&#x17c;" 
d="M312 594q-26 0 -43 17t-17 43t17 43t43 17t43 -17t17 -43t-17 -43t-43 -17zM107 0v73l273 349h-253v89h382v-70l-273 -351h272v-90h-401z" />
    <glyph glyph-name="Zcaron" unicode="&#x17d;" 
d="M369 766h-102l-141 156h92l100 -85l100 85h93zM540 700v-77l-331 -526h329v-97h-461v76l329 527h-306v97h440z" />
    <glyph glyph-name="zcaron" unicode="&#x17e;" 
d="M353 576h-102l-141 156h92l100 -85l100 85h93zM97 0v73l273 349h-253v89h382v-70l-273 -351h272v-90h-401z" />
    <glyph glyph-name="longs" unicode="&#x17f;" 
d="M222 0v594q0 64 33 91t83 27q54 0 100 -24v-84q-39 19 -73 19q-43 0 -43 -48v-575h-100z" />
    <glyph glyph-name="uni018F" unicode="&#x18f;" 
d="M306 712q117 0 185.5 -97t68.5 -266q0 -167 -71 -264t-188 -97q-109 0 -177 90t-68 245q0 44 3 75h392q-9 103 -47.5 159.5t-99.5 56.5q-42 0 -73 -17.5t-63 -51.5l-65 74q86 93 203 93zM301 85q141 0 152 217h-287q-1 -101 35.5 -159t99.5 -58z" />
    <glyph glyph-name="florin" unicode="&#x192;" 
d="M182 -229l-49 79q74 12 103.5 36.5t29.5 66.5v469h-77v89h77v83q0 63 33 90.5t83 27.5q54 0 100 -24v-84q-41 19 -73 19q-43 0 -43 -48v-64h116v-89h-116v-443q0 -97 -48 -145t-136 -63z" />
    <glyph glyph-name="uni01CD" unicode="&#x1cd;" 
d="M356 766h-102l-141 156h92l100 -85l100 85h93zM476 0l-50 163h-235l-49 -163h-110l229 700h93l231 -700h-109zM220 256h177l-71 232q-11 36 -18 73q-7 -37 -18 -73z" />
    <glyph glyph-name="uni01CE" unicode="&#x1ce;" 
d="M369 576h-102l-141 156h92l100 -85l100 85h93zM269 -12q-83 0 -135 44.5t-52 126.5q0 83 58.5 126t141.5 43q76 0 133 -30v35q0 103 -104 103q-79 0 -163 -53l-30 82q91 58 202 58q192 0 192 -187v-336h-97v44q-58 -56 -146 -56zM285 76q74 0 130 60v77q-53 30 -118 30
q-51 0 -85 -21.5t-34 -62.5q0 -38 28.5 -60.5t78.5 -22.5z" />
    <glyph glyph-name="uni01CF" unicode="&#x1cf;" 
d="M359 766h-102l-141 156h92l100 -85l100 85h93zM513 608h-154v-516h154v-92h-409v92h153v516h-153v92h409v-92z" />
    <glyph glyph-name="uni01D0" unicode="&#x1d0;" 
d="M359 576h-102l-141 156h92l100 -85l100 85h93zM366 89h141v-89h-382v89h141v342h-141v89h241v-431z" />
    <glyph glyph-name="uni01D1" unicode="&#x1d1;" 
d="M359 766h-102l-141 156h92l100 -85l100 85h93zM308 -12q-65 0 -115 30.5t-79 82.5t-43.5 115t-14.5 134t14.5 134t43.5 115t79 82.5t115 30.5q66 0 116 -30.5t79 -82.5t43 -115t14 -134t-14 -134t-43 -115t-79 -82.5t-116 -30.5zM308 85q49 0 83.5 40t48.5 98t14 127
q0 115 -36 190.5t-110 75.5q-49 0 -83 -40.5t-48 -98.5t-14 -127q0 -114 36 -189.5t109 -75.5z" />
    <glyph glyph-name="uni01D2" unicode="&#x1d2;" 
d="M359 576h-102l-141 156h92l100 -85l100 85h93zM307 -12q-111 0 -176.5 71.5t-65.5 195.5t65.5 196t176.5 72t176.5 -72t65.5 -195q0 -124 -65.5 -196t-176.5 -72zM307 82q67 0 104 47t37 127t-36.5 126.5t-104.5 46.5t-104 -45.5t-36 -128.5q0 -80 36.5 -126.5
t103.5 -46.5z" />
    <glyph glyph-name="uni01D3" unicode="&#x1d3;" 
d="M359 766h-102l-141 156h92l100 -85l100 85h93zM308 -12q-105 0 -168 66.5t-63 211.5v434h103v-434q0 -181 128 -181q129 0 129 181v434h102v-434q0 -144 -62.5 -211t-168.5 -67z" />
    <glyph glyph-name="uni01D4" unicode="&#x1d4;" 
d="M358 576h-102l-141 156h92l100 -85l100 85h93zM284 -12q-192 0 -192 224v299h101v-292q0 -71 30.5 -103.5t80.5 -32.5q119 0 119 134v294h101v-511h-101v50q-48 -62 -139 -62z" />
    <glyph glyph-name="Aringacute" unicode="&#x1fa;" 
d="M524 1062l-178 -156h-98l142 156h134zM476 0l-50 163h-235l-49 -163h-110l213 651q-27 16 -43 43.5t-16 59.5q0 50 36 85t86 35q51 0 87 -35t36 -85q0 -68 -61 -104l215 -650h-109zM308 804q-20 0 -33.5 -14t-13.5 -36t13.5 -36.5t33.5 -14.5t34 14.5t14 36.5t-14 36
t-34 14zM220 256h177l-71 232q-11 36 -18 73q-7 -37 -18 -73z" />
    <glyph glyph-name="aringacute" unicode="&#x1fb;" 
d="M255 856l142 156h134l-178 -156h-98zM325 568q-50 0 -86 35.5t-36 85.5t36 85t86 35q51 0 87 -35t36 -85q0 -49 -36.5 -85t-86.5 -36zM325 638q20 0 34 14.5t14 36.5t-14 36t-34 14t-33.5 -14t-13.5 -36t13.5 -36.5t33.5 -14.5zM272 -12q-83 0 -135 44.5t-52 126.5
q0 83 58.5 126t141.5 43q76 0 133 -30v35q0 103 -104 103q-79 0 -163 -53l-30 82q91 58 202 58q192 0 192 -187v-336h-97v44q-58 -56 -146 -56zM288 76q74 0 130 60v77q-53 30 -118 30q-51 0 -85 -21.5t-34 -62.5q0 -38 28.5 -60.5t78.5 -22.5z" />
    <glyph glyph-name="AEacute" unicode="&#x1fc;" 
d="M623 925l-178 -156h-98l142 156h134zM434 314v-218h179v-96h-276v163h-160l-66 -163h-111l297 700h295v-96h-158v-195h119v-95h-119zM214 256l123 1v310q-3 -7 -10 -28t-10 -28z" />
    <glyph glyph-name="aeacute" unicode="&#x1fd;" 
d="M248 576l142 156h134l-178 -156h-98zM160 -12q-61 0 -99 44.5t-38 126.5q0 84 42.5 127t105.5 43q46 0 87 -28v26q0 115 -73 115q-56 0 -112 -56l-23 79q70 58 146 58q82 0 113 -78q45 78 128 78q68 0 112 -63.5t44 -180.5q0 -19 -4 -63h-250q2 -61 30 -104t67 -43
q44 0 82 54l43 -63q-56 -72 -129 -72q-84 0 -132 93q-25 -47 -62.5 -70t-77.5 -23zM339 296h171q-1 74 -23 109.5t-55 35.5q-38 0 -63.5 -36.5t-29.5 -108.5zM172 68q28 0 54 24t41 56q-7 29 -9 67q-35 35 -78 35q-32 0 -54 -23.5t-22 -68.5q0 -40 18 -65t50 -25z" />
    <glyph glyph-name="Oslashacute" unicode="&#x1fe;" 
d="M513 925l-178 -156h-98l142 156h134zM601 712l-88 -131q47 -94 47 -231q0 -71 -14 -134t-43 -115t-79 -82.5t-116 -30.5q-91 0 -153 60l-40 -60h-100l88 132q-47 95 -47 230q0 71 14.5 134t43.5 115t79 82.5t115 30.5q91 0 152 -59l40 59h101zM163 350q0 -69 13 -122
l226 338q-35 50 -94 50q-49 0 -83 -40.5t-48 -98.5t-14 -127zM454 350q0 69 -13 124l-227 -339q37 -50 94 -50q49 0 83.5 40t48.5 98t14 127z" />
    <glyph glyph-name="oslashacute" unicode="&#x1ff;" 
d="M511 732l-178 -156h-98l142 156h134zM486 450q64 -72 64 -194q0 -124 -65.5 -196t-176.5 -72q-67 0 -118 27l-18 -27h-91l49 73q-64 72 -64 194q0 124 65.5 196t176.5 72q67 0 117 -26l18 26h92zM168 255q0 -61 22 -105l181 266q-29 13 -63 13q-68 0 -104 -45.5
t-36 -128.5zM308 82q67 0 104 47t37 127q0 63 -23 106l-181 -266q28 -14 63 -14z" />
    <glyph glyph-name="Scommaaccent" unicode="&#x218;" 
d="M315 -12q-83 0 -147 46.5t-90 120.5l95 35q21 -48 60.5 -77t88.5 -29q51 0 80.5 27t29.5 78q0 45 -38 77.5t-104 61.5q-42 18 -68 33t-58 40t-47.5 58t-15.5 75q0 75 56.5 126.5t149.5 51.5q74 0 127.5 -38t70.5 -98l-93 -31q-14 31 -42.5 51.5t-67.5 20.5
q-43 0 -70 -22.5t-27 -60.5q0 -20 9.5 -36t30.5 -30.5t38 -23t50 -23.5l3 -1.5t3 -1t3 -1.5q40 -19 68 -35.5t60 -43.5t49 -64t17 -82q0 -94 -63 -149t-158 -55zM286 -279l-31 19q37 31 46 74q-23 3 -36.5 19t-13.5 39q0 26 18 43t42 17q25 0 43 -18.5t18 -49.5
q0 -42 -23.5 -80.5t-62.5 -62.5z" />
    <glyph glyph-name="scommaaccent" unicode="&#x219;" 
d="M308 -12q-61 0 -113.5 24.5t-85.5 66.5l67 59q60 -64 139 -64q40 0 65.5 15.5t25.5 44.5q0 41 -113 87l-3 1.5l-3 1.5t-3.5 1.5t-3.5 1.5q-43 18 -66 29.5t-49 30.5t-37.5 43t-11.5 56q0 63 53.5 100t135.5 37q114 0 184 -80l-66 -55q-55 49 -122 49q-41 0 -66 -14
t-25 -38q0 -35 110 -78l6 -3q36 -14 52 -21t44.5 -23t42 -31t24.5 -39.5t11 -53.5q0 -69 -52 -108.5t-140 -39.5zM281 -279l-31 19q37 31 46 74q-23 3 -36.5 19t-13.5 39q0 26 18 43t42 17q25 0 43 -18.5t18 -49.5q0 -42 -23.5 -80.5t-62.5 -62.5z" />
    <glyph glyph-name="uni021A" unicode="&#x21a;" 
d="M257 0v602h-203v98h508v-98h-203v-602h-102zM283 -279l-31 19q37 31 46 74q-23 3 -36.5 19t-13.5 39q0 26 18 43t42 17q25 0 43 -18.5t18 -49.5q0 -42 -23.5 -80.5t-62.5 -62.5z" />
    <glyph glyph-name="uni021B" unicode="&#x21b;" 
d="M355 -12q-140 0 -140 134v301h-112v88h112v163l100 48v-211h172v-88h-172v-277q0 -34 16 -51t57 -17q45 0 90 26l-11 -93q-44 -23 -112 -23zM312 -279l-31 19q37 31 46 74q-23 3 -36.5 19t-13.5 39q0 26 18 43t42 17q25 0 43 -18.5t18 -49.5q0 -42 -23.5 -80.5
t-62.5 -62.5z" />
    <glyph glyph-name="uni0237" unicode="&#x237;" 
d="M410 511v-513q0 -98 -45 -146q-54 -54 -161 -66l-49 82q90 13 122.5 40t32.5 88v427h-141v88h241z" />
    <glyph glyph-name="uni0259" unicode="&#x259;" 
d="M306 523q106 0 168.5 -72t62.5 -196t-63.5 -195.5t-167.5 -71.5q-100 0 -163 65t-63 182q0 35 3 60h354q-18 139 -134 139q-72 0 -123 -47l-59 64q75 72 185 72zM306 77q57 0 90.5 34.5t41.5 97.5h-259q4 -68 39.5 -100t87.5 -32z" />
    <glyph glyph-name="uni02B0" unicode="&#x2b0;" 
d="M334 711q73 0 115.5 -43t42.5 -130v-258h-87v238q0 57 -24 85.5t-66 28.5q-97 0 -97 -107v-245h-87v560l85 39v-220q40 52 118 52z" />
    <glyph glyph-name="uni02B2" unicode="&#x2b2;" 
d="M309 766q-22 0 -38 15.5t-16 37.5q0 23 15.5 38.5t38.5 15.5t38 -15.5t15 -38.5q0 -22 -15.5 -37.5t-37.5 -15.5zM351 700l1 -423q0 -86 -38 -122q-47 -46 -136 -56l-42 70q76 11 102.5 33.5t26.5 73.5v349h-115v75h201z" />
    <glyph glyph-name="uni02B7" unicode="&#x2b7;" 
d="M175 280l-108 420h82l56 -241q6 -24 7 -37l8 38l54 240h68l54 -240q6 -26 8 -40q3 24 8 40l56 240h80l-107 -420h-71l-52 238q-8 35 -10 50l-11 -50l-51 -238h-71z" />
    <glyph glyph-name="uni02B8" unicode="&#x2b8;" 
d="M432 700h88l-218 -581h-90l60 158l-161 423h91l113 -309z" />
    <glyph glyph-name="circumflex" unicode="&#x2c6;" 
d="M408 576l-100 85l-100 -85h-92l141 156h103l141 -156h-93z" />
    <glyph glyph-name="caron" unicode="&#x2c7;" 
d="M359 576h-102l-141 156h92l100 -85l100 85h93z" />
    <glyph glyph-name="uni02C9" unicode="&#x2c9;" 
d="M165 598v84h330v-84h-330z" />
    <glyph glyph-name="uni02D6" unicode="&#x2d6;" 
d="M348 521v-151h-81v151h-149v78h149v151h81v-151h150v-78h-150z" />
    <glyph glyph-name="breve" unicode="&#x2d8;" 
d="M308 577q-91 0 -138 46.5t-47 118.5h84q0 -38 27.5 -62.5t73.5 -24.5t73.5 24.5t27.5 62.5h84q0 -72 -47 -118.5t-138 -46.5z" />
    <glyph glyph-name="dotaccent" unicode="&#x2d9;" 
d="M308 594q-26 0 -43 17t-17 43t17 43t43 17t43 -17t17 -43t-17 -43t-43 -17z" />
    <glyph glyph-name="ring" unicode="&#x2da;" 
d="M308 533q-50 0 -86 35.5t-36 85.5t36 85t86 35q51 0 87 -35t36 -85q0 -49 -36.5 -85t-86.5 -36zM308 603q20 0 34 14.5t14 36.5t-14 36t-34 14t-33.5 -14t-13.5 -36t13.5 -36.5t33.5 -14.5z" />
    <glyph glyph-name="ogonek" unicode="&#x2db;" 
d="M311 -239q-51 0 -83.5 27.5t-32.5 75.5q0 49 36 87t101 59h73q-65 -26 -96 -62.5t-31 -73.5q0 -25 13.5 -38t32.5 -13q28 0 47 21l50 -36q-43 -47 -110 -47z" />
    <glyph glyph-name="tilde" unicode="&#x2dc;" 
d="M387 593q-38 0 -90.5 24t-74.5 24q-44 0 -47 -44h-50q0 124 104 124q39 0 91 -24.5t74 -24.5q20 0 33 11.5t14 33.5h50q0 -124 -104 -124z" />
    <glyph glyph-name="hungarumlaut" unicode="&#x2dd;" 
d="M142 576h-99l142 156h135zM351 576h-99l142 156h135z" />
    <glyph glyph-name="uni02E1" unicode="&#x2e1;" 
d="M358 357h119v-77h-326v77h120v432h-99l-38 77h224v-509z" />
    <glyph glyph-name="uni02E2" unicode="&#x2e2;" 
d="M311 269q-108 0 -165 75l55 49q55 -53 116 -53q33 0 53.5 12.5t20.5 35.5q0 21 -21.5 35.5t-70.5 35.5q-5 2 -7 3q-38 16 -55.5 25t-41 25.5t-33.5 37t-10 48.5q0 52 44.5 82.5t111.5 30.5q96 0 154 -66l-56 -46q-47 41 -101 41q-33 0 -53 -11.5t-20 -31.5q0 -17 22 -31
t63 -31q7 -2 11 -4q35 -14 53 -23t42.5 -25.5t35.5 -39t11 -52.5q0 -57 -43 -89.5t-116 -32.5z" />
    <glyph glyph-name="uni02E3" unicode="&#x2e3;" 
d="M512 280h-99l-107 150l-104 -150h-98l153 218l-144 202h100l95 -133l94 133h99l-144 -203z" />
    <glyph glyph-name="acutecomb" unicode="&#x301;" horiz-adv-x="0" 
d="M-396 576l142 156h134l-178 -156h-98z" />
    <glyph glyph-name="uni0302" unicode="&#x302;" horiz-adv-x="0" 
d="M-208 576l-100 85l-100 -85h-92l141 156h103l141 -156h-93z" />
    <glyph glyph-name="tildecomb" unicode="&#x303;" horiz-adv-x="0" 
d="M-229 593q-38 0 -90.5 24t-74.5 24q-44 0 -47 -44h-50q0 124 104 124q39 0 91 -24.5t74 -24.5q20 0 33 11.5t14 33.5h50q0 -124 -104 -124z" />
    <glyph glyph-name="uni0304" unicode="&#x304;" horiz-adv-x="0" 
d="M-473 598v84h330v-84h-330z" />
    <glyph glyph-name="uni0306" unicode="&#x306;" horiz-adv-x="0" 
d="M-308 577q-91 0 -138 46.5t-47 118.5h84q0 -38 27.5 -62.5t73.5 -24.5t73.5 24.5t27.5 62.5h84q0 -72 -47 -118.5t-138 -46.5z" />
    <glyph glyph-name="uni0307" unicode="&#x307;" horiz-adv-x="0" 
d="M-308 594q-26 0 -43 17t-17 43t17 43t43 17t43 -17t17 -43t-17 -43t-43 -17z" />
    <glyph glyph-name="uni0308" unicode="&#x308;" horiz-adv-x="0" 
d="M-397 594q-25 0 -42.5 17t-17.5 43t17.5 43t42.5 17t42.5 -17t17.5 -43t-17.5 -43t-42.5 -17zM-219 594q-25 0 -42.5 17t-17.5 43t17.5 43t42.5 17t42.5 -17t17.5 -43t-17.5 -43t-42.5 -17z" />
    <glyph glyph-name="uni030A" unicode="&#x30a;" horiz-adv-x="0" 
d="M-308 533q-50 0 -86 35.5t-36 85.5t36 85t86 35q51 0 87 -35t36 -85q0 -49 -36.5 -85t-86.5 -36zM-308 603q20 0 34 14.5t14 36.5t-14 36t-34 14t-33.5 -14t-13.5 -36t13.5 -36.5t33.5 -14.5z" />
    <glyph glyph-name="uni030B" unicode="&#x30b;" horiz-adv-x="0" 
d="M-452 576h-99l142 156h135zM-243 576h-99l142 156h135z" />
    <glyph glyph-name="uni030C" unicode="&#x30c;" horiz-adv-x="0" 
d="M-257 576h-102l-141 156h92l100 -85l100 85h93z" />
    <glyph glyph-name="uni0312" unicode="&#x312;" horiz-adv-x="0" 
d="M-307 578q-25 0 -43 18.5t-18 49.5q0 42 23.5 80.5t61.5 62.5l31 -19q-37 -31 -45 -74q23 -3 36 -19t13 -39q0 -26 -18 -43t-41 -17z" />
    <glyph glyph-name="uni0326" unicode="&#x326;" horiz-adv-x="0" 
d="M-333 -279l-31 19q37 31 46 74q-23 3 -36.5 19t-13.5 39q0 26 18 43t42 17q25 0 43 -18.5t18 -49.5q0 -42 -23.5 -80.5t-62.5 -62.5z" />
    <glyph glyph-name="uni0327" unicode="&#x327;" horiz-adv-x="0" 
d="M-299 -239q-65 0 -99 37l51 36q11 -14 39 -14q22 0 36 12.5t14 32.5q0 18 -16 30.5t-39 12.5t-39 -9l-20 24l70 87h56l-37 -61q55 0 82 -24t27 -61q0 -46 -34 -74.5t-91 -28.5z" />
    <glyph glyph-name="uni0328" unicode="&#x328;" horiz-adv-x="0" 
d="M-283 -239q-51 0 -83.5 27.5t-32.5 75.5q0 49 36 87t101 59h73q-65 -26 -96 -62.5t-31 -73.5q0 -25 13.5 -38t32.5 -13q28 0 47 21l50 -36q-43 -47 -110 -47z" />
    <glyph glyph-name="uni0337" unicode="&#x337;" horiz-adv-x="0" 
d="M106 118l315 464h89l-315 -464h-89z" />
    <glyph glyph-name="uni03BC" unicode="&#x3bc;" 
d="M416 0v49q-50 -61 -124 -61q-61 0 -91 43v-184l-101 -47v711h100v-306q0 -69 26.5 -96t77.5 -27q112 0 112 121v308h100v-511h-100z" />
    <glyph glyph-name="pi" unicode="&#x3c0;" 
d="M486 -12q-112 0 -112 126v292h-134v-40q0 -155 -27.5 -249.5t-108.5 -138.5l-86 67q29 17 47.5 34t38.5 48t30 80.5t10 117.5v81h-94v105h542v-105h-118v-266q0 -62 46 -62q32 0 78 26l-12 -93q-41 -23 -100 -23z" />
    <glyph glyph-name="Wgrave" unicode="&#x1e80;" 
d="M277 766l-178 156h135l142 -156h-99zM133 0l-107 700h94l61 -439l6 -47q3 24 9 47l81 439h63l82 -436q6 -25 9 -44q1 9 3 23.5t2 19.5l56 437h98l-107 -700h-82l-85 444q-3 14 -8 48q-2 -15 -8 -47l-85 -445h-82z" />
    <glyph glyph-name="wgrave" unicode="&#x1e81;" 
d="M288 576l-178 156h135l142 -156h-99zM150 0l-130 511h94l70 -297q6 -24 9 -46q7 37 9 47l67 296h78l68 -296q2 -8 9 -50q4 26 10 50l68 296h94l-130 -511h-80l-66 287q-11 57 -12 61q-2 -11 -7 -32t-6 -28l-64 -288h-81z" />
    <glyph glyph-name="Wacute" unicode="&#x1e82;" 
d="M245 766l142 156h134l-178 -156h-98zM121 0l-107 700h94l61 -439l6 -47q3 24 9 47l81 439h63l82 -436q6 -25 9 -44q1 9 3 23.5t2 19.5l56 437h98l-107 -700h-82l-85 444q-3 14 -8 48q-2 -15 -8 -47l-85 -445h-82z" />
    <glyph glyph-name="wacute" unicode="&#x1e83;" 
d="M227 576l142 156h134l-178 -156h-98zM150 0l-130 511h94l70 -297q6 -24 9 -46q7 37 9 47l67 296h78l68 -296q2 -8 9 -50q4 26 10 50l68 296h94l-130 -511h-80l-66 287q-11 57 -12 61q-2 -11 -7 -32t-6 -28l-64 -288h-81z" />
    <glyph glyph-name="Wdieresis" unicode="&#x1e84;" 
d="M219 784q-25 0 -42.5 17t-17.5 43t17.5 43t42.5 17t42.5 -17t17.5 -43t-17.5 -43t-42.5 -17zM397 784q-25 0 -42.5 17t-17.5 43t17.5 43t42.5 17t42.5 -17t17.5 -43t-17.5 -43t-42.5 -17zM133 0l-107 700h94l61 -439l6 -47q3 24 9 47l81 439h63l82 -436q6 -25 9 -44
q1 9 3 23.5t2 19.5l56 437h98l-107 -700h-82l-85 444q-3 14 -8 48q-2 -15 -8 -47l-85 -445h-82z" />
    <glyph glyph-name="wdieresis" unicode="&#x1e85;" 
d="M219 594q-25 0 -42.5 17t-17.5 43t17.5 43t42.5 17t42.5 -17t17.5 -43t-17.5 -43t-42.5 -17zM397 594q-25 0 -42.5 17t-17.5 43t17.5 43t42.5 17t42.5 -17t17.5 -43t-17.5 -43t-42.5 -17zM147 0l-130 511h94l70 -297q6 -24 9 -46q7 37 9 47l67 296h78l68 -296q2 -8 9 -50
q4 26 10 50l68 296h94l-130 -511h-80l-66 287q-11 57 -12 61q-2 -11 -7 -32t-6 -28l-64 -288h-81z" />
    <glyph glyph-name="Ygrave" unicode="&#x1ef2;" 
d="M388 766h-99l-178 156h135zM451 700h112l-203 -425v-275h-102v275l-204 425h114l141 -319z" />
    <glyph glyph-name="ygrave" unicode="&#x1ef3;" 
d="M303 576l-178 156h135l142 -156h-99zM180 -194l77 206l-189 499h102l120 -329q7 -20 16 -49q5 17 17 49l121 329h104l-266 -705h-102z" />
    <glyph glyph-name="endash" unicode="&#x2013;" 
d="M110 244v87h395v-87h-395z" />
    <glyph glyph-name="emdash" unicode="&#x2014;" 
d="M5 244v87h606v-87h-606z" />
    <glyph glyph-name="uni2015" unicode="&#x2015;" 
d="M5 244v87h606v-87h-606z" />
    <glyph glyph-name="underscoredbl" unicode="&#x2017;" 
d="M40 -104v88h536v-88h-536zM40 -250v88h536v-88h-536z" />
    <glyph glyph-name="quoteleft" unicode="&#x2018;" 
d="M307 440q-33 0 -55 24t-22 69q0 68 32.5 128.5t73.5 90.5l47 -25q-57 -66 -64 -142q28 -5 45 -23.5t17 -46.5q0 -33 -22 -54t-52 -21z" />
    <glyph glyph-name="quoteright" unicode="&#x2019;" 
d="M279 440l-47 26q57 64 64 142q-28 5 -45 23t-17 47q0 33 22 53.5t52 20.5q33 0 55 -24t22 -68q0 -68 -32.5 -128.5t-73.5 -91.5z" />
    <glyph glyph-name="quotesinglbase" unicode="&#x201a;" 
d="M279 -181l-47 25q24 26 42.5 64.5t21.5 77.5q-28 5 -44.5 23.5t-16.5 47.5q0 33 21.5 53.5t51.5 20.5q33 0 55.5 -24t22.5 -68q0 -69 -33 -129.5t-74 -90.5z" />
    <glyph glyph-name="quotereversed" unicode="&#x201b;" 
d="M337 440q-42 31 -74.5 91.5t-32.5 128.5q0 44 22.5 68t55.5 24q30 0 51.5 -20.5t21.5 -53.5q0 -29 -16.5 -47t-44.5 -23q3 -40 22 -78.5t42 -63.5z" />
    <glyph glyph-name="quotedblleft" unicode="&#x201c;" 
d="M199 440q-33 0 -55 24t-22 69q0 68 32.5 128.5t73.5 90.5l47 -25q-57 -66 -64 -142q28 -5 45 -23.5t17 -46.5q0 -33 -22 -54t-52 -21zM417 440q-33 0 -55.5 24.5t-22.5 68.5q0 68 33 128.5t74 90.5l47 -25q-24 -26 -42.5 -64.5t-21.5 -77.5q28 -5 44.5 -23t16.5 -47
q0 -33 -21.5 -54t-51.5 -21z" />
    <glyph glyph-name="quotedblright" unicode="&#x201d;" 
d="M171 440l-47 26q57 64 64 142q-28 5 -45 23t-17 47q0 33 22 53.5t52 20.5q33 0 55 -24t22 -68q0 -68 -32.5 -128.5t-73.5 -91.5zM388 440l-47 26q57 64 64 142q-28 5 -45 23t-17 47q0 33 22 53.5t52 20.5q33 0 55 -24t22 -68q0 -68 -32.5 -128.5t-73.5 -91.5z" />
    <glyph glyph-name="quotedblbase" unicode="&#x201e;" 
d="M171 -181l-47 25q57 66 64 142q-28 5 -45 23.5t-17 47.5q0 33 22 53.5t52 20.5q33 0 55 -24t22 -68q0 -69 -32.5 -129.5t-73.5 -90.5zM388 -181l-47 25q57 66 64 142q-28 5 -45 23.5t-17 47.5q0 33 22 53.5t52 20.5q33 0 55 -24t22 -68q0 -69 -32.5 -129.5t-73.5 -90.5z
" />
    <glyph glyph-name="dagger" unicode="&#x2020;" 
d="M348 441l10 -105l-31 -477h-36l-34 477l10 105l-120 -16h-52v96h52l118 -17l-8 83v125h101v-125l-9 -83l119 17h54v-96h-54z" />
    <glyph glyph-name="daggerdbl" unicode="&#x2021;" 
d="M257 -141v125l8 83l-118 -18h-52v98h52l120 -17l-10 105v101l10 105l-120 -16h-52v96h52l118 -17l-8 83v125h101v-125l-9 -83l119 17h54v-96h-54l-120 16l10 -105v-101l-10 -105l120 17h54v-98h-54l-119 18l9 -83v-125h-101z" />
    <glyph glyph-name="bullet" unicode="&#x2022;" 
d="M307 209q-59 0 -99.5 41t-40.5 100t40.5 100.5t99.5 41.5t101 -41.5t42 -100.5t-42 -100t-101 -41z" />
    <glyph glyph-name="ellipsis" unicode="&#x2026;" 
d="M103 -13q-31 0 -52.5 21.5t-21.5 51.5t21.5 51.5t52.5 21.5t52.5 -21.5t21.5 -51.5t-21.5 -51.5t-52.5 -21.5zM308 -13q-31 0 -52.5 21.5t-21.5 51.5t21.5 51.5t52.5 21.5t52.5 -21.5t21.5 -51.5t-21.5 -51.5t-52.5 -21.5zM513 -13q-31 0 -52 21.5t-21 51.5t21 51.5
t52 21.5t52.5 -21.5t21.5 -51.5t-21.5 -51.5t-52.5 -21.5z" />
    <glyph glyph-name="perthousand" unicode="&#x2030;" 
d="M62 -12h-62l335 724h62zM109 389q-49 0 -73 48t-24 114q0 61 24 111t73 50q47 0 72 -48.5t25 -112.5q0 -62 -24.5 -112t-72.5 -50zM109 442q16 0 27 32t11 77q0 48 -10.5 78t-27.5 30q-19 0 -28.5 -30.5t-9.5 -77.5q0 -49 10 -79t28 -30zM288 -12q-49 0 -73 48t-24 113
q0 61 24.5 111.5t72.5 50.5q47 0 72 -48.5t25 -113.5q0 -61 -24.5 -111t-72.5 -50zM507 -12q-47 0 -72 48.5t-25 112.5q0 37 9.5 72.5t32.5 62.5t55 27q47 0 72 -48.5t25 -113.5q0 -61 -24.5 -111t-72.5 -50zM288 41q16 0 27 32t11 76q0 48 -10.5 78.5t-27.5 30.5
q-19 0 -28.5 -31t-9.5 -78q0 -48 10 -78t28 -30zM507 41q16 0 27 32t11 76q0 48 -10.5 78.5t-27.5 30.5t-27.5 -31.5t-10.5 -77.5q0 -47 10.5 -77.5t27.5 -30.5z" />
    <glyph glyph-name="minute" unicode="&#x2032;" 
d="M255 730h126l-62 -319h-84z" />
    <glyph glyph-name="second" unicode="&#x2033;" 
d="M155 730h126l-62 -319h-84zM355 730h126l-62 -319h-84z" />
    <glyph glyph-name="guilsinglleft" unicode="&#x2039;" 
d="M330 0l-152 256l152 255h109l-152 -255l152 -256h-109z" />
    <glyph glyph-name="guilsinglright" unicode="&#x203a;" 
d="M178 0l152 256l-152 255h109l152 -255l-152 -256h-109z" />
    <glyph glyph-name="exclamdbl" unicode="&#x203c;" 
d="M126 193l-22 298v221h101v-221l-22 -298h-57zM434 193l-22 298v221h101v-221l-22 -298h-57zM154 -13q-32 0 -53.5 22t-21.5 52q0 31 21.5 53t53.5 22q31 0 53 -22.5t22 -52.5t-22 -52t-53 -22zM462 -13q-32 0 -53.5 22t-21.5 52q0 31 21.5 53t53.5 22q31 0 53 -22.5
t22 -52.5t-22 -52t-53 -22z" />
    <glyph glyph-name="uni203E" unicode="&#x203e;" 
d="M40 750v89h536v-89h-536z" />
    <glyph glyph-name="fraction" unicode="&#x2044;" horiz-adv-x="0" 
d="M-289 -12l478 724h100l-479 -724h-99z" />
    <glyph glyph-name="uni2070" unicode="&#x2070;" 
d="M308 592q-73 0 -105.5 43t-32.5 100q0 59 32 102.5t106 43.5q72 0 105 -43.5t33 -102.5q0 -58 -32 -100.5t-106 -42.5zM308 654q29 0 42 25t13 58t-13 58t-42 25q-55 0 -55 -83t55 -83z" />
    <glyph glyph-name="uni2071" unicode="&#x2071;" 
d="M319 769q-22 0 -37.5 15.5t-15.5 37.5q0 23 15 38.5t38 15.5t38.5 -15.5t15.5 -38.5q0 -22 -16 -37.5t-38 -15.5zM364 357h115v-77h-317v77h115v270h-115v77h202v-347z" />
    <glyph glyph-name="uni2074" unicode="&#x2074;" 
d="M328 600v55h-178v43l181 174h75v-160h53v-57h-53v-55h-78zM328 712v83l-85 -83h85z" />
    <glyph glyph-name="uni2075" unicode="&#x2075;" 
d="M299 591q-69 0 -120 38l44 47q33 -29 76 -29q27 0 43.5 11.5t16.5 30.5q0 34 -46 34q-37 0 -59 -27l-66 25l22 152h207v-58h-143l-10 -55q24 19 66 19q49 0 79.5 -25t30.5 -61q0 -45 -37.5 -73.5t-103.5 -28.5z" />
    <glyph glyph-name="uni2076" unicode="&#x2076;" 
d="M308 592q-63 0 -96.5 30.5t-33.5 78.5q0 69 56.5 117t162.5 60v-54q-109 -15 -137 -75q26 20 69 20q49 0 79 -24.5t30 -62.5q0 -39 -36 -64.5t-94 -25.5zM311 647q23 0 39 9t16 25t-15.5 25t-39.5 9q-26 0 -41 -9t-15 -25t15.5 -25t40.5 -9z" />
    <glyph glyph-name="uni2077" unicode="&#x2077;" 
d="M237 601q0 64 30.5 120.5t76.5 91.5h-164v60h256v-56q-60 -40 -87 -100.5t-27 -115.5h-85z" />
    <glyph glyph-name="uni2078" unicode="&#x2078;" 
d="M306 592q-58 0 -95.5 24t-37.5 62q0 24 15.5 42t39.5 27q-37 19 -37 57q0 33 32 55t83 22q52 0 83.5 -21.5t31.5 -55.5q0 -17 -10.5 -33t-25.5 -24q24 -9 39.5 -27t15.5 -42q0 -38 -37 -62t-97 -24zM306 770q44 0 44 31q0 30 -44 30q-20 0 -31.5 -8.5t-11.5 -21.5
q0 -31 43 -31zM306 642q59 0 59 39q0 18 -15.5 28.5t-43.5 10.5q-26 0 -42 -10.5t-16 -28.5q0 -39 58 -39z" />
    <glyph glyph-name="uni2079" unicode="&#x2079;" 
d="M228 593v54q103 10 127 71q-24 -15 -64 -15q-51 0 -84 24.5t-33 62.5q0 40 37 65.5t97 25.5q65 0 99 -29.5t34 -77.5q0 -77 -56 -125.5t-157 -55.5zM307 758q26 0 42 9t16 25t-16 25.5t-42 9.5q-22 0 -38.5 -10t-16.5 -25q0 -16 15.5 -25t39.5 -9z" />
    <glyph glyph-name="uni207A" unicode="&#x207a;" 
d="M342 709v-100h-56v100h-99v54h99v100h56v-100h99v-54h-99z" />
    <glyph glyph-name="uni207B" unicode="&#x207b;" 
d="M180 709v54h254v-54h-254z" />
    <glyph glyph-name="uni207C" unicode="&#x207c;" 
d="M184 767v54h249v-54h-249zM184 653v55h249v-55h-249z" />
    <glyph glyph-name="uni207D" unicode="&#x207d;" 
d="M358 552q-79 79 -79 179q0 108 85 185h54q-83 -80 -83 -185q0 -94 78 -179h-55z" />
    <glyph glyph-name="uni207E" unicode="&#x207e;" 
d="M258 552h-55q78 85 78 179q0 105 -83 185h54q85 -77 85 -185q0 -100 -79 -179z" />
    <glyph glyph-name="uni207F" unicode="&#x207f;" 
d="M334 711q73 0 115.5 -43t42.5 -130v-258h-87v238q0 57 -24 85.5t-66 28.5q-97 0 -97 -107v-245h-87v420h79v-50q15 27 48.5 44t75.5 17z" />
    <glyph glyph-name="uni2080" unicode="&#x2080;" 
d="M308 -181q-73 0 -105.5 43t-32.5 100q0 59 32 102.5t106 43.5q72 0 105 -43.5t33 -102.5q0 -58 -32 -100.5t-106 -42.5zM308 -119q29 0 42 25t13 58t-13 58t-42 25q-55 0 -55 -83t55 -83z" />
    <glyph glyph-name="uni2081" unicode="&#x2081;" 
d="M268 -172v167h-49v63q52 0 70 42h61v-272h-82z" />
    <glyph glyph-name="uni2082" unicode="&#x2082;" 
d="M173 -172q0 56 28 91.5t61 47.5t61 25t28 28q0 29 -39 29q-24 0 -42 -13.5t-25 -37.5l-71 18q12 41 48.5 66t91.5 25t88.5 -23.5t33.5 -66.5q0 -29 -24.5 -50t-55 -30.5t-58.5 -22t-32 -25.5h169v-61h-262z" />
    <glyph glyph-name="uni2083" unicode="&#x2083;" 
d="M310 -181q-103 0 -140 78l75 20q19 -40 68 -40q21 0 34 10t13 26q0 28 -50 28h-30v55h23q42 0 42 26q0 12 -10.5 20.5t-27.5 8.5q-39 0 -56 -34l-70 20q16 32 51 51.5t79 19.5q52 0 84 -22t32 -57q0 -20 -14.5 -35.5t-35.5 -21.5q66 -12 66 -65q0 -38 -35 -63t-98 -25z
" />
    <glyph glyph-name="uni2084" unicode="&#x2084;" 
d="M328 -172v55h-178v43l181 174h75v-160h53v-57h-53v-55h-78zM328 -60v83l-85 -83h85z" />
    <glyph glyph-name="uni2085" unicode="&#x2085;" 
d="M299 -182q-69 0 -120 38l44 47q33 -29 76 -29q27 0 43.5 11.5t16.5 30.5q0 34 -46 34q-37 0 -59 -27l-66 25l22 152h207v-58h-143l-10 -55q24 19 66 19q49 0 79.5 -25t30.5 -61q0 -45 -37.5 -73.5t-103.5 -28.5z" />
    <glyph glyph-name="uni2086" unicode="&#x2086;" 
d="M308 -181q-63 0 -96.5 30.5t-33.5 78.5q0 69 56.5 117t162.5 60v-54q-109 -15 -137 -75q26 20 69 20q49 0 79 -24.5t30 -62.5q0 -39 -36 -64.5t-94 -25.5zM311 -126q23 0 39 9t16 25t-15.5 25t-39.5 9q-26 0 -41 -9t-15 -25t15.5 -25t40.5 -9z" />
    <glyph glyph-name="uni2087" unicode="&#x2087;" 
d="M237 -172q0 64 30.5 120.5t76.5 91.5h-164v60h256v-56q-60 -40 -87 -100.5t-27 -115.5h-85z" />
    <glyph glyph-name="uni2088" unicode="&#x2088;" 
d="M306 -181q-58 0 -95.5 24t-37.5 62q0 24 15.5 42t39.5 27q-16 8 -26.5 23.5t-10.5 33.5q0 33 32 55t83 22q52 0 83.5 -21.5t31.5 -55.5q0 -17 -10.5 -33t-25.5 -24q24 -9 39.5 -27t15.5 -42q0 -38 -37 -62t-97 -24zM306 -3q44 0 44 31q0 30 -44 30q-20 0 -31.5 -8.5
t-11.5 -21.5q0 -31 43 -31zM306 -131q59 0 59 39q0 18 -15.5 28.5t-43.5 10.5q-26 0 -42 -10.5t-16 -28.5q0 -39 58 -39z" />
    <glyph glyph-name="uni2089" unicode="&#x2089;" 
d="M228 -180v54q103 10 127 71q-24 -15 -64 -15q-51 0 -84 24.5t-33 62.5q0 40 37 65.5t97 25.5q65 0 99 -29.5t34 -77.5q0 -77 -56 -125.5t-157 -55.5zM307 -15q26 0 42 9t16 25t-16 25.5t-42 9.5q-22 0 -38.5 -10t-16.5 -25q0 -16 15.5 -25t39.5 -9z" />
    <glyph glyph-name="uni208A" unicode="&#x208a;" 
d="M336 -63v-100h-56v100h-99v54h99v100h56v-100h99v-54h-99z" />
    <glyph glyph-name="uni208B" unicode="&#x208b;" 
d="M181 -62v54h254v-54h-254z" />
    <glyph glyph-name="uni208C" unicode="&#x208c;" 
d="M184 -5v54h249v-54h-249zM184 -119v55h249v-55h-249z" />
    <glyph glyph-name="uni208D" unicode="&#x208d;" 
d="M358 -215q-79 79 -79 179q0 108 85 185h54q-83 -80 -83 -185q0 -94 78 -179h-55z" />
    <glyph glyph-name="uni208E" unicode="&#x208e;" 
d="M258 -215h-55q78 85 78 179q0 105 -83 185h54q85 -77 85 -185q0 -100 -79 -179z" />
    <glyph glyph-name="uni2090" unicode="&#x2090;" 
d="M321 259q162 0 162 -155v-276h-84v35q-48 -46 -120 -46q-69 0 -112 36.5t-43 104.5t48.5 103.5t117.5 35.5q60 0 109 -24v27q0 83 -85 83q-67 0 -135 -43l-25 71q75 48 167 48zM294 -108q61 0 105 50v57q-39 24 -95 24q-41 0 -67.5 -16.5t-26.5 -48.5q0 -30 22 -48
t62 -18z" />
    <glyph glyph-name="uni2091" unicode="&#x2091;" 
d="M500 57q0 -31 -2 -52h-288q8 -50 38 -80t73 -30q56 0 96 36l49 -55q-59 -59 -146 -59q-93 0 -147.5 61.5t-54.5 159.5q0 103 54.5 162t147.5 59q79 0 129.5 -51.5t50.5 -150.5zM320 182q-96 0 -111 -105h205q-2 53 -29 79t-65 26z" />
    <glyph glyph-name="uni2092" unicode="&#x2092;" 
d="M308 -183q-93 0 -147 59t-54 162q0 101 54.5 161t146.5 60q93 0 147 -59.5t54 -161.5t-54 -161.5t-147 -59.5zM308 -99q53 0 82 36.5t29 100.5t-28.5 100.5t-82.5 36.5q-53 0 -82 -36.5t-29 -100.5t29 -100.5t82 -36.5z" />
    <glyph glyph-name="uni2093" unicode="&#x2093;" 
d="M512 -172h-99l-107 150l-104 -150h-98l153 218l-144 202h100l95 -133l94 133h99l-144 -203z" />
    <glyph glyph-name="uni2094" unicode="&#x2094;" 
d="M295 258q93 0 147.5 -61.5t54.5 -159.5q0 -103 -54.5 -162t-147.5 -59q-79 0 -129.5 51.5t-50.5 150.5q0 31 2 52h288q-8 50 -38.5 80t-72.5 30q-56 0 -96 -36l-49 55q59 59 146 59zM295 -107q96 0 111 105h-205q2 -53 29 -79t65 -26z" />
    <glyph glyph-name="uni2095" unicode="&#x2095;" 
d="M334 259q73 0 115.5 -43t42.5 -130v-258h-87v238q0 57 -24 85.5t-66 28.5q-97 0 -97 -107v-245h-87v560l85 39v-220q40 52 118 52z" />
    <glyph glyph-name="uni2096" unicode="&#x2096;" 
d="M416 -172l-124 241l-69 -68v-173h-86v559l86 40v-329l151 150h102l-121 -118l156 -302h-95z" />
    <glyph glyph-name="uni2097" unicode="&#x2097;" 
d="M358 -95h119v-77h-326v77h120v432h-99l-38 77h224v-509z" />
    <glyph glyph-name="uni2098" unicode="&#x2098;" 
d="M422 258q54 0 79 -36t25 -118v-276h-79v261q0 48 -9 69t-34 21q-26 0 -40.5 -26.5t-14.5 -71.5v-253h-79v261q0 90 -43 90q-26 0 -41.5 -27t-15.5 -71v-253h-79v420h75v-54q25 64 82 64q30 0 51 -19t30 -46q32 65 93 65z" />
    <glyph glyph-name="uni2099" unicode="&#x2099;" 
d="M334 259q73 0 115.5 -43t42.5 -130v-258h-87v238q0 57 -24 85.5t-66 28.5q-97 0 -97 -107v-245h-87v420h79v-50q15 27 48.5 44t75.5 17z" />
    <glyph glyph-name="uni209A" unicode="&#x209a;" 
d="M125 -343v591h87v-34q44 44 109 44q85 0 135 -59t50 -162q0 -102 -51 -161t-133 -59q-70 0 -110 47v-167zM309 -102q51 0 79.5 36.5t28.5 102.5q0 64 -29 102t-81 38q-63 0 -95 -49v-181q38 -49 97 -49z" />
    <glyph glyph-name="uni209B" unicode="&#x209b;" 
d="M311 -183q-108 0 -165 75l55 49q55 -53 116 -53q33 0 53.5 12.5t20.5 35.5q0 21 -21.5 35.5t-70.5 35.5q-5 2 -7 3q-38 16 -55.5 25t-41 25.5t-33.5 37t-10 48.5q0 52 44.5 82.5t111.5 30.5q96 0 154 -66l-56 -46q-47 41 -101 41q-33 0 -53 -11.5t-20 -31.5q0 -17 22 -31
t63 -31q7 -2 11 -4q35 -14 53 -23t42.5 -25.5t35.5 -39t11 -52.5q0 -57 -43 -89.5t-116 -32.5z" />
    <glyph glyph-name="uni209C" unicode="&#x209c;" 
d="M352 -183q-118 0 -118 110v245h-91v76h91v135l87 40v-175h141v-76h-141v-221q0 -28 13 -42t46 -14q39 0 74 21l-9 -80q-38 -19 -93 -19z" />
    <glyph glyph-name="franc" unicode="&#x20a3;" 
d="M542 605h-353v-144h252v-95h-252v-82h252v-95h-252v-189h-103v189h-58v95h58v82h-58v95h58v239h456v-95z" />
    <glyph glyph-name="afii08941" unicode="&#x20a4;" 
d="M72 0v102q55 26 75 116h-83v78h92q-3 28 -18 66h-74v79h44q-14 39 -14 71q0 83 60.5 141.5t174.5 58.5t211 -69l-40 -97q-24 21 -39 32t-51.5 24t-80.5 13q-65 0 -97.5 -30.5t-32.5 -72.5q0 -30 18 -71h193v-79h-160q10 -29 12 -66h148v-78h-158q-13 -68 -67 -122h367
v-96h-480z" />
    <glyph glyph-name="uni20A6" unicode="&#x20a6;" 
d="M594 390v-80h-59v-310h-98l-156 310h-103v-310h-97v310h-58v80h58v310h102l154 -310h101v310h97v-310h59zM178 390h63l-35 69q-24 48 -30 61q2 -15 2 -60v-70zM440 181q-2 38 -2 55v74h-62l38 -76q2 -6 12.5 -26t13.5 -27z" />
    <glyph glyph-name="peseta" unicode="&#x20a7;" 
d="M596 523v-82h-57q-13 -74 -71.5 -125.5t-159.5 -51.5h-119v-264h-103v441h-66v82h66v177h222q105 0 162.5 -50t69.5 -127h56zM189 610v-87h248q-23 87 -121 87h-127zM316 354q98 0 121 87h-248v-87h127z" />
    <glyph glyph-name="uni20A9" unicode="&#x20a9;" 
d="M601 390v-80h-71l-47 -310h-80l-59 310h-72l-59 -310h-80l-47 310h-71v80h58l-47 310h85l44 -310h65l58 310h61l59 -310h63l41 310h88l-47 -310h58zM287 390h41l-8 44q-5 24 -12 76q-5 -40 -12 -75zM194 251l11 59h-39l6 -44q6 -36 10 -75q1 9 6 32.5t6 27.5zM445 268
l6 42h-38l11 -56q1 -6 6 -27.5t6 -29.5q1 9 5 38.5t4 32.5z" />
    <glyph glyph-name="uni20AA" unicode="&#x20aa;" 
d="M54 0v700h87v-615h91q59 0 81 28t22 97v355h87v-354q0 -106 -42.5 -158.5t-144.5 -52.5h-181zM476 0v616h-92q-59 0 -81 -28.5t-22 -97.5v-355h-87v355q0 105 43 157.5t144 52.5h182v-700h-87z" />
    <glyph glyph-name="dong" unicode="&#x20ab;" 
d="M261 127q-93 0 -147.5 54t-54.5 131q0 78 55.5 133t147.5 55q78 0 132 -44v89h-129v82h129v48l100 47v-95h65v-82h-65v-406h-100v41q-53 -53 -133 -53zM274 216q79 0 120 53v92q-47 50 -120 50q-52 0 -82 -29t-30 -70t29.5 -68.5t82.5 -27.5zM79 0v82h415v-82h-415z" />
    <glyph glyph-name="Euro" unicode="&#x20ac;" 
d="M370 -12q-208 0 -250 237h-83l35 77h38q-1 15 -1 47q0 22 1 36h-73l35 77h48q21 110 85 180t176 70q96 0 177 -57l-37 -91q-62 53 -141 53q-120 0 -153 -154h252l-32 -78h-232q-1 -18 -1 -44q0 -33 1 -39h199l-32 -78h-154q15 -63 50 -102t91 -39q78 0 130 72l80 -50
q-32 -52 -86 -84.5t-123 -32.5z" />
    <glyph glyph-name="uni20B9" unicode="&#x20b9;" 
d="M556 700v-90h-141q35 -25 46 -78h95v-90h-93q-11 -75 -70.5 -121t-162.5 -46h-13l242 -275h-119l-265 303v60h166q105 0 125 79h-291v90h288q-23 78 -125 78h-163v90h481z" />
    <glyph glyph-name="uni20BA" unicode="&#x20ba;" 
d="M474 284h102q-5 -54 -24 -102.5t-52.5 -90.5t-89 -66.5t-125.5 -24.5h-112v220l-110 -59v92l110 59v102l-110 -59v92l110 59v194h102v-138l106 57v-92l-106 -57v-102l106 57v-92l-106 -57v-180h15q80 0 127.5 53.5t56.5 134.5z" />
    <glyph glyph-name="uni20BD" unicode="&#x20bd;" 
d="M318 284h-104v-92h149v-96h-149v-96h-102v96h-89v96h89v92h-89v95h89v321h206q120 0 175 -59.5t55 -148.5q0 -84 -57.5 -146t-172.5 -62zM214 605v-226h110q62 0 91 32.5t29 80.5q0 45 -28 79t-92 34h-110z" />
    <glyph glyph-name="uni2105" unicode="&#x2105;" 
d="M143 272q-57 0 -95 61t-38 159q0 99 40.5 159.5t93.5 60.5q11 0 21 -2.5t17.5 -5.5t15 -9t12.5 -11t10 -12.5t8 -13t6.5 -13t5 -11t3.5 -10.5l2 -6l-66 -33q-17 52 -40 52q-21 0 -38 -40t-17 -105q0 -66 17.5 -105t39.5 -39q15 0 23.5 12.5t21.5 43.5l62 -32
q-14 -43 -41.5 -71.5t-63.5 -28.5zM85 -12l348 724h74l-348 -724h-74zM466 -12q-61 0 -100 59t-39 161q0 101 39 160.5t100 59.5q62 0 101 -59t39 -161q0 -103 -39 -161.5t-101 -58.5zM466 64q31 0 48.5 37.5t17.5 106.5t-17.5 107t-48.5 38q-27 0 -45.5 -39t-18.5 -106
t18.5 -105.5t45.5 -38.5z" />
    <glyph glyph-name="uni2113" unicode="&#x2113;" 
d="M301 -12q-114 0 -114 121v116q-20 -12 -46 -24l-32 80q40 17 78 41v191q0 108 36.5 153.5t105.5 45.5q61 0 100.5 -39.5t39.5 -111.5q0 -52 -17 -97t-48.5 -81t-56 -57.5t-59.5 -45.5v-133q0 -40 11.5 -54.5t34.5 -14.5q37 0 74 40l29 -67q-54 -63 -136 -63zM328 629
q-21 0 -30.5 -25t-9.5 -95v-127q80 70 80 164q0 83 -40 83z" />
    <glyph glyph-name="uni2116" unicode="&#x2116;" 
d="M483 272q-55 0 -87 58t-32 162q0 103 32 161.5t87 58.5q56 0 88 -58.5t32 -161.5q0 -104 -32 -162t-88 -58zM247 0l-149 476v-476h-75v702h71l149 -494v494h75v-702h-71zM483 348q51 0 51 144q0 145 -51 145q-24 0 -37.5 -38t-13.5 -107q0 -68 13.5 -106t37.5 -38z
M359 130v69h249v-69h-249z" />
    <glyph glyph-name="trademark" unicode="&#x2122;" 
d="M100 278v353h-92v69h259v-69h-93v-353h-74zM288 278v422h74l78 -228l9 -29l8 29l78 228h74v-422h-74v225l-13 -36l-67 -189h-12l-68 189l-13 38v-227h-74z" />
    <glyph glyph-name="uni2126" unicode="&#x2126;" 
d="M359 0v89q65 74 93 139.5t28 160.5q0 93 -42 160t-130 67q-60 0 -100.5 -35t-56 -84t-15.5 -109q0 -94 28 -160t93 -139v-89h-233v97h136q-131 104 -131 293q0 47 9 91.5t30 86.5t52.5 74t79.5 51t108 19t108 -19t79 -51t52 -74t30 -86.5t9 -91.5q0 -188 -131 -293h137
v-97h-233z" />
    <glyph glyph-name="estimated" unicode="&#x212e;" 
d="M313 -12q-121 0 -204.5 100t-83.5 262q0 174 85 269.5t206 95.5q112 0 190.5 -95.5t84.5 -269.5h-418v-239q60 -63 140 -63q137 0 219 139l48 -31q-51 -83 -113 -125.5t-154 -42.5zM173 408l275 1v183q-19 25 -56 44t-79 19q-80 0 -140 -58v-189z" />
    <glyph glyph-name="uni2153" unicode="&#x2153;" 
d="M268 433v167h-49v63q52 0 70 42h61v-272h-82zM40 316v76h536v-76h-536zM319 -10q-103 0 -140 78l75 20q19 -40 68 -40q21 0 34 10t13 26q0 28 -50 28h-30v55h23q42 0 42 26q0 12 -10.5 20.5t-27.5 8.5q-39 0 -56 -34l-70 20q16 32 51 51.5t79 19.5q52 0 84 -22t32 -57
q0 -20 -14.5 -35.5t-35.5 -21.5q66 -12 66 -65q0 -38 -35 -63t-98 -25z" />
    <glyph glyph-name="uni2154" unicode="&#x2154;" 
d="M180 433q0 56 28 91.5t61 47.5t61 25t28 28q0 29 -39 29q-24 0 -42 -13.5t-25 -37.5l-71 18q12 41 48.5 66t91.5 25t88.5 -23.5t33.5 -66.5q0 -29 -24.5 -50t-55 -30.5t-58.5 -22t-32 -25.5h169v-61h-262zM40 316v76h536v-76h-536zM316 -10q-103 0 -140 78l75 20
q19 -40 68 -40q21 0 34 10t13 26q0 28 -50 28h-30v55h23q42 0 42 26q0 12 -10.5 20.5t-27.5 8.5q-39 0 -56 -34l-70 20q16 32 51 51.5t79 19.5q52 0 84 -22t32 -57q0 -20 -14.5 -35.5t-35.5 -21.5q66 -12 66 -65q0 -38 -35 -63t-98 -25z" />
    <glyph glyph-name="oneeighth" unicode="&#x215b;" 
d="M268 433v167h-49v63q52 0 70 42h61v-272h-82zM40 316v76h536v-76h-536zM306 -10q-58 0 -95.5 24t-37.5 62q0 24 15.5 42t39.5 27q-37 19 -37 57q0 33 32 55t83 22q52 0 83.5 -21.5t31.5 -55.5q0 -17 -10.5 -33t-25.5 -24q24 -9 39.5 -27t15.5 -42q0 -38 -37 -62t-97 -24z
M306 168q44 0 44 31q0 30 -44 30q-20 0 -31.5 -8.5t-11.5 -21.5q0 -31 43 -31zM306 40q59 0 59 39q0 18 -15.5 28.5t-43.5 10.5q-26 0 -42 -10.5t-16 -28.5q0 -39 58 -39z" />
    <glyph glyph-name="threeeighths" unicode="&#x215c;" 
d="M310 423q-103 0 -140 78l75 20q19 -40 68 -40q21 0 34 10t13 26q0 28 -50 28h-30v55h23q42 0 42 26q0 12 -10.5 20.5t-27.5 8.5q-39 0 -56 -34l-70 20q16 32 51 51.5t79 19.5q52 0 84 -22t32 -57q0 -20 -14.5 -35.5t-35.5 -21.5q66 -12 66 -65q0 -38 -35 -63t-98 -25z
M40 316v76h536v-76h-536zM306 -10q-58 0 -95.5 24t-37.5 62q0 24 15.5 42t39.5 27q-37 19 -37 57q0 33 32 55t83 22q52 0 83.5 -21.5t31.5 -55.5q0 -17 -10.5 -33t-25.5 -24q24 -9 39.5 -27t15.5 -42q0 -38 -37 -62t-97 -24zM306 168q44 0 44 31q0 30 -44 30
q-20 0 -31.5 -8.5t-11.5 -21.5q0 -31 43 -31zM306 40q59 0 59 39q0 18 -15.5 28.5t-43.5 10.5q-26 0 -42 -10.5t-16 -28.5q0 -39 58 -39z" />
    <glyph glyph-name="fiveeighths" unicode="&#x215d;" 
d="M299 423q-69 0 -120 38l44 47q33 -29 76 -29q27 0 43.5 11.5t16.5 30.5q0 34 -46 34q-37 0 -59 -27l-66 25l22 152h207v-58h-143l-10 -55q24 19 66 19q49 0 79.5 -25t30.5 -61q0 -45 -37.5 -73.5t-103.5 -28.5zM40 316v76h536v-76h-536zM306 -10q-58 0 -95.5 24t-37.5 62
q0 24 15.5 42t39.5 27q-37 19 -37 57q0 33 32 55t83 22q52 0 83.5 -21.5t31.5 -55.5q0 -17 -10.5 -33t-25.5 -24q24 -9 39.5 -27t15.5 -42q0 -38 -37 -62t-97 -24zM306 168q44 0 44 31q0 30 -44 30q-20 0 -31.5 -8.5t-11.5 -21.5q0 -31 43 -31zM306 40q59 0 59 39
q0 18 -15.5 28.5t-43.5 10.5q-26 0 -42 -10.5t-16 -28.5q0 -39 58 -39z" />
    <glyph glyph-name="seveneighths" unicode="&#x215e;" 
d="M237 433q0 64 30.5 120.5t76.5 91.5h-164v60h256v-56q-60 -40 -87 -100.5t-27 -115.5h-85zM40 316v76h536v-76h-536zM306 -10q-58 0 -95.5 24t-37.5 62q0 24 15.5 42t39.5 27q-37 19 -37 57q0 33 32 55t83 22q52 0 83.5 -21.5t31.5 -55.5q0 -17 -10.5 -33t-25.5 -24
q24 -9 39.5 -27t15.5 -42q0 -38 -37 -62t-97 -24zM306 168q44 0 44 31q0 30 -44 30q-20 0 -31.5 -8.5t-11.5 -21.5q0 -31 43 -31zM306 40q59 0 59 39q0 18 -15.5 28.5t-43.5 10.5q-26 0 -42 -10.5t-16 -28.5q0 -39 58 -39z" />
    <glyph glyph-name="arrowleft" unicode="&#x2190;" 
d="M311 166q-4 0 -17 8l-247 168q-12 8 -12 18t12 18l247 169q13 8 17 8q12 0 12 -11q0 -5 -6 -21l-41 -120l295 11v-108l-295 11l41 -119q6 -16 6 -21q0 -11 -12 -11z" />
    <glyph glyph-name="arrowup" unicode="&#x2191;" 
d="M362 0h-108l11 460l-119 -42q-16 -6 -21 -6q-11 0 -11 12q0 4 8 17l168 248q7 11 18 11t18 -11l168 -248q8 -13 8 -17q0 -12 -11 -12q-3 0 -21 6l-119 42z" />
    <glyph glyph-name="arrowright" unicode="&#x2192;" 
d="M305 166q-12 0 -12 11q0 5 6 21l42 119l-295 -11l-1 108l296 -11l-42 120q-6 16 -6 21q0 11 12 11q4 0 17 -8l248 -169q11 -7 11 -18t-11 -18l-248 -168q-13 -8 -17 -8z" />
    <glyph glyph-name="arrowdown" unicode="&#x2193;" 
d="M308 0q-10 0 -17 10l-171 252q-6 9 -6 13q0 14 14 14q6 0 13 -3l124 -43l-11 457h108l-11 -457l124 43q7 3 14 3q13 0 13 -14q0 -3 -5 -13l-172 -252q-6 -10 -17 -10z" />
    <glyph glyph-name="arrowboth" unicode="&#x2194;" horiz-adv-x="1232" 
d="M856 166q-12 0 -12 11q0 5 6 21l41 117h-549l40 -117q6 -16 6 -21q0 -11 -12 -11q-4 0 -17 8l-247 168q-12 8 -12 18t12 18l247 169q13 8 17 8q12 0 12 -11q0 -5 -6 -21l-40 -117h549l-41 117q-6 16 -6 21q0 11 12 11q4 0 17 -8l248 -169q11 -7 11 -18t-11 -18l-248 -168
q-13 -8 -17 -8z" />
    <glyph glyph-name="arrowupdn" unicode="&#x2195;" 
d="M308 -170q-11 0 -18 11l-168 248q-8 13 -8 17q0 12 11 12q5 0 21 -6l117 -40v453l-117 -41q-16 -6 -21 -6q-11 0 -11 12q0 4 8 17l168 248q7 11 18 11t18 -11l168 -248q8 -13 8 -17q0 -12 -11 -12q-5 0 -21 6l-116 41v-453l116 40q16 6 21 6q11 0 11 -12q0 -4 -8 -17
l-168 -248q-7 -11 -18 -11z" />
    <glyph glyph-name="uni2196" unicode="&#x2196;" 
d="M501 65l-316 332l-55 -114l-2.5 -5t-2 -4.5t-2 -4t-2.5 -3.5l-2.5 -2.5t-3.5 -2t-4 -0.5q-11 0 -15 22l-54 283q0 4 -1.5 10.5t-1.5 8.5q0 18 18 18q5 0 17 -3l286 -54q22 -5 22 -15q0 -8 -21 -18l-116 -55l332 -317z" />
    <glyph glyph-name="uni2197" unicode="&#x2197;" 
d="M115 65l-76 76l332 317l-115 55q-21 10 -21 18q0 10 21 15l287 54q10 3 17 3q17 0 17 -18q0 -7 -3 -19l-54 -283q-4 -22 -15 -22q-9 0 -18 22l-55 114z" />
    <glyph glyph-name="uni2198" unicode="&#x2198;" 
d="M560 64q-6 0 -17 3l-287 54q-21 5 -21 15q0 8 21 18l115 55l-332 317l76 76l317 -332l55 114q9 22 18 22q11 0 15 -22l54 -283q3 -12 3 -19q0 -18 -17 -18z" />
    <glyph glyph-name="uni2199" unicode="&#x2199;" 
d="M57 64q-18 0 -18 18q0 2 1.5 8.5t1.5 10.5l54 283q4 22 15 22q2 0 4.5 -1t3.5 -2t3 -3.5t2.5 -4t2.5 -5.5l3 -6l55 -114l316 332l76 -76l-332 -317l116 -55q21 -10 21 -18q0 -10 -22 -15l-286 -54q-12 -3 -17 -3z" />
    <glyph glyph-name="arrowupdnbse" unicode="&#x21a8;" 
d="M308 -96q-11 0 -18 11l-168 248q-8 13 -8 17q0 12 11 12q5 0 21 -6l117 -40v379l-117 -41q-16 -6 -21 -6q-11 0 -11 12q0 4 8 17l168 248q7 11 18 11t18 -11l168 -248q8 -13 8 -17q0 -12 -11 -12q-5 0 -21 6l-116 41v-379l116 40q16 6 21 6q11 0 11 -12q0 -4 -8 -17
l-168 -248q-7 -11 -18 -11zM39 -250v91h538v-91h-538z" />
    <glyph glyph-name="uni21B3" unicode="&#x21b3;" 
d="M565 232q11 -7 11 -18t-11 -18l-248 -168q-13 -8 -17 -8q-12 0 -12 11q0 5 6 21l41 117h-275v531h96v-440h179l-41 117q-6 16 -6 21q0 11 12 11q4 0 17 -8z" />
    <glyph glyph-name="uni21B4" unicode="&#x21b4;" 
d="M565 324q11 0 11 -12q0 -4 -8 -17l-168 -247q-8 -12 -18 -12t-18 12l-169 247q-8 13 -8 17q0 12 11 12q5 0 21 -6l116 -39v330h-285v91h380v-421l114 39q18 6 21 6z" />
    <glyph glyph-name="uni21B5" unicode="&#x21b5;" 
d="M460 700h96v-531h-274l40 -117q6 -16 6 -21q0 -11 -12 -11q-4 0 -17 8l-247 168q-12 8 -12 18t12 18l247 169q13 8 17 8q12 0 12 -11q0 -5 -6 -21l-40 -117h178v440z" />
    <glyph glyph-name="uni21B6" unicode="&#x21b6;" 
d="M371 712q85 0 145.5 -60.5t60.5 -145.5v-506h-92v506q0 49 -33.5 83t-80.5 34q-48 0 -81 -34t-33 -83v-107l109 39q16 6 21 6q11 0 11 -12q0 -4 -8 -17l-161 -247q-7 -12 -18 -12t-18 12l-162 247q-8 13 -8 17q0 12 11 12q5 0 21 -6l110 -39v107q0 86 60.5 146t145.5 60z
" />
    <glyph glyph-name="uni21B7" unicode="&#x21b7;" 
d="M583 444q11 0 11 -12q0 -4 -8 -17l-163 -247q-7 -12 -18 -12t-18 12l-161 247q-8 13 -8 17q0 12 11 12q5 0 21 -6l110 -39v107q0 49 -33 83t-81 34q-47 0 -80.5 -34t-33.5 -83v-506h-92v506q0 86 60 146t146 60t146 -60t60 -146v-107l110 39q14 6 21 6z" />
    <glyph glyph-name="uni21B8" unicode="&#x21b8;" 
d="M39 609v91h538v-91h-538zM501 -20l-316 333l-55 -114l-2.5 -5t-2 -4.5t-2 -4t-2.5 -3.5l-2.5 -2.5t-3.5 -2t-4 -0.5q-11 0 -15 22l-54 283q0 4 -1.5 10.5t-1.5 8.5q0 18 18 18q5 0 17 -3l286 -54q22 -5 22 -15q0 -8 -21 -18l-116 -55l332 -317z" />
    <glyph glyph-name="uni21B9" unicode="&#x21b9;" 
d="M474 341q-4 0 -17 8l-248 168q-11 7 -11 18t11 18l248 169q13 8 17 8q12 0 12 -11q0 -5 -6 -21l-42 -120l128 11v-108l-128 11l42 -119q6 -16 6 -21q0 -11 -12 -11zM50 349v371h100v-371h-100zM143 -230q-12 0 -12 11q0 5 6 21l41 119l-128 -11v109l128 -11l-41 120
q-6 16 -6 21q0 11 12 11q4 0 17 -8l247 -170q12 -8 12 -18t-12 -18l-247 -168q-13 -8 -17 -8zM466 -222v372h100v-372h-100z" />
    <glyph glyph-name="uni21BA" unicode="&#x21ba;" 
d="M607 627q22 -5 22 -15q0 -4 -3 -7.5t-6 -5t-12 -5.5l-111 -53q79 -79 79 -191t-78 -190t-190 -78t-190 78t-78 190q0 111 79 190l64 -65q-52 -52 -52 -125q0 -74 51.5 -125.5t125.5 -51.5q75 0 126.5 51.5t51.5 125.5q0 75 -54 127l-55 -114q-1 -2 -2.5 -5.5t-2.5 -5
t-3 -4t-3 -3.5t-3.5 -2t-4.5 -1q-11 0 -15 21l-54 283q0 3 -1.5 10.5t-1.5 9.5q0 17 18 17q1 0 17 -2z" />
    <glyph glyph-name="uni21DA" unicode="&#x21da;" 
d="M556 425h-273l-13 -40h286v-50h-286l13 -40h273v-50h-255l16 -47q6 -16 6 -21q0 -11 -12 -11q-4 0 -17 8l-247 168q-12 8 -12 18t12 18l247 169q13 8 17 8q12 0 12 -11q0 -5 -6 -21l-16 -48h255v-50z" />
    <glyph glyph-name="uni21DB" unicode="&#x21db;" 
d="M570 378q11 -7 11 -18t-11 -18l-248 -168q-13 -8 -17 -8q-12 0 -12 11q0 5 6 21l17 47h-256v50h273l14 40h-287v50h287l-14 40h-273v50h256l-17 48q-6 16 -6 21q0 11 12 11q4 0 17 -8z" />
    <glyph glyph-name="uni21DC" unicode="&#x21dc;" 
d="M531 407h40v-93h-74l-6 30l-21 -93h-54l-21 93l-20 -93h-55l-14 63h-39l40 -116q6 -16 6 -21q0 -11 -11 -11q-4 0 -17 8l-238 169q-12 7 -12 18q0 9 12 17l238 169q11 8 17 8q11 0 11 -11q0 -5 -6 -21l-40 -116h73l8 -42l19 106h56l20 -106l20 106h56z" />
    <glyph glyph-name="uni21DD" unicode="&#x21dd;" 
d="M570 378q11 -7 11 -17q0 -11 -11 -18l-238 -169q-13 -8 -17 -8q-12 0 -12 11q0 5 6 21l41 116h-40l-14 -63h-54l-21 93l-20 -93h-55l-20 93l-7 -30h-74v93h41l12 64h56l19 -106l20 106h56l20 -106l8 42h73l-41 116q-6 16 -6 21q0 11 12 11q6 0 17 -8z" />
    <glyph glyph-name="uni21DE" unicode="&#x21de;" 
d="M495 441q8 -13 8 -17q0 -12 -11 -12q-5 0 -21 6l-116 40v-126h137v-73h-137v-80h137v-73h-137v-106h-94v106h-137v73h137v80h-137v73h137v126l-115 -40q-16 -6 -21 -6q-11 0 -11 12q0 4 8 17l168 248q7 11 18 11t18 -11z" />
    <glyph glyph-name="uni21DF" unicode="&#x21df;" 
d="M492 288q11 0 11 -12q0 -4 -8 -17l-169 -247q-8 -12 -18 -12t-18 12l-168 247q-8 13 -8 17q0 12 11 12q5 0 21 -6l115 -40v126h-137v73h137v80h-137v73h137v106h94v-106h137v-73h-137v-80h137v-73h-137v-126l116 40q16 6 21 6z" />
    <glyph glyph-name="uni21E0" unicode="&#x21e0;" 
d="M312 166q-4 0 -17 8l-248 169q-12 7 -12 18q0 9 12 17l248 169q13 8 17 8q11 0 11 -11q0 -5 -6 -21l-40 -115h58v-95h-58l40 -115q6 -16 6 -21q0 -11 -11 -11zM391 313v95h62v-95h-62zM509 313v95h62v-95h-62z" />
    <glyph glyph-name="uni21E1" unicode="&#x21e1;" 
d="M261 358v100l-115 -40q-16 -6 -21 -6q-11 0 -11 12q0 4 8 17l168 248q7 11 18 11t18 -11l168 -248q8 -13 8 -17q0 -12 -11 -12q-3 0 -21 6l-114 40v-100h-95zM261 179v105h95v-105h-95zM261 0v105h95v-105h-95z" />
    <glyph glyph-name="uni21E2" unicode="&#x21e2;" 
d="M305 166q-12 0 -12 11q0 5 6 21l40 115h-58v95h58l-40 115q-6 16 -6 21q0 11 12 11q4 0 17 -8l248 -169q11 -7 11 -17q0 -11 -11 -18l-248 -169q-13 -8 -17 -8zM45 313v95h62v-95h-62zM163 313v95h62v-95h-62z" />
    <glyph glyph-name="uni21E3" unicode="&#x21e3;" 
d="M261 595v105h95v-105h-95zM261 416v105h95v-105h-95zM308 0q-10 0 -18 12l-168 247q-8 13 -8 17q0 12 11 12q5 0 21 -6l115 -39v99h95v-99l114 39q18 6 21 6q11 0 11 -12q0 -4 -8 -17l-168 -247q-8 -12 -18 -12z" />
    <glyph glyph-name="uni21E4" unicode="&#x21e4;" 
d="M50 104v511h100v-511h-100zM474 166q-4 0 -17 8l-248 168q-11 7 -11 18t11 18l248 169q13 8 17 8q12 0 12 -11q0 -5 -6 -21l-42 -120l128 11v-108l-128 11l42 -119q6 -16 6 -21q0 -11 -12 -11z" />
    <glyph glyph-name="uni21E5" unicode="&#x21e5;" 
d="M466 104v511h100v-511h-100zM143 166q-12 0 -12 11q0 5 6 21l41 119l-128 -11v108l128 -11l-41 120q-6 16 -6 21q0 11 12 11q4 0 17 -8l247 -169q12 -8 12 -18t-12 -18l-247 -168q-13 -8 -17 -8z" />
    <glyph glyph-name="universal" unicode="&#x2200;" 
d="M476 700h109l-231 -700h-93l-229 700h110l49 -163h235zM326 212l71 232h-177l70 -232q11 -36 18 -73q7 37 18 73z" />
    <glyph glyph-name="uni2201" unicode="&#x2201;" 
d="M330 -11q-60 0 -108.5 17.5t-78.5 46.5t-50.5 67.5t-28.5 78t-8 81.5v141q0 42 8 81.5t28.5 78t50.5 67.5t78.5 46.5t108.5 17.5q103 0 169.5 -64.5t66.5 -162.5h-106q0 58 -36.5 93t-93.5 35q-84 0 -126.5 -51t-42.5 -141v-141q0 -90 42.5 -141t126.5 -51q57 0 93.5 35
t36.5 93h106q0 -98 -66.5 -162.5t-169.5 -64.5z" />
    <glyph glyph-name="partialdiff" unicode="&#x2202;" 
d="M278 -12q-99 0 -158.5 57t-59.5 152q0 108 71.5 175.5t168.5 67.5q101 0 156 -76q0 16 -2 42q-11 105 -74 156t-154 55l24 95q161 -17 233.5 -111t72.5 -268q0 -70 -15.5 -130t-47.5 -109t-87 -77.5t-128 -28.5zM281 85q69 0 111 39t42 102q0 58 -33 87t-93 29
q-66 0 -106 -37.5t-40 -98.5q0 -56 32.5 -88.5t86.5 -32.5z" />
    <glyph glyph-name="existential" unicode="&#x2203;" 
d="M81 0v98h357v157h-357v98h357v155h-357v98h459v-606h-459z" />
    <glyph glyph-name="uni2204" unicode="&#x2204;" 
d="M540 606v-606h-312l-23 -68h-93l23 68h-54v98h88l53 157h-141v98h175l53 155h-228v98h261l23 67h93l-23 -67h105zM438 353v155h-36l-53 -155h89zM438 98v157h-123l-53 -157h176z" />
    <glyph glyph-name="emptyset" unicode="&#x2205;" 
d="M520 572q96 -91 96 -223q0 -127 -91 -217.5t-218 -90.5q-70 0 -136 32l-51 -73h-114l89 127q-95 90 -95 222q0 128 90 218.5t217 90.5q71 0 137 -32l52 74h114zM105 349q0 -76 50 -136l230 328q-38 16 -78 16q-83 0 -142.5 -61t-59.5 -147zM307 143q84 0 144.5 60.5
t60.5 145.5q0 77 -52 137l-229 -328q34 -15 76 -15z" />
    <glyph glyph-name="uni2206" unicode="&#x2206;" 
d="M17 0l246 700h89l247 -700h-582zM156 96h305l-136 400q-7 19 -17 53q-3 -15 -16 -53z" />
    <glyph glyph-name="gradient" unicode="&#x2207;" 
d="M17 700h582l-247 -700h-89zM156 604l136 -400q13 -38 16 -53q10 34 17 53l136 400h-305z" />
    <glyph glyph-name="element" unicode="&#x2208;" 
d="M310 419q-68 0 -110 -30t-49 -87h408v-92h-408q7 -57 49 -87.5t110 -30.5h249v-92h-243q-123 0 -195.5 68t-72.5 179v18q0 112 71.5 179t196.5 67h243v-92h-249z" />
    <glyph glyph-name="notelement" unicode="&#x2209;" 
d="M559 419h-102l-40 -117h142v-92h-173l-41 -118h214v-92h-243h-2l-32 -93h-91l35 104q-84 22 -131 84.5t-47 151.5v18q0 112 71.5 179t196.5 67h81l31 92h92l-31 -92h70v-92zM326 302l39 117h-55q-68 0 -110 -30t-49 -87h175zM256 98l38 112h-143q10 -91 105 -112z" />
    <glyph glyph-name="uni220A" unicode="&#x220a;" 
d="M267 347q-114 0 -128 -89h421v-84h-421q16 -90 128 -90h293v-84h-286q-107 0 -168 57.5t-61 151.5v15q0 93 60.5 150t168.5 57h286v-84h-293z" />
    <glyph glyph-name="suchthat" unicode="&#x220b;" 
d="M294 511q125 0 196.5 -67t71.5 -179v-18q0 -111 -72.5 -179t-195.5 -68h-243v92h249q68 0 110 30.5t49 87.5h-408v92h408q-7 57 -49 87t-110 30h-249v92h243z" />
    <glyph glyph-name="uni220C" unicode="&#x220c;" 
d="M395 500q85 -22 131.5 -84t46.5 -151v-18q0 -111 -72.5 -179t-195.5 -68h-81l-32 -93h-91l32 93h-71v92h102l40 118h-142v92h173l40 117h-213v92h243h1l30 87h92zM365 413l-38 -111h143q-10 90 -105 111zM311 92q68 0 110 30.5t49 87.5h-175l-40 -118h56z" />
    <glyph glyph-name="uni220D" unicode="&#x220d;" 
d="M342 431q108 0 168.5 -57t60.5 -150v-15q0 -94 -61 -151.5t-168 -57.5h-286v84h293q112 0 128 90h-421v84h421q-14 89 -128 89h-293v84h286z" />
    <glyph glyph-name="uni220E" unicode="&#x220e;" 
d="M97 0v511h414v-511h-414z" />
    <glyph glyph-name="product" unicode="&#x220f;" 
d="M474 -140v743h-333v-743h-100v840h534v-840h-101z" />
    <glyph glyph-name="uni2210" unicode="&#x2210;" 
d="M474 700h101v-840h-534v840h100v-743h333v743z" />
    <glyph glyph-name="summation" unicode="&#x2211;" 
d="M43 -141v91l248 340l-234 319v91h497v-97h-369l232 -313l-245 -334h401v-97h-530z" />
    <glyph glyph-name="minus" unicode="&#x2212;" 
d="M73 294v97h470v-97h-470z" />
    <glyph glyph-name="uni2213" unicode="&#x2213;" 
d="M73 511v97h470v-97h-470zM358 186v-186h-101v186h-184v97h184v187h101v-187h185v-97h-185z" />
    <glyph glyph-name="uni2214" unicode="&#x2214;" 
d="M308 540q-31 0 -52.5 21.5t-21.5 51.5t21.5 51.5t52.5 21.5t52.5 -21.5t21.5 -51.5t-21.5 -51.5t-52.5 -21.5zM358 186v-186h-101v186h-184v97h184v187h101v-187h185v-97h-185z" />
    <glyph glyph-name="uni2215" unicode="&#x2215;" 
d="M19 -12l478 724h100l-478 -724h-100z" />
    <glyph glyph-name="uni2216" unicode="&#x2216;" 
d="M497 -12l-478 724h100l478 -724h-100z" />
    <glyph glyph-name="asteriskmath" unicode="&#x2217;" 
d="M220 119l-78 52l62 95l54 50l-73 -17h-109v95h109l73 -16l-53 49l-62 95l78 52l69 -104l18 -67l19 67l69 104l78 -52l-62 -95l-54 -49l73 16h109v-95h-109l-73 17l54 -50l62 -95l-78 -52l-69 104l-19 68l-19 -68z" />
    <glyph glyph-name="uni2218" unicode="&#x2218;" 
d="M308 219q-54 0 -93 39t-39 93t39 92t93 38t93 -38t39 -92t-39 -93t-93 -39zM308 296q22 0 37 16t15 39t-15 38t-37 15q-21 0 -36.5 -15t-15.5 -38t15.5 -39t36.5 -16z" />
    <glyph glyph-name="uni2219" unicode="&#x2219;" 
d="M308 277q-31 0 -52.5 21.5t-21.5 50.5q0 30 21.5 51.5t52.5 21.5t52.5 -21.5t21.5 -51.5q0 -29 -21.5 -50.5t-52.5 -21.5z" />
    <glyph glyph-name="radical" unicode="&#x221a;" 
d="M283 0l-131 250l-64 -32l-42 82l150 77l119 -231l163 554h104l-213 -700h-86z" />
    <glyph glyph-name="uni221B" unicode="&#x221b;" 
d="M213 426q-103 0 -140 78l75 20q19 -40 68 -40q21 0 34 10t13 26q0 28 -50 28h-30v55h23q42 0 42 26q0 12 -10.5 20.5t-27.5 8.5q-39 0 -56 -34l-70 20q16 32 51 51.5t79 19.5q52 0 84 -22t32 -57q0 -20 -14.5 -35.5t-35.5 -21.5q66 -12 66 -65q0 -38 -35 -63t-98 -25z
M283 0l-131 250l-64 -32l-42 82l150 77l119 -231l163 554h104l-213 -700h-86z" />
    <glyph glyph-name="uni221C" unicode="&#x221c;" 
d="M225 433v55h-178v43l181 174h75v-160h53v-57h-53v-55h-78zM283 0l-131 250l-64 -32l-42 82l150 77l119 -231l163 554h104l-213 -700h-86zM225 545v83l-85 -83h85z" />
    <glyph glyph-name="proportional" unicode="&#x221d;" 
d="M564 461q-29 0 -51 -28t-51 -85q19 -38 31.5 -58.5t31.5 -37.5t39 -17v-100q-46 0 -81 32.5t-68 90.5q-69 -119 -163 -119q-80 0 -142 58.5t-62 150.5t62 150.5t142 58.5q94 0 164 -120q68 124 148 124v-100zM250 232q35 0 62 29.5t57 85.5q-31 57 -58 87t-61 30
q-40 0 -70 -32.5t-30 -83.5t30 -83.5t70 -32.5z" />
    <glyph glyph-name="infinity" unicode="&#x221e;" 
d="M436 583q68 0 119.5 -63.5t51.5 -168.5t-50.5 -168.5t-113.5 -63.5q-47 0 -74 32t-53 96q-25 -62 -56 -95t-80 -33q-65 0 -118 64t-53 168q0 105 51.5 168.5t117.5 63.5q27 0 48 -11t36.5 -35.5t23 -42t20.5 -52.5q26 70 54.5 105.5t75.5 35.5zM183 213q14 0 24.5 7.5
t23 31t18.5 39t22 57.5q1 3 2 5q-18 44 -29 68.5t-28 46t-33 21.5q-28 0 -51 -38t-23 -100q0 -61 23.5 -99.5t50.5 -38.5zM433 213q27 0 50 38t23 100q0 61 -23 99.5t-50 38.5q-22 0 -39 -34.5t-40 -103.5q-1 -4 -2 -6.5t-2 -6t-2 -6.5q31 -81 50 -102q16 -16 35 -17z" />
    <glyph glyph-name="orthogonal" unicode="&#x221f;" 
d="M59 0v606h103v-507h423v-99h-526z" />
    <glyph glyph-name="angle" unicode="&#x2220;" 
d="M220 99h364v-99h-556l425 587l85 -55z" />
    <glyph glyph-name="uni2221" unicode="&#x2221;" 
d="M584 99v-99h-73q-3 -40 -16 -92l-87 22q11 42 13 70h-393l236 326q-33 20 -76 37l29 84q52 -18 100 -47l136 187l85 -55l-142 -193q98 -98 115 -240h73zM420 99q-15 97 -79 165l-121 -165h200z" />
    <glyph glyph-name="uni2222" unicode="&#x2222;" 
d="M536 379q0 -85 -36 -164l70 -37l-57 -91l-67 36q-30 -38 -61 -68l-61 64q20 19 43 47l-338 183l363 205q-11 20 -33 49l69 56q28 -35 43 -60l42 23l58 -84l-56 -31q21 -63 21 -128zM237 353l184 -97q24 58 24 120q0 43 -12 85z" />
    <glyph glyph-name="uni2223" unicode="&#x2223;" 
d="M257 0v700h103v-700h-103z" />
    <glyph glyph-name="uni2224" unicode="&#x2224;" 
d="M496 416l-136 -94v-322h-103v252l-91 -63l-48 69l139 96v346h103v-275l89 61z" />
    <glyph glyph-name="uni2225" unicode="&#x2225;" 
d="M169 0v700h103v-700h-103zM345 0v700h103v-700h-103z" />
    <glyph glyph-name="uni2226" unicode="&#x2226;" 
d="M594 487l-146 -94v-393h-103v327l-73 -47v-280h-103v214l-96 -62l-49 77l145 93v378h103v-311l73 47v264h103v-198l96 62z" />
    <glyph glyph-name="logicaland" unicode="&#x2227;" 
d="M55 0l216 441h74l216 -441h-106l-147 306l-147 -306h-106z" />
    <glyph glyph-name="logicalor" unicode="&#x2228;" 
d="M55 441h106l147 -306l147 306h106l-216 -441h-74z" />
    <glyph glyph-name="intersection" unicode="&#x2229;" 
d="M51 0v289q0 108 73 171t184 63t184.5 -63t73.5 -171v-289h-100v279q0 71 -43.5 109.5t-114.5 38.5t-114 -38.5t-43 -109.5v-279h-100z" />
    <glyph glyph-name="union" unicode="&#x222a;" 
d="M308 -12q-113 0 -187.5 64t-74.5 175v284h100v-274q0 -73 44.5 -112.5t117.5 -39.5t117.5 39.5t44.5 112.5v274h100v-284q0 -111 -74.5 -175t-187.5 -64z" />
    <glyph glyph-name="integral" unicode="&#x222b;" 
d="M242 -140q-57 0 -103 23v79q43 -15 73 -15q46 0 46 47v600q0 118 115 118q58 0 104 -24v-79q-46 16 -73 16q-46 0 -46 -48v-599q0 -118 -116 -118z" />
    <glyph glyph-name="uni222C" unicode="&#x222c;" 
d="M101 -140q-57 0 -103 23v79q43 -15 73 -15q46 0 46 47v600q0 118 115 118q58 0 104 -24v-79q-46 16 -73 16q-46 0 -46 -48v-599q0 -118 -116 -118zM384 -140q-57 0 -103 23v79q43 -15 73 -15q46 0 46 47v600q0 118 115 118q58 0 104 -24v-79q-46 16 -73 16q-46 0 -46 -48
v-599q0 -118 -116 -118z" />
    <glyph glyph-name="uni222D" unicode="&#x222d;" horiz-adv-x="1232" 
d="M253 -140q-57 0 -103 23v79q43 -15 73 -15q46 0 46 47v600q0 118 115 118q58 0 104 -24v-79q-46 16 -73 16q-46 0 -46 -48v-599q0 -118 -116 -118zM550 -140q-57 0 -103 23v79q43 -15 73 -15q46 0 46 47v600q0 118 115 118q58 0 104 -24v-79q-46 16 -73 16q-46 0 -46 -48
v-599q0 -118 -116 -118zM848 -140q-57 0 -103 23v79q43 -15 73 -15q46 0 46 47v600q0 118 115 118q58 0 104 -24v-79q-46 16 -73 16q-46 0 -46 -48v-599q0 -118 -116 -118z" />
    <glyph glyph-name="uni222E" unicode="&#x222e;" 
d="M557 284q0 -89 -56.5 -158t-142.5 -86v-62q0 -118 -116 -118q-57 0 -103 23v79q43 -15 73 -15q46 0 46 47v46q-85 17 -141.5 86t-56.5 158t56.5 158t141.5 86v66q0 118 115 118q58 0 104 -24v-79q-46 16 -73 16q-46 0 -46 -48v-49q86 -17 142.5 -86t56.5 -158zM358 143
q44 15 71.5 54t27.5 87t-27.5 86.5t-71.5 54.5v-282zM160 284q0 -48 27.5 -87t70.5 -54v282q-43 -16 -70.5 -55t-27.5 -86z" />
    <glyph glyph-name="uni222F" unicode="&#x222f;" horiz-adv-x="1232" 
d="M997 285q0 -72 -45 -113t-144 -58v-136q0 -118 -116 -118q-57 0 -103 23v79q43 -15 73 -15q46 0 46 47v109q-56 -2 -91 -2q-36 0 -92 2v-125q0 -118 -116 -118q-57 0 -103 23v79q44 -15 73 -15q46 0 46 47v120q-99 17 -144 58t-45 113t45 113t144 58v138q0 118 115 118
q58 0 104 -24v-79q-46 16 -73 16q-46 0 -46 -48v-110q56 2 92 2q35 0 91 -2v127q0 118 115 118q58 0 104 -24v-79q-46 16 -73 16q-46 0 -46 -48v-121q98 -17 143.5 -58.5t45.5 -112.5zM617 200q37 0 91 2v166q-54 2 -91 2q-38 0 -92 -2v-166q54 -2 92 -2zM808 213
q48 9 68.5 27t20.5 45q0 53 -89 72v-144zM336 285q0 -27 20.5 -45t68.5 -27v144q-89 -19 -89 -72z" />
    <glyph glyph-name="uni2230" unicode="&#x2230;" horiz-adv-x="1232" 
d="M1220 286q0 -84 -60 -130.5t-196 -66.5v-111q0 -118 -116 -118q-57 0 -103 23v79q43 -15 73 -15q46 0 46 47v84q-73 -6 -198 -8v-92q0 -118 -116 -118q-57 0 -103 23v79q43 -15 73 -15q46 0 46 47v76q-124 2 -197 8v-100q0 -118 -116 -118q-57 0 -103 23v79
q43 -15 73 -15q46 0 46 47v95q-135 20 -194.5 66.5t-59.5 130.5q0 83 60 129.5t194 66.5v112q0 118 115 118q58 0 104 -24v-79q-46 16 -73 16q-46 0 -46 -48v-84q73 6 197 8v93q0 118 115 118q58 0 104 -24v-79q-46 16 -73 16q-46 0 -46 -48v-76q125 -2 198 -8v101
q0 118 115 118q58 0 104 -24v-79q-46 16 -73 16q-46 0 -46 -48v-95q136 -20 196 -66.5t60 -129.5zM666 169q128 2 198 8v217q-70 6 -198 8v-233zM369 177q70 -6 197 -8v233q-127 -2 -197 -8v-217zM964 188q83 13 119.5 37t36.5 61q0 36 -36.5 60t-119.5 37v-195zM115 286
q0 -36 36 -60t118 -38v195q-154 -26 -154 -97z" />
    <glyph glyph-name="uni2231" unicode="&#x2231;" 
d="M557 244h61l-113 -113l-114 113h66q-3 45 -30 80.5t-69 50.5v-397q0 -118 -116 -118q-57 0 -103 23v79q43 -15 73 -15q46 0 46 47v381q-43 -16 -70.5 -55t-27.5 -86h-100q0 89 56.5 158t141.5 86v116q0 118 115 118q58 0 104 -24v-79q-46 16 -73 16q-46 0 -46 -48v-99
q83 -17 139 -82.5t60 -151.5z" />
    <glyph glyph-name="uni2232" unicode="&#x2232;" 
d="M550 226q-16 -70 -68.5 -120.5t-123.5 -64.5v-63q0 -118 -116 -118q-57 0 -103 23v79q43 -15 73 -15q46 0 46 47v47q-85 17 -141.5 85.5t-56.5 157.5t56.5 158t141.5 86v66q0 118 115 118q58 0 104 -24v-79q-46 16 -73 16q-46 0 -46 -48v-49q83 -17 139 -82.5t60 -151.5
h61zM358 144q69 24 91 92l-58 58h66q-3 45 -30 81t-69 50v-281zM160 284q0 -48 27.5 -86.5t70.5 -53.5v281q-43 -15 -70.5 -54t-27.5 -87z" />
    <glyph glyph-name="uni2233" unicode="&#x2233;" 
d="M557 273q-4 -86 -60 -150.5t-139 -81.5v-63q0 -118 -116 -118q-57 0 -103 23v79q43 -15 73 -15q46 0 46 47v47q-85 17 -141.5 85.5t-56.5 157.5t56.5 158t141.5 86v66q0 118 115 118q58 0 104 -24v-79q-46 16 -73 16q-46 0 -46 -48v-49q71 -15 123.5 -65.5t68.5 -120.5
l69 -69h-62zM358 144q41 14 68 49t31 80h-65l58 57q-10 33 -34.5 58.5t-57.5 36.5v-281zM160 284q0 -48 27.5 -86.5t70.5 -53.5v281q-43 -15 -70.5 -54t-27.5 -87z" />
    <glyph glyph-name="therefore" unicode="&#x2234;" 
d="M308 430q-31 0 -52 21t-21 51t21 51.5t52 21.5t52.5 -21.5t21.5 -51.5t-21.5 -51t-52.5 -21zM140 125q-31 0 -52.5 21t-21.5 51t21.5 51.5t52.5 21.5t52.5 -21.5t21.5 -51.5t-21.5 -51t-52.5 -21zM477 125q-31 0 -52.5 21t-21.5 51t21.5 51.5t52.5 21.5t52.5 -21.5
t21.5 -51.5t-21.5 -51t-52.5 -21z" />
    <glyph glyph-name="uni2235" unicode="&#x2235;" 
d="M140 428q-31 0 -52.5 21.5t-21.5 51.5t21.5 51.5t52.5 21.5t52.5 -21.5t21.5 -51.5t-21.5 -51.5t-52.5 -21.5zM477 428q-31 0 -52.5 21.5t-21.5 51.5t21.5 51.5t52.5 21.5t52.5 -21.5t21.5 -51.5t-21.5 -51.5t-52.5 -21.5zM308 123q-31 0 -52.5 21.5t-21.5 51.5
t21.5 51.5t52.5 21.5t52.5 -21.5t21.5 -51.5t-21.5 -51.5t-52.5 -21.5z" />
    <glyph glyph-name="uni2236" unicode="&#x2236;" 
d="M308 403q-31 0 -52 21.5t-21 51.5t21 51.5t52 21.5t52.5 -21.5t21.5 -51.5t-21.5 -51.5t-52.5 -21.5zM308 98q-31 0 -52 21.5t-21 51.5t21 51.5t52 21.5t52.5 -21.5t21.5 -51.5t-21.5 -51.5t-52.5 -21.5z" />
    <glyph glyph-name="uni2237" unicode="&#x2237;" 
d="M151 429q-31 0 -52.5 21t-21.5 51t21.5 51.5t52.5 21.5t52.5 -21.5t21.5 -51.5t-21.5 -51t-52.5 -21zM478 429q-31 0 -52.5 21t-21.5 51t21.5 51.5t52.5 21.5t52.5 -21.5t21.5 -51.5t-21.5 -51t-52.5 -21zM151 124q-31 0 -52.5 21t-21.5 51t21.5 51.5t52.5 21.5
t52.5 -21.5t21.5 -51.5t-21.5 -51t-52.5 -21zM478 124q-31 0 -52.5 21t-21.5 51t21.5 51.5t52.5 21.5t52.5 -21.5t21.5 -51.5t-21.5 -51t-52.5 -21z" />
    <glyph glyph-name="uni2238" unicode="&#x2238;" 
d="M308 386q-31 0 -52.5 21.5t-21.5 51.5t21.5 51.5t52.5 21.5t52.5 -21.5t21.5 -51.5t-21.5 -51.5t-52.5 -21.5zM73 195v97h470v-97h-470z" />
    <glyph glyph-name="uni2239" unicode="&#x2239;" 
d="M469 431q-31 0 -52.5 21t-21.5 51t21.5 51.5t52.5 21.5t52.5 -21.5t21.5 -51.5t-21.5 -51t-52.5 -21zM64 301v96h270v-96h-270zM469 121q-31 0 -52.5 21.5t-21.5 51.5t21.5 51.5t52.5 21.5t52.5 -21.5t21.5 -51.5t-21.5 -51.5t-52.5 -21.5z" />
    <glyph glyph-name="uni223A" unicode="&#x223a;" 
d="M145 460q-31 0 -52.5 21.5t-21.5 51.5t21.5 51.5t52.5 21.5t52.5 -21.5t21.5 -51.5t-21.5 -51.5t-52.5 -21.5zM472 460q-31 0 -52.5 21.5t-21.5 51.5t21.5 51.5t52.5 21.5t52.5 -21.5t21.5 -51.5t-21.5 -51.5t-52.5 -21.5zM73 301v96h471v-96h-471zM145 92
q-31 0 -52.5 21.5t-21.5 51.5t21.5 51.5t52.5 21.5t52.5 -21.5t21.5 -51.5t-21.5 -51.5t-52.5 -21.5zM472 92q-31 0 -52.5 21.5t-21.5 51.5t21.5 51.5t52.5 21.5t52.5 -21.5t21.5 -51.5t-21.5 -51.5t-52.5 -21.5z" />
    <glyph glyph-name="uni223B" unicode="&#x223b;" 
d="M308 467q-30 0 -50 20.5t-20 48.5t20.5 49t49.5 21q30 0 50.5 -21t20.5 -49t-20.5 -48.5t-50.5 -20.5zM421 261q-40 0 -113 38t-114 38q-75 0 -121 -71v98q46 71 131 71q48 0 121.5 -38t105.5 -38q75 0 112 73v-98q-37 -73 -122 -73zM308 100q-30 0 -50 20.5t-20 48.5
t20.5 49t49.5 21q30 0 50.5 -21t20.5 -49t-20.5 -48.5t-50.5 -20.5z" />
    <glyph glyph-name="similar" unicode="&#x223c;" 
d="M421 199q-40 0 -113 38t-114 38q-75 0 -121 -71v98q46 71 131 71q48 0 121.5 -38t105.5 -38q75 0 112 73v-98q-37 -73 -122 -73z" />
    <glyph glyph-name="uni223D" unicode="&#x223d;" 
d="M421 412q85 0 122 -73v-98q-37 73 -112 73q-32 0 -105.5 -38t-121.5 -38q-85 0 -131 71v98q46 -71 121 -71q41 0 114 38t113 38z" />
    <glyph glyph-name="uni223E" unicode="&#x223e;" 
d="M192 183q-52 13 -92 61t-40 107q0 72 43 118t108 46q41 0 71 -25t45.5 -60.5t28 -71t27 -60.5t33.5 -25q23 0 35.5 20t12.5 49q0 26 -18 48.5t-51 24.5l30 97q52 -14 92 -61.5t40 -106.5q0 -72 -43 -118t-109 -46q-41 0 -71 25t-45.5 60.5t-28 71t-27 60.5t-33.5 25
q-22 0 -34.5 -19t-12.5 -48q0 -27 17.5 -50t51.5 -26z" />
    <glyph glyph-name="uni223F" unicode="&#x223f;" 
d="M426 23q-73 0 -118 60.5t-50 161.5q-3 62 -22 95.5t-46 33.5q-29 0 -51 -33.5t-24 -88.5l-100 2q3 96 52 157.5t123 61.5q73 0 118.5 -60.5t49.5 -161.5q3 -61 22 -95t46 -34q30 0 52 34t23 88l100 -2q-2 -96 -51 -157.5t-124 -61.5z" />
    <glyph glyph-name="uni2240" unicode="&#x2240;" 
d="M293 114q-72 42 -72 127q0 44 38 117t38 110q0 74 -72 116h98q72 -42 72 -126q0 -44 -38 -117.5t-38 -109.5q0 -75 72 -117h-98z" />
    <glyph glyph-name="uni2241" unicode="&#x2241;" 
d="M431 332q75 0 112 73v-98q-37 -73 -122 -73q-34 0 -86 24l-36 -106h-99l50 147q-28 11 -56 11q-75 0 -121 -71v98q46 71 131 71q36 0 77 -17l37 110h100l-52 -152q37 -17 65 -17z" />
    <glyph glyph-name="uni2242" unicode="&#x2242;" 
d="M73 417v97h470v-97h-470zM421 175q-40 0 -113 38t-114 38q-75 0 -121 -71v98q46 71 131 71q48 0 121.5 -38t105.5 -38q75 0 112 73v-98q-37 -73 -122 -73z" />
    <glyph glyph-name="uni2243" unicode="&#x2243;" 
d="M421 363q-40 0 -113 38t-114 38q-75 0 -121 -71v98q46 71 131 71q48 0 121.5 -38t105.5 -38q75 0 112 73v-98q-37 -73 -122 -73zM73 176v98h470v-98h-470z" />
    <glyph glyph-name="uni2244" unicode="&#x2244;" 
d="M421 363q-20 0 -51 9l-38 -98h211v-98h-249l-41 -106h-100l41 106h-121v98h159l54 138q-54 27 -92 27q-75 0 -121 -71v98q46 71 131 71q48 0 116 -35l32 81h100l-46 -119q12 -3 25 -3q75 0 112 73v-98q-37 -73 -122 -73z" />
    <glyph glyph-name="congruent" unicode="&#x2245;" 
d="M421 462q-40 0 -113 38t-114 38q-75 0 -121 -71v98q46 71 131 71q48 0 121.5 -38t105.5 -38q75 0 112 73v-98q-37 -73 -122 -73zM73 295v99h470v-99h-470zM73 114v99h470v-99h-470z" />
    <glyph glyph-name="uni2246" unicode="&#x2246;" 
d="M431 580q75 0 112 73v-98q-37 -73 -122 -73q-40 0 -113 38t-114 38q-75 0 -121 -71v98q46 71 131 71q48 0 121.5 -38t105.5 -38zM440 453l-24 -59h127v-99h-168l-32 -77h200v-99h-241l-24 -58h-98l24 58h-131v99h172l32 77h-204v99h245l24 59h98z" />
    <glyph glyph-name="uni2247" unicode="&#x2247;" 
d="M421 459q-13 0 -27 3l-24 -71h173v-99h-207l-28 -82h235v-99h-269l-29 -84h-93l29 84h-108v99h142l28 82h-170v99h204l35 104q-76 40 -118 40q-75 0 -121 -71v98q46 71 131 71q13 0 27 -2.5t22.5 -4.5t25 -9t21 -9t23.5 -11.5t20 -10.5l28 81h93l-38 -110h5q75 0 112 73
v-98q-37 -73 -122 -73z" />
    <glyph glyph-name="approxequal" unicode="&#x2248;" 
d="M410 367q-45 0 -111 29.5t-92 29.5q-28 0 -44 -16t-18 -43h-72q0 67 32.5 111t100.5 44q46 0 112 -29.5t91 -29.5q28 0 44 16t18 43h72q0 -67 -32.5 -111t-100.5 -44zM410 165q-45 0 -111 29t-92 29q-57 0 -62 -58h-72q0 67 32.5 111t100.5 44q46 0 112 -29t91 -29
q28 0 44 16t18 42h72q0 -67 -32.5 -111t-100.5 -44z" />
    <glyph glyph-name="uni2249" unicode="&#x2249;" 
d="M420 334q-20 0 -51 9l-33 -84q60 -32 94 -32q75 0 112 73v-98q-37 -73 -122 -73q-39 0 -119 41l-48 -124h-100l61 157q-14 2 -21 2q-75 0 -121 -71v98q46 71 131 71q22 0 48 -7l34 87q-54 27 -92 27q-75 0 -121 -71v98q46 71 131 71q49 0 117 -36l42 109h100l-57 -146
q12 -3 25 -3q75 0 112 73v-98q-37 -73 -122 -73z" />
    <glyph glyph-name="uni224A" unicode="&#x224a;" 
d="M421 436q-40 0 -113 38t-114 38q-75 0 -121 -71v98q46 71 131 71q48 0 121.5 -38t105.5 -38q75 0 112 73v-98q-37 -73 -122 -73zM421 254q-40 0 -113 38t-114 38q-75 0 -121 -71v98q46 71 131 71q48 0 121.5 -38t105.5 -38q75 0 112 73v-98q-37 -73 -122 -73zM73 104v97
h470v-97h-470z" />
    <glyph glyph-name="uni224B" unicode="&#x224b;" 
d="M421 445q-40 0 -113 38t-114 38q-75 0 -121 -71v98q46 71 131 71q48 0 121.5 -38t105.5 -38q75 0 112 73v-98q-37 -73 -122 -73zM421 263q-40 0 -113 38t-114 38q-75 0 -121 -71v98q46 71 131 71q48 0 121.5 -38t105.5 -38q75 0 112 73v-98q-37 -73 -122 -73zM421 80
q-40 0 -113 38t-114 38q-75 0 -121 -71v98q46 71 131 71q48 0 121.5 -38t105.5 -38q75 0 112 73v-98q-37 -73 -122 -73z" />
    <glyph glyph-name="uni224C" unicode="&#x224c;" 
d="M192 352q-52 13 -92 61t-40 107q0 72 43 118t108 46q41 0 71 -25t45.5 -60.5t28 -71t27 -60.5t33.5 -25q23 0 35.5 20t12.5 49q0 26 -18 48.5t-51 24.5l30 97q52 -14 92 -61.5t40 -106.5q0 -72 -43 -118t-109 -46q-41 0 -71 25t-45.5 60.5t-28 71t-27 60.5t-33.5 25
q-22 0 -34.5 -19t-12.5 -48q0 -27 17.5 -50t51.5 -26zM73 198v99h470v-99h-470zM73 23v99h470v-99h-470z" />
    <glyph glyph-name="uni224D" unicode="&#x224d;" 
d="M308 378q-105 0 -187.5 46t-114.5 124l93 38q20 -49 77 -79t132 -30t132.5 30t77.5 79l92 -38q-32 -78 -114.5 -124t-187.5 -46zM98 110l-92 38q32 78 114.5 124t187.5 46t187.5 -46t114.5 -124l-92 -38q-20 49 -77.5 79t-132.5 30t-132.5 -30t-77.5 -79z" />
    <glyph glyph-name="uni224E" unicode="&#x224e;" 
d="M68 387v97h96q0 59 42.5 101t101.5 42q60 0 102 -42t42 -101h96v-97h-194v97q0 19 -13.5 32.5t-32.5 13.5t-32.5 -13.5t-13.5 -32.5v-97h-194zM308 63q-59 0 -101.5 42t-42.5 101h-96v96h194v-96q0 -19 13.5 -32.5t32.5 -13.5q20 0 33 13t13 33v96h194v-96h-96
q0 -59 -42 -101t-102 -42z" />
    <glyph glyph-name="uni224F" unicode="&#x224f;" 
d="M68 370v96h96q0 59 42.5 101t101.5 42q60 0 102 -42t42 -101h96v-96h-194v96q0 20 -13 33t-33 13q-19 0 -32.5 -13.5t-13.5 -32.5v-96h-194zM68 179v97h480v-97h-480z" />
    <glyph glyph-name="uni2250" unicode="&#x2250;" 
d="M308 507q-31 0 -52.5 21.5t-21.5 51.5t21.5 51.5t52.5 21.5t52.5 -21.5t21.5 -51.5t-21.5 -51.5t-52.5 -21.5zM73 363v99h470v-99h-470zM73 134v99h470v-99h-470z" />
    <glyph glyph-name="uni2251" unicode="&#x2251;" 
d="M308 541q-31 0 -52.5 21t-21.5 51t21.5 51.5t52.5 21.5t52.5 -21.5t21.5 -51.5t-21.5 -51t-52.5 -21zM73 385v99h470v-99h-470zM73 210v99h470v-99h-470zM308 5q-31 0 -52.5 21.5t-21.5 51.5t21.5 51.5t52.5 21.5t52.5 -21.5t21.5 -51.5t-21.5 -51.5t-52.5 -21.5z" />
    <glyph glyph-name="uni2252" unicode="&#x2252;" 
d="M145 550q-31 0 -52.5 21t-21.5 51t21.5 51.5t52.5 21.5t52.5 -21.5t21.5 -51.5t-21.5 -51t-52.5 -21zM73 390v99h470v-99h-470zM73 215v99h470v-99h-470zM471 9q-31 0 -52 21.5t-21 51.5t21 51.5t52 21.5t52.5 -21.5t21.5 -51.5t-21.5 -51.5t-52.5 -21.5z" />
    <glyph glyph-name="uni2253" unicode="&#x2253;" 
d="M471 550q-31 0 -52.5 21t-21.5 51t21.5 51.5t52.5 21.5t52.5 -21.5t21.5 -51.5t-21.5 -51t-52.5 -21zM543 390h-470v99h470v-99zM543 215h-470v99h470v-99zM145 9q-31 0 -52.5 21.5t-21.5 51.5t21.5 51.5t52.5 21.5t52 -21.5t21 -51.5t-21 -51.5t-52 -21.5z" />
    <glyph glyph-name="uni2254" unicode="&#x2254;" 
d="M93 385q-31 0 -52.5 21.5t-21.5 51.5t21.5 51.5t52.5 21.5t52.5 -21.5t21.5 -51.5t-21.5 -51.5t-52.5 -21.5zM200 408v99h390v-99h-390zM93 155q-31 0 -52.5 21t-21.5 51t21.5 51.5t52.5 21.5t52.5 -21.5t21.5 -51.5t-21.5 -51t-52.5 -21zM200 178v99h390v-99h-390z" />
    <glyph glyph-name="uni2255" unicode="&#x2255;" 
d="M521 385q-31 0 -52.5 21.5t-21.5 51.5t21.5 51.5t52.5 21.5t52.5 -21.5t21.5 -51.5t-21.5 -51.5t-52.5 -21.5zM414 408h-390v99h390v-99zM521 155q-31 0 -52.5 21t-21.5 51t21.5 51.5t52.5 21.5t52.5 -21.5t21.5 -51.5t-21.5 -51t-52.5 -21zM414 178h-390v99h390v-99z
" />
    <glyph glyph-name="uni2256" unicode="&#x2256;" 
d="M543 511v-99h-84q13 -33 13 -65q0 -33 -13 -65h84v-99h-470v99h84q-13 32 -13 65t13 65h-84v99h470zM371 347q0 27 -18.5 46t-44.5 19t-44.5 -19t-18.5 -46q0 -28 18.5 -46.5t44.5 -18.5t44.5 18.5t18.5 46.5z" />
    <glyph glyph-name="uni2257" unicode="&#x2257;" 
d="M308 465q-50 0 -86 35.5t-36 85.5t36 85t86 35q51 0 87 -35t36 -85q0 -49 -36.5 -85t-86.5 -36zM308 535q20 0 34 14.5t14 36.5t-14 36t-34 14t-33.5 -14t-13.5 -36t13.5 -36.5t33.5 -14.5zM73 255v99h470v-99h-470zM73 26v99h470v-99h-470z" />
    <glyph glyph-name="uni2258" unicode="&#x2258;" 
d="M174 492l-93 38q30 72 92.5 111t134.5 39q73 0 135 -39t92 -111l-92 -38q-18 43 -55 66t-80 23t-80 -23t-54 -66zM73 255v99h470v-99h-470zM73 26v99h470v-99h-470z" />
    <glyph glyph-name="uni2259" unicode="&#x2259;" 
d="M308 624l-96 -165h-97l156 253h75l155 -253h-97zM73 354h470v-99h-470v99zM73 26v99h470v-99h-470z" />
    <glyph glyph-name="uni225A" unicode="&#x225a;" 
d="M346 459h-75l-156 253h97l96 -165l96 165h97zM73 354h470v-99h-470v99zM73 26v99h470v-99h-470z" />
    <glyph glyph-name="uni225B" unicode="&#x225b;" 
d="M466 633l-95 -68l46 -126l-109 79l-110 -79l46 126l-95 68h120l39 107l39 -107h119zM73 255v99h470v-99h-470zM73 26v99h470v-99h-470z" />
    <glyph glyph-name="uni225C" unicode="&#x225c;" 
d="M119 459l155 253h68l156 -253h-379zM254 527h108l-45 86q-6 12 -9 20q-1 -4 -9 -20zM73 255v99h470v-99h-470zM73 26v99h470v-99h-470z" />
    <glyph glyph-name="uni225D" unicode="&#x225d;" 
d="M151 455q-35 0 -56 25.5t-21 68.5t21 68t56 25q26 0 41 -15v63l45 22v-253h-45v13q-13 -17 -41 -17zM427 459v41h27v97h-27v41h27v17q0 54 52 54q25 0 43 -10v-40q-16 8 -34 8q-16 0 -16 -16v-13h37v-41h-37v-97h37v-41h-109zM338 455q-37 0 -61 26.5t-24 67.5
q0 42 23 67.5t61 25.5q37 0 59 -23.5t22 -63.5q0 -17 -2 -27h-114q1 -14 12 -22.5t26 -8.5q24 0 41 16l27 -32q-31 -26 -70 -26zM158 498q22 0 34 19v66q-14 17 -34 17q-37 0 -37 -51q0 -24 10 -37.5t27 -13.5zM301 570h70q-5 30 -34 30q-33 0 -36 -30zM73 255v99h470v-99
h-470zM73 26v99h470v-99h-470z" />
    <glyph glyph-name="uni225E" unicode="&#x225e;" 
d="M242 555v-96h-45v179h43v-12q13 16 36 16q26 0 39 -19q17 19 45 19q59 0 59 -67v-116h-45v103q0 38 -21 38q-22 0 -22 -45v-96h-45v103q0 38 -20 38q-24 0 -24 -45zM73 354h470v-99h-470v99zM73 26v99h470v-99h-470z" />
    <glyph glyph-name="uni225F" unicode="&#x225f;" 
d="M283 530v11q0 29 15 46.5t30 29.5t15 27q0 11 -9.5 18.5t-25.5 7.5q-41 0 -41 -45h-46q0 39 23 63t64 24q37 0 60 -19t23 -48q0 -22 -10 -37t-21.5 -22.5t-21.5 -19t-10 -25.5v-11h-45zM305 453q-13 0 -23 9.5t-10 22.5t10 22.5t23 9.5q14 0 24 -9.5t10 -22.5t-10 -22.5
t-24 -9.5zM73 255v99h470v-99h-470zM73 26v99h470v-99h-470z" />
    <glyph glyph-name="notequal" unicode="&#x2260;" 
d="M543 408h-160l-53 -130h213v-99h-254l-74 -179h-100l74 179h-116v99h157l53 130h-210v99h251l80 193h100l-80 -193h119v-99z" />
    <glyph glyph-name="equivalence" unicode="&#x2261;" 
d="M73 477v96h470v-96h-470zM73 301v97h470v-97h-470zM73 126v96h470v-96h-470z" />
    <glyph glyph-name="uni2262" unicode="&#x2262;" 
d="M543 477h-131l-34 -79h165v-97h-207l-34 -79h241v-96h-283l-47 -109h-100l47 109h-87v96h129l34 79h-163v97h205l34 79h-239v96h281l46 107h100l-46 -107h89v-96z" />
    <glyph glyph-name="uni2263" unicode="&#x2263;" 
d="M73 486v97h470v-97h-470zM73 324v97h470v-97h-470zM73 162v97h470v-97h-470zM73 0v97h470v-97h-470z" />
    <glyph glyph-name="lessequal" unicode="&#x2264;" 
d="M543 221l-469 171v86l469 171v-103l-323 -111l323 -112v-102zM73 67v97h470v-97h-470z" />
    <glyph glyph-name="greaterequal" unicode="&#x2265;" 
d="M73 221v102l328 112l-328 111v103l469 -171v-86zM73 67v97h470v-97h-470z" />
    <glyph glyph-name="uni2266" unicode="&#x2266;" 
d="M544 365l-470 143v86l470 144v-99l-335 -87l335 -88v-99zM543 197h-470v97h470v-97zM543 24h-470v97h470v-97z" />
    <glyph glyph-name="uni2267" unicode="&#x2267;" 
d="M73 365v99l335 88l-335 87v99l470 -144v-86zM74 197v97h470v-97h-470zM74 24v97h470v-97h-470z" />
    <glyph glyph-name="uni2268" unicode="&#x2268;" 
d="M544 738v-99l-335 -87l335 -88v-99l-470 143v86zM450 356l-27 -62h120v-97h-162l-33 -76h195v-97h-236l-29 -66h-99l29 66h-135v97h176l33 76h-209v97h251l27 62h99z" />
    <glyph glyph-name="uni2269" unicode="&#x2269;" 
d="M543 594v-86l-470 -143v99l335 88l-335 87v99zM544 197h-167l-33 -76h200v-97h-242l-30 -69h-98l30 69h-130v97h172l32 76h-204v97h246l31 71h99l-31 -71h125v-97z" />
    <glyph glyph-name="uni226A" unicode="&#x226a;" horiz-adv-x="1232" 
d="M169 306v86l470 191v-101l-335 -133l335 -133v-101zM579 306v86l470 191v-101l-335 -133l335 -133v-101z" />
    <glyph glyph-name="uni226B" unicode="&#x226b;" horiz-adv-x="1232" 
d="M653 306l-470 -191v101l335 133l-335 133v101l470 -191v-86zM1063 306l-470 -191v101l335 133l-335 133v101l470 -191v-86z" />
    <glyph glyph-name="uni226C" unicode="&#x226c;" 
d="M463 297q0 -140 -110 -239q43 -38 90 -58h-93q-19 9 -41 24q-25 -16 -42 -24h-93q51 22 89 59q-109 97 -109 238q0 146 109 246q-46 41 -98 63h94q18 -8 50 -28q32 20 50 28h92q-53 -22 -97 -63q109 -100 109 -246zM241 297q0 -100 67 -188q68 91 68 188q0 103 -68 195
q-67 -93 -67 -195z" />
    <glyph glyph-name="uni226D" unicode="&#x226d;" 
d="M359 315q88 -11 155.5 -55t95.5 -112l-92 -38q-16 40 -59 68t-100 37v-196h-101v196q-58 -9 -101 -37t-59 -68l-92 38q28 68 95.5 112t156.5 55v66q-89 11 -156.5 55t-95.5 112l93 38q16 -40 58.5 -68t100.5 -37v196h101v-196q58 9 100.5 37t58.5 68l92 -38
q-28 -68 -95.5 -112t-155.5 -55v-66z" />
    <glyph glyph-name="uni226E" unicode="&#x226e;" 
d="M543 583v-101l-334 -132l334 -133v-101l-219 89l-70 -205h-98l81 240l-164 66v86l251 102l70 206h98l-54 -160z" />
    <glyph glyph-name="uni226F" unicode="&#x226f;" 
d="M543 392v-86l-242 -98l-71 -208h-98l55 161l-114 -46v101l335 133l-335 133v101l227 -92l71 209h98l-83 -244z" />
    <glyph glyph-name="uni2270" unicode="&#x2270;" 
d="M543 665v-103l-323 -111l323 -112v-102l-217 79l-41 -136h258v-97h-288l-37 -123h-93l37 123h-89v97h119l51 167l-169 61v86l241 88l45 148h93l-34 -110z" />
    <glyph glyph-name="uni2271" unicode="&#x2271;" 
d="M543 180v-97h-269l-38 -123h-93l38 123h-108v97h137l37 121l-174 -64v102l328 112l-328 111v103l257 -94l48 159h93l-57 -189l128 -47v-86l-190 -69l-49 -159h240z" />
    <glyph glyph-name="uni2272" unicode="&#x2272;" 
d="M543 238l-469 171v86l469 171v-103l-328 -111l328 -112v-102zM421 25q-40 0 -113 38t-114 38q-75 0 -121 -71v98q46 71 131 71q48 0 121.5 -38t105.5 -38q75 0 112 73v-98q-37 -73 -122 -73z" />
    <glyph glyph-name="uni2273" unicode="&#x2273;" 
d="M74 238v102l328 112l-328 111v103l469 -171v-86zM421 29q-40 0 -113 38t-114 38q-75 0 -121 -71v98q46 71 131 71q48 0 121.5 -38t105.5 -38q75 0 112 73v-98q-37 -73 -122 -73z" />
    <glyph glyph-name="uni2274" unicode="&#x2274;" 
d="M543 666v-103l-328 -111l328 -112v-102l-211 77l-42 -137q15 -6 46 -22.5t52.5 -24.5t42.5 -8q75 0 112 73v-98q-37 -73 -122 -73q-26 0 -51.5 9.5t-59 27t-48.5 23.5l-38 -125h-93l42 140q-61 -10 -100 -70v98q46 71 131 71l44 147l-174 63v86l247 90l45 145h93
l-34 -107z" />
    <glyph glyph-name="uni2275" unicode="&#x2275;" 
d="M543 409l-184 -67l-51 -168q5 -3 24.5 -13t27 -13.5t22.5 -9.5t26.5 -8.5t22.5 -2.5q75 0 112 73v-98q-37 -73 -122 -73q-18 0 -38 5.5t-32.5 11.5t-37 18.5t-33.5 16.5l-37 -121h-93l44 145q-75 0 -121 -71v98q46 71 131 71q13 0 19 -1l31 102l-180 -66v102l328 112
l-328 111v103l263 -96l49 160h93l-59 -190l123 -45v-86z" />
    <glyph glyph-name="uni2276" unicode="&#x2276;" 
d="M543 697v-103l-321 -92l321 -92v-103l-470 152v86zM73 294v103l470 -152v-86l-470 -152v102l320 93z" />
    <glyph glyph-name="uni2277" unicode="&#x2277;" 
d="M73 697l470 -152v-86l-470 -152v103l321 92l-321 92v103zM73 159v86l470 152v-103l-320 -92l320 -93v-102z" />
    <glyph glyph-name="uni2278" unicode="&#x2278;" 
d="M543 697v-103l-321 -92l321 -92v-103l-191 62v-62l191 -62v-86l-191 -62v-129h-96v98l-183 -59v102l320 93l-320 92v103l183 -59v62l-183 59v86l183 59v127h96v-96z" />
    <glyph glyph-name="uni2279" unicode="&#x2279;" 
d="M543 459l-183 -59v-62l183 59v-103l-320 -92l320 -93v-102l-183 59v-98h-96v129l-191 62v86l191 62v62l-191 -62v103l321 92l-321 92v103l191 -62v96h96v-127l183 -59v-86z" />
    <glyph glyph-name="uni227A" unicode="&#x227a;" 
d="M547 623v-130q-143 -105 -340 -146q199 -44 340 -147v-131q-165 153 -474 222v111q306 67 474 221z" />
    <glyph glyph-name="uni227B" unicode="&#x227b;" 
d="M69 623q168 -154 474 -221v-111q-309 -69 -474 -222v131q141 103 340 147q-197 41 -340 146v130z" />
    <glyph glyph-name="uni227C" unicode="&#x227c;" 
d="M547 720v-130q-143 -105 -340 -146q199 -44 340 -147v-131q-165 153 -474 222v111q306 67 474 221zM73 214v108q296 -65 474 -228v-123q-191 173 -474 243z" />
    <glyph glyph-name="uni227D" unicode="&#x227d;" 
d="M69 720q168 -154 474 -221v-111q-309 -69 -474 -222v131q141 103 340 147q-197 41 -340 146v130zM69 -29v123q178 163 474 228v-108q-283 -70 -474 -243z" />
    <glyph glyph-name="uni227E" unicode="&#x227e;" 
d="M543 201q-174 120 -470 187v111q146 33 259.5 76.5t210.5 109.5v-122q-149 -89 -343 -119q200 -34 343 -121v-122zM421 2q-40 0 -113 38t-114 38q-75 0 -121 -71v98q46 71 131 71q48 0 121.5 -38t105.5 -38q75 0 112 73v-98q-37 -73 -122 -73z" />
    <glyph glyph-name="uni227F" unicode="&#x227f;" 
d="M69 749q168 -154 474 -221v-111q-309 -69 -474 -222v131q141 103 340 147q-197 41 -340 146v130zM431 100q75 0 112 73v-98q-37 -73 -122 -73q-40 0 -113 38t-114 38q-75 0 -121 -71v98q46 71 131 71q48 0 121.5 -38t105.5 -38z" />
    <glyph glyph-name="uni2280" unicode="&#x2280;" 
d="M547 623v-130q-143 -105 -340 -146q199 -44 340 -147v-131q-95 87 -230 146l-69 -215h-93l79 247q-77 25 -161 44v111q126 27 233 71l73 227h93l-56 -173q69 40 131 96z" />
    <glyph glyph-name="uni2281" unicode="&#x2281;" 
d="M543 402v-111q-138 -31 -239 -74l-68 -217h-87l52 166q-71 -41 -132 -97v131q141 103 340 147q-197 41 -340 146v130q100 -90 229 -145l66 209h87l-75 -239q72 -25 167 -46z" />
    <glyph glyph-name="propersubset" unicode="&#x2282;" 
d="M543 119h-238q-58 0 -105 19.5t-75.5 52t-44 73.5t-15.5 83.5t15.5 83.5t44 73.5t75.5 52t105 19.5h238v-97h-236q-68 0 -106.5 -41t-38.5 -90.5t38.5 -90.5t106.5 -41h236v-97z" />
    <glyph glyph-name="propersuperset" unicode="&#x2283;" 
d="M73 119v97h236q68 0 106.5 41t38.5 90.5t-38.5 90.5t-106.5 41h-236v97h238q58 0 105 -19.5t75.5 -52t44 -73.5t15.5 -83.5t-15.5 -83.5t-44 -73.5t-75.5 -52t-105 -19.5h-238z" />
    <glyph glyph-name="notsubset" unicode="&#x2284;" 
d="M536 479h-130l-75 -263h205v-97h-233l-34 -119h-87l37 130q-57 16 -96.5 56.5t-54 89.5t-7.5 102.5t34 97t80 72t123 28.5h49l28 97h87l-28 -97h102v-97zM246 224l73 255h-19q-61 0 -99 -34t-44 -77t17 -85.5t72 -58.5z" />
    <glyph glyph-name="uni2285" unicode="&#x2285;" 
d="M376 569q61 -14 103 -53.5t59 -89t11 -104t-32.5 -99.5t-80.5 -74.5t-125 -29.5h-64l-34 -119h-81l34 119h-93v97h121l75 263h-196v97h224l28 97h81zM309 216q51 0 87 23.5t47.5 58t7.5 71t-31.5 66.5t-70.5 40l-74 -259h34z" />
    <glyph glyph-name="reflexsubset" unicode="&#x2286;" 
d="M543 155h-238q-58 0 -105 19.5t-75.5 52t-44 73.5t-15.5 83.5t15.5 83.5t44 73.5t75.5 52t105 19.5h238v-97h-236q-68 0 -106.5 -41t-38.5 -90.5t38.5 -90.5t106.5 -41h236v-97zM75 0v97h468v-97h-468z" />
    <glyph glyph-name="reflexsuperset" unicode="&#x2287;" 
d="M73 155v97h236q68 0 106.5 41t38.5 90.5t-38.5 90.5t-106.5 41h-236v97h238q58 0 105 -19.5t75.5 -52t44 -73.5t15.5 -83.5t-15.5 -83.5t-44 -73.5t-75.5 -52t-105 -19.5h-238zM541 0h-468v97h468v-97z" />
    <glyph glyph-name="uni2288" unicode="&#x2288;" 
d="M543 515h-116l-76 -263h192v-97h-220l-17 -58h237v-97h-265l-20 -70h-95l20 70h-108v97h136l19 67q-58 16 -98.5 56t-56 89t-8.5 103t34 98.5t80.5 73t123.5 28.5h54l20 70h96l-20 -70h88v-97zM257 259l74 256h-24q-50 0 -85.5 -22.5t-47.5 -56t-9.5 -69.5t27.5 -66
t65 -42z" />
    <glyph glyph-name="uni2289" unicode="&#x2289;" 
d="M283 155l-17 -58h271v-97h-299l-20 -70h-95l20 70h-74v97h102l17 58h-119v97h146l76 263h-222v97h238h12l20 70h96l-26 -89q44 -18 76 -51t46 -73t16 -84t-15 -84.5t-45 -73.5t-75 -52.5t-105 -19.5h-24zM311 252q73 2 110.5 51t25.5 107.5t-65 86.5z" />
    <glyph glyph-name="uni228A" unicode="&#x228a;" 
d="M307 515q-46 0 -79.5 -19.5t-48.5 -48.5t-15 -63t15 -63t48 -49t78 -20l23 89h93l-23 -89h145v-97h-171l-15 -58h186v-97h-212l-26 -99h-93l26 99h-163v97h189l15 59q-70 6 -121 42t-73 86.5t-19.5 108.5t28.5 106.5t81.5 80.5t129.5 32h238v-97h-236z" />
    <glyph glyph-name="uni228B" unicode="&#x228b;" 
d="M310 155l-15 -58h248v-97h-274l-26 -99h-93l26 99h-101v97h127l15 58h-142v97h168l23 89h93l-23 -87q48 6 79 35t36.5 66.5t-5 73.5t-47 61t-88.5 25h-236v97h238q58 0 105 -19.5t75.5 -52t44 -73.5t15.5 -83.5t-15.5 -83.5t-44 -73.5t-75.5 -52t-105 -19.5h-3z" />
    <glyph glyph-name="uni228C" unicode="&#x228c;" 
d="M470 511h100v-284q0 -111 -74.5 -175t-187.5 -64t-187.5 64t-74.5 175v284h100v-274q0 -73 44.5 -112.5t117.5 -39.5t117.5 39.5t44.5 112.5v274zM310 220v-62l-103 104l103 103v-61h82v-84h-82z" />
    <glyph glyph-name="uni228D" unicode="&#x228d;" 
d="M308 -12q-113 0 -187.5 64t-74.5 175v284h100v-274q0 -73 44.5 -112.5t117.5 -39.5t117.5 39.5t44.5 112.5v274h100v-284q0 -111 -74.5 -175t-187.5 -64zM308 185q-31 0 -52.5 21.5t-21.5 50.5q0 30 21.5 51.5t52.5 21.5t52.5 -21.5t21.5 -51.5q0 -29 -21.5 -50.5
t-52.5 -21.5z" />
    <glyph glyph-name="uni228E" unicode="&#x228e;" 
d="M470 511h100v-284q0 -111 -74.5 -175t-187.5 -64t-187.5 64t-74.5 175v284h100v-274q0 -73 44.5 -112.5t117.5 -39.5t117.5 39.5t44.5 112.5v274zM271 165v57h-56v74h56v55h75v-55h55v-74h-55v-57h-75z" />
    <glyph glyph-name="uni228F" unicode="&#x228f;" 
d="M65 0v495h495v-99h-392v-297h392v-99h-495z" />
    <glyph glyph-name="uni2290" unicode="&#x2290;" 
d="M551 0h-495v99h392v297h-392v99h495v-495z" />
    <glyph glyph-name="uni2291" unicode="&#x2291;" 
d="M69 176v495h495v-99h-392v-297h392v-99h-495zM69 0v97h495v-97h-495z" />
    <glyph glyph-name="uni2292" unicode="&#x2292;" 
d="M52 158v97h409v253h-409v97h511v-447h-511zM52 0v97h511v-97h-511z" />
    <glyph glyph-name="uni2293" unicode="&#x2293;" 
d="M53 495h495v-495h-99v392h-297v-392h-99v495z" />
    <glyph glyph-name="uni2294" unicode="&#x2294;" 
d="M564 0h-495v495h99v-392h297v392h99v-495z" />
    <glyph glyph-name="circleplus" unicode="&#x2295;" 
d="M308 578q120 0 206 -86t86 -206q0 -121 -86 -207t-206 -86q-121 0 -207 86t-86 207q0 120 86 206t207 86zM308 82q83 0 143 60t60 144q0 83 -60 143.5t-143 60.5q-84 0 -143.5 -60t-59.5 -144t59.5 -144t143.5 -60zM350 433v-105h105v-84h-105v-105h-84v105h-105v84h105
v105h84z" />
    <glyph glyph-name="uni2296" unicode="&#x2296;" 
d="M308 -7q-121 0 -207 86t-86 207q0 120 86 206t207 86q120 0 206 -86t86 -206q0 -121 -86 -207t-206 -86zM308 82q83 0 143 60t60 144t-60 144t-143 60t-143 -60t-60 -144t60 -144t143 -60zM161 244v84h294v-84h-294z" />
    <glyph glyph-name="circlemultiply" unicode="&#x2297;" 
d="M308 578q120 0 206 -86t86 -206q0 -121 -86 -207t-206 -86q-121 0 -207 86t-86 207q0 120 86 206t207 86zM308 82q83 0 143 60t60 144q0 83 -60 143.5t-143 60.5q-84 0 -143.5 -60t-59.5 -144t59.5 -144t143.5 -60zM383 420l59 -59l-75 -75l75 -75l-59 -59l-75 75
l-74 -74l-60 59l75 75l-74 74l59 59l74 -74z" />
    <glyph glyph-name="uni2298" unicode="&#x2298;" 
d="M308 -7q-121 0 -207 86t-86 207q0 120 86 206t207 86q120 0 206 -86t86 -206q0 -121 -86 -207t-206 -86zM308 82q83 0 143 60t60 144q0 83 -60 143.5t-143 60.5q-84 0 -143.5 -60t-59.5 -144t59.5 -144t143.5 -60zM234 153l-59 58l208 208l59 -58z" />
    <glyph glyph-name="uni2299" unicode="&#x2299;" 
d="M308 -7q-121 0 -207 86t-86 207q0 120 86 206t207 86q120 0 206 -86t86 -206q0 -121 -86 -207t-206 -86zM308 82q83 0 143 60t60 144q0 83 -60 143.5t-143 60.5q-84 0 -143.5 -60t-59.5 -144t59.5 -144t143.5 -60zM308 220q-27 0 -46.5 19.5t-19.5 46.5t19.5 46.5
t46.5 19.5t46.5 -19.5t19.5 -46.5t-19.5 -46.5t-46.5 -19.5z" />
    <glyph glyph-name="uni229A" unicode="&#x229a;" 
d="M308 -7q-121 0 -207 86t-86 207q0 120 86 206t207 86q120 0 206 -86t86 -206q0 -121 -86 -207t-206 -86zM308 82q83 0 143 60t60 144q0 83 -60 143.5t-143 60.5q-84 0 -143.5 -60t-59.5 -144t59.5 -144t143.5 -60zM308 176q-45 0 -78 33t-33 78t33 77t78 32t78 -32
t33 -77t-33 -78t-78 -33zM308 239q19 0 32 14t13 34t-13 33t-32 13q-18 0 -31.5 -13t-13.5 -33t13.5 -34t31.5 -14z" />
    <glyph glyph-name="uni229B" unicode="&#x229b;" 
d="M308 -7q-121 0 -207 86t-86 207q0 120 86 206t207 86q120 0 206 -86t86 -206q0 -121 -86 -207t-206 -86zM308 82q83 0 143 60t60 144q0 83 -60 143.5t-143 60.5q-84 0 -143.5 -60t-59.5 -144t59.5 -144t143.5 -60zM249 124l-59 38l39 60l44 42l-61 -13h-68v70h68l61 -13
l-44 42l-38 59l59 38l42 -64l17 -57l16 57l42 64l59 -38l-38 -59l-44 -42l61 13h68v-70h-68l-61 13l44 -42l38 -59l-58 -38l-43 64l-16 57l-17 -57z" />
    <glyph glyph-name="uni229C" unicode="&#x229c;" 
d="M308 -7q-121 0 -207 86t-86 207q0 120 86 206t207 86q120 0 206 -86t86 -206q0 -121 -86 -207t-206 -86zM308 82q83 0 142.5 60t59.5 144q0 83 -60 143.5t-142 60.5q-83 0 -142.5 -60.5t-59.5 -143.5q0 -84 59.5 -144t142.5 -60zM170 314v74h276v-74h-276zM170 184v74
h276v-74h-276z" />
    <glyph glyph-name="uni229D" unicode="&#x229d;" 
d="M308 -7q-121 0 -207 86t-86 207q0 120 86 206t207 86q120 0 206 -86t86 -206q0 -121 -86 -207t-206 -86zM308 82q83 0 143 60t60 144q0 83 -60 143.5t-143 60.5q-84 0 -143.5 -60t-59.5 -144t59.5 -144t143.5 -60zM161 244v84h294v-84h-294z" />
    <glyph glyph-name="uni229E" unicode="&#x229e;" 
d="M17 583h583v-583h-583v583zM269 496h-165v-165h165v165zM512 331v165h-164v-165h164zM104 252v-165h165v165h-165zM348 87h164v165h-164v-165z" />
    <glyph glyph-name="uni229F" unicode="&#x229f;" 
d="M17 583h583v-583h-583v583zM512 496h-408v-165h408v165zM104 87h408v165h-408v-165z" />
    <glyph glyph-name="uni22A0" unicode="&#x22a0;" 
d="M17 583h583v-583h-583v583zM164 496l144 -148l144 148h-288zM253 292l-149 152v-305zM363 292l149 -153v305zM308 235l-144 -148h288z" />
    <glyph glyph-name="uni22A1" unicode="&#x22a1;" 
d="M17 0v583h583v-583h-583zM104 87h408v409h-408v-409zM308 222q-29 0 -49 21t-20 49t20 48.5t49 20.5t49.5 -20.5t20.5 -48.5t-20.5 -49t-49.5 -21z" />
    <glyph glyph-name="uni22A2" unicode="&#x22a2;" 
d="M601 377v-99l-481 -1v-253h-102v606h102v-253h481z" />
    <glyph glyph-name="uni22A3" unicode="&#x22a3;" 
d="M496 578h103v-578h-103v240h-478v99h478v239z" />
    <glyph glyph-name="uni22A4" unicode="&#x22a4;" 
d="M599 578v-99h-239v-479h-103v479h-239v99h581z" />
    <glyph glyph-name="uni22A5" unicode="&#x22a5;" 
d="M360 100h239v-100h-581v100h239v478h103v-478z" />
    <glyph glyph-name="uni22A6" unicode="&#x22a6;" 
d="M475 399v-98l-222 -1v-252h-102v606h102v-256z" />
    <glyph glyph-name="uni22A7" unicode="&#x22a7;" 
d="M485 408l-251 -1v-116l251 1v-99l-251 -1v-145h-103v606h103v-147l251 1v-99z" />
    <glyph glyph-name="uni22A8" unicode="&#x22a8;" 
d="M604 408l-481 -1v-116l481 1v-99l-481 -1v-145h-103v606h103v-147l481 1v-99z" />
    <glyph glyph-name="uni22A9" unicode="&#x22a9;" 
d="M33 0v700h103v-700h-103zM601 400v-100h-289v-300h-103v700h103v-301z" />
    <glyph glyph-name="uni22AA" unicode="&#x22aa;" horiz-adv-x="1232" 
d="M198 47v606h102v-606h-102zM407 47v606h103v-606h-103zM1095 400v-99l-376 -1v-253h-102v606h102v-254z" />
    <glyph glyph-name="uni22AB" unicode="&#x22ab;" horiz-adv-x="1232" 
d="M185 45v606h103v-606h-103zM1047 406l-550 -1v-116l550 1v-99l-550 -1v-145h-102v606h102v-147l550 1v-99z" />
    <glyph glyph-name="uni22AC" unicode="&#x22ac;" 
d="M601 400v-99h-204l-87 -254h-98l87 253h-179v-253h-102v606h102v-254h212l87 254h98l-87 -253h171z" />
    <glyph glyph-name="uni22AD" unicode="&#x22ad;" 
d="M601 408h-162l-40 -117h202v-99h-236l-49 -145h-98l49 144h-147v-144h-102v606h102v-147l255 1l50 146h98l-50 -146h128v-99zM301 290l40 118l-221 -1v-117h181z" />
    <glyph glyph-name="uni22AE" unicode="&#x22ae;" horiz-adv-x="1232" 
d="M236 47v606h103v-606h-103zM1075 400v-99h-244l-87 -254h-98l87 253h-185v-253h-102v606h102v-254h218l87 254h98l-87 -253h211z" />
    <glyph glyph-name="uni22AF" unicode="&#x22af;" horiz-adv-x="1232" 
d="M185 45v606h103v-606h-103zM1047 406h-225l-39 -116h264v-99h-298l-50 -146h-98l50 145h-154v-145h-102v606h102v-147l261 1l50 146h98l-50 -146h191v-99zM684 289l40 116h-227v-116h187z" />
    <glyph glyph-name="uni22B0" unicode="&#x22b0;" 
d="M405 350q167 -33 167 -155q0 -69 -43.5 -108.5t-101.5 -39.5q-54 0 -94.5 34.5t-46.5 98.5l99 20q1 -26 14.5 -39.5t31.5 -13.5q17 0 29 13t12 35q0 105 -284 105h-137v99h137q284 0 284 105q0 23 -12 36t-29 13q-18 0 -31.5 -14t-14.5 -40l-99 20q6 64 46.5 99t94.5 35
q58 0 101.5 -39.5t43.5 -109.5q0 -121 -167 -154z" />
    <glyph glyph-name="uni22B1" unicode="&#x22b1;" 
d="M428 399h137v-99h-137q-284 0 -284 -105q0 -22 12.5 -35t29.5 -13t30.5 14t14.5 39l99 -20q-6 -64 -46.5 -98.5t-94.5 -34.5q-58 0 -101.5 39.5t-43.5 108.5q0 122 167 155q-167 33 -167 154q0 70 43.5 109.5t101.5 39.5q54 0 94.5 -35t46.5 -99l-99 -20
q-1 25 -14.5 39.5t-30.5 14.5t-29.5 -13t-12.5 -36q0 -105 284 -105z" />
    <glyph glyph-name="uni22B2" unicode="&#x22b2;" 
d="M586 147l-566 202l566 202v-404zM496 277v144l-226 -72z" />
    <glyph glyph-name="uni22B3" unicode="&#x22b3;" 
d="M30 147v404l566 -202zM120 277l226 72l-226 72v-144z" />
    <glyph glyph-name="uni22B4" unicode="&#x22b4;" 
d="M585 162l-566 202l566 202v-404zM495 292v144l-226 -72zM586 20h-559v94h559v-94z" />
    <glyph glyph-name="uni22B5" unicode="&#x22b5;" 
d="M31 162v404l566 -202zM121 292l226 72l-226 72v-144zM30 20v94h559v-94h-559z" />
    <glyph glyph-name="uni22B6" unicode="&#x22b6;" 
d="M506 381q41 0 70.5 -29.5t29.5 -70.5q0 -42 -29.5 -71.5t-70.5 -29.5q-33 0 -59 19.5t-36 49.5h-206q-10 -30 -36 -49.5t-59 -19.5q-41 0 -70.5 29.5t-29.5 71.5q0 41 29.5 70.5t70.5 29.5q32 0 58 -19t37 -49h206q11 30 37 49t58 19zM110 220q25 0 42.5 18t17.5 43
t-17.5 42.5t-42.5 17.5t-42.5 -17.5t-17.5 -42.5t17.5 -43t42.5 -18z" />
    <glyph glyph-name="uni22B7" unicode="&#x22b7;" 
d="M506 381q41 0 70.5 -29.5t29.5 -70.5q0 -42 -29.5 -71.5t-70.5 -29.5q-33 0 -59 19.5t-36 49.5h-206q-10 -30 -36 -49.5t-59 -19.5q-41 0 -70.5 29.5t-29.5 71.5q0 41 29.5 70.5t70.5 29.5q32 0 58 -19t37 -49h206q11 30 37 49t58 19zM506 220q25 0 42.5 18t17.5 43
t-17.5 42.5t-42.5 17.5t-42.5 -17.5t-17.5 -42.5t17.5 -43t42.5 -18z" />
    <glyph glyph-name="uni22B8" unicode="&#x22b8;" 
d="M506 381q41 0 70.5 -29.5t29.5 -70.5q0 -42 -29.5 -71.5t-70.5 -29.5q-33 0 -59 19.5t-36 49.5h-401v64h401q11 30 37 49t58 19zM506 220q25 0 42.5 18t17.5 43t-17.5 42.5t-42.5 17.5t-42.5 -17.5t-17.5 -42.5t17.5 -43t42.5 -18z" />
    <glyph glyph-name="uni22B9" unicode="&#x22b9;" 
d="M263 442v184h90v-184h-90zM30 304v88h184v-88h-184zM402 304v88h184v-88h-184zM263 70v184h90v-184h-90z" />
    <glyph glyph-name="uni22BA" unicode="&#x22ba;" 
d="M478 606v-99h-119v-507h-102v507h-119v99h340z" />
    <glyph glyph-name="uni22BB" unicode="&#x22bb;" 
d="M308 134l-288 431h110l178 -266l178 266h110zM27 0v99h563v-99h-563z" />
    <glyph glyph-name="uni22BC" unicode="&#x22bc;" 
d="M10 494v99h596v-99h-596zM10 0l298 446l298 -446h-115l-183 277l-183 -277h-115z" />
    <glyph glyph-name="uni22BD" unicode="&#x22bd;" 
d="M10 514v99h596v-99h-596zM308 -17l-298 446h117l181 -273l181 273h117z" />
    <glyph glyph-name="uni22BE" unicode="&#x22be;" 
d="M436 99h123v-99h-495v491h103v-123q112 0 190.5 -78.5t78.5 -190.5zM167 99h172q0 72 -50.5 123t-121.5 51v-174z" />
    <glyph glyph-name="uni22BF" unicode="&#x22bf;" 
d="M20 0l546 541v-541h-546zM485 77v274l-277 -274h277z" />
    <glyph glyph-name="uni22C0" unicode="&#x22c0;" 
d="M32 0l229 700h93l231 -700h-109l-150 488q-11 36 -18 73q-7 -37 -18 -73l-148 -488h-110z" />
    <glyph glyph-name="uni22C1" unicode="&#x22c1;" 
d="M261 0l-229 700h110l148 -487q10 -34 18 -73q8 39 18 73l150 487h109l-231 -700h-93z" />
    <glyph glyph-name="uni22C2" unicode="&#x22c2;" 
d="M46 0v474q0 110 74.5 174t187.5 64t187.5 -64t74.5 -174v-474h-100v464q0 73 -44.5 112.5t-117.5 39.5t-117.5 -40t-44.5 -112v-464h-100z" />
    <glyph glyph-name="uni22C3" unicode="&#x22c3;" 
d="M308 -12q-113 0 -187.5 64.5t-74.5 174.5v473h100v-463q0 -73 44.5 -112.5t117.5 -39.5t117.5 39.5t44.5 112.5v463h100v-473q0 -110 -74.5 -174.5t-187.5 -64.5z" />
    <glyph glyph-name="uni22C4" unicode="&#x22c4;" 
d="M308 133l-147 191l147 192l147 -192zM308 257l51 67l-51 68l-50 -68z" />
    <glyph glyph-name="dotmath" unicode="&#x22c5;" 
d="M308 277q-31 0 -52.5 21.5t-21.5 50.5q0 30 21.5 51.5t52.5 21.5t52.5 -21.5t21.5 -51.5q0 -29 -21.5 -50.5t-52.5 -21.5z" />
    <glyph glyph-name="uni22C6" unicode="&#x22c6;" 
d="M489 400l-108 -78l52 -144l-125 90l-125 -90l52 144l-108 78h137l44 122l44 -122h137z" />
    <glyph glyph-name="uni22C7" unicode="&#x22c7;" 
d="M567 388v-81h-162l156 -156l-57 -57l-196 196l-196 -196l-57 57l156 156h-162v81h161l-155 155l57 57l196 -196l196 196l57 -57l-155 -155h161zM308 472q-24 0 -40.5 16.5t-16.5 39.5t16.5 40t40.5 17t40.5 -17t16.5 -40t-16.5 -39.5t-40.5 -16.5zM308 225q24 0 40.5 -17
t16.5 -40t-16.5 -39.5t-40.5 -16.5t-40.5 16.5t-16.5 39.5t16.5 40t40.5 17z" />
    <glyph glyph-name="uni22C8" unicode="&#x22c8;" 
d="M514 606h82v-606h-82l-206 239l-205 -239h-83v606h83l205 -239zM100 125l153 178l-153 178v-356zM363 303l153 -178v356z" />
    <glyph glyph-name="uni22C9" unicode="&#x22c9;" 
d="M588 552l-214 -249l214 -248l-63 -55l-206 239l-205 -239h-83v606h83l206 -239l205 239zM111 125l153 178l-153 179v-357z" />
    <glyph glyph-name="uni22CA" unicode="&#x22ca;" 
d="M502 606h83v-606h-83l-205 239l-206 -239l-63 55l214 248l-214 249l63 54l205 -239zM352 303l153 -178v357z" />
    <glyph glyph-name="uni22CB" unicode="&#x22cb;" 
d="M603 66l-71 -71l-222 223l-224 -225l-73 73l224 224l-223 224l70 71z" />
    <glyph glyph-name="uni22CC" unicode="&#x22cc;" 
d="M603 66l-73 -73l-224 225l-222 -223l-71 71l519 519l70 -71l-223 -224z" />
    <glyph glyph-name="uni22CD" unicode="&#x22cd;" 
d="M421 533q85 0 122 -73v-98q-37 73 -112 73q-32 0 -105.5 -38t-121.5 -38q-85 0 -131 71v98q46 -71 121 -71q41 0 114 38t113 38zM73 182v97h470v-97h-470z" />
    <glyph glyph-name="uni22CE" unicode="&#x22ce;" 
d="M455 596h131q-153 -165 -222 -474h-111q-67 306 -221 474h130q105 -143 146 -340q44 199 147 340z" />
    <glyph glyph-name="uni22CF" unicode="&#x22cf;" 
d="M587 121h-130q-105 143 -146 340q-44 -199 -147 -340h-131q153 165 222 474h111q67 -306 221 -474z" />
    <glyph glyph-name="uni22D0" unicode="&#x22d0;" 
d="M650 63h-263q-120 0 -190 81.5t-70 204.5t70 204.5t190 81.5h263v-86h-253q-89 0 -138 -55t-49 -145t49 -145t138 -55h253v-86zM650 205h-240q-72 0 -108 40t-36 104t36 104t108 40h240v-86h-240q-30 0 -45 -16t-15 -42t15 -42t45 -16h240v-86z" />
    <glyph glyph-name="uni22D1" unicode="&#x22d1;" 
d="M-34 63v86h253q89 0 138 55t49 145t-49 145t-138 55h-253v86h263q120 0 190 -81.5t70 -204.5t-70 -204.5t-190 -81.5h-263zM-34 205v86h240q30 0 45 16t15 42t-15 42t-45 16h-240v86h240q72 0 108 -40t36 -104t-36 -104t-108 -40h-240z" />
    <glyph glyph-name="uni22D2" unicode="&#x22d2;" 
d="M22 0v263q0 120 81.5 190t204.5 70t204.5 -70t81.5 -190v-263h-86v253q0 89 -55 138t-145 49t-145 -49t-55 -138v-253h-86zM164 0v240q0 72 40 108t104 36t104 -36t40 -108v-240h-86v240q0 30 -16 45t-42 15t-42 -15t-16 -45v-240h-86z" />
    <glyph glyph-name="uni22D3" unicode="&#x22d3;" 
d="M308 -12q-123 0 -204.5 70t-81.5 190v263h86v-253q0 -89 55 -138t145 -49t145 49t55 138v253h86v-263q0 -120 -81.5 -190t-204.5 -70zM308 127q-64 0 -104 36t-40 108v240h86v-240q0 -30 16 -45t42 -15t42 15t16 45v240h86v-240q0 -72 -40 -108t-104 -36z" />
    <glyph glyph-name="uni22D4" unicode="&#x22d4;" 
d="M359 519q92 -14 149.5 -74.5t57.5 -155.5v-289h-100v279q0 57 -28.5 93.5t-78.5 48.5v-421h-100v422q-50 -12 -79 -48.5t-29 -94.5v-279h-100v289q0 96 57.5 156.5t150.5 74.5v180h100v-181z" />
    <glyph glyph-name="uni22D5" unicode="&#x22d5;" 
d="M543 408h-95v-130h95v-99h-95v-179h-103v179h-73v-179h-103v179h-96v99h96v130h-96v99h96v193h103v-193h73v193h103v-193h95v-99zM345 278v130h-73v-130h73z" />
    <glyph glyph-name="uni22D6" unicode="&#x22d6;" 
d="M70 306v86l470 191v-101l-335 -133l335 -133v-101zM483 289q-25 0 -42.5 18t-17.5 42t17.5 41.5t42.5 17.5t42.5 -17.5t17.5 -41.5t-17.5 -42t-42.5 -18z" />
    <glyph glyph-name="uni22D7" unicode="&#x22d7;" 
d="M543 306l-470 -191v101l335 133l-335 133v101l470 -191v-86zM130 289q-25 0 -42.5 18t-17.5 42t17.5 41.5t42.5 17.5t42.5 -17.5t17.5 -41.5t-17.5 -42t-42.5 -18z" />
    <glyph glyph-name="uni22D8" unicode="&#x22d8;" horiz-adv-x="1232" 
d="M494 113l-382 190v86l382 191v-101l-290 -132l290 -133v-101zM806 113l-382 190v86l382 191v-101l-290 -132l290 -133v-101zM1118 113l-382 190v86l382 191v-101l-290 -132l290 -133v-101z" />
    <glyph glyph-name="uni22D9" unicode="&#x22d9;" horiz-adv-x="1232" 
d="M114 113v101l290 133l-290 132v101l382 -191v-86zM426 113v101l290 133l-290 132v101l382 -191v-86zM738 113v101l290 133l-290 132v101l382 -191v-86z" />
    <glyph glyph-name="uni22DA" unicode="&#x22da;" 
d="M543 730v-85l-325 -68l325 -68v-86l-470 113v81zM73 306v86h470v-86h-470zM73 190v86l470 -114v-81l-470 -113v86l325 68z" />
    <glyph glyph-name="uni22DB" unicode="&#x22db;" 
d="M73 730l470 -113v-81l-470 -113v86l325 68l-325 68v85zM73 306v86h470v-86h-470zM73 81v81l470 114v-86l-325 -68l325 -68v-86z" />
    <glyph glyph-name="uni22DC" unicode="&#x22dc;" 
d="M73 546v96h470v-96h-470zM543 60l-469 171v87l469 170v-102l-333 -112l333 -111v-103z" />
    <glyph glyph-name="uni22DD" unicode="&#x22dd;" 
d="M73 546v96h470v-96h-470zM73 60v103l333 111l-333 112v102l469 -170v-87z" />
    <glyph glyph-name="uni22DE" unicode="&#x22de;" 
d="M69 481q283 70 474 243v-123q-178 -163 -474 -228v108zM69 196v111q309 69 474 222v-131q-141 -103 -340 -147q197 -41 340 -146v-130q-168 154 -474 221z" />
    <glyph glyph-name="uni22DF" unicode="&#x22df;" 
d="M69 735q191 -173 474 -243v-108q-296 65 -474 228v123zM69 409v131q165 -153 474 -222v-111q-306 -67 -474 -221v130q143 105 340 146q-199 44 -340 147z" />
    <glyph glyph-name="uni22E0" unicode="&#x22e0;" 
d="M547 720v-130q-143 -105 -340 -146q199 -44 340 -147v-131q-101 92 -238 149l-18 -61q147 -60 256 -160v-123q-127 115 -287 182l-59 -193h-93l69 224q-48 16 -104 30v108q62 -13 135 -37l18 61q-70 24 -153 42v111q122 27 220 66l50 165h93l-34 -114q82 46 145 104z" />
    <glyph glyph-name="uni22E1" unicode="&#x22e1;" 
d="M547 388q-76 -17 -150 -41l-23 -75q72 27 173 50v-108q-115 -29 -213 -72l-55 -182h-93l38 124q-75 -45 -151 -113v123q85 78 194 132l24 81q-126 -56 -218 -141v131q141 103 340 147q-197 41 -340 146v130q119 -109 293 -170l55 180h93l-63 -207q45 -13 96 -24v-111z
" />
    <glyph glyph-name="uni22E2" unicode="&#x22e2;" 
d="M557 508h-140l-60 -253h200v-97h-223l-15 -61h238v-97h-261l-18 -77h-98l18 77h-152v97h175l15 61h-190v447h296l23 98h98l-23 -98h117v-97zM259 255l60 253h-171v-253h111z" />
    <glyph glyph-name="uni22E3" unicode="&#x22e3;" 
d="M563 158h-264l-15 -61h279v-97h-302l-18 -77h-93l18 77h-116v97h139l15 61h-154v97h177l60 253h-237v97h260l23 98h94l-23 -98h157v-447zM383 508l-61 -253h139v253h-78z" />
    <glyph glyph-name="uni22E4" unicode="&#x22e4;" 
d="M561 508h-409v-253h145l23 86h93l-23 -86h171v-97h-197l-16 -61h213v-97h-239l-26 -99h-93l26 99h-179v97h205l16 61h-221v447h511v-97z" />
    <glyph glyph-name="uni22E5" unicode="&#x22e5;" 
d="M563 158h-234l-16 -61h250v-97h-276l-26 -99h-93l26 99h-142v97h168l16 61h-184v97h210l23 86h93l-23 -86h106v253h-409v97h511v-447z" />
    <glyph glyph-name="uni22E6" unicode="&#x22e6;" 
d="M543 243l-470 190v86l470 191v-101l-334 -132l334 -133v-101zM431 105q75 0 112 73v-98q-37 -73 -122 -73q-34 0 -86 24l-36 -106h-99l50 147q-28 11 -56 11q-75 0 -121 -71v98q46 71 131 71q36 0 77 -17l37 110h100l-52 -152q37 -17 65 -17z" />
    <glyph glyph-name="uni22E7" unicode="&#x22e7;" 
d="M543 425l-470 -191v101l335 133l-335 133v101l470 -191v-86zM431 106q75 0 112 73v-98q-37 -73 -122 -73q-34 0 -86 24l-36 -106h-99l50 147q-28 11 -56 11q-75 0 -121 -71v98q46 71 131 71q36 0 77 -17l37 110h100l-52 -152q37 -17 65 -17z" />
    <glyph glyph-name="uni22E8" unicode="&#x22e8;" 
d="M547 773v-130q-143 -105 -340 -146q199 -44 340 -147v-131q-165 153 -474 222v111q306 67 474 221zM431 106q75 0 112 73v-98q-37 -73 -122 -73q-34 0 -86 24l-36 -106h-99l50 147q-28 11 -56 11q-75 0 -121 -71v98q46 71 131 71q36 0 77 -17l37 110h100l-52 -152
q37 -17 65 -17z" />
    <glyph glyph-name="uni22E9" unicode="&#x22e9;" 
d="M69 743q168 -154 474 -221v-111q-309 -69 -474 -222v131q141 103 340 147q-197 41 -340 146v130zM431 106q75 0 112 73v-98q-37 -73 -122 -73q-34 0 -86 24l-36 -106h-99l50 147q-28 11 -56 11q-75 0 -121 -71v98q46 71 131 71q36 0 77 -17l37 110h100l-52 -152
q37 -17 65 -17z" />
    <glyph glyph-name="uni22EA" unicode="&#x22ea;" 
d="M586 551v-404l-216 77l-35 -147h-93l43 177l-265 95l314 112l38 162h93l-30 -126zM496 277v144l-226 -72z" />
    <glyph glyph-name="uni22EB" unicode="&#x22eb;" 
d="M596 349l-335 -120l-41 -169h-93l32 133l-129 -46v404l198 -70l29 125h93l-37 -156zM120 421v-144l226 72z" />
    <glyph glyph-name="uni22EC" unicode="&#x22ec;" 
d="M586 114v-94h-273l-18 -76h-93l18 76h-193v94h216l37 157l-261 93l310 111l37 156h93l-29 -120l155 55v-404l-219 78l-30 -126h250zM495 436l-226 -72l226 -72v144z" />
    <glyph glyph-name="uni22ED" unicode="&#x22ed;" 
d="M264 245l-31 -131h357v-94h-379l-18 -76h-93l18 76h-87v94h110l22 95l-131 -47v404l199 -71l32 136h93l-40 -166l282 -101zM122 436v-144l226 72z" />
    <glyph glyph-name="uni22EE" unicode="&#x22ee;" 
d="M308 567q-31 0 -52.5 21.5t-21.5 50.5q0 30 21.5 51.5t52.5 21.5t52.5 -21.5t21.5 -51.5q0 -29 -21.5 -50.5t-52.5 -21.5zM308 277q-31 0 -52.5 21.5t-21.5 50.5q0 30 21.5 51.5t52.5 21.5t52.5 -21.5t21.5 -51.5q0 -29 -21.5 -50.5t-52.5 -21.5zM308 -13
q-31 0 -52.5 21.5t-21.5 50.5q0 30 21.5 51.5t52.5 21.5t52.5 -21.5t21.5 -51.5q0 -29 -21.5 -50.5t-52.5 -21.5z" />
    <glyph glyph-name="uni22EF" unicode="&#x22ef;" 
d="M103 276q-31 0 -52.5 21.5t-21.5 51.5t21.5 51.5t52.5 21.5t52.5 -21.5t21.5 -51.5t-21.5 -51.5t-52.5 -21.5zM308 276q-31 0 -52.5 21.5t-21.5 51.5t21.5 51.5t52.5 21.5t52.5 -21.5t21.5 -51.5t-21.5 -51.5t-52.5 -21.5zM513 276q-31 0 -52 21.5t-21 51.5t21 51.5
t52 21.5t52.5 -21.5t21.5 -51.5t-21.5 -51.5t-52.5 -21.5z" />
    <glyph glyph-name="uni22F0" unicode="&#x22f0;" 
d="M570 537q-31 0 -52.5 21.5t-21.5 51.5q0 29 21.5 51t52.5 22t52.5 -22t21.5 -51q0 -30 -21.5 -51.5t-52.5 -21.5zM308 275q-31 0 -52.5 21.5t-21.5 51.5q0 29 21.5 51t52.5 22t52 -22t21 -51q0 -30 -21 -51.5t-52 -21.5zM46 14q-31 0 -52.5 21.5t-21.5 50.5
q0 30 21.5 51.5t52.5 21.5t52.5 -21.5t21.5 -51.5q0 -29 -21.5 -50.5t-52.5 -21.5z" />
    <glyph glyph-name="uni22F1" unicode="&#x22f1;" 
d="M46 537q-31 0 -52.5 21.5t-21.5 51.5q0 29 21.5 51t52.5 22t52.5 -22t21.5 -51q0 -30 -21.5 -51.5t-52.5 -21.5zM308 275q-31 0 -52 21.5t-21 51.5q0 29 21 51t52 22t52.5 -22t21.5 -51q0 -30 -21.5 -51.5t-52.5 -21.5zM570 14q-31 0 -52.5 21.5t-21.5 50.5
q0 30 21.5 51.5t52.5 21.5t52.5 -21.5t21.5 -51.5q0 -29 -21.5 -50.5t-52.5 -21.5z" />
    <glyph glyph-name="uni22F2" unicode="&#x22f2;" 
d="M384 419q-68 0 -110 -30t-49 -87h368v-92h-368q7 -57 49 -87.5t110 -30.5h209v-92h-203q-112 0 -183 57t-83 153h-114v92h114q12 96 82.5 152.5t183.5 56.5h203v-92h-209z" />
    <glyph glyph-name="uni22F3" unicode="&#x22f3;" 
d="M309 419q-68 0 -110 -30t-49 -87h320v52h88v-196h-88v52h-320q7 -57 49 -87.5t110 -30.5h249v-92h-243q-123 0 -195.5 68t-72.5 179v18q0 112 71.5 179t196.5 67h243v-92h-249z" />
    <glyph glyph-name="uni22F4" unicode="&#x22f4;" 
d="M267 347q-114 0 -128 -89h336v31h85v-146h-85v31h-336q16 -90 128 -90h293v-84h-286q-107 0 -168 57.5t-61 151.5v15q0 93 60.5 150t168.5 57h286v-84h-293z" />
    <glyph glyph-name="uni22F5" unicode="&#x22f5;" 
d="M372 567q-31 0 -52.5 21.5t-21.5 50.5q0 30 21.5 51.5t52.5 21.5t52.5 -21.5t21.5 -51.5q0 -29 -21.5 -50.5t-52.5 -21.5zM310 419q-68 0 -110 -30t-49 -87h408v-92h-408q7 -57 49 -87.5t110 -30.5h249v-92h-243q-123 0 -195.5 68t-72.5 179v18q0 112 71.5 179t196.5 67
h243v-92h-249z" />
    <glyph glyph-name="uni22F6" unicode="&#x22f6;" 
d="M114 575v96h442v-96h-442zM307 419q-68 0 -110 -30t-49 -87h408v-92h-408q7 -57 49 -87.5t110 -30.5h249v-92h-243q-123 0 -195.5 68t-72.5 179v18q0 112 71.5 179t196.5 67h243v-92h-249z" />
    <glyph glyph-name="uni22F7" unicode="&#x22f7;" 
d="M92 575h468v-84h-468v84zM45 224q0 93 60.5 150t168.5 57h286v-84h-293q-114 0 -128 -89h421v-84h-421q16 -90 128 -90h293v-84h-286q-107 0 -168 57.5t-61 151.5v15z" />
    <glyph glyph-name="uni22F8" unicode="&#x22f8;" 
d="M307 419q-68 0 -110 -30t-49 -87h408v-92h-408q7 -57 49 -87.5t110 -30.5h249v-92h-243q-123 0 -195.5 68t-72.5 179v18q0 112 71.5 179t196.5 67h243v-92h-249zM107 -160v96h449v-96h-449z" />
    <glyph glyph-name="uni22F9" unicode="&#x22f9;" 
d="M305 433q-111 0 -152 -72h406v-78h-427v-15v-23v-16h427v-78h-405q40 -73 151 -73h254v-78h-243q-123 0 -195.5 68t-72.5 179v18q0 112 71.5 179t196.5 67h243v-78h-254z" />
    <glyph glyph-name="uni22FA" unicode="&#x22fa;" 
d="M606 302v-92h-114q-12 -96 -82.5 -153t-183.5 -57h-203v92h209q68 0 110 30.5t49 87.5h-368v92h368q-7 57 -49 87t-110 30h-209v92h203q113 0 183.5 -56.5t82.5 -152.5h114z" />
    <glyph glyph-name="uni22FB" unicode="&#x22fb;" 
d="M301 511q125 0 196.5 -67t71.5 -179v-18q0 -111 -72.5 -179t-195.5 -68h-243v92h249q68 0 110 30.5t49 87.5h-320v-52h-88v196h88v-52h320q-7 57 -49 87t-110 30h-249v92h243z" />
    <glyph glyph-name="uni22FC" unicode="&#x22fc;" 
d="M342 431q108 0 168.5 -57t60.5 -150v-15q0 -94 -61 -151.5t-168 -57.5h-286v84h293q112 0 128 90h-336v-31h-85v146h85v-31h336q-14 89 -128 89h-293v84h286z" />
    <glyph glyph-name="uni22FD" unicode="&#x22fd;" 
d="M60 575v96h450v-96h-450zM309 419h-249v92h243q125 0 196.5 -67t71.5 -179v-18q0 -111 -72.5 -179t-195.5 -68h-243v92h249q68 0 110 30.5t49 87.5h-408v92h408q-7 57 -49 87t-110 30z" />
    <glyph glyph-name="uni22FE" unicode="&#x22fe;" 
d="M524 575v-84h-468v84h468zM342 431q108 0 168.5 -57t60.5 -150v-15q0 -94 -61 -151.5t-168 -57.5h-286v84h293q112 0 128 90h-421v84h421q-14 89 -128 89h-293v84h286z" />
    <glyph glyph-name="uni22FF" unicode="&#x22ff;" 
d="M540 0h-459v606h459v-98h-357v-155h357v-98h-357v-157h357v-98z" />
    <glyph glyph-name="house" unicode="&#x2302;" 
d="M40 0h536v433l-269 267l-267 -267v-433zM110 64v339l197 197l199 -197v-339h-396z" />
    <glyph glyph-name="revlogicalnot" unicode="&#x2310;" 
d="M73 169v303h470v-97h-369v-206h-101z" />
    <glyph glyph-name="integraltp" unicode="&#x2320;" 
d="M259 -378l-2 972q0 118 116 118q56 0 104 -24v-79q-46 16 -73 16q-46 0 -46 -48l1 -955h-100z" />
    <glyph glyph-name="integralbt" unicode="&#x2321;" 
d="M243 -140q-57 0 -103 23v79q44 -15 73 -15q46 0 46 47v948h100v-964q0 -118 -116 -118z" />
    <glyph glyph-name="uni2326" unicode="&#x2326;" 
d="M425 601l181 -251l-181 -251h-390v502h390zM390 169l130 181l-130 181h-285v-362h285zM340 463l48 -48l-65 -65l65 -65l-48 -48l-65 65l-65 -65l-48 48l65 65l-65 65l48 48l65 -65z" />
    <glyph glyph-name="uni232B" unicode="&#x232b;" 
d="M191 601h390v-502h-390l-181 251zM511 169v362h-285l-130 -181l130 -181h285zM276 237l-48 48l65 65l-65 65l48 48l65 -65l65 65l48 -48l-65 -65l65 -65l-48 -48l-65 65z" />
    <glyph glyph-name="uni23BD" unicode="&#x23bd;" 
d="M-10 0v78h636v-78h-636z" />
    <glyph glyph-name="power" unicode="&#x23fb;" 
d="M273 359v353h70v-353h-70zM307 93q-110 0 -188 78t-78 188q0 73 36.5 134.5t96.5 96.5l35 -60q-45 -26 -71.5 -71.5t-26.5 -99.5q0 -82 57 -139t139 -57t140 57t58 139q0 54 -27 99t-72 71l35 61q61 -36 97.5 -97.5t36.5 -133.5q0 -110 -79 -188t-189 -78z" />
    <glyph glyph-name="uni2500" unicode="&#x2500;" 
d="M-10 233v99h636v-99h-636z" />
    <glyph glyph-name="uni2501" unicode="&#x2501;" 
d="M626 183h-636v198h636v-198z" />
    <glyph glyph-name="uni2502" unicode="&#x2502;" 
d="M258 942h101v-1320h-101v1320z" />
    <glyph glyph-name="uni2503" unicode="&#x2503;" 
d="M206 -378v1320h205v-1320h-205z" />
    <glyph glyph-name="uni2504" unicode="&#x2504;" 
d="M34 233v99h137v-99h-137zM239 233v99h138v-99h-138zM445 233v99h137v-99h-137z" />
    <glyph glyph-name="uni2505" unicode="&#x2505;" 
d="M-10 183v198h165v-198h-165zM225 183v198h166v-198h-166zM461 183v198h165v-198h-165z" />
    <glyph glyph-name="uni2506" unicode="&#x2506;" 
d="M260 898h101v-349h-101v349zM260 450h101v-335h-101v335zM260 16h101v-350h-101v350z" />
    <glyph glyph-name="uni2507" unicode="&#x2507;" 
d="M206 898h205v-365h-205v365zM206 465h205v-366h-205v366zM206 31h205v-365h-205v365z" />
    <glyph glyph-name="uni2508" unicode="&#x2508;" 
d="M34 233v99h86v-99h-86zM188 233v99h86v-99h-86zM342 233v99h86v-99h-86zM496 233v99h86v-99h-86z" />
    <glyph glyph-name="uni2509" unicode="&#x2509;" 
d="M-10 183v198h112v-198h-112zM143 183v198h146v-198h-146zM329 183v198h146v-198h-146zM514 183v198h112v-198h-112z" />
    <glyph glyph-name="uni250A" unicode="&#x250a;" 
d="M257 898h103v-257h-103v257zM257 573h103v-257h-103v257zM257 248h103v-257h-103v257zM257 -77h103v-257h-103v257z" />
    <glyph glyph-name="uni250B" unicode="&#x250b;" 
d="M206 898h205v-257h-205v257zM206 573h205v-257h-205v257zM206 248h205v-257h-205v257zM206 -77h205v-257h-205v257z" />
    <glyph glyph-name="uni250C" unicode="&#x250c;" 
d="M257 332h369v-99h-266v-611h-103v710z" />
    <glyph glyph-name="uni250D" unicode="&#x250d;" 
d="M618 381v-198h-258v-502h-103v700h361z" />
    <glyph glyph-name="uni250E" unicode="&#x250e;" 
d="M618 332v-99h-207v-611h-205v710h412z" />
    <glyph glyph-name="uni250F" unicode="&#x250f;" 
d="M618 183h-207v-561h-205v759h412v-198z" />
    <glyph glyph-name="uni2510" unicode="&#x2510;" 
d="M-10 233v99h370v-710h-103v611h-267z" />
    <glyph glyph-name="uni2511" unicode="&#x2511;" 
d="M-10 183v198h370v-759h-103v561h-267z" />
    <glyph glyph-name="uni2512" unicode="&#x2512;" 
d="M411 332v-710h-205v611h-216v99h421z" />
    <glyph glyph-name="uni2513" unicode="&#x2513;" 
d="M-10 183v198h421v-759h-205v561h-216z" />
    <glyph glyph-name="uni2514" unicode="&#x2514;" 
d="M257 942h103v-610h266v-99h-369v709z" />
    <glyph glyph-name="uni2515" unicode="&#x2515;" 
d="M257 942h103v-561h266v-198h-369v759z" />
    <glyph glyph-name="uni2516" unicode="&#x2516;" 
d="M626 233h-420v709h205v-610h215v-99z" />
    <glyph glyph-name="uni2517" unicode="&#x2517;" 
d="M626 183h-418v759h205v-561h213v-198z" />
    <glyph glyph-name="uni2518" unicode="&#x2518;" 
d="M-10 233v99h267v610h103v-709h-370z" />
    <glyph glyph-name="uni2519" unicode="&#x2519;" 
d="M-10 183v198h267v561h103v-759h-370z" />
    <glyph glyph-name="uni251A" unicode="&#x251a;" 
d="M-10 233v99h216v610h205v-709h-421z" />
    <glyph glyph-name="uni251B" unicode="&#x251b;" 
d="M-10 183v198h216v561h205v-759h-421z" />
    <glyph glyph-name="uni251C" unicode="&#x251c;" 
d="M257 942h103v-610h266v-99h-266v-611h-103v1320z" />
    <glyph glyph-name="uni251D" unicode="&#x251d;" 
d="M257 942h103v-561h266v-198h-266v-561h-103v1320z" />
    <glyph glyph-name="uni251E" unicode="&#x251e;" 
d="M411 942v-610h215v-99h-266v-611h-103v710h-51v610h205z" />
    <glyph glyph-name="uni251F" unicode="&#x251f;" 
d="M358 332h260v-99h-207v-611h-205v611h50v709h102v-610z" />
    <glyph glyph-name="uni2520" unicode="&#x2520;" 
d="M206 -378v1320h205v-610h215v-99h-215v-611h-205z" />
    <glyph glyph-name="uni2521" unicode="&#x2521;" 
d="M626 381v-198h-266v-502h-103v502h-51v668h205v-470h215z" />
    <glyph glyph-name="uni2522" unicode="&#x2522;" 
d="M206 -378v759h51v561h103v-561h266v-198h-215v-561h-205z" />
    <glyph glyph-name="uni2523" unicode="&#x2523;" 
d="M208 -378v1320h205v-561h213v-198h-213v-561h-205z" />
    <glyph glyph-name="uni2524" unicode="&#x2524;" 
d="M-10 233v99h267v610h103v-1320h-103v611h-267z" />
    <glyph glyph-name="uni2525" unicode="&#x2525;" 
d="M-10 183v198h267v561h103v-1320h-103v561h-267z" />
    <glyph glyph-name="uni2526" unicode="&#x2526;" 
d="M206 332v610h205v-626h-51v-694h-103v611h-267v99h216z" />
    <glyph glyph-name="uni2527" unicode="&#x2527;" 
d="M361 233h50v-611h-205v611h-216v99h268v610h103v-709z" />
    <glyph glyph-name="uni2528" unicode="&#x2528;" 
d="M-10 233v99h216v610h205v-1320h-205v611h-216z" />
    <glyph glyph-name="uni2529" unicode="&#x2529;" 
d="M206 381v379h205v-577h-51v-443h-103v443h-267v198h216z" />
    <glyph glyph-name="uni252A" unicode="&#x252a;" 
d="M-10 183v198h267v561h103v-561h51v-759h-205v561h-216z" />
    <glyph glyph-name="uni252B" unicode="&#x252b;" 
d="M206 -378v561h-216v198h216v561h205v-1320h-205z" />
    <glyph glyph-name="uni252C" unicode="&#x252c;" 
d="M-10 233v99h636v-99h-266v-611h-103v611h-267z" />
    <glyph glyph-name="uni252D" unicode="&#x252d;" 
d="M-10 183v198h286v-49h350v-99h-264v-611h-103v561h-269z" />
    <glyph glyph-name="uni252E" unicode="&#x252e;" 
d="M-10 233v99h352v49h284v-198h-266v-561h-103v611h-267z" />
    <glyph glyph-name="uni252F" unicode="&#x252f;" 
d="M626 381v-198h-266v-561h-103v561h-267v198h636z" />
    <glyph glyph-name="uni2530" unicode="&#x2530;" 
d="M618 332v-99h-207v-611h-205v611h-216v99h628z" />
    <glyph glyph-name="uni2531" unicode="&#x2531;" 
d="M411 233v-611h-205v561h-216v198h421v-49h215v-99h-215z" />
    <glyph glyph-name="uni2532" unicode="&#x2532;" 
d="M-10 233v99h211v49h425v-198h-220v-561h-205v611h-211z" />
    <glyph glyph-name="uni2533" unicode="&#x2533;" 
d="M-10 183v198h636v-198h-215v-561h-205v561h-216z" />
    <glyph glyph-name="uni2534" unicode="&#x2534;" 
d="M-10 233v99h267v610h103v-610h266v-99h-636z" />
    <glyph glyph-name="uni2535" unicode="&#x2535;" 
d="M276 233v-50h-286v198h269v561h103v-610h264v-99h-350z" />
    <glyph glyph-name="uni2536" unicode="&#x2536;" 
d="M-10 233v99h268v610h101v-561h267v-198h-284v50h-352z" />
    <glyph glyph-name="uni2537" unicode="&#x2537;" 
d="M-10 183v198h269v561h103v-561h264v-198h-636z" />
    <glyph glyph-name="uni2538" unicode="&#x2538;" 
d="M-10 233v99h216v610h205v-610h215v-99h-636z" />
    <glyph glyph-name="uni2539" unicode="&#x2539;" 
d="M420 233v-50h-430v198h230v561h200v-610h206v-99h-206z" />
    <glyph glyph-name="uni253A" unicode="&#x253a;" 
d="M-10 233v99h218v610h205v-561h213v-198h-418v50h-218z" />
    <glyph glyph-name="uni253B" unicode="&#x253b;" 
d="M-10 183v198h216v561h205v-561h215v-198h-636z" />
    <glyph glyph-name="uni253C" unicode="&#x253c;" 
d="M-10 233v99h267v610h103v-610h266v-99h-266v-611h-103v611h-267z" />
    <glyph glyph-name="uni253D" unicode="&#x253d;" 
d="M-10 183v198h267v561h103v-610h266v-99h-266v-611h-103v561h-267z" />
    <glyph glyph-name="uni253E" unicode="&#x253e;" 
d="M-10 233v99h268v610h101v-561h267v-198h-267v-561h-101v611h-268z" />
    <glyph glyph-name="uni253F" unicode="&#x253f;" 
d="M-10 183v198h267v561h103v-561h266v-198h-266v-561h-103v561h-267z" />
    <glyph glyph-name="uni2540" unicode="&#x2540;" 
d="M-10 233v99h218v610h205v-610h213v-99h-264v-611h-103v611h-269z" />
    <glyph glyph-name="uni2541" unicode="&#x2541;" 
d="M360 332h258v-99h-207v-611h-205v611h-216v99h267v610h103v-610z" />
    <glyph glyph-name="uni2542" unicode="&#x2542;" 
d="M-10 233v99h216v610h205v-610h215v-99h-215v-611h-205v611h-216z" />
    <glyph glyph-name="uni2543" unicode="&#x2543;" 
d="M-10 183v198h216v561h205v-610h215v-99h-266v-611h-103v561h-267z" />
    <glyph glyph-name="uni2544" unicode="&#x2544;" 
d="M-10 233v99h218v610h205v-561h214v-198h-265v-561h-103v611h-269z" />
    <glyph glyph-name="uni2545" unicode="&#x2545;" 
d="M-10 183v198h269v561h103v-610h264v-99h-213v-611h-205v561h-218z" />
    <glyph glyph-name="uni2546" unicode="&#x2546;" 
d="M-10 233v99h267v610h103v-561h266v-198h-216v-561h-202v611h-218z" />
    <glyph glyph-name="uni2547" unicode="&#x2547;" 
d="M626 381v-198h-266v-502h-103v502h-267v198h216v470h205v-470h215z" />
    <glyph glyph-name="uni2548" unicode="&#x2548;" 
d="M-10 183v198h268v561h100v-561h268v-198h-266v-561h-103v561h-267z" />
    <glyph glyph-name="uni2549" unicode="&#x2549;" 
d="M-10 183v198h218v561h205v-610h213v-99h-213v-611h-205v561h-218z" />
    <glyph glyph-name="uni254A" unicode="&#x254a;" 
d="M-10 233v99h216v610h205v-561h215v-198h-215v-561h-205v611h-216z" />
    <glyph glyph-name="uni254B" unicode="&#x254b;" 
d="M-10 183v198h216v561h205v-561h215v-198h-215v-561h-205v561h-216z" />
    <glyph glyph-name="uni254C" unicode="&#x254c;" 
d="M50 233v99h234v-99h-234zM383 233v99h233v-99h-233z" />
    <glyph glyph-name="uni254D" unicode="&#x254d;" 
d="M-10 183v198h167v-198h-167zM459 183v198h167v-198h-167z" />
    <glyph glyph-name="uni254E" unicode="&#x254e;" 
d="M257 898h103v-565h-103v565zM257 231h103v-565h-103v565z" />
    <glyph glyph-name="uni254F" unicode="&#x254f;" 
d="M208 760h205v-440h-205v440zM208 212h205v-488h-205v488z" />
    <glyph glyph-name="uni2550" unicode="&#x2550;" 
d="M-10 332v99h636v-99h-636zM-10 134v99h636v-99h-636z" />
    </font>
</defs>
</svg>
