<?xml version="1.0" standalone="no"?>
<!DOCTYPE svg PUBLIC "-//W3C//DTD SVG 1.1//EN" "http://www.w3.org/Graphics/SVG/1.1/DTD/svg11.dtd" >
<svg xmlns="http://www.w3.org/2000/svg" xmlns:xlink="http://www.w3.org/1999/xlink" version="1.1">
<metadata>
Created by FontForge 20170731 at Fri Dec  2 17:23:41 2016
 By Aleksey,,,
Copyright (c) 2016 by Red Hat, Inc. All rights reserved.
</metadata>
<defs>
<font id="OverpassMono-Light" horiz-adv-x="616" >
  <font-face 
    font-family="Overpass Mono Light"
    font-weight="300"
    font-stretch="normal"
    units-per-em="1000"
    panose-1="0 0 4 9 0 0 0 0 0 0"
    ascent="750"
    descent="-250"
    x-height="511"
    cap-height="700"
    bbox="-532 -378 1220 1062"
    underline-thickness="20"
    underline-position="-173"
    unicode-range="U+0020-1F514"
  />
<missing-glyph 
 />
    <glyph glyph-name=".notdef" 
 />
    <glyph glyph-name="uni0000" 
 />
    <glyph glyph-name="nonmarkingreturn" horiz-adv-x="333" 
 />
    <glyph glyph-name="space" unicode=" " 
 />
    <glyph glyph-name="exclam" unicode="!" 
d="M289 193l-15 302v217h72v-217l-16 -302h-41zM308 -14q-26 0 -44.5 19t-18.5 44t18.5 44t44.5 19t44.5 -19t18.5 -44t-18.5 -44t-44.5 -19z" />
    <glyph glyph-name="quotedbl" unicode="&#x22;" 
d="M175 700h87l-18 -267h-53zM352 700h88l-18 -267h-53z" />
    <glyph glyph-name="numbersign" unicode="#" 
d="M114 0l31 204h-123l12 63h120l27 178h-115l10 61h114l30 194h68l-29 -194h142l30 194h68l-30 -194h124l-10 -61h-123l-28 -178h117l-10 -63h-116l-31 -204h-68l31 204h-142l-31 -204h-68zM222 267h142l28 178h-142z" />
    <glyph glyph-name="dollar" unicode="$" 
d="M275 -98v89q-68 9 -117.5 47.5t-68.5 91.5l66 24q21 -47 62.5 -74t97.5 -27q66 0 102.5 32.5t36.5 94.5q0 104 -149 163q-42 17 -71.5 32t-61 39.5t-48 58.5t-16.5 76q0 63 45 108t122 53v79h71v-80q57 -7 96 -36.5t51 -71.5l-65 -22q-13 30 -45.5 49t-79.5 19
q-57 0 -89.5 -26t-32.5 -71q0 -49 39.5 -79.5t112.5 -60.5q40 -16 69.5 -33t60.5 -44t47.5 -65.5t16.5 -85.5q0 -84 -49.5 -134t-131.5 -58v-88h-71z" />
    <glyph glyph-name="percent" unicode="%" 
d="M100 -12h-67l478 724h67zM160 364q-76 0 -113 50.5t-37 119.5q0 64 37.5 117t112.5 53q76 0 113 -50.5t37 -119.5q0 -66 -37 -118t-113 -52zM160 414q44 0 68 34.5t24 85.5q0 55 -23.5 87.5t-68.5 32.5q-46 0 -69 -34t-23 -86q0 -54 23.5 -87t68.5 -33zM456 -4
q-76 0 -113 50.5t-37 119.5q0 64 37.5 117t112.5 53q76 0 113 -50.5t37 -119.5q0 -66 -37 -118t-113 -52zM456 46q44 0 68 34.5t24 85.5q0 55 -23.5 87.5t-68.5 32.5q-46 0 -69 -34t-23 -86q0 -54 23.5 -87t68.5 -33z" />
    <glyph glyph-name="ampersand" unicode="&#x26;" 
d="M601 0h-87l-77 91q-95 -103 -227 -103q-88 0 -141.5 51.5t-53.5 136.5q0 73 43.5 121t123.5 96q-50 61 -68.5 98t-18.5 74q0 67 46.5 107t115.5 40q70 0 115.5 -41.5t45.5 -105.5q0 -57 -36 -98t-102 -84l152 -181q30 57 36 117h66q-7 -92 -56 -172zM161 564
q0 -25 15 -50t66 -86q54 33 82 62.5t28 69.5t-27.5 65t-68.5 25q-43 0 -69 -23.5t-26 -62.5zM224 51q92 0 169 92l-172 204q-68 -42 -104 -78.5t-36 -86.5q0 -59 40 -95t103 -36z" />
    <glyph glyph-name="quotesingle" unicode="'" 
d="M264 700h87l-18 -267h-53z" />
    <glyph glyph-name="parenleft" unicode="(" 
d="M400 -130q-192 160 -192 414q0 269 203 428h67q-25 -20 -55 -55t-65 -89.5t-58 -130t-23 -153.5q0 -236 190 -414h-67z" />
    <glyph glyph-name="parenright" unicode=")" 
d="M149 -130q190 178 190 414q0 78 -23 153.5t-58 130t-65 89.5t-55 55h67q203 -159 203 -428q0 -254 -192 -414h-67z" />
    <glyph glyph-name="asterisk" unicode="*" 
d="M220 123l-59 34l60 104l57 64l-83 -17h-116v68h116l83 -17l-56 64l-60 104l59 34l60 -104l27 -81l27 81l60 104l59 -34l-60 -104l-56 -64l83 17h116v-68h-116l-83 17l56 -64l60 -104l-59 -34l-60 104l-27 81l-28 -81z" />
    <glyph glyph-name="plus" unicode="+" 
d="M343 308v-200h-72v200h-198v68h198v202h72v-202h200v-68h-200z" />
    <glyph glyph-name="comma" unicode="," 
d="M283 -171l-39 10q61 73 63 142q-29 2 -47.5 19t-18.5 45t18.5 46t45.5 18q29 0 49 -21.5t20 -62.5q0 -57 -27.5 -112t-63.5 -84z" />
    <glyph glyph-name="hyphen" unicode="-" 
d="M73 264v68h470v-68h-470z" />
    <glyph glyph-name="period" unicode="." 
d="M308 -14q-26 0 -44.5 19t-18.5 44t18.5 44t44.5 19t44.5 -19t18.5 -44t-18.5 -44t-44.5 -19z" />
    <glyph glyph-name="slash" unicode="/" 
d="M77 -130l393 842h68l-393 -842h-68z" />
    <glyph glyph-name="zero" unicode="0" 
d="M308 -12q-53 0 -95 21t-68.5 55.5t-44.5 82.5t-25 98t-7 105q0 62 10.5 119.5t35.5 115t75 92.5t119 35q66 0 114.5 -32t74.5 -86t38.5 -114.5t12.5 -129.5q0 -48 -6 -94.5t-23 -96.5t-43 -86.5t-69.5 -60.5t-98.5 -24zM308 51q165 0 165 299q0 59 -7.5 108.5t-25 94.5
t-51.5 70.5t-81 25.5q-50 0 -85 -28t-51.5 -75t-23.5 -94.5t-7 -101.5q0 -299 167 -299zM308 286q-26 0 -44.5 19t-18.5 44t18.5 44t44.5 19t44.5 -19t18.5 -44t-18.5 -44t-44.5 -19z" />
    <glyph glyph-name="one" unicode="1" 
d="M344 67h172v-67h-416v67h174v537l-154 -56v69l224 87v-637z" />
    <glyph glyph-name="two" unicode="2" 
d="M98 0q0 61 14 108.5t43.5 84t53 57t66.5 52.5q10 7 15 11q39 30 57 45.5t44 42.5t36.5 54.5t10.5 59.5q0 58 -34.5 96t-92.5 38q-61 0 -100 -30.5t-51 -82.5l-62 28q16 64 73.5 106t140.5 42q93 0 146 -53.5t53 -143.5q0 -37 -12.5 -71t-26 -55.5t-45.5 -50.5
t-47.5 -40.5t-56.5 -40.5q-46 -34 -72.5 -56.5t-52 -59.5t-26.5 -74h345v-67h-419z" />
    <glyph glyph-name="three" unicode="3" 
d="M305 -12q-89 0 -139.5 43.5t-77.5 120.5l65 27q23 -65 59.5 -95.5t92.5 -30.5q65 0 107 35t42 102q0 66 -40.5 104t-115.5 38h-47v64h37q62 0 100 34.5t38 92.5q0 56 -35 90t-84 34q-95 0 -135 -108l-65 25q22 62 72.5 105t124.5 43q84 0 139.5 -49.5t55.5 -129.5
q0 -47 -24 -89t-65 -64q55 -22 86.5 -71t31.5 -117q0 -87 -66 -145.5t-157 -58.5z" />
    <glyph glyph-name="four" unicode="4" 
d="M380 0v189h-315v36l341 475h44v-451h101v-60h-101v-189h-70zM380 249v319l-226 -319h226z" />
    <glyph glyph-name="five" unicode="5" 
d="M293 -12q-69 0 -123.5 26.5t-80.5 62.5l41 51q70 -77 162 -77q69 0 115 50t46 120q0 71 -37 118t-100 47q-82 0 -140 -67l-59 18l57 363h316v-63h-260l-40 -244q54 59 141 59q85 0 140.5 -63t55.5 -162q0 -94 -64.5 -166.5t-169.5 -72.5z" />
    <glyph glyph-name="six" unicode="6" 
d="M311 -12q-105 0 -162.5 75.5t-57.5 195.5q0 150 100.5 282.5t245.5 170.5v-55q-95 -29 -170.5 -113t-91.5 -174q50 64 153 64q84 0 140.5 -65.5t56.5 -148.5q0 -98 -63 -165t-151 -67zM308 51q67 0 108.5 45.5t41.5 113.5q0 72 -40.5 118t-109.5 46q-65 0 -107.5 -46.5
t-42.5 -117.5q0 -67 43.5 -113t106.5 -46z" />
    <glyph glyph-name="seven" unicode="7" 
d="M108 700h399v-46q-213 -255 -215 -654h-70q2 181 46.5 334.5t158.5 305.5h-319v60z" />
    <glyph glyph-name="eight" unicode="8" 
d="M308 -12q-99 0 -164 60t-65 149q0 65 34.5 117.5t89.5 72.5q-43 19 -67.5 58.5t-24.5 85.5q0 74 57 127.5t140 53.5t140 -53.5t57 -127.5q0 -47 -24 -86t-69 -58q56 -21 90.5 -73t34.5 -117q0 -89 -65 -149t-164 -60zM308 408q57 0 91.5 32t34.5 82q0 58 -35.5 92.5
t-90.5 34.5t-90.5 -34.5t-35.5 -92.5q0 -50 34.5 -82t91.5 -32zM308 51q68 0 112 42t44 114q0 64 -43.5 109.5t-112.5 45.5t-112.5 -45.5t-43.5 -109.5q0 -72 44 -114t112 -42z" />
    <glyph glyph-name="nine" unicode="9" 
d="M192 -12v55q99 29 172.5 114.5t86.5 178.5q-53 -68 -166 -68q-85 0 -145 63t-60 149q0 98 67 165t165 67q109 0 166.5 -75.5t57.5 -195.5q0 -152 -97.5 -283.5t-246.5 -169.5zM307 324q70 0 115 46.5t45 117.5q0 68 -46.5 114.5t-113.5 46.5q-71 0 -115.5 -46t-44.5 -115
q0 -72 43.5 -118t116.5 -46z" />
    <glyph glyph-name="colon" unicode=":" 
d="M308 357q-26 0 -44.5 19t-18.5 44t18.5 44t44.5 19t44.5 -19t18.5 -44t-18.5 -44t-44.5 -19zM308 -14q-26 0 -44.5 19t-18.5 44t18.5 44t44.5 19t44.5 -19t18.5 -44t-18.5 -44t-44.5 -19z" />
    <glyph glyph-name="semicolon" unicode=";" 
d="M304 357q-26 0 -44.5 19t-18.5 44t18.5 44t44.5 19t44.5 -19t18.5 -44t-18.5 -44t-44.5 -19zM283 -171l-39 10q61 73 63 142q-29 2 -47.5 19t-18.5 45t18.5 46t45.5 18q29 0 49 -21.5t20 -62.5q0 -57 -27.5 -112t-63.5 -84z" />
    <glyph glyph-name="less" unicode="&#x3c;" 
d="M543 127l-470 189v66l470 190v-67l-393 -155l393 -155v-68z" />
    <glyph glyph-name="equal" unicode="=" 
d="M73 412v68h470v-68h-470zM73 204v68h470v-68h-470z" />
    <glyph glyph-name="greater" unicode="&#x3e;" 
d="M543 316l-470 -189v66l393 157l-393 155v67l470 -190v-66z" />
    <glyph glyph-name="question" unicode="?" 
d="M264 170v23q0 52 19.5 93t47 67t55 50t47 56t19.5 71q0 50 -37 83.5t-102 33.5q-72 0 -113.5 -38t-41.5 -98h-66q0 87 60 144t161 57q99 0 155 -52.5t56 -131.5q0 -48 -19.5 -85.5t-47 -62t-55 -48.5t-47 -59t-19.5 -80v-23h-72zM298 -14q-26 0 -44.5 19t-18.5 44
t18.5 44t44.5 19t44.5 -19t18.5 -44t-18.5 -44t-44.5 -19z" />
    <glyph glyph-name="at" unicode="@" 
d="M307 -12q-117 0 -195 93t-78 254q0 163 85 270t203 107q115 0 187 -82.5t72 -216.5q0 -109 -37 -181t-91 -72q-63 0 -75 76q-36 -85 -100 -85q-49 0 -81.5 48.5t-32.5 122.5q0 78 41 142.5t105 64.5q35 0 58 -25t29 -71l11 83h50l-32 -232q-1 -6 -1 -18q0 -51 36 -51
q32 0 52.5 57t20.5 145q0 116 -62 181t-148 65q-104 0 -171.5 -93.5t-67.5 -235.5q0 -127 61 -212t164 -85q68 0 112 19l-11 -53q-43 -15 -104 -15zM293 207q40 0 66 44t26 108q0 50 -21 82t-50 32q-43 0 -68.5 -44t-25.5 -108q0 -53 19.5 -83.5t53.5 -30.5z" />
    <glyph glyph-name="A" unicode="A" 
d="M496 0l-58 181h-259l-57 -181h-73l231 700h54l233 -700h-71zM199 243h218l-90 280q-18 53 -20 63q-5 -20 -19 -63z" />
    <glyph glyph-name="B" unicode="B" 
d="M106 0v700h183q113 0 163.5 -52.5t50.5 -130.5q0 -52 -29.5 -90.5t-80.5 -57.5q60 -15 97.5 -59.5t37.5 -113.5q0 -83 -52.5 -139.5t-170.5 -56.5h-199zM176 394h96q81 0 123.5 33.5t42.5 91.5q0 118 -143 118h-119v-243zM176 63h141q79 0 112.5 36t33.5 91
q0 143 -179 143h-108v-270z" />
    <glyph glyph-name="C" unicode="C" 
d="M339 -12q-66 0 -117 30.5t-80.5 82.5t-44 115t-14.5 134q0 100 26 179.5t85.5 131t144.5 51.5q71 0 112 -30.5t67 -82.5l-62 -36q-22 40 -48.5 63t-68.5 23q-64 0 -107 -47.5t-59.5 -112t-16.5 -139.5q0 -126 46 -212.5t137 -86.5q85 0 127 89l62 -24
q-23 -55 -70.5 -91.5t-118.5 -36.5z" />
    <glyph glyph-name="D" unicode="D" 
d="M105 0v700h159q72 0 126 -30t84 -81t44.5 -111t14.5 -128q0 -51 -7.5 -98.5t-27 -94t-49.5 -81t-78.5 -55.5t-110.5 -21h-155zM175 63h84q56 0 97 25t62.5 68t31.5 91t10 103q0 121 -47 204t-143 83h-95v-574z" />
    <glyph glyph-name="E" unicode="E" 
d="M106 0v700h390v-67h-320v-238h223v-66h-223v-262h342v-67h-412z" />
    <glyph glyph-name="F" unicode="F" 
d="M106 0v700h422v-67h-352v-238h242v-66h-242v-329h-70z" />
    <glyph glyph-name="G" unicode="G" 
d="M326 -12q-82 0 -138 53.5t-79 132.5t-23 176q0 155 61 258.5t179 103.5q73 0 115 -30.5t69 -82.5l-62 -36q-22 40 -50 63t-72 23q-58 0 -97.5 -47.5t-54.5 -112t-15 -139.5q0 -81 16.5 -146.5t55.5 -109t95 -43.5q63 0 99.5 47t36.5 127v42h-129v62h203v-77
q0 -125 -59 -194.5t-151 -69.5z" />
    <glyph glyph-name="H" unicode="H" 
d="M106 0v700h70v-303h264v303h70v-700h-70v331h-264v-331h-70z" />
    <glyph glyph-name="I" unicode="I" 
d="M510 634h-167v-568h167v-66h-404v66h167v568h-167v66h404v-66z" />
    <glyph glyph-name="J" unicode="J" 
d="M291 -12q-142 0 -189 119l55 30q22 -47 48.5 -66.5t86.5 -19.5q59 0 100 37.5t41 121.5v490h70v-478q0 -68 -19.5 -116.5t-52.5 -72.5t-67.5 -34.5t-72.5 -10.5z" />
    <glyph glyph-name="K" unicode="K" 
d="M470 0l-208 397l-86 -110v-287h-70v700h70v-319l247 319h78l-191 -243l239 -457h-79z" />
    <glyph glyph-name="L" unicode="L" 
d="M106 0v700h70v-633h338v-67h-408z" />
    <glyph glyph-name="M" unicode="M" 
d="M106 0v700h81l107 -437q10 -40 14 -74q2 25 14 74l107 437h81v-700h-67v469q0 41 2 66q-6 -38 -13 -66l-116 -469h-16l-116 469q-7 28 -13 66q2 -50 2 -66v-469h-67z" />
    <glyph glyph-name="N" unicode="N" 
d="M106 0v700h71l250 -520q12 -27 14 -32q-1 19 -1 33v519h70v-700h-71l-249 510q-7 14 -15 34q1 -16 1 -33v-511h-70z" />
    <glyph glyph-name="O" unicode="O" 
d="M308 -12q-60 0 -105.5 31.5t-70.5 85t-37 115t-12 130.5t12 130.5t37 115t70.5 85t105.5 31.5t105.5 -31.5t70.5 -85t37 -115t12 -130.5t-12 -130.5t-37 -115t-70.5 -85t-105.5 -31.5zM308 51q40 0 71 26.5t48 71.5t25 95.5t8 105.5q0 60 -8 111.5t-25 94.5t-47.5 68
t-71.5 25q-40 0 -71 -26.5t-48 -71.5t-25 -95.5t-8 -105.5q0 -60 8 -111.5t25 -94.5t47.5 -68t71.5 -25z" />
    <glyph glyph-name="P" unicode="P" 
d="M106 0v700h201q116 0 168.5 -59.5t52.5 -146.5q0 -81 -55 -143t-166 -62h-131v-289h-70zM176 352h137q76 0 112 42t36 100q0 57 -34.5 100t-113.5 43h-137v-285z" />
    <glyph glyph-name="Q" unicode="Q" 
d="M533 350q0 -97 -24 -181t-74 -131l58 -87l-48 -36l-60 89q-35 -16 -77 -16q-60 0 -105.5 31.5t-70.5 85t-37 115t-12 130.5t12 130.5t37 115t70.5 85t105.5 31.5t105.5 -31.5t70.5 -85t37 -115t12 -130.5zM308 51q21 0 40 8l-46 68l50 36l44 -67q64 81 64 254
q0 60 -8 111.5t-25 94.5t-47.5 68t-71.5 25q-40 0 -71 -26.5t-48 -71.5t-25 -95.5t-8 -105.5q0 -60 8 -111.5t25 -94.5t47.5 -68t71.5 -25z" />
    <glyph glyph-name="R" unicode="R" 
d="M523 508q0 -43 -13.5 -80t-51 -68.5t-95.5 -41.5l156 -318h-77l-150 313h-116v-313h-70v700h201q115 0 165.5 -55t50.5 -137zM176 637v-261h133q78 0 112.5 37t34.5 92q0 52 -34 92t-113 40h-133z" />
    <glyph glyph-name="S" unicode="S" 
d="M312 -12q-77 0 -134 41t-77 101l66 24q19 -47 57 -75t88 -28q60 0 94 33.5t34 95.5q0 104 -139 164q-38 17 -65.5 32.5t-56.5 39.5t-44 58t-15 75q0 69 50 116t134 47q67 0 114 -31t60 -80l-65 -22q-11 30 -40 50t-71 20q-51 0 -80.5 -27t-29.5 -72q0 -50 36.5 -80.5
t105.5 -60.5q36 -16 63.5 -33.5t55.5 -44t43.5 -64.5t15.5 -85q0 -91 -55 -142.5t-145 -51.5z" />
    <glyph glyph-name="T" unicode="T" 
d="M273 0v633h-200v67h470v-67h-200v-633h-70z" />
    <glyph glyph-name="U" unicode="U" 
d="M308 -12q-220 0 -220 276v436h70v-436q0 -213 150 -213t150 213v436h70v-436q0 -276 -220 -276z" />
    <glyph glyph-name="V" unicode="V" 
d="M283 0l-233 700h73l172 -540q9 -30 13 -51q4 21 13 51l172 540h73l-233 -700h-50z" />
    <glyph glyph-name="W" unicode="W" 
d="M165 0l-113 700h69l70 -485q1 -7 2.5 -22t2.5 -20q4 29 6 42l78 485h58l78 -479q1 -6 2.5 -18.5t2.5 -17.5q1 8 3 21l1 14l71 480h68l-113 -700h-58l-78 475q-2 12 -6 44q-4 -29 -6 -42l-80 -477h-58z" />
    <glyph glyph-name="X" unicode="X" 
d="M545 0h-75l-166 305l-160 -305h-74l202 363l-187 337h76l147 -270l144 270h73l-185 -328z" />
    <glyph glyph-name="Y" unicode="Y" 
d="M469 700h72l-197 -423v-277h-70v277l-199 423h77l157 -360z" />
    <glyph glyph-name="Z" unicode="Z" 
d="M530 700v-51l-354 -583h350v-66h-438v49l354 585h-331v66h419z" />
    <glyph glyph-name="bracketleft" unicode="[" 
d="M247 -130v842h209v-63h-139v-716h139v-63h-209z" />
    <glyph glyph-name="backslash" unicode="\" 
d="M514 -130l-393 842h68l393 -842h-68z" />
    <glyph glyph-name="bracketright" unicode="]" 
d="M456 -130h-209v63h139v716h-139v63h209v-842z" />
    <glyph glyph-name="asciicircum" unicode="^" 
d="M510 362l-158 263l-158 -263h-72l191 350h76l193 -350h-72z" />
    <glyph glyph-name="underscore" unicode="_" 
d="M40 -177v77h536v-77h-536z" />
    <glyph glyph-name="grave" unicode="`" 
d="M405 576l-178 156h107l142 -156h-71z" />
    <glyph glyph-name="a" unicode="a" 
d="M276 -12q-83 0 -131.5 44.5t-48.5 128.5q0 83 55 126t137 43q77 0 144 -36v43q0 125 -112 125q-75 0 -162 -55l-20 60q93 56 189 56q31 0 58 -7.5t53.5 -26t42.5 -55t16 -88.5v-346h-65v50q-69 -62 -156 -62zM283 49q85 0 149 79v99q-63 42 -137 42q-58 0 -96 -27.5
t-38 -80.5q0 -51 32 -81.5t90 -30.5z" />
    <glyph glyph-name="b" unicode="b" 
d="M329 -12q-37 0 -67.5 10t-45 20t-36.5 28v-46h-70v687l70 35v-261q57 62 143 62q100 0 159 -71t59 -196q0 -129 -56 -198.5t-156 -69.5zM318 51q74 0 112 54t38 151q0 99 -38 151.5t-112 52.5q-48 0 -84.5 -24t-53.5 -54v-251q21 -37 58 -58.5t80 -21.5z" />
    <glyph glyph-name="c" unicode="c" 
d="M320 -12q-97 0 -152.5 70t-55.5 197q0 126 57 197t159 71q60 0 104 -28t66 -79l-64 -25q-30 69 -109 69q-140 0 -140 -205q0 -204 138 -204q43 0 74 21t45 57l63 -24q-19 -54 -68.5 -85.5t-116.5 -31.5z" />
    <glyph glyph-name="d" unicode="d" 
d="M293 -12q-101 0 -159.5 72.5t-58.5 195.5q0 125 58.5 196t159.5 71q83 0 143 -48v212l70 35v-722h-70v44q-56 -56 -143 -56zM301 51q91 0 135 80v255q-46 74 -135 74q-74 0 -113.5 -53t-39.5 -151q0 -88 42 -146.5t111 -58.5z" />
    <glyph glyph-name="e" unicode="e" 
d="M527 276q0 -27 -2 -49h-362q10 -82 51 -128t107 -46q65 0 122 40l38 -47q-74 -58 -163 -58q-105 0 -167 77.5t-62 190.5q0 126 62 196.5t167 70.5q91 0 150 -62.5t59 -184.5zM161 290h295q-1 93 -42.5 131.5t-95.5 38.5q-74 0 -113.5 -45t-43.5 -125z" />
    <glyph glyph-name="f" unicode="f" 
d="M388 647q-26 0 -41.5 -5t-22 -16.5t-8 -21t-1.5 -27.5v-66h136v-63h-136v-385h136v-63h-312v63h106v385h-106v63h106v77q0 66 37.5 95t98.5 29q53 0 107 -24v-63q-46 22 -100 22z" />
    <glyph glyph-name="g" unicode="g" 
d="M267 -213l-32 55q115 6 158.5 42t43.5 96v78q-47 -70 -147 -70q-91 0 -153.5 70.5t-62.5 197.5q0 124 61 195.5t159 71.5q92 0 143 -60v48h70v-503q0 -211 -240 -221zM306 51q38 0 74 23t57 62v246q-21 36 -58.5 57t-72.5 21q-79 0 -119 -52.5t-40 -151.5
q0 -96 44.5 -150.5t114.5 -54.5z" />
    <glyph glyph-name="h" unicode="h" 
d="M110 0v689l70 33v-268q47 69 138 69q98 0 143.5 -57t45.5 -183v-283h-70v312q0 77 -34 112.5t-91 35.5q-132 0 -132 -146v-314h-70z" />
    <glyph glyph-name="i" unicode="i" 
d="M324 616q-20 0 -33 13t-13 33t13.5 34t32.5 14q20 0 33 -14t13 -34t-13 -33t-33 -13zM359 63h141v-63h-352v63h141v385h-141v63h211v-448z" />
    <glyph glyph-name="j" unicode="j" 
d="M346 616q-20 0 -33 13t-13 33t13.5 34t32.5 14q20 0 33 -14t13 -34t-13 -33t-33 -13zM381 511v-543q0 -90 -43.5 -133.5t-136.5 -47.5l-32 60q85 8 113.5 36t28.5 97v468h-141v63h211z" />
    <glyph glyph-name="k" unicode="k" 
d="M443 0l-165 326l-98 -104v-222h-70v688l70 34v-417l191 206h81l-125 -133l193 -378h-77z" />
    <glyph glyph-name="l" unicode="l" 
d="M343 63h141v-63h-352v63h141v596h-125l-31 63h226v-659z" />
    <glyph glyph-name="m" unicode="m" 
d="M438 523q64 0 94.5 -41t30.5 -128v-354h-72v313q0 78 -13 111.5t-53 33.5q-42 0 -61.5 -42t-19.5 -110v-306h-72v326q0 29 -2 49.5t-8 41t-19 31t-33 10.5q-41 0 -63 -43t-22 -109v-306h-72v511h68v-62q32 74 98 74q41 0 67.5 -23t36.5 -57q42 80 115 80z" />
    <glyph glyph-name="n" unicode="n" 
d="M318 523q98 0 143.5 -57t45.5 -183v-283h-70v312q0 77 -34 112.5t-91 35.5q-132 0 -132 -146v-314h-70v511h66v-61q48 73 142 73z" />
    <glyph glyph-name="o" unicode="o" 
d="M308 -12q-107 0 -171.5 70.5t-64.5 196.5q0 125 64.5 196.5t171.5 71.5t171.5 -70.5t64.5 -196.5q0 -125 -64.5 -196.5t-171.5 -71.5zM308 51q77 0 120 54.5t43 150.5q0 97 -42 150.5t-121 53.5q-80 0 -121.5 -52.5t-41.5 -152.5q0 -97 42 -150.5t121 -53.5z" />
    <glyph glyph-name="p" unicode="p" 
d="M110 -203v714h70v-46q30 28 62 43t81 15q103 0 162.5 -72.5t59.5 -194.5q0 -126 -60.5 -197t-157.5 -71q-92 0 -147 64v-220zM319 51q73 0 113 53t40 152q0 94 -41.5 149t-115.5 55q-91 0 -135 -79v-251q61 -79 139 -79z" />
    <glyph glyph-name="q" unicode="q" 
d="M436 -200v252q-57 -64 -143 -64q-102 0 -161 70.5t-59 196.5q0 123 58 195.5t162 72.5q70 0 143 -58v46h70v-679zM296 51q33 0 63 15t44 29t33 37v249q-45 79 -133 79q-73 0 -115 -58t-42 -147q0 -99 38.5 -151.5t111.5 -52.5z" />
    <glyph glyph-name="r" unicode="r" 
d="M430 523q73 0 108 -23v-171h-71v119q-18 3 -42 3q-76 0 -135.5 -38.5t-59.5 -105.5v-244h153v-63h-332v63h106v385h-106v63h175v-90q29 46 88 74t116 28z" />
    <glyph glyph-name="s" unicode="s" 
d="M303 -12q-51 0 -99.5 24.5t-82.5 64.5l49 43q61 -70 139 -70q46 0 76 19.5t30 54.5q0 22 -10.5 39.5t-33 32t-40 22.5t-49.5 20q-38 15 -61.5 27t-48.5 30t-37 42.5t-12 55.5q0 58 48 94t123 36q105 0 172 -78l-46 -39q-57 55 -128 55q-47 0 -75 -18t-28 -49
q0 -15 7.5 -28t16.5 -21.5t29 -19t32 -15t38 -14.5q40 -15 61.5 -25.5t51 -30.5t43 -47.5t13.5 -64.5q0 -64 -48 -102t-130 -38z" />
    <glyph glyph-name="t" unicode="t" 
d="M354 -12q-121 0 -121 122v338h-121v63h121v176l70 35v-211h171v-63h-171v-308q0 -43 14.5 -64.5t60.5 -21.5q53 0 97 30l-8 -73q-43 -23 -113 -23z" />
    <glyph glyph-name="u" unicode="u" 
d="M303 -12q-103 0 -148.5 58t-45.5 188v277h72v-305q0 -79 33 -116t89 -37q131 0 131 151v307h72v-511h-72v51q-27 -35 -57.5 -49t-73.5 -14z" />
    <glyph glyph-name="v" unicode="v" 
d="M284 0l-194 511h72l131 -352q13 -34 18 -50q5 16 18 50l128 352h70l-194 -511h-49z" />
    <glyph glyph-name="w" unicode="w" 
d="M156 0l-126 511h72l83 -366q5 -28 7 -38q1 4 3.5 18.5t4.5 22.5l79 363h58l80 -364q2 -9 9 -45q2 18 8 45l80 364h72l-126 -511h-65l-79 348q-4 14 -9 45q-5 -33 -8 -43l-77 -350h-66z" />
    <glyph glyph-name="x" unicode="x" 
d="M80 0l190 264l-178 247h76l116 -161q8 -11 24 -35q16 24 24 35l116 161h76l-178 -247l190 -264h-76l-128 178q-8 11 -24 35q-16 -24 -24 -35l-128 -178h-76z" />
    <glyph glyph-name="y" unicode="y" 
d="M198 -194l76 210l-187 495h71l129 -363q3 -10 9 -28l8 -24l18 52l131 363h75l-261 -705h-69z" />
    <glyph glyph-name="z" unicode="z" 
d="M125 0v43l273 405h-253v63h346v-42l-275 -406h274v-63h-365z" />
    <glyph glyph-name="braceleft" unicode="{" 
d="M437 -130q-87 2 -137.5 61t-50.5 170v51q0 49 -21 80t-55 31h-16v57h16q34 0 55 30.5t21 80.5v50q0 112 51 171.5t137 59.5h22v-59h-22q-57 0 -86.5 -40t-29.5 -113v-56q0 -83 -26.5 -115t-82.5 -36v-4q58 -4 83.5 -34t25.5 -117v-56q0 -73 29.5 -113t86.5 -40h22v-59
h-22z" />
    <glyph glyph-name="bar" unicode="|" 
d="M273 -378v1440h70v-1440h-70z" />
    <glyph glyph-name="braceright" unicode="}" 
d="M157 -130v59h22q57 0 86.5 40t29.5 113v56q0 87 25.5 117t83.5 34v4q-56 4 -82.5 36t-26.5 115v56q0 73 -29.5 113t-86.5 40h-22v59h22q86 0 137 -59.5t51 -171.5v-50q0 -50 21 -80.5t55 -30.5h16v-57h-16q-34 0 -55 -31t-21 -80v-51q0 -111 -50.5 -170t-137.5 -61h-22z
" />
    <glyph glyph-name="asciitilde" unicode="~" 
d="M461 277q-43 0 -117.5 31.5t-106.5 31.5q-33 0 -54.5 -17.5t-23.5 -45.5h-40q0 56 30 93t94 37q45 0 120 -31.5t104 -31.5q33 0 54.5 17.5t23.5 45.5h40q0 -56 -30.5 -93t-93.5 -37z" />
    <glyph glyph-name="uni00A0" unicode="&#xa0;" 
 />
    <glyph glyph-name="exclamdown" unicode="&#xa1;" 
d="M308 397q-26 0 -44.5 19t-18.5 44t18.5 44t44.5 19t44.5 -19t18.5 -44t-18.5 -44t-44.5 -19zM270 -200v214l31 302h11l30 -302v-214h-72z" />
    <glyph glyph-name="cent" unicode="&#xa2;" 
d="M282 -12v97q-77 16 -121 85t-44 180q0 110 43 177.5t122 84.5v100h69v-97q109 -9 144 -107l-68 -26q-25 66 -95 66q-71 0 -106.5 -51.5t-35.5 -146.5q0 -96 35 -147.5t102 -51.5q38 0 66 20.5t38 56.5l67 -24q-33 -112 -147 -121v-95h-69z" />
    <glyph glyph-name="sterling" unicode="&#xa3;" 
d="M122 0v79q49 22 70.5 83.5t21.5 123.5v14h-97v57h81q-3 5 -13 24t-14 28t-10.5 27t-9 38t-2.5 45q0 81 58 137t167 56q115 0 198 -65l-27 -64q-75 62 -171 62q-73 0 -111 -38t-38 -89q0 -33 11 -64t24.5 -57t16.5 -40h164v-57h-151v-11q0 -128 -106 -224h402v-65h-464z
" />
    <glyph glyph-name="currency" unicode="&#xa4;" 
d="M307 86q-90 0 -148 46l-65 -66l-53 54l68 68q-37 56 -37 145q0 86 36 146l-67 67l50 52l66 -65q65 48 150 48q86 0 149 -47l65 64l53 -55l-65 -65q35 -61 35 -145q0 -88 -39 -148l69 -68l-50 -51l-67 67q-59 -47 -150 -47zM307 153q74 0 120 50.5t46 129.5
q0 78 -46 129.5t-120 51.5q-73 0 -118.5 -51.5t-45.5 -129.5q0 -79 45.5 -129.5t118.5 -50.5z" />
    <glyph glyph-name="yen" unicode="&#xa5;" 
d="M340 309h155v-60h-152v-66h152v-60h-152v-123h-70v123h-164v60h164v66h-164v60h166l-216 391h78l170 -324l178 324h72z" />
    <glyph glyph-name="brokenbar" unicode="&#xa6;" 
d="M273 366v459h70v-459h-70zM273 -225v459h70v-459h-70z" />
    <glyph glyph-name="section" unicode="&#xa7;" 
d="M311 -120q-71 0 -127.5 25.5t-82.5 60.5l53 47q54 -65 154 -65q133 0 133 90q0 23 -11.5 42t-35.5 33.5t-43 23.5t-51.5 21.5t-44.5 17.5q-38 16 -56 25.5t-42 27t-34 40t-10 52.5q0 39 21 67.5t54 40.5q-75 42 -75 139q0 67 55 105.5t136 38.5q125 0 190 -79l-54 -43
q-50 52 -136 52q-116 0 -116 -79q0 -17 9.5 -32t21.5 -25t38.5 -23t43.5 -19.5t55 -20.5q39 -15 60.5 -25.5t47.5 -29.5t38 -45.5t12 -63.5q0 -77 -63 -106q63 -46 63 -132q0 -77 -54 -119t-149 -42zM386 204q55 23 55 72q0 22 -11.5 39t-40.5 32.5t-49.5 23.5t-67.5 24
q-39 -6 -61.5 -25.5t-22.5 -48.5q0 -18 10.5 -32.5t34 -26.5t42.5 -19.5t56 -19.5t55 -19z" />
    <glyph glyph-name="dieresis" unicode="&#xa8;" 
d="M225 606q-19 0 -33 14t-14 33q0 20 13.5 33.5t33.5 13.5t33.5 -13.5t13.5 -33.5t-13.5 -33.5t-33.5 -13.5zM391 606q-19 0 -33 14t-14 33q0 20 13.5 33.5t33.5 13.5t33.5 -13.5t13.5 -33.5t-13.5 -33.5t-33.5 -13.5z" />
    <glyph glyph-name="copyright" unicode="&#xa9;" 
d="M308 -12q-124 0 -208 104t-84 258t84 258t208 104t208 -104t84 -258t-84 -258t-208 -104zM308 42q101 0 167 88t66 220t-66 219.5t-167 87.5t-168 -88t-67 -219q0 -132 67 -220t168 -88zM314 138q-75 0 -123.5 57.5t-48.5 159.5q0 99 50 158.5t130 59.5q101 0 138 -110
l-63 -26q-22 71 -84 71q-103 0 -103 -153q0 -154 106 -154q75 0 90 81l57 -23q-16 -58 -55 -89.5t-94 -31.5z" />
    <glyph glyph-name="ordfeminine" unicode="&#xaa;" 
d="M411 283v30q-22 -16 -56 -28t-64 -12q-70 0 -112 37t-42 106q0 66 50.5 103t115.5 37q55 0 108 -23v14q0 58 -23 80.5t-78 22.5q-70 0 -116 -36l-18 59q51 39 144 39q32 0 56 -5t49.5 -19.5t39.5 -47.5t14 -83v-274h-68zM299 332q28 0 60 14t52 32v92q-49 26 -101 26
q-42 0 -71.5 -20t-29.5 -60q0 -39 24.5 -61.5t65.5 -22.5z" />
    <glyph glyph-name="guillemotleft" unicode="&#xab;" 
d="M244 0l-152 256l152 255h78l-152 -255l152 -256h-78zM443 0l-152 256l152 255h80l-152 -255l152 -256h-80z" />
    <glyph glyph-name="logicalnot" unicode="&#xac;" 
d="M471 176v220h-398v67h470v-287h-72z" />
    <glyph glyph-name="uni00AD" unicode="&#xad;" 
d="M73 264v68h470v-68h-470z" />
    <glyph glyph-name="registered" unicode="&#xae;" 
d="M308 712q124 0 208 -104t84 -258t-84 -258t-208 -104t-208 104t-84 258t84 258t208 104zM308 42q101 0 167 88t66 220t-66 219.5t-167 87.5t-168 -88t-67 -219q0 -132 67 -220t168 -88zM465 438q0 -46 -28.5 -83.5t-76.5 -44.5l102 -173h-72l-95 172h-58v-172h-65v423
h177q57 0 86.5 -38t29.5 -84zM237 500v-135h114q23 0 37 20.5t14 50.5q0 24 -13.5 44t-37.5 20h-114z" />
    <glyph glyph-name="macron" unicode="&#xaf;" 
d="M143 609v61h330v-61h-330z" />
    <glyph glyph-name="degree" unicode="&#xb0;" 
d="M309 450q-72 0 -121 48t-49 119t49 118.5t121 47.5q71 0 119.5 -47.5t48.5 -118.5t-48.5 -119t-119.5 -48zM309 519q40 0 66.5 28t26.5 70q0 44 -26 71.5t-67 27.5t-68.5 -28t-27.5 -71q0 -42 28 -70t68 -28z" />
    <glyph glyph-name="plusminus" unicode="&#xb1;" 
d="M343 373v-168h-72v168h-198v67h198v168h72v-168h200v-67h-200zM73 0v67h470v-67h-470z" />
    <glyph glyph-name="uni00B2" unicode="&#xb2;" 
d="M176 595q0 48 19.5 79t47 44t55 21.5t47 18t19.5 26.5q0 16 -12.5 27t-36.5 11q-34 0 -58 -18t-31 -52l-49 21q10 46 45 73.5t91 27.5q51 0 82 -23.5t31 -71.5q0 -29 -27.5 -50t-60 -30t-61 -21.5t-29.5 -27.5h177v-55h-249z" />
    <glyph glyph-name="uni00B3" unicode="&#xb3;" 
d="M309 583q-96 0 -138 73l55 23q29 -46 88 -46q27 0 43.5 13t16.5 32q0 31 -56 31h-34v50h22q29 0 40.5 6t11.5 24q0 14 -13.5 24.5t-36.5 10.5q-50 0 -76 -44l-53 18q16 33 50.5 54.5t77.5 21.5q51 0 82.5 -21t31.5 -58q0 -21 -14.5 -37t-32.5 -18q24 -3 44 -18.5
t20 -48.5q0 -38 -34 -64t-95 -26z" />
    <glyph glyph-name="acute" unicode="&#xb4;" 
d="M207 576l142 156h107l-178 -156h-71z" />
    <glyph glyph-name="uni00B5" unicode="&#xb5;" 
d="M430 0v51q-62 -63 -140 -63q-37 0 -61 13t-44 48v-215l-70 -34v711h70v-312q0 -88 28.5 -118t90.5 -30q126 0 126 146v314h70v-511h-70z" />
    <glyph glyph-name="paragraph" unicode="&#xb6;" 
d="M488 -134v764h-102v-798l-71 -32v478q-70 0 -122.5 19t-81 51.5t-42 68t-13.5 74.5q0 41 12 77t37.5 66.5t71 48t107.5 17.5h275v-802z" />
    <glyph glyph-name="periodcentered" unicode="&#xb7;" 
d="M308 286q-26 0 -44.5 19t-18.5 44t18.5 44t44.5 19t44.5 -19t18.5 -44t-18.5 -44t-44.5 -19z" />
    <glyph glyph-name="cedilla" unicode="&#xb8;" 
d="M295 -234q-55 0 -88 28l46 30q8 -10 36 -10q21 0 37 15t16 36q0 19 -19 33.5t-42 14.5q-25 0 -36 -5l-12 15l68 87h41l-39 -65q54 0 79.5 -24t25.5 -57q0 -43 -32 -70.5t-81 -27.5z" />
    <glyph glyph-name="uni00B9" unicode="&#xb9;" 
d="M274 594v174h-47v43q49 0 66 55h42v-272h-61z" />
    <glyph glyph-name="ordmasculine" unicode="&#xba;" 
d="M307 272q-87 0 -138 58t-51 162q0 103 51 161.5t138 58.5q88 0 139 -58.5t51 -161.5q0 -104 -51 -162t-139 -58zM307 337q120 0 120 155t-120 155q-55 0 -87 -40.5t-32 -114.5t32 -114.5t87 -40.5z" />
    <glyph glyph-name="guillemotright" unicode="&#xbb;" 
d="M92 0l152 256l-152 255h78l152 -255l-152 -256h-78zM291 0l152 256l-152 255h80l152 -255l-152 -256h-80z" />
    <glyph glyph-name="onequarter" unicode="&#xbc;" 
d="M274 432v174h-47v43q49 0 66 55h42v-272h-61zM45 326v56h526v-56h-526zM331 0v58h-178v40l182 174h57v-159h52v-55h-52v-58h-61zM331 113v89l-91 -89h91z" />
    <glyph glyph-name="onehalf" unicode="&#xbd;" 
d="M274 432v174h-47v43q49 0 66 55h42v-272h-61zM45 326v56h526v-56h-526zM176 0q0 48 19.5 79t47 44t55 21.5t47 18t19.5 26.5q0 16 -12.5 27t-36.5 11q-34 0 -58 -18t-31 -52l-49 21q10 46 45 73.5t91 27.5q51 0 82 -23.5t31 -71.5q0 -29 -27.5 -50t-60 -30t-61 -21.5
t-29.5 -27.5h177v-55h-249z" />
    <glyph glyph-name="threequarters" unicode="&#xbe;" 
d="M309 420q-96 0 -138 73l55 23q29 -46 88 -46q27 0 43.5 13t16.5 32q0 31 -56 31h-34v50h22q29 0 40.5 6t11.5 24q0 14 -13.5 24.5t-36.5 10.5q-50 0 -76 -44l-53 18q16 33 50.5 54.5t77.5 21.5q51 0 82.5 -21t31.5 -58q0 -21 -14.5 -37t-32.5 -18q24 -3 44 -18.5
t20 -48.5q0 -38 -34 -64t-95 -26zM45 326v56h526v-56h-526zM331 0v58h-178v40l182 174h57v-159h52v-55h-52v-58h-61zM331 113v89l-91 -89h91z" />
    <glyph glyph-name="questiondown" unicode="&#xbf;" 
d="M313 398q-27 0 -44.5 18t-17.5 43t18 44.5t44 19.5t46 -20t20 -44q0 -25 -20 -43t-46 -18zM296 -200q-99 0 -154 53t-55 138q0 45 19.5 79.5t47 58.5t55 48.5t47 60.5t19.5 82v22h71v-22q0 -54 -19.5 -94t-47 -64t-55 -45.5t-47 -53t-19.5 -72.5q0 -57 36.5 -92.5
t101.5 -35.5q76 0 118 42.5t42 116.5h72q0 -100 -64.5 -161t-167.5 -61z" />
    <glyph glyph-name="Agrave" unicode="&#xc0;" 
d="M365 766h-71l-178 156h107zM496 0l-58 181h-259l-57 -181h-73l231 700h54l233 -700h-71zM199 243h218l-90 280q-18 53 -20 63q-5 -20 -19 -63z" />
    <glyph glyph-name="Aacute" unicode="&#xc1;" 
d="M512 922l-178 -156h-71l142 156h107zM496 0l-58 181h-259l-57 -181h-73l231 700h54l233 -700h-71zM199 243h218l-90 280q-18 53 -20 63q-5 -20 -19 -63z" />
    <glyph glyph-name="Acircumflex" unicode="&#xc2;" 
d="M307 867l-116 -101h-65l141 156h80l141 -156h-65zM496 0l-58 181h-259l-57 -181h-73l231 700h54l233 -700h-71zM199 243h218l-90 280q-18 53 -20 63q-5 -20 -19 -63z" />
    <glyph glyph-name="Atilde" unicode="&#xc3;" 
d="M222 842q-19 0 -32.5 -12t-14.5 -34h-39q0 110 93 110q38 0 90.5 -25.5t74.5 -25.5q19 0 32.5 12.5t14.5 34.5h38q0 -110 -92 -110q-38 0 -90.5 25t-74.5 25zM496 0l-58 181h-259l-57 -181h-73l231 700h54l233 -700h-71zM199 243h218l-90 280q-18 53 -20 63
q-5 -20 -19 -63z" />
    <glyph glyph-name="Adieresis" unicode="&#xc4;" 
d="M224 796q-20 0 -33.5 14t-13.5 33q0 20 13.5 33.5t33.5 13.5t33.5 -13.5t13.5 -33.5t-13.5 -33.5t-33.5 -13.5zM390 796q-20 0 -33.5 14t-13.5 33q0 20 13.5 33.5t33.5 13.5t33.5 -13.5t13.5 -33.5t-13.5 -33.5t-33.5 -13.5zM496 0l-58 181h-259l-57 -181h-73l231 700h54
l233 -700h-71zM199 243h218l-90 280q-18 53 -20 63q-5 -20 -19 -63z" />
    <glyph glyph-name="Aring" unicode="&#xc5;" 
d="M496 0l-58 181h-259l-57 -181h-73l217 656q-32 13 -52.5 42t-20.5 64q0 46 34 78.5t81 32.5t81 -32.5t34 -78.5q0 -36 -20.5 -65t-53.5 -41l218 -656h-71zM308 821q-23 0 -39.5 -16.5t-16.5 -42.5q0 -27 16.5 -44.5t39.5 -17.5q24 0 40 17.5t16 44.5t-16 43t-40 16z
M199 243h218l-90 280q-18 53 -20 63q-5 -20 -19 -63z" />
    <glyph glyph-name="AE" unicode="&#xc6;" 
d="M410 67h205v-67h-274v181h-187l-76 -181h-78l307 700h286v-67h-183v-238h146v-66h-146v-262zM179 243h162v390q-7 -21 -15 -39z" />
    <glyph glyph-name="Ccedilla" unicode="&#xc7;" 
d="M528 116q-22 -53 -67 -89t-112 -39l-26 -43q54 0 79.5 -24t25.5 -57q0 -43 -32 -70.5t-81 -27.5q-55 0 -88 28l46 30q8 -10 36 -10q21 0 37 15t16 36q0 19 -19 33.5t-42 14.5q-25 0 -36 -5l-12 15l52 67q-76 10 -127.5 65t-73 130t-21.5 165q0 100 26 179.5t85.5 131
t144.5 51.5q71 0 112 -30.5t67 -82.5l-62 -36q-22 40 -48.5 63t-68.5 23q-64 0 -107 -47.5t-59.5 -112t-16.5 -139.5q0 -126 46 -212.5t137 -86.5q85 0 127 89z" />
    <glyph glyph-name="Egrave" unicode="&#xc8;" 
d="M306 766l-178 156h107l142 -156h-71zM106 0v700h390v-67h-320v-238h223v-66h-223v-262h342v-67h-412z" />
    <glyph glyph-name="Eacute" unicode="&#xc9;" 
d="M227 773l142 156h107l-178 -156h-71zM106 0v700h390v-67h-320v-238h223v-66h-223v-262h342v-67h-412z" />
    <glyph glyph-name="Ecircumflex" unicode="&#xca;" 
d="M415 766l-116 101l-116 -101h-65l141 156h80l141 -156h-65zM106 0v700h390v-67h-320v-238h223v-66h-223v-262h342v-67h-412z" />
    <glyph glyph-name="Edieresis" unicode="&#xcb;" 
d="M216 796q-20 0 -33.5 14t-13.5 33q0 20 13.5 33.5t33.5 13.5t33.5 -13.5t13.5 -33.5t-13.5 -33.5t-33.5 -13.5zM382 796q-20 0 -33.5 14t-13.5 33q0 20 13.5 33.5t33.5 13.5t33.5 -13.5t13.5 -33.5t-13.5 -33.5t-33.5 -13.5zM106 0v700h390v-67h-320v-238h223v-66h-223
v-262h342v-67h-412z" />
    <glyph glyph-name="Igrave" unicode="&#xcc;" 
d="M356 766h-71l-178 156h107zM510 634h-167v-568h167v-66h-404v66h167v568h-167v66h404v-66z" />
    <glyph glyph-name="Iacute" unicode="&#xcd;" 
d="M510 929l-178 -156h-71l142 156h107zM510 700v-66h-167v-568h167v-66h-404v66h167v568h-167v66h404z" />
    <glyph glyph-name="Icircumflex" unicode="&#xce;" 
d="M308 867l-116 -101h-65l141 156h80l141 -156h-65zM511 634h-167v-568h167v-66h-404v66h167v568h-167v66h404v-66z" />
    <glyph glyph-name="Idieresis" unicode="&#xcf;" 
d="M225 796q-19 0 -33 14t-14 33q0 20 13.5 33.5t33.5 13.5t33.5 -13.5t13.5 -33.5t-13.5 -33.5t-33.5 -13.5zM391 796q-19 0 -33 14t-14 33q0 20 13.5 33.5t33.5 13.5t33.5 -13.5t13.5 -33.5t-13.5 -33.5t-33.5 -13.5zM511 634h-167v-568h167v-66h-404v66h167v568h-167v66
h404v-66z" />
    <glyph glyph-name="Eth" unicode="&#xd0;" 
d="M264 700q72 0 126 -30t84 -81t44.5 -111t14.5 -128q0 -51 -7.5 -98.5t-27 -94t-49.5 -81t-78.5 -55.5t-110.5 -21h-155v318h-65v62h65v320h159zM259 63q56 0 97 25t62.5 68t31.5 91t10 103q0 121 -47 204t-143 83h-95v-257h150v-62h-150v-255h84z" />
    <glyph glyph-name="Ntilde" unicode="&#xd1;" 
d="M387 792q-38 0 -90.5 25t-74.5 25q-19 0 -32.5 -12t-14.5 -34h-39q0 110 93 110q38 0 90.5 -25.5t74.5 -25.5q19 0 32.5 12.5t14.5 34.5h38q0 -110 -92 -110zM106 0v700h71l250 -520q12 -27 14 -32q-1 19 -1 33v519h70v-700h-71l-249 510q-7 14 -15 34q1 -16 1 -33v-511
h-70z" />
    <glyph glyph-name="Ograve" unicode="&#xd2;" 
d="M305 766l-178 156h107l142 -156h-71zM308 -12q-60 0 -105.5 31.5t-70.5 85t-37 115t-12 130.5t12 130.5t37 115t70.5 85t105.5 31.5t105.5 -31.5t70.5 -85t37 -115t12 -130.5t-12 -130.5t-37 -115t-70.5 -85t-105.5 -31.5zM308 51q40 0 71 26.5t48 71.5t25 95.5t8 105.5
q0 60 -8 111.5t-25 94.5t-47.5 68t-71.5 25q-40 0 -71 -26.5t-48 -71.5t-25 -95.5t-8 -105.5q0 -60 8 -111.5t25 -94.5t47.5 -68t71.5 -25z" />
    <glyph glyph-name="Oacute" unicode="&#xd3;" 
d="M254 766l142 156h107l-178 -156h-71zM308 -12q-60 0 -105.5 31.5t-70.5 85t-37 115t-12 130.5t12 130.5t37 115t70.5 85t105.5 31.5t105.5 -31.5t70.5 -85t37 -115t12 -130.5t-12 -130.5t-37 -115t-70.5 -85t-105.5 -31.5zM308 51q40 0 71 26.5t48 71.5t25 95.5t8 105.5
q0 60 -8 111.5t-25 94.5t-47.5 68t-71.5 25q-40 0 -71 -26.5t-48 -71.5t-25 -95.5t-8 -105.5q0 -60 8 -111.5t25 -94.5t47.5 -68t71.5 -25z" />
    <glyph glyph-name="Ocircumflex" unicode="&#xd4;" 
d="M424 766l-116 101l-116 -101h-65l141 156h80l141 -156h-65zM308 -12q-60 0 -105.5 31.5t-70.5 85t-37 115t-12 130.5t12 130.5t37 115t70.5 85t105.5 31.5t105.5 -31.5t70.5 -85t37 -115t12 -130.5t-12 -130.5t-37 -115t-70.5 -85t-105.5 -31.5zM308 51q40 0 71 26.5
t48 71.5t25 95.5t8 105.5q0 60 -8 111.5t-25 94.5t-47.5 68t-71.5 25q-40 0 -71 -26.5t-48 -71.5t-25 -95.5t-8 -105.5q0 -60 8 -111.5t25 -94.5t47.5 -68t71.5 -25z" />
    <glyph glyph-name="Otilde" unicode="&#xd5;" 
d="M388 792q-38 0 -90.5 25t-74.5 25q-19 0 -32.5 -12t-14.5 -34h-39q0 110 93 110q38 0 90.5 -25.5t74.5 -25.5q19 0 32.5 12.5t14.5 34.5h38q0 -110 -92 -110zM308 -12q-60 0 -105.5 31.5t-70.5 85t-37 115t-12 130.5t12 130.5t37 115t70.5 85t105.5 31.5t105.5 -31.5
t70.5 -85t37 -115t12 -130.5t-12 -130.5t-37 -115t-70.5 -85t-105.5 -31.5zM308 51q40 0 71 26.5t48 71.5t25 95.5t8 105.5q0 60 -8 111.5t-25 94.5t-47.5 68t-71.5 25q-40 0 -71 -26.5t-48 -71.5t-25 -95.5t-8 -105.5q0 -60 8 -111.5t25 -94.5t47.5 -68t71.5 -25z" />
    <glyph glyph-name="Odieresis" unicode="&#xd6;" 
d="M225 796q-19 0 -33 14t-14 33q0 20 13.5 33.5t33.5 13.5t33.5 -13.5t13.5 -33.5t-13.5 -33.5t-33.5 -13.5zM391 796q-19 0 -33 14t-14 33q0 20 13.5 33.5t33.5 13.5t33.5 -13.5t13.5 -33.5t-13.5 -33.5t-33.5 -13.5zM308 -12q-60 0 -105.5 31.5t-70.5 85t-37 115
t-12 130.5t12 130.5t37 115t70.5 85t105.5 31.5t105.5 -31.5t70.5 -85t37 -115t12 -130.5t-12 -130.5t-37 -115t-70.5 -85t-105.5 -31.5zM308 51q40 0 71 26.5t48 71.5t25 95.5t8 105.5q0 60 -8 111.5t-25 94.5t-47.5 68t-71.5 25q-40 0 -71 -26.5t-48 -71.5t-25 -95.5
t-8 -105.5q0 -60 8 -111.5t25 -94.5t47.5 -68t71.5 -25z" />
    <glyph glyph-name="multiply" unicode="&#xd7;" 
d="M310 293l-171 -172l-52 50l174 173l-173 170l49 48l171 -171l171 172l50 -51l-172 -170l171 -173l-47 -47z" />
    <glyph glyph-name="Oslash" unicode="&#xd8;" 
d="M586 712l-92 -138q39 -92 39 -224q0 -69 -12 -130.5t-37 -115t-70.5 -85t-105.5 -31.5q-95 0 -153 79l-53 -79h-72l92 138q-39 92 -39 224q0 69 12 130.5t37 115t70.5 85t105.5 31.5q95 0 152 -78l52 78h74zM156 350q0 -81 15 -150l248 372q-39 77 -111 77
q-40 0 -71 -26.5t-48 -71.5t-25 -95.5t-8 -105.5zM460 350q0 85 -16 150l-248 -371q40 -78 112 -78q40 0 71 26.5t48 71.5t25 95.5t8 105.5z" />
    <glyph glyph-name="Ugrave" unicode="&#xd9;" 
d="M313 766l-178 156h107l142 -156h-71zM308 -12q-220 0 -220 276v436h70v-436q0 -213 150 -213t150 213v436h70v-436q0 -276 -220 -276z" />
    <glyph glyph-name="Uacute" unicode="&#xda;" 
d="M237 773l142 156h107l-178 -156h-71zM308 -12q-220 0 -220 276v436h70v-436q0 -213 150 -213t150 213v436h70v-436q0 -276 -220 -276z" />
    <glyph glyph-name="Ucircumflex" unicode="&#xdb;" 
d="M424 766l-116 101l-116 -101h-65l141 156h80l141 -156h-65zM308 -12q-220 0 -220 276v436h70v-436q0 -213 150 -213t150 213v436h70v-436q0 -276 -220 -276z" />
    <glyph glyph-name="Udieresis" unicode="&#xdc;" 
d="M225 796q-19 0 -33 14t-14 33q0 20 13.5 33.5t33.5 13.5t33.5 -13.5t13.5 -33.5t-13.5 -33.5t-33.5 -13.5zM391 796q-19 0 -33 14t-14 33q0 20 13.5 33.5t33.5 13.5t33.5 -13.5t13.5 -33.5t-13.5 -33.5t-33.5 -13.5zM308 -12q-220 0 -220 276v436h70v-436
q0 -213 150 -213t150 213v436h70v-436q0 -276 -220 -276z" />
    <glyph glyph-name="Yacute" unicode="&#xdd;" 
d="M501 929l-178 -156h-71l142 156h107zM469 700h72l-197 -423v-277h-70v277l-199 423h77l157 -360z" />
    <glyph glyph-name="Thorn" unicode="&#xde;" 
d="M106 0v700h70v-139h131q116 0 168.5 -59t52.5 -147q0 -37 -12 -71.5t-37 -65.5t-69.5 -49.5t-102.5 -18.5h-131v-150h-70zM313 213q76 0 112 42t36 100q0 55 -34.5 99t-113.5 44h-137v-285h137z" />
    <glyph glyph-name="germandbls" unicode="&#xdf;" 
d="M98 -203v681q0 119 58.5 176.5t138.5 57.5q88 0 143 -50.5t55 -132.5q0 -50 -24 -89.5t-71 -54.5q63 -22 97 -68.5t34 -107.5q0 -99 -59 -160t-151 -61q-45 0 -79 16l33 54q19 -7 48 -7q53 0 94 39.5t41 114.5q0 61 -39.5 102t-123.5 41h-4v63h4q127 0 127 115
q0 58 -31.5 90.5t-92.5 32.5q-56 0 -92 -41.5t-36 -126.5v-648z" />
    <glyph glyph-name="agrave" unicode="&#xe0;" 
d="M314 576l-178 156h107l142 -156h-71zM276 -12q-83 0 -131.5 44.5t-48.5 128.5q0 83 55 126t137 43q77 0 144 -36v43q0 125 -112 125q-75 0 -162 -55l-20 60q93 56 189 56q31 0 58 -7.5t53.5 -26t42.5 -55t16 -88.5v-346h-65v50q-69 -62 -156 -62zM283 49q85 0 149 79v99
q-63 42 -137 42q-58 0 -96 -27.5t-38 -80.5q0 -51 32 -81.5t90 -30.5z" />
    <glyph glyph-name="aacute" unicode="&#xe1;" 
d="M257 576l142 156h107l-178 -156h-71zM276 -12q-83 0 -131.5 44.5t-48.5 128.5q0 83 55 126t137 43q77 0 144 -36v43q0 125 -112 125q-75 0 -162 -55l-20 60q93 56 189 56q31 0 58 -7.5t53.5 -26t42.5 -55t16 -88.5v-346h-65v50q-69 -62 -156 -62zM283 49q85 0 149 79v99
q-63 42 -137 42q-58 0 -96 -27.5t-38 -80.5q0 -51 32 -81.5t90 -30.5z" />
    <glyph glyph-name="acircumflex" unicode="&#xe2;" 
d="M433 576l-116 101l-116 -101h-65l141 156h80l141 -156h-65zM276 -12q-83 0 -131.5 44.5t-48.5 128.5q0 83 55 126t137 43q77 0 144 -36v43q0 125 -112 125q-75 0 -162 -55l-20 60q93 56 189 56q31 0 58 -7.5t53.5 -26t42.5 -55t16 -88.5v-346h-65v50q-69 -62 -156 -62z
M283 49q85 0 149 79v99q-63 42 -137 42q-58 0 -96 -27.5t-38 -80.5q0 -51 32 -81.5t90 -30.5z" />
    <glyph glyph-name="atilde" unicode="&#xe3;" 
d="M407 602q-38 0 -90.5 25t-74.5 25q-19 0 -32.5 -12t-14.5 -34h-39q0 110 93 110q38 0 90.5 -25.5t74.5 -25.5q19 0 32.5 12.5t14.5 34.5h38q0 -110 -92 -110zM276 -12q-83 0 -131.5 44.5t-48.5 128.5q0 83 55 126t137 43q77 0 144 -36v43q0 125 -112 125q-75 0 -162 -55
l-20 60q93 56 189 56q31 0 58 -7.5t53.5 -26t42.5 -55t16 -88.5v-346h-65v50q-69 -62 -156 -62zM283 49q85 0 149 79v99q-63 42 -137 42q-58 0 -96 -27.5t-38 -80.5q0 -51 32 -81.5t90 -30.5z" />
    <glyph glyph-name="adieresis" unicode="&#xe4;" 
d="M250 606q-20 0 -33.5 14t-13.5 33q0 20 13.5 33.5t33.5 13.5t33.5 -13.5t13.5 -33.5t-13.5 -33.5t-33.5 -13.5zM416 606q-20 0 -33.5 14t-13.5 33q0 20 13.5 33.5t33.5 13.5t33.5 -13.5t13.5 -33.5t-13.5 -33.5t-33.5 -13.5zM276 -12q-83 0 -131.5 44.5t-48.5 128.5
q0 83 55 126t137 43q77 0 144 -36v43q0 125 -112 125q-75 0 -162 -55l-20 60q93 56 189 56q31 0 58 -7.5t53.5 -26t42.5 -55t16 -88.5v-346h-65v50q-69 -62 -156 -62zM283 49q85 0 149 79v99q-63 42 -137 42q-58 0 -96 -27.5t-38 -80.5q0 -51 32 -81.5t90 -30.5z" />
    <glyph glyph-name="aring" unicode="&#xe5;" 
d="M328 575q-47 0 -81 34t-34 80t34 78.5t81 32.5t81 -32.5t34 -78.5t-34 -80t-81 -34zM328 627q24 0 40 17.5t16 44.5t-16 43t-40 16q-23 0 -39.5 -16.5t-16.5 -42.5q0 -27 16.5 -44.5t39.5 -17.5zM276 -12q-83 0 -131.5 44.5t-48.5 128.5q0 83 55 126t137 43q77 0 144 -36
v43q0 125 -112 125q-75 0 -162 -55l-20 60q93 56 189 56q31 0 58 -7.5t53.5 -26t42.5 -55t16 -88.5v-346h-65v50q-69 -62 -156 -62zM283 49q85 0 149 79v99q-63 42 -137 42q-58 0 -96 -27.5t-38 -80.5q0 -51 32 -81.5t90 -30.5z" />
    <glyph glyph-name="ae" unicode="&#xe6;" 
d="M162 -12q-60 0 -95 44.5t-35 128.5q0 83 39.5 126t99.5 43q50 0 98 -36v43q0 127 -79 127q-54 0 -113 -57l-15 60q65 56 133 56q82 0 111 -79q47 79 126 79q69 0 110.5 -64.5t41.5 -182.5q0 -27 -1 -49h-256q1 -76 34 -128.5t73 -52.5q46 0 87 47l28 -47
q-54 -58 -117 -58q-42 0 -77 28.5t-54 74.5q-25 -51 -64 -77t-75 -26zM326 288h195q0 94 -27.5 134t-61.5 40q-45 0 -74 -44.5t-32 -129.5zM167 46q33 0 63 29t49 68q-10 38 -10 84q-45 45 -93 45q-36 0 -59.5 -28.5t-23.5 -82.5q0 -52 19.5 -83.5t54.5 -31.5z" />
    <glyph glyph-name="ccedilla" unicode="&#xe7;" 
d="M505 105q-17 -50 -60 -80.5t-103 -35.5l-26 -44q54 0 79.5 -24t25.5 -57q0 -43 -32 -70.5t-81 -27.5q-55 0 -88 28l46 30q8 -10 36 -10q21 0 37 15t16 36q0 19 -19 33.5t-42 14.5q-25 0 -36 -5l-12 15l52 66q-88 8 -137 77.5t-49 188.5q0 126 57 197t159 71q60 0 104 -28
t66 -79l-64 -25q-30 69 -109 69q-140 0 -140 -205q0 -204 138 -204q43 0 74 21t45 57z" />
    <glyph glyph-name="egrave" unicode="&#xe8;" 
d="M462 576h-71l-178 156h107zM527 276q0 -27 -2 -49h-362q10 -82 51 -128t107 -46q65 0 122 40l38 -47q-74 -58 -163 -58q-105 0 -167 77.5t-62 190.5q0 126 62 196.5t167 70.5q91 0 150 -62.5t59 -184.5zM161 290h295q-1 93 -42.5 131.5t-95.5 38.5q-74 0 -113.5 -45
t-43.5 -125z" />
    <glyph glyph-name="eacute" unicode="&#xe9;" 
d="M483 732l-178 -156h-71l142 156h107zM527 276q0 -27 -2 -49h-362q10 -82 51 -128t107 -46q65 0 122 40l38 -47q-74 -58 -163 -58q-105 0 -167 77.5t-62 190.5q0 126 62 196.5t167 70.5q91 0 150 -62.5t59 -184.5zM161 290h295q-1 93 -42.5 131.5t-95.5 38.5
q-74 0 -113.5 -45t-43.5 -125z" />
    <glyph glyph-name="ecircumflex" unicode="&#xea;" 
d="M318 677l-116 -101h-65l141 156h80l141 -156h-65zM527 276q0 -27 -2 -49h-362q10 -82 51 -128t107 -46q65 0 122 40l38 -47q-74 -58 -163 -58q-105 0 -167 77.5t-62 190.5q0 126 62 196.5t167 70.5q91 0 150 -62.5t59 -184.5zM161 290h295q-1 93 -42.5 131.5t-95.5 38.5
q-74 0 -113.5 -45t-43.5 -125z" />
    <glyph glyph-name="edieresis" unicode="&#xeb;" 
d="M235 606q-19 0 -33 14t-14 33q0 20 13.5 33.5t33.5 13.5t33.5 -13.5t13.5 -33.5t-13.5 -33.5t-33.5 -13.5zM401 606q-19 0 -33 14t-14 33q0 20 13.5 33.5t33.5 13.5t33.5 -13.5t13.5 -33.5t-13.5 -33.5t-33.5 -13.5zM527 276q0 -27 -2 -49h-362q10 -82 51 -128t107 -46
q65 0 122 40l38 -47q-74 -58 -163 -58q-105 0 -167 77.5t-62 190.5q0 126 62 196.5t167 70.5q91 0 150 -62.5t59 -184.5zM161 290h295q-1 93 -42.5 131.5t-95.5 38.5q-74 0 -113.5 -45t-43.5 -125z" />
    <glyph glyph-name="igrave" unicode="&#xec;" 
d="M366 576h-71l-178 156h107zM359 63h141v-63h-352v63h141v402h-141v63h211v-465z" />
    <glyph glyph-name="iacute" unicode="&#xed;" 
d="M481 732l-178 -156h-71l142 156h107zM359 63h141v-63h-352v63h141v402h-141v63h211v-465z" />
    <glyph glyph-name="icircumflex" unicode="&#xee;" 
d="M308 677l-116 -101h-65l141 156h80l141 -156h-65zM359 63h141v-63h-352v63h141v402h-141v63h211v-465z" />
    <glyph glyph-name="idieresis" unicode="&#xef;" 
d="M225 606q-19 0 -33 14t-14 33q0 20 13.5 33.5t33.5 13.5t33.5 -13.5t13.5 -33.5t-13.5 -33.5t-33.5 -13.5zM391 606q-19 0 -33 14t-14 33q0 20 13.5 33.5t33.5 13.5t33.5 -13.5t13.5 -33.5t-13.5 -33.5t-33.5 -13.5zM359 63h141v-63h-352v63h141v402h-141v63h211v-465z
" />
    <glyph glyph-name="eth" unicode="&#xf0;" 
d="M308 -12q-99 0 -159 65.5t-60 167.5q0 105 62 170t157 65q102 0 148 -87q-19 148 -122 227l-66 -70l-33 34l58 63q-56 30 -125 36v53q94 -8 164 -47l57 62l35 -35l-51 -54q154 -119 154 -369q0 -133 -57.5 -207t-161.5 -74zM308 51q61 0 103.5 48.5t42.5 120.5
q0 73 -41.5 123t-104.5 50q-61 0 -103.5 -49t-42.5 -123q0 -72 43 -121t103 -49z" />
    <glyph glyph-name="ntilde" unicode="&#xf1;" 
d="M228 652q-19 0 -32.5 -12t-14.5 -34h-39q0 110 93 110q38 0 90.5 -25.5t74.5 -25.5q19 0 32.5 12.5t14.5 34.5h38q0 -110 -92 -110q-38 0 -90.5 25t-74.5 25zM318 523q98 0 143.5 -57t45.5 -183v-283h-70v312q0 77 -34 112.5t-91 35.5q-132 0 -132 -146v-314h-70v511h66
v-61q48 73 142 73z" />
    <glyph glyph-name="ograve" unicode="&#xf2;" 
d="M320 576l-178 156h107l142 -156h-71zM308 -12q-107 0 -171.5 70.5t-64.5 196.5q0 125 64.5 196.5t171.5 71.5t171.5 -70.5t64.5 -196.5q0 -125 -64.5 -196.5t-171.5 -71.5zM308 51q77 0 120 54.5t43 150.5q0 97 -42 150.5t-121 53.5q-80 0 -121.5 -52.5t-41.5 -152.5
q0 -97 42 -150.5t121 -53.5z" />
    <glyph glyph-name="oacute" unicode="&#xf3;" 
d="M244 576l142 156h107l-178 -156h-71zM308 -12q-107 0 -171.5 70.5t-64.5 196.5q0 125 64.5 196.5t171.5 71.5t171.5 -70.5t64.5 -196.5q0 -125 -64.5 -196.5t-171.5 -71.5zM308 51q77 0 120 54.5t43 150.5q0 97 -42 150.5t-121 53.5q-80 0 -121.5 -52.5t-41.5 -152.5
q0 -97 42 -150.5t121 -53.5z" />
    <glyph glyph-name="ocircumflex" unicode="&#xf4;" 
d="M424 576l-116 101l-116 -101h-65l141 156h80l141 -156h-65zM308 -12q-107 0 -171.5 70.5t-64.5 196.5q0 125 64.5 196.5t171.5 71.5t171.5 -70.5t64.5 -196.5q0 -125 -64.5 -196.5t-171.5 -71.5zM308 51q77 0 120 54.5t43 150.5q0 97 -42 150.5t-121 53.5
q-80 0 -121.5 -52.5t-41.5 -152.5q0 -97 42 -150.5t121 -53.5z" />
    <glyph glyph-name="otilde" unicode="&#xf5;" 
d="M388 602q-38 0 -90.5 25t-74.5 25q-19 0 -32.5 -12t-14.5 -34h-39q0 110 93 110q38 0 90.5 -25.5t74.5 -25.5q19 0 32.5 12.5t14.5 34.5h38q0 -110 -92 -110zM308 -12q-107 0 -171.5 70.5t-64.5 196.5q0 125 64.5 196.5t171.5 71.5t171.5 -70.5t64.5 -196.5
q0 -125 -64.5 -196.5t-171.5 -71.5zM308 51q77 0 120 54.5t43 150.5q0 97 -42 150.5t-121 53.5q-80 0 -121.5 -52.5t-41.5 -152.5q0 -97 42 -150.5t121 -53.5z" />
    <glyph glyph-name="odieresis" unicode="&#xf6;" 
d="M225 606q-19 0 -33 14t-14 33q0 20 13.5 33.5t33.5 13.5t33.5 -13.5t13.5 -33.5t-13.5 -33.5t-33.5 -13.5zM391 606q-19 0 -33 14t-14 33q0 20 13.5 33.5t33.5 13.5t33.5 -13.5t13.5 -33.5t-13.5 -33.5t-33.5 -13.5zM308 -12q-107 0 -171.5 70.5t-64.5 196.5
q0 125 64.5 196.5t171.5 71.5t171.5 -70.5t64.5 -196.5q0 -125 -64.5 -196.5t-171.5 -71.5zM308 51q77 0 120 54.5t43 150.5q0 97 -42 150.5t-121 53.5q-80 0 -121.5 -52.5t-41.5 -152.5q0 -97 42 -150.5t121 -53.5z" />
    <glyph glyph-name="divide" unicode="&#xf7;" 
d="M305 501q-21 0 -34.5 14t-13.5 34q0 19 14 34t34 15q21 0 36 -15t15 -34q0 -20 -14.5 -34t-36.5 -14zM73 308v68h470v-68h-470zM305 88q-21 0 -34.5 13t-13.5 33q0 21 13.5 35t34.5 14q22 0 36.5 -14.5t14.5 -34.5t-14.5 -33t-36.5 -13z" />
    <glyph glyph-name="oslash" unicode="&#xf8;" 
d="M478 454q66 -71 66 -198q0 -125 -64.5 -196.5t-171.5 -71.5q-75 0 -130 35l-24 -35h-65l48 70q-65 71 -65 197q0 125 64.5 196.5t171.5 71.5q72 0 128 -34l24 34h66zM145 255q0 -87 33 -138l221 318q-39 25 -91 25q-80 0 -121.5 -52.5t-41.5 -152.5zM308 51
q77 0 120 54.5t43 150.5q0 89 -34 139l-221 -318q38 -26 92 -26z" />
    <glyph glyph-name="ugrave" unicode="&#xf9;" 
d="M316 576l-178 156h107l142 -156h-71zM303 -12q-103 0 -148.5 58t-45.5 188v277h72v-305q0 -79 33 -116t89 -37q131 0 131 151v307h72v-511h-72v51q-27 -35 -57.5 -49t-73.5 -14z" />
    <glyph glyph-name="uacute" unicode="&#xfa;" 
d="M230 576l142 156h107l-178 -156h-71zM303 -12q-103 0 -148.5 58t-45.5 188v277h72v-305q0 -79 33 -116t89 -37q131 0 131 151v307h72v-511h-72v51q-27 -35 -57.5 -49t-73.5 -14z" />
    <glyph glyph-name="ucircumflex" unicode="&#xfb;" 
d="M420 576l-116 101l-116 -101h-65l141 156h80l141 -156h-65zM303 -12q-103 0 -148.5 58t-45.5 188v277h72v-305q0 -79 33 -116t89 -37q131 0 131 151v307h72v-511h-72v51q-27 -35 -57.5 -49t-73.5 -14z" />
    <glyph glyph-name="udieresis" unicode="&#xfc;" 
d="M221 606q-19 0 -33 14t-14 33q0 20 13.5 33.5t33.5 13.5t33.5 -13.5t13.5 -33.5t-13.5 -33.5t-33.5 -13.5zM387 606q-19 0 -33 14t-14 33q0 20 13.5 33.5t33.5 13.5t33.5 -13.5t13.5 -33.5t-13.5 -33.5t-33.5 -13.5zM303 -12q-103 0 -148.5 58t-45.5 188v277h72v-305
q0 -79 33 -116t89 -37q131 0 131 151v307h72v-511h-72v51q-27 -35 -57.5 -49t-73.5 -14z" />
    <glyph glyph-name="yacute" unicode="&#xfd;" 
d="M237 576l142 156h107l-178 -156h-71zM198 -194l76 210l-187 495h71l129 -363q3 -10 9 -28l8 -24l18 52l131 363h75l-261 -705h-69z" />
    <glyph glyph-name="thorn" unicode="&#xfe;" 
d="M110 -210v888l72 35v-233q66 60 145 60q101 0 159.5 -75t58.5 -200q0 -130 -60 -203.5t-158 -73.5q-88 0 -145 66v-228zM319 53q72 0 111.5 55t39.5 157q0 96 -40.5 153t-110.5 57q-43 0 -79 -21.5t-58 -59.5v-260q63 -81 137 -81z" />
    <glyph glyph-name="ydieresis" unicode="&#xff;" 
d="M222 606q-20 0 -33.5 14t-13.5 33q0 20 13.5 33.5t33.5 13.5t33.5 -13.5t13.5 -33.5t-13.5 -33.5t-33.5 -13.5zM388 606q-20 0 -33.5 14t-13.5 33q0 20 13.5 33.5t33.5 13.5t33.5 -13.5t13.5 -33.5t-13.5 -33.5t-33.5 -13.5zM198 -194l76 210l-187 495h71l129 -363
q3 -10 9 -28l8 -24l18 52l131 363h75l-261 -705h-69z" />
    <glyph glyph-name="Amacron" unicode="&#x100;" 
d="M472 860v-61h-330v61h330zM496 0l-58 181h-259l-57 -181h-73l231 700h54l233 -700h-71zM199 243h218l-90 280q-18 53 -20 63q-5 -20 -19 -63z" />
    <glyph glyph-name="amacron" unicode="&#x101;" 
d="M159 609v61h330v-61h-330zM276 -12q-83 0 -131.5 44.5t-48.5 128.5q0 83 55 126t137 43q77 0 144 -36v43q0 125 -112 125q-75 0 -162 -55l-20 60q93 56 189 56q31 0 58 -7.5t53.5 -26t42.5 -55t16 -88.5v-346h-65v50q-69 -62 -156 -62zM283 49q85 0 149 79v99
q-63 42 -137 42q-58 0 -96 -27.5t-38 -80.5q0 -51 32 -81.5t90 -30.5z" />
    <glyph glyph-name="Abreve" unicode="&#x102;" 
d="M307 771q-89 0 -134 45t-45 116h68q0 -46 31.5 -72.5t79.5 -26.5t79.5 26.5t31.5 72.5h68q0 -71 -45 -116t-134 -45zM496 0l-58 181h-259l-57 -181h-73l231 700h54l233 -700h-71zM199 243h218l-90 280q-18 53 -20 63q-5 -20 -19 -63z" />
    <glyph glyph-name="abreve" unicode="&#x103;" 
d="M324 581q-89 0 -134 45t-45 116h68q0 -46 31.5 -72.5t79.5 -26.5t79.5 26.5t31.5 72.5h68q0 -71 -45 -116t-134 -45zM276 -12q-83 0 -131.5 44.5t-48.5 128.5q0 83 55 126t137 43q77 0 144 -36v43q0 125 -112 125q-75 0 -162 -55l-20 60q93 56 189 56q31 0 58 -7.5
t53.5 -26t42.5 -55t16 -88.5v-346h-65v50q-69 -62 -156 -62zM283 49q85 0 149 79v99q-63 42 -137 42q-58 0 -96 -27.5t-38 -80.5q0 -51 32 -81.5t90 -30.5z" />
    <glyph glyph-name="Aogonek" unicode="&#x104;" 
d="M468 -244q-46 0 -77.5 25.5t-31.5 72.5q0 49 36 87t101 59l-58 181h-259l-57 -181h-73l231 700h54l233 -700q-59 -14 -103 -52.5t-44 -84.5q0 -29 16 -43t38 -14q30 0 55 23l39 -29q-40 -44 -100 -44zM199 243h218l-90 280q-2 5 -6.5 19.5t-8.5 26t-5 17.5q-2 -8 -19 -63
z" />
    <glyph glyph-name="aogonek" unicode="&#x105;" 
d="M462 -234q-46 0 -77.5 25.5t-31.5 72.5q0 88 112 136v50q-69 -62 -150 -62q-80 0 -127 44.5t-47 128.5q0 83 53.5 126t132.5 43q71 0 138 -36v43q0 125 -112 125q-72 0 -152 -55l-20 60q88 56 179 56q31 0 58 -7.5t53.5 -26t42.5 -55t16 -88.5v-346q-116 -49 -116 -127
q0 -29 16 -43t38 -14q30 0 55 23l39 -29q-40 -44 -100 -44zM322 49q79 0 143 79v99q-63 42 -131 42q-55 0 -91.5 -27.5t-36.5 -80.5q0 -51 30.5 -81.5t85.5 -30.5z" />
    <glyph glyph-name="Cacute" unicode="&#x106;" 
d="M280 766l142 156h107l-178 -156h-71zM339 -12q-66 0 -117 30.5t-80.5 82.5t-44 115t-14.5 134q0 100 26 179.5t85.5 131t144.5 51.5q71 0 112 -30.5t67 -82.5l-62 -36q-22 40 -48.5 63t-68.5 23q-64 0 -107 -47.5t-59.5 -112t-16.5 -139.5q0 -126 46 -212.5t137 -86.5
q85 0 127 89l62 -24q-23 -55 -70.5 -91.5t-118.5 -36.5z" />
    <glyph glyph-name="cacute" unicode="&#x107;" 
d="M270 576l142 156h107l-178 -156h-71zM320 -12q-97 0 -152.5 70t-55.5 197q0 126 57 197t159 71q60 0 104 -28t66 -79l-64 -25q-30 69 -109 69q-140 0 -140 -205q0 -204 138 -204q43 0 74 21t45 57l63 -24q-19 -54 -68.5 -85.5t-116.5 -31.5z" />
    <glyph glyph-name="Ccircumflex" unicode="&#x108;" 
d="M449 766l-116 101l-116 -101h-65l141 156h80l141 -156h-65zM339 -12q-66 0 -117 30.5t-80.5 82.5t-44 115t-14.5 134q0 100 26 179.5t85.5 131t144.5 51.5q71 0 112 -30.5t67 -82.5l-62 -36q-22 40 -48.5 63t-68.5 23q-64 0 -107 -47.5t-59.5 -112t-16.5 -139.5
q0 -126 46 -212.5t137 -86.5q85 0 127 89l62 -24q-23 -55 -70.5 -91.5t-118.5 -36.5z" />
    <glyph glyph-name="ccircumflex" unicode="&#x109;" 
d="M432 576l-116 101l-116 -101h-65l141 156h80l141 -156h-65zM320 -12q-97 0 -152.5 70t-55.5 197q0 126 57 197t159 71q60 0 104 -28t66 -79l-64 -25q-30 69 -109 69q-140 0 -140 -205q0 -204 138 -204q43 0 74 21t45 57l63 -24q-19 -54 -68.5 -85.5t-116.5 -31.5z" />
    <glyph glyph-name="Cdotaccent" unicode="&#x10a;" 
d="M336 796q-20 0 -33.5 14t-13.5 33q0 20 13.5 33.5t33.5 13.5t33.5 -13.5t13.5 -33.5t-13.5 -33.5t-33.5 -13.5zM339 -12q-66 0 -117 30.5t-80.5 82.5t-44 115t-14.5 134q0 100 26 179.5t85.5 131t144.5 51.5q71 0 112 -30.5t67 -82.5l-62 -36q-22 40 -48.5 63t-68.5 23
q-64 0 -107 -47.5t-59.5 -112t-16.5 -139.5q0 -126 46 -212.5t137 -86.5q85 0 127 89l62 -24q-23 -55 -70.5 -91.5t-118.5 -36.5z" />
    <glyph glyph-name="cdotaccent" unicode="&#x10b;" 
d="M321 606q-19 0 -33 14t-14 33q0 20 13.5 33.5t33.5 13.5t33.5 -13.5t13.5 -33.5t-13.5 -33.5t-33.5 -13.5zM320 -12q-97 0 -152.5 70t-55.5 197q0 126 57 197t159 71q60 0 104 -28t66 -79l-64 -25q-30 69 -109 69q-140 0 -140 -205q0 -204 138 -204q43 0 74 21t45 57
l63 -24q-19 -54 -68.5 -85.5t-116.5 -31.5z" />
    <glyph glyph-name="Ccaron" unicode="&#x10c;" 
d="M376 766h-80l-141 156h65l116 -101l116 101h65zM339 -12q-66 0 -117 30.5t-80.5 82.5t-44 115t-14.5 134q0 100 26 179.5t85.5 131t144.5 51.5q71 0 112 -30.5t67 -82.5l-62 -36q-22 40 -48.5 63t-68.5 23q-64 0 -107 -47.5t-59.5 -112t-16.5 -139.5q0 -126 46 -212.5
t137 -86.5q85 0 127 89l62 -24q-23 -55 -70.5 -91.5t-118.5 -36.5z" />
    <glyph glyph-name="ccaron" unicode="&#x10d;" 
d="M363 576h-80l-141 156h65l116 -101l116 101h65zM315 -12q-97 0 -152.5 70t-55.5 197q0 126 57 197t159 71q60 0 104 -28t66 -79l-64 -25q-30 69 -109 69q-140 0 -140 -205q0 -204 138 -204q43 0 74 21t45 57l63 -24q-19 -54 -68.5 -85.5t-116.5 -31.5z" />
    <glyph glyph-name="Dcaron" unicode="&#x10e;" 
d="M309 766h-80l-141 156h65l116 -101l116 101h65zM105 0v700h159q72 0 126 -30t84 -81t44.5 -111t14.5 -128q0 -51 -7.5 -98.5t-27 -94t-49.5 -81t-78.5 -55.5t-110.5 -21h-155zM175 63h84q56 0 97 25t62.5 68t31.5 91t10 103q0 121 -47 204t-143 83h-95v-574z" />
    <glyph glyph-name="dcaron" unicode="&#x10f;" 
d="M243 -12q-101 0 -159.5 72.5t-58.5 195.5q0 125 58.5 196t159.5 71q83 0 143 -48v212l70 35v-722h-70v44q-56 -56 -143 -56zM546 484l-20 14q13 28 21.5 92t8.5 122h70v-8q0 -141 -80 -220zM251 51q91 0 135 80v255q-46 74 -135 74q-74 0 -113.5 -53t-39.5 -151
q0 -88 42 -146.5t111 -58.5z" />
    <glyph glyph-name="Dcroat" unicode="&#x110;" 
d="M264 700q72 0 126 -30t84 -81t44.5 -111t14.5 -128q0 -51 -7.5 -98.5t-27 -94t-49.5 -81t-78.5 -55.5t-110.5 -21h-155v318h-65v62h65v320h159zM259 63q56 0 97 25t62.5 68t31.5 91t10 103q0 121 -47 204t-143 83h-95v-257h150v-62h-150v-255h84z" />
    <glyph glyph-name="dcroat" unicode="&#x111;" 
d="M506 553v-553h-70v44q-59 -56 -143 -56q-99 0 -158.5 70t-59.5 182q0 116 59.5 182.5t158.5 66.5q89 0 143 -49v113h-142v63h142v71l70 35v-106h65v-63h-65zM300 51q92 0 136 80v221q-46 74 -135 74q-71 0 -112 -49t-41 -137q0 -77 42.5 -133t109.5 -56z" />
    <glyph glyph-name="Emacron" unicode="&#x112;" 
d="M136 799v61h330v-61h-330zM106 0v700h390v-67h-320v-238h223v-66h-223v-262h342v-67h-412z" />
    <glyph glyph-name="emacron" unicode="&#x113;" 
d="M483 670v-61h-330v61h330zM527 276q0 -27 -2 -49h-362q10 -82 51 -128t107 -46q65 0 122 40l38 -47q-74 -58 -163 -58q-105 0 -167 77.5t-62 190.5q0 126 62 196.5t167 70.5q91 0 150 -62.5t59 -184.5zM161 290h295q-1 93 -42.5 131.5t-95.5 38.5q-74 0 -113.5 -45
t-43.5 -125z" />
    <glyph glyph-name="Ebreve" unicode="&#x114;" 
d="M299 771q-89 0 -134 45t-45 116h68q0 -46 31.5 -72.5t79.5 -26.5t79.5 26.5t31.5 72.5h68q0 -71 -45 -116t-134 -45zM106 0v700h390v-67h-320v-238h223v-66h-223v-262h342v-67h-412z" />
    <glyph glyph-name="ebreve" unicode="&#x115;" 
d="M318 581q-89 0 -134 45t-45 116h68q0 -46 31.5 -72.5t79.5 -26.5t79.5 26.5t31.5 72.5h68q0 -71 -45 -116t-134 -45zM527 276q0 -27 -2 -49h-362q10 -82 51 -128t107 -46q65 0 122 40l38 -47q-74 -58 -163 -58q-105 0 -167 77.5t-62 190.5q0 126 62 196.5t167 70.5
q91 0 150 -62.5t59 -184.5zM161 290h295q-1 93 -42.5 131.5t-95.5 38.5q-74 0 -113.5 -45t-43.5 -125z" />
    <glyph glyph-name="Edotaccent" unicode="&#x116;" 
d="M299 796q-19 0 -33 14t-14 33q0 20 13.5 33.5t33.5 13.5t33.5 -13.5t13.5 -33.5t-13.5 -33.5t-33.5 -13.5zM106 0v700h390v-67h-320v-238h223v-66h-223v-262h342v-67h-412z" />
    <glyph glyph-name="edotaccent" unicode="&#x117;" 
d="M318 606q-20 0 -33.5 14t-13.5 33q0 20 13.5 33.5t33.5 13.5t33.5 -13.5t13.5 -33.5t-13.5 -33.5t-33.5 -13.5zM527 276q0 -27 -2 -49h-362q10 -82 51 -128t107 -46q65 0 122 40l38 -47q-74 -58 -163 -58q-105 0 -167 77.5t-62 190.5q0 126 62 196.5t167 70.5
q91 0 150 -62.5t59 -184.5zM161 290h295q-1 93 -42.5 131.5t-95.5 38.5q-74 0 -113.5 -45t-43.5 -125z" />
    <glyph glyph-name="Eogonek" unicode="&#x118;" 
d="M429 -234q-46 0 -77.5 25.5t-31.5 72.5q0 90 110 136h-289v700h399v-67h-329v-238h222v-66h-222v-262h351v-67h-36q-54 0 -99.5 -40t-45.5 -87q0 -29 16 -43t38 -14q30 0 55 23l39 -29q-40 -44 -100 -44z" />
    <glyph glyph-name="eogonek" unicode="&#x119;" 
d="M336 -234q-46 0 -77.5 25.5t-31.5 72.5q0 76 86 124q-103 2 -163.5 79.5t-60.5 188.5q0 126 62 196.5t167 70.5q91 0 150 -62.5t59 -184.5q0 -27 -2 -49h-362q10 -82 51 -128t107 -46q65 0 122 40l38 -47q-30 -24 -78 -44q-55 -24 -85 -58t-30 -71q0 -29 16 -43t38 -14
q30 0 55 23l39 -29q-40 -44 -100 -44zM161 290h295q-1 93 -42.5 131.5t-95.5 38.5q-74 0 -113.5 -45t-43.5 -125z" />
    <glyph glyph-name="Ecaron" unicode="&#x11a;" 
d="M346 766h-80l-141 156h65l116 -101l116 101h65zM106 0v700h390v-67h-320v-238h223v-66h-223v-262h342v-67h-412z" />
    <glyph glyph-name="ecaron" unicode="&#x11b;" 
d="M358 576h-80l-141 156h65l116 -101l116 101h65zM527 276q0 -27 -2 -49h-362q10 -82 51 -128t107 -46q65 0 122 40l38 -47q-74 -58 -163 -58q-105 0 -167 77.5t-62 190.5q0 126 62 196.5t167 70.5q91 0 150 -62.5t59 -184.5zM161 290h295q-1 93 -42.5 131.5t-95.5 38.5
q-74 0 -113.5 -45t-43.5 -125z" />
    <glyph glyph-name="Gcircumflex" unicode="&#x11c;" 
d="M438 766l-116 101l-116 -101h-65l141 156h80l141 -156h-65zM326 -12q-82 0 -138 53.5t-79 132.5t-23 176q0 155 61 258.5t179 103.5q73 0 115 -30.5t69 -82.5l-62 -36q-22 40 -50 63t-72 23q-58 0 -97.5 -47.5t-54.5 -112t-15 -139.5q0 -81 16.5 -146.5t55.5 -109
t95 -43.5q63 0 99.5 47t36.5 127v42h-129v62h203v-77q0 -125 -59 -194.5t-151 -69.5z" />
    <glyph glyph-name="gcircumflex" unicode="&#x11d;" 
d="M446 576l-116 101l-116 -101h-65l141 156h80l141 -156h-65zM267 -213l-32 55q115 6 158.5 42t43.5 96v78q-47 -70 -147 -70q-91 0 -153.5 70.5t-62.5 197.5q0 124 61 195.5t159 71.5q92 0 143 -60v48h70v-503q0 -211 -240 -221zM306 51q38 0 74 23t57 62v246
q-21 36 -58.5 57t-72.5 21q-79 0 -119 -52.5t-40 -151.5q0 -96 44.5 -150.5t114.5 -54.5z" />
    <glyph glyph-name="Gbreve" unicode="&#x11e;" 
d="M322 771q-89 0 -134 45t-45 116h68q0 -46 31.5 -72.5t79.5 -26.5t79.5 26.5t31.5 72.5h68q0 -71 -45 -116t-134 -45zM326 -12q-82 0 -138 53.5t-79 132.5t-23 176q0 155 61 258.5t179 103.5q73 0 115 -30.5t69 -82.5l-62 -36q-22 40 -50 63t-72 23q-58 0 -97.5 -47.5
t-54.5 -112t-15 -139.5q0 -81 16.5 -146.5t55.5 -109t95 -43.5q63 0 99.5 47t36.5 127v42h-129v62h203v-77q0 -125 -59 -194.5t-151 -69.5z" />
    <glyph glyph-name="gbreve" unicode="&#x11f;" 
d="M325 581q-89 0 -134 45t-45 116h68q0 -46 31.5 -72.5t79.5 -26.5t79.5 26.5t31.5 72.5h68q0 -71 -45 -116t-134 -45zM267 -213l-32 55q115 6 158.5 42t43.5 96v78q-47 -70 -147 -70q-91 0 -153.5 70.5t-62.5 197.5q0 124 61 195.5t159 71.5q92 0 143 -60v48h70v-503
q0 -211 -240 -221zM306 51q38 0 74 23t57 62v246q-21 36 -58.5 57t-72.5 21q-79 0 -119 -52.5t-40 -151.5q0 -96 44.5 -150.5t114.5 -54.5z" />
    <glyph glyph-name="Gdotaccent" unicode="&#x120;" 
d="M320 796q-20 0 -33.5 14t-13.5 33q0 20 13.5 33.5t33.5 13.5t33.5 -13.5t13.5 -33.5t-13.5 -33.5t-33.5 -13.5zM326 -12q-82 0 -138 53.5t-79 132.5t-23 176q0 155 61 258.5t179 103.5q73 0 115 -30.5t69 -82.5l-62 -36q-22 40 -50 63t-72 23q-58 0 -97.5 -47.5
t-54.5 -112t-15 -139.5q0 -81 16.5 -146.5t55.5 -109t95 -43.5q63 0 99.5 47t36.5 127v42h-129v62h203v-77q0 -125 -59 -194.5t-151 -69.5z" />
    <glyph glyph-name="gdotaccent" unicode="&#x121;" 
d="M325 606q-19 0 -33 14t-14 33q0 20 13.5 33.5t33.5 13.5t33.5 -13.5t13.5 -33.5t-13.5 -33.5t-33.5 -13.5zM267 -213l-32 55q115 6 158.5 42t43.5 96v78q-47 -70 -147 -70q-91 0 -153.5 70.5t-62.5 197.5q0 124 61 195.5t159 71.5q92 0 143 -60v48h70v-503
q0 -211 -240 -221zM306 51q38 0 74 23t57 62v246q-21 36 -58.5 57t-72.5 21q-79 0 -119 -52.5t-40 -151.5q0 -96 44.5 -150.5t114.5 -54.5z" />
    <glyph glyph-name="Gcommaaccent" unicode="&#x122;" 
d="M326 -12q-82 0 -138 53.5t-79 132.5t-23 176q0 155 61 258.5t179 103.5q73 0 115 -30.5t69 -82.5l-62 -36q-22 40 -50 63t-72 23q-58 0 -97.5 -47.5t-54.5 -112t-15 -139.5q0 -81 16.5 -146.5t55.5 -109t95 -43.5q63 0 99.5 47t36.5 127v42h-129v62h203v-77
q0 -125 -59 -194.5t-151 -69.5zM304 -244l-18 5q34 27 39 74q-27 0 -40.5 15.5t-13.5 38.5t16 38t36 15q21 0 37.5 -16.5t16.5 -42.5q0 -83 -73 -127z" />
    <glyph glyph-name="gcommaaccent" unicode="&#x123;" 
d="M311 589q-21 0 -37.5 16.5t-16.5 42.5q0 83 73 127l18 -5q-34 -27 -39 -74q27 0 40.5 -15.5t13.5 -38.5t-16 -38t-36 -15zM267 -213l-32 55q115 6 158.5 42t43.5 96v78q-47 -70 -147 -70q-91 0 -153.5 70.5t-62.5 197.5q0 124 61 195.5t159 71.5q92 0 143 -60v48h70v-503
q0 -211 -240 -221zM306 51q38 0 74 23t57 62v246q-21 36 -58.5 57t-72.5 21q-79 0 -119 -52.5t-40 -151.5q0 -96 44.5 -150.5t114.5 -54.5z" />
    <glyph glyph-name="Hcircumflex" unicode="&#x124;" 
d="M424 766l-116 101l-116 -101h-65l141 156h80l141 -156h-65zM106 0v700h70v-303h264v303h70v-700h-70v331h-264v-331h-70z" />
    <glyph glyph-name="hcircumflex" unicode="&#x125;" 
d="M432 765l-116 101l-116 -101h-65l141 156h80l141 -156h-65zM110 0v689l70 33v-268q47 69 138 69q98 0 143.5 -57t45.5 -183v-283h-70v312q0 77 -34 112.5t-91 35.5q-132 0 -132 -146v-314h-70z" />
    <glyph glyph-name="Hbar" unicode="&#x126;" 
d="M440 0v331h-264v-331h-70v532h-86v66h86v102h70v-102h264v102h70v-102h86v-66h-86v-532h-70zM440 397v135h-264v-135h264z" />
    <glyph glyph-name="hbar" unicode="&#x127;" 
d="M192 0v553h-65v63h65v73l70 33v-106h156v-63h-156v-133q46 69 133 69q94 0 138 -57t44 -183v-249h-70v278q0 148 -118 148q-127 0 -127 -146v-280h-70z" />
    <glyph glyph-name="Itilde" unicode="&#x128;" 
d="M222 842q-19 0 -32.5 -12t-14.5 -34h-39q0 110 93 110q38 0 90.5 -25.5t74.5 -25.5q19 0 32.5 12.5t14.5 34.5h38q0 -110 -92 -110q-38 0 -90.5 25t-74.5 25zM509 634h-167v-568h167v-66h-404v66h167v568h-167v66h404v-66z" />
    <glyph glyph-name="itilde" unicode="&#x129;" 
d="M212 652q-19 0 -32.5 -12t-14.5 -34h-39q0 110 93 110q38 0 90.5 -25.5t74.5 -25.5q19 0 32.5 12.5t14.5 34.5h38q0 -110 -92 -110q-38 0 -90.5 25t-74.5 25zM359 63h141v-63h-352v63h141v402h-141v63h211v-465z" />
    <glyph glyph-name="Imacron" unicode="&#x12a;" 
d="M473 860v-61h-330v61h330zM510 634h-167v-568h167v-66h-404v66h167v568h-167v66h404v-66z" />
    <glyph glyph-name="imacron" unicode="&#x12b;" 
d="M453 670v-61h-330v61h330zM359 63h141v-63h-352v63h141v402h-141v63h211v-465z" />
    <glyph glyph-name="Ibreve" unicode="&#x12c;" 
d="M308 771q-89 0 -134 45t-45 116h68q0 -46 31.5 -72.5t79.5 -26.5t79.5 26.5t31.5 72.5h68q0 -71 -45 -116t-134 -45zM510 634h-167v-568h167v-66h-404v66h167v568h-167v66h404v-66z" />
    <glyph glyph-name="ibreve" unicode="&#x12d;" 
d="M288 581q-89 0 -134 45t-45 116h68q0 -46 31.5 -72.5t79.5 -26.5t79.5 26.5t31.5 72.5h68q0 -71 -45 -116t-134 -45zM359 63h141v-63h-352v63h141v402h-141v63h211v-465z" />
    <glyph glyph-name="Iogonek" unicode="&#x12e;" 
d="M356 -234q-46 0 -77.5 25.5t-31.5 72.5q0 88 110 136h-251v66h167v568h-167v66h404v-66h-167v-568h167v-66h-43q-66 0 -112.5 -40t-46.5 -87q0 -29 16 -43t38 -14q30 0 55 23l39 -29q-40 -44 -100 -44z" />
    <glyph glyph-name="iogonek" unicode="&#x12f;" 
d="M324 616q-20 0 -33 13t-13 33t13.5 34t32.5 14q20 0 33 -14t13 -34t-13 -33t-33 -13zM334 -234q-46 0 -77.5 25.5t-31.5 72.5q0 88 110 136h-187v63h141v385h-141v63h211v-448h141v-63h-58q-65 0 -110.5 -41t-45.5 -86q0 -29 16 -43t38 -14q30 0 55 23l39 -29
q-40 -44 -100 -44z" />
    <glyph glyph-name="Idotaccent" unicode="&#x130;" 
d="M308 796q-20 0 -33.5 14t-13.5 33q0 20 13.5 33.5t33.5 13.5t33.5 -13.5t13.5 -33.5t-13.5 -33.5t-33.5 -13.5zM510 634h-167v-568h167v-66h-404v66h167v568h-167v66h404v-66z" />
    <glyph glyph-name="dotlessi" unicode="&#x131;" 
d="M359 63h141v-63h-352v63h141v402h-141v63h211v-465z" />
    <glyph glyph-name="IJ" unicode="&#x132;" horiz-adv-x="1232" 
d="M510 700v-66h-167v-568h167v-66h-404v66h167v568h-167v66h404zM1049 700h70v-478q0 -68 -19.5 -116.5t-52.5 -72.5t-67.5 -34.5t-72.5 -10.5q-142 0 -189 119l55 30q22 -47 48.5 -66.5t86.5 -19.5q59 0 100 37.5t41 121.5v490z" />
    <glyph glyph-name="ij" unicode="&#x133;" horiz-adv-x="1232" 
d="M324 616q-20 0 -33 13t-13 33t13.5 34t32.5 14q20 0 33 -14t13 -34t-13 -33t-33 -13zM962 616q-20 0 -33 13t-13 33t13.5 34t32.5 14q20 0 33 -14t13 -34t-13 -33t-33 -13zM359 511v-448h141v-63h-352v63h141v385h-141v63h211zM997 511v-543q0 -90 -43.5 -133.5
t-136.5 -47.5l-32 60q85 8 113.5 36t28.5 97v468h-141v63h211z" />
    <glyph glyph-name="Jcircumflex" unicode="&#x134;" 
d="M511 766l-116 101l-116 -101h-65l141 156h80l141 -156h-65zM218 -12q-142 0 -189 119l55 30q22 -47 48.5 -66.5t86.5 -19.5q59 0 100 37.5t41 121.5v490h70v-478q0 -68 -19.5 -116.5t-52.5 -72.5t-67.5 -34.5t-72.5 -10.5z" />
    <glyph glyph-name="jcircumflex" unicode="&#x135;" 
d="M348 732l141 -156h-65l-116 101l-116 -101h-65l141 156h80zM381 511v-543q0 -86 -40 -130q-42 -46 -140 -51l-32 60q85 8 113.5 36t28.5 97v468h-141v63h211z" />
    <glyph glyph-name="Kcommaaccent" unicode="&#x136;" 
d="M310 457l239 -457h-79l-208 397l-86 -110v-287h-70v700h70v-319l247 319h78zM320 -58q21 0 37.5 -16.5t16.5 -42.5q0 -83 -73 -127l-18 5q34 27 39 74q-27 0 -40.5 15.5t-13.5 38.5t16 38t36 15z" />
    <glyph glyph-name="kcommaaccent" unicode="&#x137;" 
d="M327 378l193 -378h-77l-165 326l-98 -104v-222h-70v688l70 34v-417l191 206h81zM295 -58q21 0 37.5 -16.5t16.5 -42.5q0 -83 -73 -127l-18 5q34 27 39 74q-27 0 -40.5 15.5t-13.5 38.5t16 38t36 15z" />
    <glyph glyph-name="kgreenlandic" unicode="&#x138;" 
d="M478 0l-143 264l-119 -149v-115h-70v511h70v-303l238 303h78l-149 -188l175 -323h-80z" />
    <glyph glyph-name="Lacute" unicode="&#x139;" 
d="M97 773l142 156h107l-178 -156h-71zM130 0v700h70v-633h338v-67h-408z" />
    <glyph glyph-name="lacute" unicode="&#x13a;" 
d="M466 912l-178 -156h-71l142 156h107zM343 63h141v-63h-352v63h141v596h-125l-31 63h226v-659z" />
    <glyph glyph-name="Lcommaaccent" unicode="&#x13b;" 
d="M106 0v700h70v-633h338v-67h-408zM287 -244l-18 5q34 27 39 74q-27 0 -40.5 15.5t-13.5 38.5t16 38t36 15q21 0 37.5 -16.5t16.5 -42.5q0 -83 -73 -127z" />
    <glyph glyph-name="lcommaaccent" unicode="&#x13c;" 
d="M343 63h141v-63h-352v63h141v596h-125l-31 63h226v-659zM307 -58q21 0 37.5 -16.5t16.5 -42.5q0 -83 -73 -127l-18 5q34 27 39 74q-27 0 -40.5 15.5t-13.5 38.5t16 38t36 15z" />
    <glyph glyph-name="Lcaron" unicode="&#x13d;" 
d="M179 0v700h70v-633h338v-67h-408zM350 472l-20 14q13 28 21.5 92t8.5 122h70v-8q0 -141 -80 -220z" />
    <glyph glyph-name="lcaron" unicode="&#x13e;" 
d="M343 722v-659h141v-63h-352v63h141v596h-125l-31 63h226zM446 722h70v-8q0 -141 -80 -220l-20 14q13 28 21.5 92t8.5 122z" />
    <glyph glyph-name="Ldot" unicode="&#x13f;" 
d="M106 0v700h70v-633h338v-67h-408zM449 286q-26 0 -44.5 19t-18.5 44t18.5 44t44.5 19t44.5 -19t18.5 -44t-18.5 -44t-44.5 -19z" />
    <glyph glyph-name="ldot" unicode="&#x140;" 
d="M343 722v-659h141v-63h-352v63h141v596h-125l-31 63h226zM616 412q26 0 44.5 -19t18.5 -44t-18.5 -44t-44.5 -19t-44.5 19t-18.5 44t18.5 44t44.5 19z" />
    <glyph glyph-name="Lslash" unicode="&#x141;" 
d="M137 0v272l-75 -55v76l75 56v351h70v-291l108 82v-77l-108 -84v-263h347v-67h-417z" />
    <glyph glyph-name="lslash" unicode="&#x142;" 
d="M343 63h141v-63h-352v63h141v201l-76 -59v59l76 59v336h-125l-31 63h226v-344l75 58v-59l-75 -58v-256z" />
    <glyph glyph-name="Nacute" unicode="&#x143;" 
d="M247 773l142 156h107l-178 -156h-71zM106 0v700h71l250 -520q12 -27 14 -32q-1 19 -1 33v519h70v-700h-71l-249 510q-7 14 -15 34q1 -16 1 -33v-511h-70z" />
    <glyph glyph-name="nacute" unicode="&#x144;" 
d="M479 732l-178 -156h-71l142 156h107zM318 523q98 0 143.5 -57t45.5 -183v-283h-70v312q0 77 -34 112.5t-91 35.5q-132 0 -132 -146v-314h-70v511h66v-61q48 73 142 73z" />
    <glyph glyph-name="Ncommaaccent" unicode="&#x145;" 
d="M106 0v700h71l250 -520q12 -27 14 -32q-1 19 -1 33v519h70v-700h-71l-249 510q-7 14 -15 34q1 -16 1 -33v-511h-70zM291 -244l-18 5q34 27 39 74q-27 0 -40.5 15.5t-13.5 38.5t16 38t36 15q21 0 37.5 -16.5t16.5 -42.5q0 -83 -73 -127z" />
    <glyph glyph-name="ncommaaccent" unicode="&#x146;" 
d="M318 523q98 0 143.5 -57t45.5 -183v-283h-70v312q0 77 -34 112.5t-91 35.5q-132 0 -132 -146v-314h-70v511h66v-61q48 73 142 73zM307 -58q21 0 37.5 -16.5t16.5 -42.5q0 -83 -73 -127l-18 5q34 27 39 74q-27 0 -40.5 15.5t-13.5 38.5t16 38t36 15z" />
    <glyph glyph-name="Ncaron" unicode="&#x147;" 
d="M357 766h-80l-141 156h65l116 -101l116 101h65zM106 0v700h71l250 -520q12 -27 14 -32q-1 19 -1 33v519h70v-700h-71l-249 510q-7 14 -15 34q1 -16 1 -33v-511h-70z" />
    <glyph glyph-name="ncaron" unicode="&#x148;" 
d="M364 576h-80l-141 156h65l116 -101l116 101h65zM313 523q98 0 143.5 -57t45.5 -183v-283h-70v312q0 77 -34 112.5t-91 35.5q-132 0 -132 -146v-314h-70v511h66v-61q48 73 142 73z" />
    <glyph glyph-name="napostrophe" unicode="&#x149;" 
d="M40 742q29 0 49 -21.5t20 -62.5q0 -57 -27.5 -112t-63.5 -84l-39 10q61 73 63 142q-29 2 -47.5 19t-18.5 45t18.5 46t45.5 18zM427 523q98 0 143.5 -57t45.5 -183v-283h-70v312q0 77 -34 112.5t-91 35.5q-132 0 -132 -146v-314h-70v511h66v-61q48 73 142 73z" />
    <glyph glyph-name="Eng" unicode="&#x14a;" 
d="M349 -244l-32 55q67 6 95 43t28 86v59l-250 511q-7 14 -15 34q1 -16 1 -33v-511h-70v700h71l250 -520q12 -27 14 -32q-1 19 -1 33v519h70v-746q0 -176 -161 -198z" />
    <glyph glyph-name="eng" unicode="&#x14b;" 
d="M347 -213l-32 55q122 11 122 98v372q0 77 -34 112.5t-91 35.5q-132 0 -132 -146v-314h-70v511h70v-56q47 68 138 68q98 0 143.5 -57t45.5 -183v-315q0 -70 -29 -115q-39 -61 -131 -66z" />
    <glyph glyph-name="Omacron" unicode="&#x14c;" 
d="M144 799v61h330v-61h-330zM308 -12q-60 0 -105.5 31.5t-70.5 85t-37 115t-12 130.5t12 130.5t37 115t70.5 85t105.5 31.5t105.5 -31.5t70.5 -85t37 -115t12 -130.5t-12 -130.5t-37 -115t-70.5 -85t-105.5 -31.5zM308 51q40 0 71 26.5t48 71.5t25 95.5t8 105.5
q0 60 -8 111.5t-25 94.5t-47.5 68t-71.5 25q-40 0 -71 -26.5t-48 -71.5t-25 -95.5t-8 -105.5q0 -60 8 -111.5t25 -94.5t47.5 -68t71.5 -25z" />
    <glyph glyph-name="omacron" unicode="&#x14d;" 
d="M143 609v61h330v-61h-330zM308 -12q-107 0 -171.5 70.5t-64.5 196.5q0 125 64.5 196.5t171.5 71.5t171.5 -70.5t64.5 -196.5q0 -125 -64.5 -196.5t-171.5 -71.5zM308 51q77 0 120 54.5t43 150.5q0 97 -42 150.5t-121 53.5q-80 0 -121.5 -52.5t-41.5 -152.5
q0 -97 42 -150.5t121 -53.5z" />
    <glyph glyph-name="Obreve" unicode="&#x14e;" 
d="M308 771q-89 0 -134 45t-45 116h68q0 -46 31.5 -72.5t79.5 -26.5t79.5 26.5t31.5 72.5h68q0 -71 -45 -116t-134 -45zM308 -12q-60 0 -105.5 31.5t-70.5 85t-37 115t-12 130.5t12 130.5t37 115t70.5 85t105.5 31.5t105.5 -31.5t70.5 -85t37 -115t12 -130.5t-12 -130.5
t-37 -115t-70.5 -85t-105.5 -31.5zM308 51q40 0 71 26.5t48 71.5t25 95.5t8 105.5q0 60 -8 111.5t-25 94.5t-47.5 68t-71.5 25q-40 0 -71 -26.5t-48 -71.5t-25 -95.5t-8 -105.5q0 -60 8 -111.5t25 -94.5t47.5 -68t71.5 -25z" />
    <glyph glyph-name="obreve" unicode="&#x14f;" 
d="M308 581q-89 0 -134 45t-45 116h68q0 -46 31.5 -72.5t79.5 -26.5t79.5 26.5t31.5 72.5h68q0 -71 -45 -116t-134 -45zM308 -12q-107 0 -171.5 70.5t-64.5 196.5q0 125 64.5 196.5t171.5 71.5t171.5 -70.5t64.5 -196.5q0 -125 -64.5 -196.5t-171.5 -71.5zM308 51
q77 0 120 54.5t43 150.5q0 97 -42 150.5t-121 53.5q-80 0 -121.5 -52.5t-41.5 -152.5q0 -97 42 -150.5t121 -53.5z" />
    <glyph glyph-name="Ohungarumlaut" unicode="&#x150;" 
d="M230 766h-71l142 156h107zM428 766h-71l142 156h107zM308 -12q-60 0 -105.5 31.5t-70.5 85t-37 115t-12 130.5t12 130.5t37 115t70.5 85t105.5 31.5t105.5 -31.5t70.5 -85t37 -115t12 -130.5t-12 -130.5t-37 -115t-70.5 -85t-105.5 -31.5zM308 51q40 0 71 26.5t48 71.5
t25 95.5t8 105.5q0 60 -8 111.5t-25 94.5t-47.5 68t-71.5 25q-40 0 -71 -26.5t-48 -71.5t-25 -95.5t-8 -105.5q0 -60 8 -111.5t25 -94.5t47.5 -68t71.5 -25z" />
    <glyph glyph-name="ohungarumlaut" unicode="&#x151;" 
d="M215 576h-71l142 156h107zM413 576h-71l142 156h107zM308 -12q-107 0 -171.5 70.5t-64.5 196.5q0 125 64.5 196.5t171.5 71.5t171.5 -70.5t64.5 -196.5q0 -125 -64.5 -196.5t-171.5 -71.5zM308 51q77 0 120 54.5t43 150.5q0 97 -42 150.5t-121 53.5q-80 0 -121.5 -52.5
t-41.5 -152.5q0 -97 42 -150.5t121 -53.5z" />
    <glyph glyph-name="OE" unicode="&#x152;" 
d="M603 67v-67h-291q-32 -12 -69 -12q-60 0 -105.5 31.5t-70.5 85t-37 115.5t-12 132t12 132t37 115.5t70.5 85t105.5 31.5q38 0 68 -12h280v-67h-214v-219h158v-66h-158v-285h226zM91 352q0 -61 8 -113t25 -95t47.5 -68t71.5 -25q37 0 64 21v561q-28 20 -64 20
q-53 0 -89 -47t-49.5 -112t-13.5 -142z" />
    <glyph glyph-name="oe" unicode="&#x153;" 
d="M183 -12q-73 0 -115.5 67.5t-42.5 199.5q0 130 43 199t116 69q84 0 129 -106q41 106 131 106q63 0 104 -62t41 -185q0 -27 -2 -49h-245q6 -83 33 -132t71 -49q42 0 82 49l27 -49q-51 -58 -111 -58q-87 0 -131 101q-42 -101 -130 -101zM183 46q46 0 73.5 56t27.5 154
t-26.5 153.5t-74.5 55.5q-46 0 -71.5 -54.5t-25.5 -155.5q0 -97 26 -153t71 -56zM341 285h189q0 98 -26 139t-60 41q-44 0 -72 -45.5t-31 -134.5z" />
    <glyph glyph-name="Racute" unicode="&#x154;" 
d="M481 922l-178 -156h-71l142 156h107zM523 508q0 -43 -13.5 -80t-51 -68.5t-95.5 -41.5l156 -318h-77l-150 313h-116v-313h-70v700h201q115 0 165.5 -55t50.5 -137zM176 637v-261h133q78 0 112.5 37t34.5 92q0 52 -34 92t-113 40h-133z" />
    <glyph glyph-name="racute" unicode="&#x155;" 
d="M476 732l-178 -156h-71l142 156h107zM430 523q73 0 108 -23v-171h-71v119q-18 3 -42 3q-76 0 -135.5 -38.5t-59.5 -105.5v-244h153v-63h-332v63h106v385h-106v63h175v-90q29 46 88 74t116 28z" />
    <glyph glyph-name="Rcommaaccent" unicode="&#x156;" 
d="M523 508q0 -43 -13.5 -80t-51 -68.5t-95.5 -41.5l156 -318h-77l-150 313h-116v-313h-70v700h201q115 0 165.5 -55t50.5 -137zM176 637v-261h133q78 0 112.5 37t34.5 92q0 52 -34 92t-113 40h-133zM304 -58q21 0 37.5 -16.5t16.5 -42.5q0 -83 -73 -127l-18 5q34 27 39 74
q-27 0 -40.5 15.5t-13.5 38.5t16 38t36 15z" />
    <glyph glyph-name="rcommaaccent" unicode="&#x157;" 
d="M438 523q73 0 108 -23v-171h-71v119q-18 3 -42 3q-76 0 -135.5 -38.5t-59.5 -105.5v-244h153v-63h-332v63h106v385h-106v63h175v-90q29 46 88 74t116 28zM227 -78q21 0 37.5 -16.5t16.5 -42.5q0 -83 -73 -127l-18 5q34 27 39 74q-27 0 -40.5 15.5t-13.5 38.5t16 38t36 15
z" />
    <glyph glyph-name="Rcaron" unicode="&#x158;" 
d="M348 757h-80l-141 156h65l116 -101l116 101h65zM523 508q0 -43 -13.5 -80t-51 -68.5t-95.5 -41.5l156 -318h-77l-150 313h-116v-313h-70v700h201q115 0 165.5 -55t50.5 -137zM176 637v-261h133q78 0 112.5 37t34.5 92q0 52 -34 92t-113 40h-133z" />
    <glyph glyph-name="rcaron" unicode="&#x159;" 
d="M348 576h-80l-141 156h65l116 -101l116 101h65zM425 523q73 0 108 -23v-171h-71v119q-18 3 -42 3q-76 0 -135.5 -38.5t-59.5 -105.5v-244h153v-63h-332v63h106v385h-106v63h175v-90q29 46 88 74t116 28z" />
    <glyph glyph-name="Sacute" unicode="&#x15a;" 
d="M241 766l142 156h107l-178 -156h-71zM312 -12q-77 0 -134 41t-77 101l66 24q19 -47 57 -75t88 -28q60 0 94 33.5t34 95.5q0 104 -139 164q-38 17 -65.5 32.5t-56.5 39.5t-44 58t-15 75q0 69 50 116t134 47q67 0 114 -31t60 -80l-65 -22q-11 30 -40 50t-71 20
q-51 0 -80.5 -27t-29.5 -72q0 -50 36.5 -80.5t105.5 -60.5q36 -16 63.5 -33.5t55.5 -44t43.5 -64.5t15.5 -85q0 -91 -55 -142.5t-145 -51.5z" />
    <glyph glyph-name="sacute" unicode="&#x15b;" 
d="M227 576l142 156h107l-178 -156h-71zM303 -12q-51 0 -99.5 24.5t-82.5 64.5l49 43q61 -70 139 -70q46 0 76 19.5t30 54.5q0 22 -10.5 39.5t-33 32t-40 22.5t-49.5 20q-38 15 -61.5 27t-48.5 30t-37 42.5t-12 55.5q0 58 48 94t123 36q105 0 172 -78l-46 -39
q-57 55 -128 55q-47 0 -75 -18t-28 -49q0 -15 7.5 -28t16.5 -21.5t29 -19t32 -15t38 -14.5q40 -15 61.5 -25.5t51 -30.5t43 -47.5t13.5 -64.5q0 -64 -48 -102t-130 -38z" />
    <glyph glyph-name="Scircumflex" unicode="&#x15c;" 
d="M424 766l-116 101l-116 -101h-65l141 156h80l141 -156h-65zM312 -12q-77 0 -134 41t-77 101l66 24q19 -47 57 -75t88 -28q60 0 94 33.5t34 95.5q0 104 -139 164q-38 17 -65.5 32.5t-56.5 39.5t-44 58t-15 75q0 69 50 116t134 47q67 0 114 -31t60 -80l-65 -22
q-11 30 -40 50t-71 20q-51 0 -80.5 -27t-29.5 -72q0 -50 36.5 -80.5t105.5 -60.5q36 -16 63.5 -33.5t55.5 -44t43.5 -64.5t15.5 -85q0 -91 -55 -142.5t-145 -51.5z" />
    <glyph glyph-name="scircumflex" unicode="&#x15d;" 
d="M424 576l-116 101l-116 -101h-65l141 156h80l141 -156h-65zM304 -12q-51 0 -99.5 24.5t-82.5 64.5l49 43q61 -70 139 -70q46 0 76 19.5t30 54.5q0 22 -10.5 39.5t-33 32t-40 22.5t-49.5 20q-38 15 -61.5 27t-48.5 30t-37 42.5t-12 55.5q0 58 48 94t123 36q105 0 172 -78
l-46 -39q-57 55 -128 55q-47 0 -75 -18t-28 -49q0 -15 7.5 -28t16.5 -21.5t29 -19t32 -15t38 -14.5q40 -15 61.5 -25.5t51 -30.5t43 -47.5t13.5 -64.5q0 -64 -48 -102t-130 -38z" />
    <glyph glyph-name="Scedilla" unicode="&#x15e;" 
d="M353 -234q-55 0 -88 28l46 30q8 -10 36 -10q21 0 37 15t16 36q0 19 -19 33.5t-42 14.5q-25 0 -36 -5l-12 15l51 66q-80 4 -138.5 44t-78.5 97l66 24q21 -47 65 -74t103 -27q69 0 108 32.5t39 94.5q0 104 -157 163q-44 17 -74.5 32t-63.5 39.5t-50 58.5t-17 76
q0 69 56 116t150 47q76 0 128 -31t67 -80l-65 -22q-14 30 -48.5 49t-84.5 19q-61 0 -95.5 -26t-34.5 -71q0 -49 41.5 -79.5t118.5 -60.5q42 -16 73 -33t63 -44t49 -65.5t17 -85.5q0 -84 -52 -134.5t-140 -58.5l-26 -44q54 0 79.5 -24t25.5 -57q0 -43 -32 -70.5t-81 -27.5z
" />
    <glyph glyph-name="scedilla" unicode="&#x15f;" 
d="M334 -234q-55 0 -88 28l46 30q8 -10 36 -10q21 0 37 15t16 36q0 19 -19 33.5t-42 14.5q-25 0 -36 -5l-12 15l52 68q-85 13 -146 86l49 43q59 -70 133 -70q44 0 72 19.5t28 54.5q0 22 -10 39.5t-31.5 32t-38.5 22.5t-47 20q-36 15 -59 27t-47 30t-35.5 42.5t-11.5 55.5
q0 58 46 94t119 36q101 0 166 -78l-46 -39q-55 55 -122 55q-44 0 -70.5 -18t-26.5 -49q0 -15 7 -28t16 -21.5t28 -19t30 -15t36 -14.5q30 -12 47 -19.5t42.5 -23t39 -31t24 -40t10.5 -54.5q0 -61 -42.5 -98.5t-115.5 -40.5l-26 -44q54 0 79.5 -24t25.5 -57q0 -43 -32 -70.5
t-81 -27.5z" />
    <glyph glyph-name="Scaron" unicode="&#x160;" 
d="M268 757l-141 156h65l116 -101l116 101h65l-141 -156h-80zM312 -12q-77 0 -134 41t-77 101l66 24q19 -47 57 -75t88 -28q60 0 94 33.5t34 95.5q0 104 -139 164q-38 17 -65.5 32.5t-56.5 39.5t-44 58t-15 75q0 69 50 116t134 47q67 0 114 -31t60 -80l-65 -22
q-11 30 -40 50t-71 20q-51 0 -80.5 -27t-29.5 -72q0 -50 36.5 -80.5t105.5 -60.5q36 -16 63.5 -33.5t55.5 -44t43.5 -64.5t15.5 -85q0 -91 -55 -142.5t-145 -51.5z" />
    <glyph glyph-name="scaron" unicode="&#x161;" 
d="M348 576h-80l-141 156h65l116 -101l116 101h65zM303 -12q-51 0 -99.5 24.5t-82.5 64.5l49 43q61 -70 139 -70q46 0 76 19.5t30 54.5q0 22 -10.5 39.5t-33 32t-40 22.5t-49.5 20q-38 15 -61.5 27t-48.5 30t-37 42.5t-12 55.5q0 58 48 94t123 36q105 0 172 -78l-46 -39
q-57 55 -128 55q-47 0 -75 -18t-28 -49q0 -15 7.5 -28t16.5 -21.5t29 -19t32 -15t38 -14.5q40 -15 61.5 -25.5t51 -30.5t43 -47.5t13.5 -64.5q0 -64 -48 -102t-130 -38z" />
    <glyph glyph-name="uni0162" unicode="&#x162;" 
d="M330 -234q-55 0 -88 28l46 30q8 -10 36 -10q21 0 37 15t16 36q0 19 -19 33.5t-42 14.5q-25 0 -36 -5l-12 15l62 77h-14v635h-192v65h455v-65h-193v-635h-14l-34 -55q54 0 79.5 -24t25.5 -57q0 -43 -32 -70.5t-81 -27.5z" />
    <glyph glyph-name="uni0163" unicode="&#x163;" 
d="M350 -234q-55 0 -88 28l46 30q8 -10 36 -10q21 0 37 15t16 36q0 19 -19 33.5t-42 14.5q-25 0 -36 -5l-12 15l58 75q-52 25 -52 107v343h-87v63h87v176l70 35v-211h130v-63h-130v-313q0 -39 11 -60t44 -21t77 30l-8 -73q-43 -23 -93 -23q-8 0 -11 1l-26 -44q54 0 79.5 -24
t25.5 -57q0 -43 -32 -70.5t-81 -27.5z" />
    <glyph glyph-name="Tcaron" unicode="&#x164;" 
d="M268 757l-141 156h65l116 -101l116 101h65l-141 -156h-80zM273 0v633h-200v67h470v-67h-200v-633h-70z" />
    <glyph glyph-name="tcaron" unicode="&#x165;" 
d="M401 612l-20 14q13 28 21.5 92t8.5 122h70v-8q0 -141 -80 -220zM326 -12q-121 0 -121 122v338h-121v63h121v176l70 35v-211h171v-63h-171v-308q0 -43 14.5 -64.5t60.5 -21.5q53 0 97 30l-8 -73q-43 -23 -113 -23z" />
    <glyph glyph-name="Tbar" unicode="&#x166;" 
d="M272 0v283h-129v67h129v283h-192v67h455v-67h-193v-283h128v-67h-128v-283h-70z" />
    <glyph glyph-name="tbar" unicode="&#x167;" 
d="M475 238h-172v-98q0 -43 14.5 -64.5t60.5 -21.5q53 0 97 30l-8 -73q-43 -23 -113 -23q-121 0 -121 122v128h-121v63h121v147h-121v63h121v176l70 35v-211h171v-63h-171v-147h172v-63z" />
    <glyph glyph-name="Utilde" unicode="&#x168;" 
d="M387 792q-38 0 -90.5 25t-74.5 25q-19 0 -32.5 -12t-14.5 -34h-39q0 110 93 110q38 0 90.5 -25.5t74.5 -25.5q19 0 32.5 12.5t14.5 34.5h38q0 -110 -92 -110zM308 -12q-220 0 -220 276v436h70v-436q0 -213 150 -213t150 213v436h70v-436q0 -276 -220 -276z" />
    <glyph glyph-name="utilde" unicode="&#x169;" 
d="M387 602q-38 0 -90.5 25t-74.5 25q-19 0 -32.5 -12t-14.5 -34h-39q0 110 93 110q38 0 90.5 -25.5t74.5 -25.5q19 0 32.5 12.5t14.5 34.5h38q0 -110 -92 -110zM303 -12q-103 0 -148.5 58t-45.5 188v277h72v-305q0 -79 33 -116t89 -37q131 0 131 151v307h72v-511h-72v51
q-27 -35 -57.5 -49t-73.5 -14z" />
    <glyph glyph-name="Umacron" unicode="&#x16a;" 
d="M143 799v61h330v-61h-330zM308 -12q-220 0 -220 276v436h70v-436q0 -213 150 -213t150 213v436h70v-436q0 -276 -220 -276z" />
    <glyph glyph-name="umacron" unicode="&#x16b;" 
d="M142 609v61h330v-61h-330zM303 -12q-103 0 -148.5 58t-45.5 188v277h72v-305q0 -79 33 -116t89 -37q131 0 131 151v307h72v-511h-72v51q-27 -35 -57.5 -49t-73.5 -14z" />
    <glyph glyph-name="Ubreve" unicode="&#x16c;" 
d="M308 771q-89 0 -134 45t-45 116h68q0 -46 31.5 -72.5t79.5 -26.5t79.5 26.5t31.5 72.5h68q0 -71 -45 -116t-134 -45zM308 -12q-220 0 -220 276v436h70v-436q0 -213 150 -213t150 213v436h70v-436q0 -276 -220 -276z" />
    <glyph glyph-name="ubreve" unicode="&#x16d;" 
d="M307 581q-89 0 -134 45t-45 116h68q0 -46 31.5 -72.5t79.5 -26.5t79.5 26.5t31.5 72.5h68q0 -71 -45 -116t-134 -45zM303 -12q-103 0 -148.5 58t-45.5 188v277h72v-305q0 -79 33 -116t89 -37q131 0 131 151v307h72v-511h-72v51q-27 -35 -57.5 -49t-73.5 -14z" />
    <glyph glyph-name="Uring" unicode="&#x16e;" 
d="M308 730q-47 0 -81 34t-34 80t34 78.5t81 32.5t81 -32.5t34 -78.5t-34 -80t-81 -34zM308 782q24 0 40 17.5t16 44.5t-16 43t-40 16q-23 0 -39.5 -16.5t-16.5 -42.5q0 -27 16.5 -44.5t39.5 -17.5zM308 -12q-220 0 -220 276v436h70v-436q0 -213 150 -213t150 213v436h70
v-436q0 -276 -220 -276z" />
    <glyph glyph-name="uring" unicode="&#x16f;" 
d="M308 540q-47 0 -81 34t-34 80t34 78.5t81 32.5t81 -32.5t34 -78.5t-34 -80t-81 -34zM308 592q24 0 40 17.5t16 44.5t-16 43t-40 16q-23 0 -39.5 -16.5t-16.5 -42.5q0 -27 16.5 -44.5t39.5 -17.5zM303 -12q-103 0 -148.5 58t-45.5 188v277h72v-305q0 -79 33 -116t89 -37
q131 0 131 151v307h72v-511h-72v51q-27 -35 -57.5 -49t-73.5 -14z" />
    <glyph glyph-name="Uhungarumlaut" unicode="&#x170;" 
d="M198 766h-71l142 156h107zM396 766h-71l142 156h107zM292 -12q-220 0 -220 276v436h70v-436q0 -213 150 -213t150 213v436h70v-436q0 -276 -220 -276z" />
    <glyph glyph-name="uhungarumlaut" unicode="&#x171;" 
d="M177 576h-71l142 156h107zM375 576h-71l142 156h107zM260 -12q-103 0 -148.5 58t-45.5 188v277h72v-305q0 -79 33 -116t89 -37q131 0 131 151v307h72v-511h-72v51q-27 -35 -57.5 -49t-73.5 -14z" />
    <glyph glyph-name="Uogonek" unicode="&#x172;" 
d="M458 700h70v-436q0 -215 -131 -262q-114 -53 -114 -129q0 -29 16 -43t38 -14q30 0 55 23l39 -29q-40 -44 -100 -44q-46 0 -77.5 25.5t-31.5 72.5q0 76 86 124q-220 0 -220 276v436h70v-436q0 -213 150 -213t150 213v436z" />
    <glyph glyph-name="uogonek" unicode="&#x173;" 
d="M415 -244q-46 0 -77.5 25.5t-31.5 72.5q0 48 34 86t94 60v51q-27 -35 -57.5 -49t-73.5 -14q-103 0 -148.5 58t-45.5 188v277h72v-305q0 -79 33 -116t89 -37q131 0 131 151v307h72v-511q-64 -16 -101.5 -56t-37.5 -81q0 -29 16 -43t38 -14q30 0 55 23l39 -29
q-40 -44 -100 -44z" />
    <glyph glyph-name="Wcircumflex" unicode="&#x174;" 
d="M424 766l-116 101l-116 -101h-65l141 156h80l141 -156h-65zM165 0l-113 700h69l70 -485q1 -7 2.5 -22t2.5 -20q4 29 6 42l78 485h58l78 -479q1 -6 2.5 -18.5t2.5 -17.5q1 8 3 21l1 14l71 480h68l-113 -700h-58l-78 475q-2 12 -6 44q-4 -29 -6 -42l-80 -477h-58z" />
    <glyph glyph-name="wcircumflex" unicode="&#x175;" 
d="M424 576l-116 101l-116 -101h-65l141 156h80l141 -156h-65zM156 0l-126 511h72l83 -366q5 -28 7 -38q1 4 3.5 18.5t4.5 22.5l79 363h58l80 -364q2 -9 9 -45q2 18 8 45l80 364h72l-126 -511h-65l-79 348q-4 14 -9 45q-5 -33 -8 -43l-77 -350h-66z" />
    <glyph glyph-name="Ycircumflex" unicode="&#x176;" 
d="M308 867l-116 -101h-65l141 156h80l141 -156h-65zM469 700h72l-197 -423v-277h-70v277l-199 423h77l157 -360z" />
    <glyph glyph-name="ycircumflex" unicode="&#x177;" 
d="M420 576l-116 101l-116 -101h-65l141 156h80l141 -156h-65zM198 -194l76 210l-187 495h71l129 -363q3 -10 9 -28l8 -24l18 52l131 363h75l-261 -705h-69z" />
    <glyph glyph-name="Ydieresis" unicode="&#x178;" 
d="M225 796q-19 0 -33 14t-14 33q0 20 13.5 33.5t33.5 13.5t33.5 -13.5t13.5 -33.5t-13.5 -33.5t-33.5 -13.5zM391 796q-19 0 -33 14t-14 33q0 20 13.5 33.5t33.5 13.5t33.5 -13.5t13.5 -33.5t-13.5 -33.5t-33.5 -13.5zM469 700h72l-197 -423v-277h-70v277l-199 423h77
l157 -360z" />
    <glyph glyph-name="Zacute" unicode="&#x179;" 
d="M501 929l-178 -156h-71l142 156h107zM530 700v-51l-354 -583h350v-66h-438v49l354 585h-331v66h419z" />
    <glyph glyph-name="zacute" unicode="&#x17a;" 
d="M249 576l142 156h107l-178 -156h-71zM125 0v43l273 405h-253v63h346v-42l-275 -406h274v-63h-365z" />
    <glyph glyph-name="Zdotaccent" unicode="&#x17b;" 
d="M318 796q-20 0 -33.5 14t-13.5 33q0 20 13.5 33.5t33.5 13.5t33.5 -13.5t13.5 -33.5t-13.5 -33.5t-33.5 -13.5zM530 700v-51l-354 -583h350v-66h-438v49l354 585h-331v66h419z" />
    <glyph glyph-name="zdotaccent" unicode="&#x17c;" 
d="M315 606q-19 0 -33 14t-14 33q0 20 13.5 33.5t33.5 13.5t33.5 -13.5t13.5 -33.5t-13.5 -33.5t-33.5 -13.5zM125 0v43l273 405h-253v63h346v-42l-275 -406h274v-63h-365z" />
    <glyph glyph-name="Zcaron" unicode="&#x17d;" 
d="M363 766h-80l-141 156h65l116 -101l116 101h65zM530 700v-51l-354 -583h350v-66h-438v49l354 585h-331v66h419z" />
    <glyph glyph-name="zcaron" unicode="&#x17e;" 
d="M331 576h-80l-141 156h65l116 -101l116 101h65zM105 0v43l273 405h-253v63h346v-42l-275 -406h274v-63h-365z" />
    <glyph glyph-name="longs" unicode="&#x17f;" 
d="M255 0v598q0 59 30.5 86.5t75.5 27.5t87 -24v-61q-35 20 -73 20q-31 0 -40.5 -15t-9.5 -45v-587h-70z" />
    <glyph glyph-name="uni018F" unicode="&#x18f;" 
d="M308 712q102 0 163.5 -98.5t61.5 -264.5q0 -168 -64 -264.5t-171 -96.5q-96 0 -155.5 89.5t-59.5 247.5q0 32 1 56h376q-7 128 -48 196.5t-108 68.5q-68 0 -133 -55l-36 52q75 69 173 69zM298 51q78 0 119.5 68.5t43.5 198.5h-307q-1 -128 37 -197.5t107 -69.5z" />
    <glyph glyph-name="florin" unicode="&#x192;" 
d="M182 -213l-32 55q122 11 122 98v508h-82v63h82v87q0 58 30.5 86t75.5 28t87 -24v-61q-38 20 -73 20q-32 0 -41 -15.5t-9 -44.5v-76h123v-63h-123v-480q0 -171 -160 -181z" />
    <glyph glyph-name="uni01CD" unicode="&#x1cd;" 
d="M345 766h-80l-141 156h65l116 -101l116 101h65zM496 0l-58 181h-259l-57 -181h-73l231 700h54l233 -700h-71zM199 243h218l-90 280q-18 53 -20 63q-5 -20 -19 -63z" />
    <glyph glyph-name="uni01CE" unicode="&#x1ce;" 
d="M367 576h-80l-141 156h65l116 -101l116 101h65zM271 -12q-83 0 -131.5 44.5t-48.5 128.5q0 83 55 126t137 43q77 0 144 -36v43q0 125 -112 125q-75 0 -162 -55l-20 60q93 56 189 56q31 0 58 -7.5t53.5 -26t42.5 -55t16 -88.5v-346h-65v50q-69 -62 -156 -62zM278 49
q85 0 149 79v99q-63 42 -137 42q-58 0 -96 -27.5t-38 -80.5q0 -51 32 -81.5t90 -30.5z" />
    <glyph glyph-name="uni01CF" unicode="&#x1cf;" 
d="M348 766h-80l-141 156h65l116 -101l116 101h65zM510 634h-167v-568h167v-66h-404v66h167v568h-167v66h404v-66z" />
    <glyph glyph-name="uni01D0" unicode="&#x1d0;" 
d="M348 576h-80l-141 156h65l116 -101l116 101h65zM359 63h141v-63h-352v63h141v402h-141v63h211v-465z" />
    <glyph glyph-name="uni01D1" unicode="&#x1d1;" 
d="M348 766h-80l-141 156h65l116 -101l116 101h65zM308 -12q-60 0 -105.5 31.5t-70.5 85t-37 115t-12 130.5t12 130.5t37 115t70.5 85t105.5 31.5t105.5 -31.5t70.5 -85t37 -115t12 -130.5t-12 -130.5t-37 -115t-70.5 -85t-105.5 -31.5zM308 51q40 0 71 26.5t48 71.5
t25 95.5t8 105.5q0 60 -8 111.5t-25 94.5t-47.5 68t-71.5 25q-40 0 -71 -26.5t-48 -71.5t-25 -95.5t-8 -105.5q0 -60 8 -111.5t25 -94.5t47.5 -68t71.5 -25z" />
    <glyph glyph-name="uni01D2" unicode="&#x1d2;" 
d="M348 576h-80l-141 156h65l116 -101l116 101h65zM308 -12q-107 0 -171.5 70.5t-64.5 196.5q0 125 64.5 196.5t171.5 71.5t171.5 -70.5t64.5 -196.5q0 -125 -64.5 -196.5t-171.5 -71.5zM308 51q77 0 120 54.5t43 150.5q0 97 -42 150.5t-121 53.5q-80 0 -121.5 -52.5
t-41.5 -152.5q0 -97 42 -150.5t121 -53.5z" />
    <glyph glyph-name="uni01D3" unicode="&#x1d3;" 
d="M348 766h-80l-141 156h65l116 -101l116 101h65zM308 -12q-220 0 -220 276v436h70v-436q0 -213 150 -213t150 213v436h70v-436q0 -276 -220 -276z" />
    <glyph glyph-name="uni01D4" unicode="&#x1d4;" 
d="M347 576h-80l-141 156h65l116 -101l116 101h65zM303 -12q-103 0 -148.5 58t-45.5 188v277h72v-305q0 -79 33 -116t89 -37q131 0 131 151v307h72v-511h-72v51q-27 -35 -57.5 -49t-73.5 -14z" />
    <glyph glyph-name="Aringacute" unicode="&#x1fa;" 
d="M512 1062l-178 -156h-71l142 156h107zM496 0l-58 181h-259l-57 -181h-73l217 656q-32 13 -52.5 42t-20.5 64q0 46 34 78.5t81 32.5t81 -32.5t34 -78.5q0 -36 -20.5 -65t-53.5 -41l218 -656h-71zM308 821q-23 0 -39.5 -16.5t-16.5 -42.5q0 -27 16.5 -44.5t39.5 -17.5
q24 0 40 17.5t16 44.5t-16 43t-40 16zM199 243h218l-90 280q-18 53 -20 63q-5 -20 -19 -63z" />
    <glyph glyph-name="aringacute" unicode="&#x1fb;" 
d="M273 856l142 156h107l-178 -156h-71zM328 575q-47 0 -81 34t-34 80t34 78.5t81 32.5t81 -32.5t34 -78.5t-34 -80t-81 -34zM328 627q24 0 40 17.5t16 44.5t-16 43t-40 16q-23 0 -39.5 -16.5t-16.5 -42.5q0 -27 16.5 -44.5t39.5 -17.5zM276 -12q-83 0 -131.5 44.5
t-48.5 128.5q0 83 55 126t137 43q77 0 144 -36v43q0 125 -112 125q-75 0 -162 -55l-20 60q93 56 189 56q31 0 58 -7.5t53.5 -26t42.5 -55t16 -88.5v-346h-65v50q-69 -62 -156 -62zM283 49q85 0 149 79v99q-63 42 -137 42q-58 0 -96 -27.5t-38 -80.5q0 -51 32 -81.5t90 -30.5
z" />
    <glyph glyph-name="AEacute" unicode="&#x1fc;" 
d="M616 929l-178 -156h-71l142 156h107zM410 329v-262h205v-67h-274v181h-187l-76 -181h-78l307 700h286v-67h-183v-238h146v-66h-146zM179 243h162v390q-7 -21 -15 -39z" />
    <glyph glyph-name="aeacute" unicode="&#x1fd;" 
d="M262 576l142 156h107l-178 -156h-71zM162 -12q-60 0 -95 44.5t-35 128.5q0 83 39.5 126t99.5 43q50 0 98 -36v43q0 127 -79 127q-54 0 -113 -57l-15 60q65 56 133 56q82 0 111 -79q47 79 126 79q69 0 110.5 -64.5t41.5 -182.5q0 -27 -1 -49h-256q1 -76 34 -128.5
t73 -52.5q46 0 87 47l28 -47q-54 -58 -117 -58q-42 0 -77 28.5t-54 74.5q-25 -51 -64 -77t-75 -26zM326 288h195q0 94 -27.5 134t-61.5 40q-45 0 -74 -44.5t-32 -129.5zM167 46q33 0 63 29t49 68q-10 38 -10 84q-45 45 -93 45q-36 0 -59.5 -28.5t-23.5 -82.5
q0 -52 19.5 -83.5t54.5 -31.5z" />
    <glyph glyph-name="Oslashacute" unicode="&#x1fe;" 
d="M496 929l-178 -156h-71l142 156h107zM586 712l-92 -138q39 -92 39 -224q0 -69 -12 -130.5t-37 -115t-70.5 -85t-105.5 -31.5q-95 0 -153 79l-53 -79h-72l92 138q-39 92 -39 224q0 69 12 130.5t37 115t70.5 85t105.5 31.5q95 0 152 -78l52 78h74zM156 350q0 -81 15 -150
l248 372q-39 77 -111 77q-40 0 -71 -26.5t-48 -71.5t-25 -95.5t-8 -105.5zM460 350q0 85 -16 150l-248 -371q40 -78 112 -78q40 0 71 26.5t48 71.5t25 95.5t8 105.5z" />
    <glyph glyph-name="oslashacute" unicode="&#x1ff;" 
d="M482 732l-178 -156h-71l142 156h107zM478 454q66 -71 66 -198q0 -125 -64.5 -196.5t-171.5 -71.5q-75 0 -130 35l-24 -35h-65l48 70q-65 71 -65 197q0 125 64.5 196.5t171.5 71.5q72 0 128 -34l24 34h66zM145 255q0 -87 33 -138l221 318q-39 25 -91 25
q-80 0 -121.5 -52.5t-41.5 -152.5zM308 51q77 0 120 54.5t43 150.5q0 89 -34 139l-221 -318q38 -26 92 -26z" />
    <glyph glyph-name="Scommaaccent" unicode="&#x218;" 
d="M312 -12q-77 0 -134 41t-77 101l66 24q19 -47 57 -75t88 -28q60 0 94 33.5t34 95.5q0 104 -139 164q-38 17 -65.5 32.5t-56.5 39.5t-44 58t-15 75q0 69 50 116t134 47q67 0 114 -31t60 -80l-65 -22q-11 30 -40 50t-71 20q-51 0 -80.5 -27t-29.5 -72q0 -50 36.5 -80.5
t105.5 -60.5q36 -16 63.5 -33.5t55.5 -44t43.5 -64.5t15.5 -85q0 -91 -55 -142.5t-145 -51.5zM288 -244l-18 5q34 27 39 74q-27 0 -40.5 15.5t-13.5 38.5t16 38t36 15q21 0 37.5 -16.5t16.5 -42.5q0 -83 -73 -127z" />
    <glyph glyph-name="scommaaccent" unicode="&#x219;" 
d="M303 -12q-51 0 -99.5 24.5t-82.5 64.5l49 43q61 -70 139 -70q46 0 76 19.5t30 54.5q0 22 -10.5 39.5t-33 32t-40 22.5t-49.5 20q-38 15 -61.5 27t-48.5 30t-37 42.5t-12 55.5q0 58 48 94t123 36q105 0 172 -78l-46 -39q-57 55 -128 55q-47 0 -75 -18t-28 -49
q0 -15 7.5 -28t16.5 -21.5t29 -19t32 -15t38 -14.5q40 -15 61.5 -25.5t51 -30.5t43 -47.5t13.5 -64.5q0 -64 -48 -102t-130 -38zM279 -244l-18 5q34 27 39 74q-27 0 -40.5 15.5t-13.5 38.5t16 38t36 15q21 0 37.5 -16.5t16.5 -42.5q0 -83 -73 -127z" />
    <glyph glyph-name="uni021A" unicode="&#x21a;" 
d="M273 0v633h-200v67h470v-67h-200v-633h-70zM288 -244l-18 5q34 27 39 74q-27 0 -40.5 15.5t-13.5 38.5t16 38t36 15q21 0 37.5 -16.5t16.5 -42.5q0 -83 -73 -127z" />
    <glyph glyph-name="uni021B" unicode="&#x21b;" 
d="M354 -12q-121 0 -121 122v338h-121v63h121v176l70 35v-211h171v-63h-171v-308q0 -43 14.5 -64.5t60.5 -21.5q53 0 97 30l-8 -73q-43 -23 -113 -23zM319 -244l-18 5q34 27 39 74q-27 0 -40.5 15.5t-13.5 38.5t16 38t36 15q21 0 37.5 -16.5t16.5 -42.5q0 -83 -73 -127z" />
    <glyph glyph-name="uni0237" unicode="&#x237;" 
d="M381 511v-543q0 -86 -40 -130q-42 -46 -140 -51l-32 60q85 8 113.5 36t28.5 97v468h-141v63h211z" />
    <glyph glyph-name="uni0259" unicode="&#x259;" 
d="M303 523q106 0 165 -74.5t59 -193.5q0 -125 -61 -196t-163 -71q-94 0 -154 63.5t-60 183.5q0 27 2 49h362q-17 174 -153 174q-70 0 -127 -40l-38 47q74 58 168 58zM303 51q71 0 109.5 45.5t42.5 124.5h-295q1 -90 43.5 -130t99.5 -40z" />
    <glyph glyph-name="uni02B0" unicode="&#x2b0;" 
d="M321 712q157 0 157 -179v-250h-62v244q0 63 -26 96.5t-74 33.5q-106 0 -106 -118v-256h-62v572l58 27v-226q40 56 115 56z" />
    <glyph glyph-name="uni02B2" unicode="&#x2b2;" 
d="M307 785q-17 0 -28.5 11.5t-11.5 28.5q0 18 11.5 30t28.5 12q18 0 29 -12t11 -30q0 -17 -11 -28.5t-29 -11.5zM336 700l2 -451q0 -71 -33 -107q-37 -40 -118 -43l-27 52q70 7 93 29.5t23 78.5v385h-115v56h175z" />
    <glyph glyph-name="uni02B7" unicode="&#x2b7;" 
d="M177 283l-103 417h65l67 -297q3 -14 5 -31q3 12 7 34l63 294h54l63 -295l8 -37q1 19 6 37l66 295h63l-103 -417h-62l-62 289q-6 30 -7 37l-7 -36l-61 -290h-62z" />
    <glyph glyph-name="uni02B8" unicode="&#x2b8;" 
d="M437 700h62l-213 -578h-62l58 158l-159 420h68l120 -342z" />
    <glyph glyph-name="circumflex" unicode="&#x2c6;" 
d="M424 576l-116 101l-116 -101h-65l141 156h80l141 -156h-65z" />
    <glyph glyph-name="caron" unicode="&#x2c7;" 
d="M348 576h-80l-141 156h65l116 -101l116 101h65z" />
    <glyph glyph-name="uni02C9" unicode="&#x2c9;" 
d="M187 609v61h330v-61h-330z" />
    <glyph glyph-name="uni02D6" unicode="&#x2d6;" 
d="M336 532v-162h-58v162h-160v55h160v163h58v-163h162v-55h-162z" />
    <glyph glyph-name="breve" unicode="&#x2d8;" 
d="M308 581q-89 0 -134 45t-45 116h68q0 -46 31.5 -72.5t79.5 -26.5t79.5 26.5t31.5 72.5h68q0 -71 -45 -116t-134 -45z" />
    <glyph glyph-name="dotaccent" unicode="&#x2d9;" 
d="M308 606q-20 0 -33.5 14t-13.5 33q0 20 13.5 33.5t33.5 13.5t33.5 -13.5t13.5 -33.5t-13.5 -33.5t-33.5 -13.5z" />
    <glyph glyph-name="ring" unicode="&#x2da;" 
d="M308 540q-47 0 -81 34t-34 80t34 78.5t81 32.5t81 -32.5t34 -78.5t-34 -80t-81 -34zM308 592q24 0 40 17.5t16 44.5t-16 43t-40 16q-23 0 -39.5 -16.5t-16.5 -42.5q0 -27 16.5 -44.5t39.5 -17.5z" />
    <glyph glyph-name="ogonek" unicode="&#x2db;" 
d="M312 -234q-46 0 -77.5 25.5t-31.5 72.5q0 49 36 87t101 59h56q-66 -27 -99 -62.5t-33 -74.5q0 -29 16 -43t38 -14q30 0 55 23l39 -29q-40 -44 -100 -44z" />
    <glyph glyph-name="tilde" unicode="&#x2dc;" 
d="M387 602q-38 0 -90.5 25t-74.5 25q-19 0 -32.5 -12t-14.5 -34h-39q0 110 93 110q38 0 90.5 -25.5t74.5 -25.5q19 0 32.5 12.5t14.5 34.5h38q0 -110 -92 -110z" />
    <glyph glyph-name="hungarumlaut" unicode="&#x2dd;" 
d="M111 576h-71l142 156h107zM309 576h-71l142 156h107z" />
    <glyph glyph-name="uni02E1" unicode="&#x2e1;" 
d="M350 339h115v-56h-292v56h115v471h-102l-26 56h190v-527z" />
    <glyph glyph-name="uni02E2" unicode="&#x2e2;" 
d="M309 271q-93 0 -151 74l41 36q57 -59 115 -59q37 0 60.5 16.5t23.5 45.5t-24.5 47t-73.5 39q-34 14 -51.5 22.5t-42 25t-35.5 38t-11 49.5q0 48 40 77.5t102 29.5q89 0 144 -64l-40 -34q-51 47 -106 47q-37 0 -59 -15t-22 -40q0 -18 17 -34t31.5 -22.5t52.5 -22.5
q32 -13 50.5 -22.5t41.5 -26.5t34 -39.5t11 -51.5q0 -53 -39.5 -84.5t-108.5 -31.5z" />
    <glyph glyph-name="uni02E3" unicode="&#x2e3;" 
d="M499 283h-69l-124 170l-121 -170h-69l156 217l-146 200h69l113 -155l111 155h69l-145 -203z" />
    <glyph glyph-name="acutecomb" unicode="&#x301;" horiz-adv-x="0" 
d="M-413 576l142 156h107l-178 -156h-71z" />
    <glyph glyph-name="uni0302" unicode="&#x302;" horiz-adv-x="0" 
d="M-192 576l-116 101l-116 -101h-65l141 156h80l141 -156h-65z" />
    <glyph glyph-name="tildecomb" unicode="&#x303;" horiz-adv-x="0" 
d="M-229 602q-38 0 -90.5 25t-74.5 25q-19 0 -32.5 -12t-14.5 -34h-39q0 110 93 110q38 0 90.5 -25.5t74.5 -25.5q19 0 32.5 12.5t14.5 34.5h38q0 -110 -92 -110z" />
    <glyph glyph-name="uni0304" unicode="&#x304;" horiz-adv-x="0" 
d="M-473 609v61h330v-61h-330z" />
    <glyph glyph-name="uni0306" unicode="&#x306;" horiz-adv-x="0" 
d="M-308 581q-89 0 -134 45t-45 116h68q0 -46 31.5 -72.5t79.5 -26.5t79.5 26.5t31.5 72.5h68q0 -71 -45 -116t-134 -45z" />
    <glyph glyph-name="uni0307" unicode="&#x307;" horiz-adv-x="0" 
d="M-308 606q-20 0 -33.5 14t-13.5 33q0 20 13.5 33.5t33.5 13.5t33.5 -13.5t13.5 -33.5t-13.5 -33.5t-33.5 -13.5z" />
    <glyph glyph-name="uni0308" unicode="&#x308;" horiz-adv-x="0" 
d="M-391 606q-19 0 -33 14t-14 33q0 20 13.5 33.5t33.5 13.5t33.5 -13.5t13.5 -33.5t-13.5 -33.5t-33.5 -13.5zM-225 606q-19 0 -33 14t-14 33q0 20 13.5 33.5t33.5 13.5t33.5 -13.5t13.5 -33.5t-13.5 -33.5t-33.5 -13.5z" />
    <glyph glyph-name="uni030A" unicode="&#x30a;" horiz-adv-x="0" 
d="M-308 540q-47 0 -81 34t-34 80t34 78.5t81 32.5t81 -32.5t34 -78.5t-34 -80t-81 -34zM-308 592q24 0 40 17.5t16 44.5t-16 43t-40 16q-23 0 -39.5 -16.5t-16.5 -42.5q0 -27 16.5 -44.5t39.5 -17.5z" />
    <glyph glyph-name="uni030B" unicode="&#x30b;" horiz-adv-x="0" 
d="M-461 576h-71l142 156h107zM-263 576h-71l142 156h107z" />
    <glyph glyph-name="uni030C" unicode="&#x30c;" horiz-adv-x="0" 
d="M-268 576h-80l-141 156h65l116 -101l116 101h65z" />
    <glyph glyph-name="uni0312" unicode="&#x312;" horiz-adv-x="0" 
d="M-307 589q-21 0 -37.5 16.5t-16.5 42.5q0 83 73 127l18 -5q-34 -27 -39 -74q27 0 40.5 -15.5t13.5 -38.5t-16 -38t-36 -15z" />
    <glyph glyph-name="uni0326" unicode="&#x326;" horiz-adv-x="0" 
d="M-328 -244l-18 5q34 27 39 74q-27 0 -40.5 15.5t-13.5 38.5t16 38t36 15q21 0 37.5 -16.5t16.5 -42.5q0 -83 -73 -127z" />
    <glyph glyph-name="uni0327" unicode="&#x327;" horiz-adv-x="0" 
d="M-277 -234q-55 0 -88 28l46 30q8 -10 36 -10q21 0 37 15t16 36q0 19 -19 33.5t-42 14.5q-25 0 -36 -5l-12 15l68 87h41l-39 -65q54 0 79.5 -24t25.5 -57q0 -43 -32 -70.5t-81 -27.5z" />
    <glyph glyph-name="uni0328" unicode="&#x328;" horiz-adv-x="0" 
d="M-260 -234q-46 0 -77.5 25.5t-31.5 72.5q0 49 36 87t101 59h56q-66 -27 -99 -62.5t-33 -74.5q0 -29 16 -43t38 -14q30 0 55 23l39 -29q-40 -44 -100 -44z" />
    <glyph glyph-name="uni0337" unicode="&#x337;" horiz-adv-x="0" 
d="M113 118l315 464h74l-315 -464h-74z" />
    <glyph glyph-name="uni03BC" unicode="&#x3bc;" 
d="M430 0v51q-62 -63 -140 -63q-37 0 -61 13t-44 48v-215l-70 -34v711h70v-312q0 -88 28.5 -118t90.5 -30q126 0 126 146v314h70v-511h-70z" />
    <glyph glyph-name="pi" unicode="&#x3c0;" 
d="M485 -12q-51 0 -76 32t-25 85v331h-167v-63q0 -160 -26 -256t-101 -137l-61 47q28 16 46 34t37 51t28.5 87.5t9.5 130.5v106h-100v75h535v-75h-130v-299q0 -41 10 -62t45 -21q37 0 77 30l-8 -73q-43 -23 -94 -23z" />
    <glyph glyph-name="Wgrave" unicode="&#x1e80;" 
d="M285 766l-178 156h107l142 -156h-71zM165 0l-113 700h69l70 -485q1 -7 2.5 -22t2.5 -20q4 29 6 42l78 485h58l78 -479q1 -6 2.5 -18.5t2.5 -17.5q1 8 3 21l1 14l71 480h68l-113 -700h-58l-78 475q-2 12 -6 44q-4 -29 -6 -42l-80 -477h-58z" />
    <glyph glyph-name="wgrave" unicode="&#x1e81;" 
d="M307 576l-178 156h107l142 -156h-71zM156 0l-126 511h72l83 -366q5 -28 7 -38q1 4 3.5 18.5t4.5 22.5l79 363h58l80 -364q2 -9 9 -45q2 18 8 45l80 364h72l-126 -511h-65l-79 348q-4 14 -9 45q-5 -33 -8 -43l-77 -350h-66z" />
    <glyph glyph-name="Wacute" unicode="&#x1e82;" 
d="M272 766l142 156h107l-178 -156h-71zM165 0l-113 700h69l70 -485q1 -7 2.5 -22t2.5 -20q4 29 6 42l78 485h58l78 -479q1 -6 2.5 -18.5t2.5 -17.5q1 8 3 21l1 14l71 480h68l-113 -700h-58l-78 475q-2 12 -6 44q-4 -29 -6 -42l-80 -477h-58z" />
    <glyph glyph-name="wacute" unicode="&#x1e83;" 
d="M237 576l142 156h107l-178 -156h-71zM156 0l-126 511h72l83 -366q5 -28 7 -38q1 4 3.5 18.5t4.5 22.5l79 363h58l80 -364q2 -9 9 -45q2 18 8 45l80 364h72l-126 -511h-65l-79 348q-4 14 -9 45q-5 -33 -8 -43l-77 -350h-66z" />
    <glyph glyph-name="Wdieresis" unicode="&#x1e84;" 
d="M225 796q-19 0 -33 14t-14 33q0 20 13.5 33.5t33.5 13.5t33.5 -13.5t13.5 -33.5t-13.5 -33.5t-33.5 -13.5zM391 796q-19 0 -33 14t-14 33q0 20 13.5 33.5t33.5 13.5t33.5 -13.5t13.5 -33.5t-13.5 -33.5t-33.5 -13.5zM165 0l-113 700h69l70 -485q1 -7 2.5 -22t2.5 -20
q4 29 6 42l78 485h58l78 -479q1 -6 2.5 -18.5t2.5 -17.5q1 8 3 21l1 14l71 480h68l-113 -700h-58l-78 475q-2 12 -6 44q-4 -29 -6 -42l-80 -477h-58z" />
    <glyph glyph-name="wdieresis" unicode="&#x1e85;" 
d="M225 606q-19 0 -33 14t-14 33q0 20 13.5 33.5t33.5 13.5t33.5 -13.5t13.5 -33.5t-13.5 -33.5t-33.5 -13.5zM391 606q-19 0 -33 14t-14 33q0 20 13.5 33.5t33.5 13.5t33.5 -13.5t13.5 -33.5t-13.5 -33.5t-33.5 -13.5zM156 0l-126 511h72l83 -366q5 -28 7 -38q1 4 3.5 18.5
t4.5 22.5l79 363h58l80 -364q2 -9 9 -45q2 18 8 45l80 364h72l-126 -511h-65l-79 348q-4 14 -9 45q-5 -33 -8 -43l-77 -350h-66z" />
    <glyph glyph-name="Ygrave" unicode="&#x1ef2;" 
d="M380 766h-71l-178 156h107zM469 700h72l-197 -423v-277h-70v277l-199 423h77l157 -360z" />
    <glyph glyph-name="ygrave" unicode="&#x1ef3;" 
d="M309 576l-178 156h107l142 -156h-71zM198 -194l76 210l-187 495h71l129 -363q3 -10 9 -28l8 -24l18 52l131 363h75l-261 -705h-69z" />
    <glyph glyph-name="endash" unicode="&#x2013;" 
d="M110 257v60h395v-60h-395z" />
    <glyph glyph-name="emdash" unicode="&#x2014;" 
d="M5 257v60h606v-60h-606z" />
    <glyph glyph-name="uni2015" unicode="&#x2015;" 
d="M5 257v60h606v-60h-606z" />
    <glyph glyph-name="underscoredbl" unicode="&#x2017;" 
d="M40 -104v77h536v-77h-536zM40 -250v77h536v-77h-536z" />
    <glyph glyph-name="quoteleft" unicode="&#x2018;" 
d="M310 462q-29 0 -49 21.5t-20 62.5q0 57 27.5 112t63.5 84l39 -10q-61 -73 -63 -142q29 -2 47.5 -19t18.5 -45t-18.5 -46t-45.5 -18z" />
    <glyph glyph-name="quoteright" unicode="&#x2019;" 
d="M283 462l-39 10q61 73 63 142q-29 2 -47.5 19t-18.5 45t18.5 46t45.5 18q29 0 49 -21.5t20 -62.5q0 -57 -27.5 -112t-63.5 -84z" />
    <glyph glyph-name="quotesinglbase" unicode="&#x201a;" 
d="M283 -171l-39 10q61 73 63 142q-29 2 -47.5 19t-18.5 45t18.5 46t45.5 18q29 0 49 -21.5t20 -62.5q0 -57 -27.5 -112t-63.5 -84z" />
    <glyph glyph-name="quotereversed" unicode="&#x201b;" 
d="M332 462q-36 29 -63.5 84t-27.5 112q0 41 20 62.5t49 21.5q27 0 45.5 -18t18.5 -46t-18.5 -45t-47.5 -19q2 -69 63 -142z" />
    <glyph glyph-name="quotedblleft" unicode="&#x201c;" 
d="M212 462q-29 0 -49 21.5t-20 62.5q0 57 27.5 112t63.5 84l39 -10q-61 -73 -63 -142q29 -2 47.5 -19t18.5 -45t-18.5 -46t-45.5 -18zM408 462q-29 0 -49 21.5t-20 62.5q0 57 27.5 112t63.5 84l39 -10q-61 -73 -63 -142q29 -2 47.5 -19t18.5 -45t-18.5 -46t-45.5 -18z" />
    <glyph glyph-name="quotedblright" unicode="&#x201d;" 
d="M186 462l-39 10q61 73 63 142q-29 2 -47.5 19t-18.5 45t18.5 46t45.5 18q29 0 49 -21.5t20 -62.5q0 -57 -27.5 -112t-63.5 -84zM381 462l-39 10q61 73 63 142q-29 2 -47.5 19t-18.5 45t18.5 46t45.5 18q29 0 49 -21.5t20 -62.5q0 -57 -27.5 -112t-63.5 -84z" />
    <glyph glyph-name="quotedblbase" unicode="&#x201e;" 
d="M186 -171l-39 10q61 73 63 142q-29 2 -47.5 19t-18.5 45t18.5 46t45.5 18q29 0 49 -21.5t20 -62.5q0 -57 -27.5 -112t-63.5 -84zM381 -171l-39 10q61 73 63 142q-29 2 -47.5 19t-18.5 45t18.5 46t45.5 18q29 0 49 -21.5t20 -62.5q0 -57 -27.5 -112t-63.5 -84z" />
    <glyph glyph-name="dagger" unicode="&#x2020;" 
d="M330 457l13 -119l-31 -479h-5l-36 479l11 119l-139 -19h-35v68h35l136 -20l-8 101v125h72v-125l-10 -101l138 20h37v-68h-37z" />
    <glyph glyph-name="daggerdbl" unicode="&#x2021;" 
d="M271 -141v125l8 101l-136 -22h-35v70h35l139 -21l-11 120v106l11 119l-139 -19h-35v68h35l136 -20l-8 101v125h72v-125l-10 -101l138 20h37v-68h-37l-141 19l13 -119v-106l-13 -120l141 21h37v-70h-37l-138 22l10 -101v-125h-72z" />
    <glyph glyph-name="bullet" unicode="&#x2022;" 
d="M307 217q-55 0 -93.5 38.5t-38.5 94.5t38.5 94.5t93.5 38.5q56 0 95 -39t39 -94t-39 -94t-95 -39z" />
    <glyph glyph-name="ellipsis" unicode="&#x2026;" 
d="M103 -14q-26 0 -44.5 19t-18.5 44t18.5 44t44.5 19t44.5 -19t18.5 -44t-18.5 -44t-44.5 -19zM308 -14q-26 0 -44.5 19t-18.5 44t18.5 44t44.5 19t44.5 -19t18.5 -44t-18.5 -44t-44.5 -19zM513 -14q-26 0 -44.5 19t-18.5 44t18.5 44t44.5 19t44.5 -19t18.5 -44t-18.5 -44
t-44.5 -19z" />
    <glyph glyph-name="perthousand" unicode="&#x2030;" 
d="M62 -12h-62l335 724h62zM109 389q-49 0 -73 48t-24 114q0 61 24 111t73 50q47 0 72 -48.5t25 -112.5q0 -62 -24.5 -112t-72.5 -50zM109 442q16 0 27 32t11 77q0 48 -10.5 78t-27.5 30q-19 0 -28.5 -30.5t-9.5 -77.5q0 -49 10 -79t28 -30zM288 -12q-49 0 -73 48t-24 113
q0 61 24.5 111.5t72.5 50.5q47 0 72 -48.5t25 -113.5q0 -61 -24.5 -111t-72.5 -50zM507 -12q-47 0 -72 48.5t-25 112.5q0 37 9.5 72.5t32.5 62.5t55 27q47 0 72 -48.5t25 -113.5q0 -61 -24.5 -111t-72.5 -50zM288 41q16 0 27 32t11 76q0 48 -10.5 78.5t-27.5 30.5
q-19 0 -28.5 -31t-9.5 -78q0 -48 10 -78t28 -30zM507 41q16 0 27 32t11 76q0 48 -10.5 78.5t-27.5 30.5t-27.5 -31.5t-10.5 -77.5q0 -47 10.5 -77.5t27.5 -30.5z" />
    <glyph glyph-name="minute" unicode="&#x2032;" 
d="M270 730h95l-60 -305h-55z" />
    <glyph glyph-name="second" unicode="&#x2033;" 
d="M170 730h95l-60 -305h-55zM370 730h95l-60 -305h-55z" />
    <glyph glyph-name="guilsinglleft" unicode="&#x2039;" 
d="M345 0l-152 256l152 255h78l-152 -255l152 -256h-78z" />
    <glyph glyph-name="guilsinglright" unicode="&#x203a;" 
d="M193 0l152 256l-152 255h78l152 -255l-152 -256h-78z" />
    <glyph glyph-name="exclamdbl" unicode="&#x203c;" 
d="M135 193l-15 302v217h72v-217l-16 -302h-41zM443 193l-15 302v217h72v-217l-16 -302h-41zM154 -14q-26 0 -44.5 19t-18.5 44t18.5 44t44.5 19t44.5 -19t18.5 -44t-18.5 -44t-44.5 -19zM462 -14q-26 0 -44.5 19t-18.5 44t18.5 44t44.5 19t44.5 -19t18.5 -44t-18.5 -44
t-44.5 -19z" />
    <glyph glyph-name="uni203E" unicode="&#x203e;" 
d="M40 750v77h536v-77h-536z" />
    <glyph glyph-name="fraction" unicode="&#x2044;" horiz-adv-x="0" 
d="M-276 -12l478 724h74l-478 -724h-74z" />
    <glyph glyph-name="uni2070" unicode="&#x2070;" 
d="M307 585q-69 0 -99.5 43t-30.5 99q0 37 10 68t41 56t79 25q69 0 99.5 -45t30.5 -104q0 -56 -29.5 -99t-100.5 -43zM307 640q27 0 43.5 16.5t21 35t4.5 39.5q0 34 -15 62t-54 28t-54 -28t-15 -62q0 -21 4.5 -39.5t21 -35t43.5 -16.5z" />
    <glyph glyph-name="uni2071" unicode="&#x2071;" 
d="M311 791q-17 0 -28.5 11.5t-11.5 28.5q0 18 11.5 30t28.5 12t28.5 -12t11.5 -30q0 -17 -11.5 -28.5t-28.5 -11.5zM345 339h115v-56h-292v56h115v312h-115v56h177v-368z" />
    <glyph glyph-name="uni2074" unicode="&#x2074;" 
d="M331 594v58h-178v40l182 174h57v-159h52v-55h-52v-58h-61zM331 707v89l-91 -89h91z" />
    <glyph glyph-name="uni2075" unicode="&#x2075;" 
d="M299 583q-70 0 -114 46l32 42q31 -38 88 -38q33 0 52.5 13.5t19.5 36.5q0 38 -61 38q-49 0 -76 -29l-48 18l32 157h191v-55h-148l-16 -65q32 24 79 24q46 0 77 -23t31 -59q0 -46 -35 -76t-104 -30z" />
    <glyph glyph-name="uni2076" unicode="&#x2076;" 
d="M307 585q-56 0 -86 29t-30 74q0 68 53 119t147 63v-50q-109 -20 -139 -92q28 33 77 33q44 0 70.5 -25.5t26.5 -60.5q0 -38 -33 -64t-86 -26zM310 635q23 0 39 10.5t16 27.5t-15.5 27.5t-39.5 10.5q-27 0 -43 -10.5t-16 -27.5q0 -18 16 -28t43 -10z" />
    <glyph glyph-name="uni2077" unicode="&#x2077;" 
d="M241 594q1 68 36.5 129t83.5 88h-174v55h241v-58q-64 -39 -92.5 -98.5t-29.5 -115.5h-65z" />
    <glyph glyph-name="uni2078" unicode="&#x2078;" 
d="M304 584q-55 0 -90.5 24t-35.5 60q0 49 56 69q-15 7 -25.5 23.5t-10.5 34.5q0 34 30 57t76 23t76 -23t30 -57q0 -16 -11 -33.5t-25 -24.5q56 -20 56 -69q0 -36 -35 -60t-91 -24zM304 755q50 0 50 37q0 35 -50 35q-23 0 -36.5 -9.5t-13.5 -25.5q0 -37 50 -37zM304 632
q65 0 65 41q0 40 -65 40q-29 0 -47 -10.5t-18 -29.5q0 -41 65 -41z" />
    <glyph glyph-name="uni2079" unicode="&#x2079;" 
d="M225 586v48q109 20 136 85q-24 -20 -68 -20q-47 0 -78.5 25.5t-31.5 59.5q0 38 35 64.5t91 26.5q61 0 92 -27.5t31 -76.5q0 -78 -57.5 -125t-149.5 -60zM306 749q30 0 48.5 10.5t18.5 26.5q0 18 -18 28.5t-49 10.5q-25 0 -43.5 -10.5t-18.5 -26.5q0 -18 17.5 -28.5
t44.5 -10.5z" />
    <glyph glyph-name="uni207A" unicode="&#x207a;" 
d="M329 709v-106h-43v106h-105v41h105v107h43v-107h106v-41h-106z" />
    <glyph glyph-name="uni207B" unicode="&#x207b;" 
d="M181 709v41h254v-41h-254z" />
    <glyph glyph-name="uni207C" unicode="&#x207c;" 
d="M181 765v41h254v-41h-254zM181 657v41h254v-41h-254z" />
    <glyph glyph-name="uni207D" unicode="&#x207d;" 
d="M373 550q-86 68 -86 174q0 111 91 180h34q-27 -21 -55.5 -70t-28.5 -110q0 -99 79 -174h-34z" />
    <glyph glyph-name="uni207E" unicode="&#x207e;" 
d="M243 550h-34q79 75 79 174q0 61 -28.5 110t-55.5 70h34q91 -69 91 -180q0 -106 -86 -174z" />
    <glyph glyph-name="uni207F" unicode="&#x207f;" 
d="M321 712q157 0 157 -179v-250h-62v244q0 63 -26 96.5t-74 33.5q-106 0 -106 -118v-256h-62v417h55v-48q40 60 118 60z" />
    <glyph glyph-name="uni2080" unicode="&#x2080;" 
d="M307 -175q-69 0 -99.5 43t-30.5 99q0 37 10 68t41 56t79 25q69 0 99.5 -45t30.5 -104q0 -56 -29.5 -99t-100.5 -43zM307 -120q27 0 43.5 16.5t21 35t4.5 39.5q0 34 -15 62t-54 28t-54 -28t-15 -62q0 -21 4.5 -39.5t21 -35t43.5 -16.5z" />
    <glyph glyph-name="uni2081" unicode="&#x2081;" 
d="M274 -166v174h-47v43q49 0 66 55h42v-272h-61z" />
    <glyph glyph-name="uni2082" unicode="&#x2082;" 
d="M176 -166q0 48 19.5 79t47 44t55 21.5t47 18t19.5 26.5q0 16 -12.5 27t-36.5 11q-34 0 -58 -18t-31 -52l-49 21q10 46 45 73.5t91 27.5q51 0 82 -23.5t31 -71.5q0 -29 -27.5 -50t-60 -30t-61 -21.5t-29.5 -27.5h177v-55h-249z" />
    <glyph glyph-name="uni2083" unicode="&#x2083;" 
d="M309 -176q-96 0 -138 73l55 23q29 -46 88 -46q27 0 43.5 13t16.5 32q0 31 -56 31h-34v50h22q29 0 40.5 6t11.5 24q0 14 -13.5 24.5t-36.5 10.5q-50 0 -76 -44l-53 18q16 33 50.5 54.5t77.5 21.5q51 0 82.5 -21t31.5 -58q0 -21 -14.5 -37t-32.5 -18q24 -3 44 -18.5
t20 -48.5q0 -38 -34 -64t-95 -26z" />
    <glyph glyph-name="uni2084" unicode="&#x2084;" 
d="M331 -166v58h-178v40l182 174h57v-159h52v-55h-52v-58h-61zM331 -53v89l-91 -89h91z" />
    <glyph glyph-name="uni2085" unicode="&#x2085;" 
d="M299 -178q-70 0 -114 46l32 42q31 -38 88 -38q33 0 52.5 13.5t19.5 36.5q0 38 -61 38q-49 0 -76 -29l-48 18l32 157h191v-55h-148l-16 -65q32 24 79 24q46 0 77 -23t31 -59q0 -46 -35 -76t-104 -30z" />
    <glyph glyph-name="uni2086" unicode="&#x2086;" 
d="M307 -176q-56 0 -86 29t-30 74q0 68 53 119t147 63v-50q-109 -20 -139 -92q28 33 77 33q44 0 70.5 -25.5t26.5 -60.5q0 -38 -33 -64t-86 -26zM310 -126q23 0 39 10.5t16 27.5t-15.5 27.5t-39.5 10.5q-27 0 -43 -10.5t-16 -27.5q0 -18 16 -28t43 -10z" />
    <glyph glyph-name="uni2087" unicode="&#x2087;" 
d="M241 -166q1 68 36.5 129t83.5 88h-174v55h241v-58q-64 -39 -92.5 -98.5t-29.5 -115.5h-65z" />
    <glyph glyph-name="uni2088" unicode="&#x2088;" 
d="M304 -176q-55 0 -90.5 24t-35.5 60q0 49 56 69q-15 7 -25.5 23.5t-10.5 34.5q0 34 30 57t76 23t76 -23t30 -57q0 -16 -11 -33.5t-25 -24.5q56 -20 56 -69q0 -36 -35 -60t-91 -24zM304 -5q50 0 50 37q0 35 -50 35q-23 0 -36.5 -9.5t-13.5 -25.5q0 -37 50 -37zM304 -128
q65 0 65 41q0 40 -65 40q-29 0 -47 -10.5t-18 -29.5q0 -41 65 -41z" />
    <glyph glyph-name="uni2089" unicode="&#x2089;" 
d="M225 -173v48q109 20 136 85q-24 -20 -68 -20q-47 0 -78.5 25.5t-31.5 59.5q0 38 35 64.5t91 26.5q61 0 92 -27.5t31 -76.5q0 -78 -57.5 -125t-149.5 -60zM306 -10q30 0 48.5 10.5t18.5 26.5q0 18 -18 28.5t-49 10.5q-25 0 -43.5 -10.5t-18.5 -26.5q0 -18 17.5 -28.5
t44.5 -10.5z" />
    <glyph glyph-name="uni208A" unicode="&#x208a;" 
d="M329 -51v-106h-43v106h-105v41h105v107h43v-107h106v-41h-106z" />
    <glyph glyph-name="uni208B" unicode="&#x208b;" 
d="M181 -50v41h254v-41h-254z" />
    <glyph glyph-name="uni208C" unicode="&#x208c;" 
d="M181 5v41h254v-41h-254zM181 -103v41h254v-41h-254z" />
    <glyph glyph-name="uni208D" unicode="&#x208d;" 
d="M373 -200q-86 68 -86 174q0 111 91 180h34q-27 -21 -55.5 -70t-28.5 -110q0 -99 79 -174h-34z" />
    <glyph glyph-name="uni208E" unicode="&#x208e;" 
d="M243 -200h-34q79 75 79 174q0 61 -28.5 110t-55.5 70h34q91 -69 91 -180q0 -106 -86 -174z" />
    <glyph glyph-name="uni2090" unicode="&#x2090;" 
d="M320 263q58 0 101 -33t43 -114v-282h-58v40q-55 -52 -128 -52q-69 0 -109 36.5t-40 105.5t45.5 103.5t113.5 34.5q64 0 118 -29v36q0 48 -23.5 73.5t-67.5 25.5q-64 0 -135 -44l-16 53q77 46 156 46zM285 -124q68 0 121 64v73q-48 35 -112 35q-47 0 -77 -21.5t-30 -62.5
t25.5 -64.5t72.5 -23.5z" />
    <glyph glyph-name="uni2091" unicode="&#x2091;" 
d="M491 59q0 -22 -1 -41h-297q7 -63 42.5 -101t84.5 -38q53 0 100 33l33 -42q-62 -48 -135 -48q-87 0 -139 64t-52 156q0 105 51.5 163t139.5 58q76 0 124.5 -51.5t48.5 -152.5zM318 208q-59 0 -90.5 -36t-35.5 -101h238q-1 75 -35 106t-77 31z" />
    <glyph glyph-name="uni2092" unicode="&#x2092;" 
d="M308 -178q-89 0 -142.5 58.5t-53.5 161.5q0 102 53.5 161.5t142.5 59.5t142.5 -58.5t53.5 -162.5q0 -102 -53.5 -161t-142.5 -59zM308 -123q62 0 97 44t35 121q0 78 -34 122t-98 44q-65 0 -99 -42.5t-34 -123.5q0 -78 34 -121.5t99 -43.5z" />
    <glyph glyph-name="uni2093" unicode="&#x2093;" 
d="M499 -166h-69l-124 170l-121 -170h-69l156 217l-146 200h69l113 -155l111 155h69l-145 -203z" />
    <glyph glyph-name="uni2094" unicode="&#x2094;" 
d="M298 263q87 0 139 -64t52 -156q0 -105 -51.5 -163t-139.5 -58q-76 0 -124.5 51.5t-48.5 152.5q0 22 1 41h297q-7 63 -42.5 101t-84.5 38q-53 0 -100 -33l-33 42q62 48 135 48zM298 -123q59 0 90.5 36t35.5 101h-238q1 -75 35 -106t77 -31z" />
    <glyph glyph-name="uni2095" unicode="&#x2095;" 
d="M321 263q157 0 157 -179v-250h-62v244q0 63 -26 96.5t-74 33.5q-106 0 -106 -118v-256h-62v572l58 27v-226q40 56 115 56z" />
    <glyph glyph-name="uni2096" unicode="&#x2096;" 
d="M434 -166l-135 263l-77 -81v-182h-61v570l61 29v-345l156 163h70l-105 -109l159 -308h-68z" />
    <glyph glyph-name="uni2097" unicode="&#x2097;" 
d="M350 -110h115v-56h-292v56h115v471h-102l-26 56h190v-527z" />
    <glyph glyph-name="uni2098" unicode="&#x2098;" 
d="M417 261q53 0 78 -34t25 -106v-287h-60v264q0 57 -10.5 83t-41.5 26q-34 0 -51.5 -35.5t-17.5 -90.5v-247h-60v264q0 51 -10 80t-42 29q-33 0 -51.5 -36.5t-18.5 -89.5v-247h-60v417h57v-51q26 61 81 61q64 0 89 -70q28 70 93 70z" />
    <glyph glyph-name="uni2099" unicode="&#x2099;" 
d="M321 263q157 0 157 -179v-250h-62v244q0 63 -26 96.5t-74 33.5q-106 0 -106 -118v-256h-62v417h55v-48q40 60 118 60z" />
    <glyph glyph-name="uni209A" unicode="&#x209a;" 
d="M140 -339v590h61v-38q54 48 119 48q86 0 135 -59.5t49 -160.5q0 -102 -50 -160.5t-131 -58.5q-77 0 -122 53v-185zM315 -123q59 0 92 42.5t33 121.5q0 76 -34 120.5t-95 44.5q-72 0 -110 -65v-199q52 -65 114 -65z" />
    <glyph glyph-name="uni209B" unicode="&#x209b;" 
d="M309 -178q-93 0 -151 74l41 36q57 -59 115 -59q37 0 60.5 16.5t23.5 45.5t-24.5 47t-73.5 39q-34 14 -51.5 22.5t-42 25t-35.5 38t-11 49.5q0 48 40 77.5t102 29.5q89 0 144 -64l-40 -34q-51 47 -106 47q-37 0 -59 -15t-22 -40q0 -18 17 -34t31.5 -22.5t52.5 -22.5
q32 -13 50.5 -22.5t41.5 -26.5t34 -39.5t11 -51.5q0 -53 -39.5 -84.5t-108.5 -31.5z" />
    <glyph glyph-name="uni209C" unicode="&#x209c;" 
d="M354 -178q-52 0 -77.5 27t-25.5 74v272h-98v56h98v146l62 29v-175h140v-56h-140v-243q0 -35 12 -53t49 -18q44 0 80 25l-6 -65q-38 -19 -94 -19z" />
    <glyph glyph-name="franc" unicode="&#x20a3;" 
d="M528 633h-352v-168h242v-66h-242v-74h242v-66h-242v-259h-70v259h-66v66h66v74h-66v66h66v235h422v-67z" />
    <glyph glyph-name="afii08941" unicode="&#x20a4;" 
d="M78 0v79q70 32 87 160h-92v57h97q0 27 -17 66h-80v57h56q-24 57 -24 100q0 81 58 137t167 56q61 0 106 -16t92 -49l-29 -69q-22 21 -35.5 31.5t-50 23t-83.5 12.5q-73 0 -111 -38t-38 -89q0 -39 28 -99h188v-57h-163q12 -36 12 -66h151v-57h-157q-17 -98 -100 -174h402
v-65h-464z" />
    <glyph glyph-name="uni20A6" unicode="&#x20a6;" 
d="M581 380v-60h-71v-320h-71l-156 320h-107v-320h-70v320h-71v60h71v320h71l154 -320h109v320h70v-320h71zM176 380h77l-63 130q-7 14 -15 34q1 -16 1 -33v-131zM441 148q-1 19 -1 33v139h-80l67 -140q12 -27 14 -32z" />
    <glyph glyph-name="peseta" unicode="&#x20a7;" 
d="M591 524v-60h-65q-10 -73 -64.5 -124t-154.5 -51h-131v-289h-70v464h-81v60h81v176h201q105 0 158 -49.5t61 -126.5h65zM176 637v-113h282q-8 48 -42.5 80.5t-102.5 32.5h-137zM313 352q66 0 101.5 31.5t43.5 80.5h-282v-112h137z" />
    <glyph glyph-name="uni20A9" unicode="&#x20a9;" 
d="M591 380v-60h-88l-52 -320h-58l-53 320h-63l-54 -320h-58l-52 320h-88v60h79l-52 320h69l46 -320h62l51 320h58l52 -320h59l47 320h68l-52 -320h79zM287 380h44l-16 95q-2 12 -6 44q-4 -29 -6 -42zM202 215l17 105h-43l15 -105q1 -7 2.5 -22t2.5 -20q4 29 6 42zM425 220
l15 100h-40l16 -99q1 -6 2.5 -18.5t2.5 -17.5q1 8 3 21z" />
    <glyph glyph-name="uni20AA" unicode="&#x20aa;" 
d="M70 0v700h70v-637h78q74 0 98.5 37t24.5 131v345h70v-344q0 -114 -38.5 -173t-144.5 -59h-158zM476 0v637h-78q-74 0 -98.5 -37t-24.5 -131v-345h-70v344q0 114 38.5 173t144.5 59h158v-700h-70z" />
    <glyph glyph-name="dong" unicode="&#x20ab;" 
d="M276 117q-92 0 -149 55t-57 136t57 136t149 55q81 0 141 -48v102h-142v63h142v71l70 35v-106h65v-63h-65v-424h-70v44q-59 -56 -141 -56zM276 180q93 0 141 70v122q-56 64 -141 64q-59 0 -96 -37.5t-37 -90.5t37 -90.5t96 -37.5zM90 0v63h397v-63h-397z" />
    <glyph glyph-name="Euro" unicode="&#x20ac;" 
d="M370 -12q-111 0 -172 65.5t-80 178.5h-72l27 58h38q-2 19 -2 58q0 32 1 48h-64l27 58h45q20 113 85 185.5t178 72.5q92 0 164 -47l-27 -64q-54 46 -139 46q-151 0 -185 -193h263l-24 -58h-247q-2 -22 -2 -65q0 -27 2 -41h203l-24 -58h-170q17 -77 59.5 -128t113.5 -51
q91 0 145 72l56 -35q-27 -43 -78.5 -72.5t-120.5 -29.5z" />
    <glyph glyph-name="uni20B9" unicode="&#x20b9;" 
d="M551 700v-63h-156q49 -25 60 -98h96v-63h-94q-7 -70 -60.5 -116.5t-156.5 -46.5h-61l275 -313h-88l-286 328v48h164q133 0 146 100h-310v63h306q-23 98 -149 98h-157v63h471z" />
    <glyph glyph-name="uni20BA" unicode="&#x20ba;" 
d="M496 282h70q-4 -54 -20.5 -102t-46.5 -89.5t-80.5 -66t-115.5 -24.5h-106v243l-127 -69v77l127 69v111l-127 -69v77l127 69v192h70v-154l121 65v-77l-121 -65v-111l121 65v-77l-121 -65v-218h26q94 0 145 61.5t58 157.5z" />
    <glyph glyph-name="uni20BD" unicode="&#x20bd;" 
d="M307 289h-109v-109h155v-63h-155v-117h-70v117h-98v63h98v109h-98v63h98v348h179q116 0 168.5 -59.5t52.5 -146.5q0 -81 -55 -143t-166 -62zM198 637v-285h115q76 0 112 42t36 100q0 57 -34.5 100t-113.5 43h-115z" />
    <glyph glyph-name="uni2105" unicode="&#x2105;" 
d="M143 272q-57 0 -95 61t-38 159q0 99 40.5 159.5t93.5 60.5q11 0 21 -2.5t17.5 -5.5t15 -9t12.5 -11t10 -12.5t8 -13t6.5 -13t5 -11t3.5 -10.5l2 -6l-63 -26q-19 55 -43 55q-23 0 -41 -43t-18 -112q0 -71 19 -113t42 -42q16 0 25.5 14t22.5 46l59 -25q-14 -43 -41.5 -71.5
t-63.5 -28.5zM85 -12l348 724h74l-348 -724h-74zM466 -12q-61 0 -100 59t-39 161q0 101 39 160.5t100 59.5q62 0 101 -59t39 -161q0 -103 -39 -161.5t-101 -58.5zM466 53q33 0 51.5 40.5t18.5 114.5q0 75 -18.5 115t-51.5 40q-30 0 -49.5 -41.5t-19.5 -113.5t19.5 -113.5
t49.5 -41.5z" />
    <glyph glyph-name="uni2113" unicode="&#x2113;" 
d="M304 -12q-98 0 -98 114v147q-15 -10 -34.5 -20t-22.5 -12l-23 57q43 16 80 44v205q0 189 124 189q50 0 84.5 -39t34.5 -110q0 -51 -16 -95.5t-49 -82t-51.5 -54.5t-54.5 -45v-142q0 -53 15.5 -72t44.5 -19q36 0 68 34l18 -41q-46 -58 -120 -58zM328 645q-26 0 -38 -29
t-12 -107v-151q99 86 99 188q0 99 -49 99z" />
    <glyph glyph-name="uni2116" unicode="&#x2116;" 
d="M485 272q-55 0 -87 58t-32 162q0 103 32 161.5t87 58.5q56 0 88 -58.5t32 -161.5q0 -104 -32 -162t-88 -58zM247 0l-154 503v-503h-70v704h71l154 -521v521h70v-704h-71zM485 337q55 0 55 155t-55 155q-25 0 -39.5 -40.5t-14.5 -114.5q0 -73 14.5 -114t39.5 -41zM361 130
v55h249v-55h-249z" />
    <glyph glyph-name="trademark" unicode="&#x2122;" 
d="M117 278v370h-102v52h260v-52h-102v-370h-56zM298 278v422h50l94 -272l8 -28l8 28l94 272h49v-422h-56v248l-12 -38l-77 -210h-12l-78 210l-12 40v-250h-56z" />
    <glyph glyph-name="uni2126" unicode="&#x2126;" 
d="M377 0v71q71 79 101.5 147t30.5 171q0 50 -11 94t-33.5 82.5t-63 61t-94.5 22.5q-70 0 -117.5 -40t-66 -96.5t-18.5 -124.5q0 -102 30.5 -170t102.5 -147v-71h-214v63h169q-161 102 -161 327q0 59 15 114t46 103t86 76.5t128 28.5t128.5 -28.5t86.5 -76.5t45.5 -102.5
t14.5 -114.5q0 -224 -161 -327h171v-63h-215z" />
    <glyph glyph-name="estimated" unicode="&#x212e;" 
d="M313 -12q-121 0 -204.5 100t-83.5 262q0 174 85 269.5t206 95.5q112 0 190.5 -95.5t84.5 -269.5h-418v-239q60 -63 140 -63q137 0 219 139l48 -31q-51 -83 -113 -125.5t-154 -42.5zM173 408l275 1v183q-19 25 -56 44t-79 19q-80 0 -140 -58v-189z" />
    <glyph glyph-name="uni2153" unicode="&#x2153;" 
d="M274 432v174h-47v43q49 0 66 55h42v-272h-61zM45 326v56h526v-56h-526zM318 -12q-96 0 -138 73l55 23q29 -46 88 -46q27 0 43.5 13t16.5 32q0 31 -56 31h-34v50h22q29 0 40.5 6t11.5 24q0 14 -13.5 24.5t-36.5 10.5q-50 0 -76 -44l-53 18q16 33 50.5 54.5t77.5 21.5
q51 0 82.5 -21t31.5 -58q0 -21 -14.5 -37t-32.5 -18q24 -3 44 -18.5t20 -48.5q0 -38 -34 -64t-95 -26z" />
    <glyph glyph-name="uni2154" unicode="&#x2154;" 
d="M190 432q0 48 19.5 79t47 44t55 21.5t47 18t19.5 26.5q0 16 -12.5 27t-36.5 11q-34 0 -58 -18t-31 -52l-49 21q10 46 45 73.5t91 27.5q51 0 82 -23.5t31 -71.5q0 -29 -27.5 -50t-60 -30t-61 -21.5t-29.5 -27.5h177v-55h-249zM45 326v56h526v-56h-526zM321 -12
q-96 0 -138 73l55 23q29 -46 88 -46q27 0 43.5 13t16.5 32q0 31 -56 31h-34v50h22q29 0 40.5 6t11.5 24q0 14 -13.5 24.5t-36.5 10.5q-50 0 -76 -44l-53 18q16 33 50.5 54.5t77.5 21.5q51 0 82.5 -21t31.5 -58q0 -21 -14.5 -37t-32.5 -18q24 -3 44 -18.5t20 -48.5
q0 -38 -34 -64t-95 -26z" />
    <glyph glyph-name="oneeighth" unicode="&#x215b;" 
d="M274 432v174h-47v43q49 0 66 55h42v-272h-61zM45 326v56h526v-56h-526zM304 -12q-55 0 -90.5 24t-35.5 60q0 49 56 69q-15 7 -25.5 23.5t-10.5 34.5q0 34 30 57t76 23t76 -23t30 -57q0 -16 -11 -33.5t-25 -24.5q56 -20 56 -69q0 -36 -35 -60t-91 -24zM304 159q50 0 50 37
q0 35 -50 35q-23 0 -36.5 -9.5t-13.5 -25.5q0 -37 50 -37zM304 36q65 0 65 41q0 40 -65 40q-29 0 -47 -10.5t-18 -29.5q0 -41 65 -41z" />
    <glyph glyph-name="threeeighths" unicode="&#x215c;" 
d="M309 420q-96 0 -138 73l55 23q29 -46 88 -46q27 0 43.5 13t16.5 32q0 31 -56 31h-34v50h22q29 0 40.5 6t11.5 24q0 14 -13.5 24.5t-36.5 10.5q-50 0 -76 -44l-53 18q16 33 50.5 54.5t77.5 21.5q51 0 82.5 -21t31.5 -58q0 -21 -14.5 -37t-32.5 -18q24 -3 44 -18.5
t20 -48.5q0 -38 -34 -64t-95 -26zM45 326v56h526v-56h-526zM304 -12q-55 0 -90.5 24t-35.5 60q0 49 56 69q-15 7 -25.5 23.5t-10.5 34.5q0 34 30 57t76 23t76 -23t30 -57q0 -16 -11 -33.5t-25 -24.5q56 -20 56 -69q0 -36 -35 -60t-91 -24zM304 159q50 0 50 37q0 35 -50 35
q-23 0 -36.5 -9.5t-13.5 -25.5q0 -37 50 -37zM304 36q65 0 65 41q0 40 -65 40q-29 0 -47 -10.5t-18 -29.5q0 -41 65 -41z" />
    <glyph glyph-name="fiveeighths" unicode="&#x215d;" 
d="M299 420q-70 0 -114 46l32 42q31 -38 88 -38q33 0 52.5 13.5t19.5 36.5q0 38 -61 38q-49 0 -76 -29l-48 18l32 157h191v-55h-148l-16 -65q32 24 79 24q46 0 77 -23t31 -59q0 -46 -35 -76t-104 -30zM45 326v56h526v-56h-526zM304 -12q-55 0 -90.5 24t-35.5 60q0 49 56 69
q-15 7 -25.5 23.5t-10.5 34.5q0 34 30 57t76 23t76 -23t30 -57q0 -16 -11 -33.5t-25 -24.5q56 -20 56 -69q0 -36 -35 -60t-91 -24zM304 159q50 0 50 37q0 35 -50 35q-23 0 -36.5 -9.5t-13.5 -25.5q0 -37 50 -37zM304 36q65 0 65 41q0 40 -65 40q-29 0 -47 -10.5t-18 -29.5
q0 -41 65 -41z" />
    <glyph glyph-name="seveneighths" unicode="&#x215e;" 
d="M241 432q1 68 36.5 129t83.5 88h-174v55h241v-58q-64 -39 -92.5 -98.5t-29.5 -115.5h-65zM45 326v56h526v-56h-526zM304 -12q-55 0 -90.5 24t-35.5 60q0 49 56 69q-15 7 -25.5 23.5t-10.5 34.5q0 34 30 57t76 23t76 -23t30 -57q0 -16 -11 -33.5t-25 -24.5q56 -20 56 -69
q0 -36 -35 -60t-91 -24zM304 159q50 0 50 37q0 35 -50 35q-23 0 -36.5 -9.5t-13.5 -25.5q0 -37 50 -37zM304 36q65 0 65 41q0 40 -65 40q-29 0 -47 -10.5t-18 -29.5q0 -41 65 -41z" />
    <glyph glyph-name="arrowleft" unicode="&#x2190;" 
d="M277 196q-4 0 -17 8l-203 137q-12 7 -12 19q0 11 12 19l203 138q13 8 17 8q12 0 12 -11q0 -5 -6 -21l-36 -105l314 11l-1 -78l-313 11l36 -104q6 -18 6 -21q0 -11 -12 -11z" />
    <glyph glyph-name="arrowup" unicode="&#x2191;" 
d="M347 0h-78l11 498l-104 -36q-16 -6 -21 -6q-11 0 -11 12q0 4 8 17l137 203q7 12 19 12t19 -12l137 -203q8 -13 8 -17q0 -12 -11 -12q-3 0 -21 6l-104 36z" />
    <glyph glyph-name="arrowright" unicode="&#x2192;" 
d="M339 196q-12 0 -12 11q0 3 6 21l36 104l-313 -11l-1 78l314 -11l-36 105q-6 16 -6 21q0 11 12 11q4 0 17 -8l203 -138q12 -7 12 -19t-12 -19l-203 -137q-13 -8 -17 -8z" />
    <glyph glyph-name="arrowdown" unicode="&#x2193;" 
d="M308 0q-11 0 -17 9l-144 212q-3 5 -3 9q0 6 4.5 11t11.5 5q4 0 6 -1l114 -39l-11 494h78l-11 -494l114 39q2 1 6 1q7 0 11.5 -5t4.5 -11q0 -4 -3 -9l-144 -212q-6 -9 -17 -9z" />
    <glyph glyph-name="arrowboth" unicode="&#x2194;" horiz-adv-x="1232" 
d="M875 196q-12 0 -12 11q0 3 6 21l35 101h-576l35 -101q6 -18 6 -21q0 -11 -12 -11q-4 0 -17 8l-203 137q-12 7 -12 19q0 11 12 19l203 138q13 8 17 8q12 0 12 -11q0 -5 -6 -21l-35 -102h576l-35 102q-6 16 -6 21q0 11 12 11q4 0 17 -8l203 -138q12 -7 12 -19t-12 -19
l-203 -137q-13 -8 -17 -8z" />
    <glyph glyph-name="arrowupdn" unicode="&#x2195;" 
d="M308 -170q-12 0 -19 12l-137 203q-8 13 -8 17q0 12 11 12q3 0 21 -6l101 -35v530l-101 -35q-18 -6 -21 -6q-11 0 -11 12q0 4 8 17l137 203q7 12 19 12t19 -12l137 -203q8 -13 8 -17q0 -12 -11 -12q-5 0 -21 6l-101 35v-530l101 35q16 6 21 6q11 0 11 -12q0 -4 -8 -17
l-137 -203q-7 -12 -19 -12z" />
    <glyph glyph-name="uni2196" unicode="&#x2196;" 
d="M517 75l-344 359l-48 -99q-10 -22 -19 -22q-11 0 -15 22l-45 235q-2 10 -2 14q0 19 19 19q4 0 14 -2l236 -45q21 -5 21 -15q0 -8 -21 -18l-101 -49l360 -344z" />
    <glyph glyph-name="uni2197" unicode="&#x2197;" 
d="M99 75l-55 55l360 344l-101 49q-21 10 -21 18q0 10 21 15l236 45q10 2 14 2q19 0 19 -19q0 -4 -2 -14l-45 -235q-4 -22 -15 -22q-9 0 -19 22l-48 99z" />
    <glyph glyph-name="uni2198" unicode="&#x2198;" 
d="M553 75q-4 0 -14 2l-236 45q-21 5 -21 15q0 8 21 18l101 49l-360 344l55 55l344 -359l48 99q10 22 19 22q11 0 15 -22l45 -235q2 -10 2 -14q0 -19 -19 -19z" />
    <glyph glyph-name="uni2199" unicode="&#x2199;" 
d="M63 75q-19 0 -19 19q0 4 2 14l45 235q4 22 15 22q9 0 19 -22l48 -99l344 359l55 -55l-360 -344l101 -49q21 -10 21 -18q0 -10 -21 -15l-236 -45q-10 -2 -14 -2z" />
    <glyph glyph-name="arrowupdnbse" unicode="&#x21a8;" 
d="M308 -120q-12 0 -19 12l-137 203q-8 13 -8 17q0 12 11 12q3 0 21 -6l101 -35v480l-101 -35q-18 -6 -21 -6q-11 0 -11 12q0 4 8 17l137 203q7 12 19 12t19 -12l137 -203q8 -13 8 -17q0 -12 -11 -12q-5 0 -21 6l-101 35v-480l101 35q16 6 21 6q11 0 11 -12q0 -4 -8 -17
l-137 -203q-7 -12 -19 -12zM44 -250v62h528v-62h-528z" />
    <glyph glyph-name="uni21B3" unicode="&#x21b3;" 
d="M549 233q12 -8 12 -19q0 -12 -12 -19l-203 -137q-13 -8 -17 -8q-12 0 -12 11q0 3 6 21l35 101h-283v517h67v-455h216l-35 102q-6 16 -6 21q0 11 12 11q4 0 17 -8z" />
    <glyph glyph-name="uni21B4" unicode="&#x21b4;" 
d="M550 326q11 0 11 -12q0 -4 -8 -17l-137 -203q-8 -12 -19 -12t-19 12l-138 203q-8 13 -8 17q0 12 11 12q5 0 21 -6l100 -34v352h-299v62h365v-414l99 34q18 6 21 6z" />
    <glyph glyph-name="uni21B5" unicode="&#x21b5;" 
d="M474 700h67v-517h-283l35 -101q6 -18 6 -21q0 -11 -12 -11q-4 0 -17 8l-203 137q-12 7 -12 19t12 19l203 138q13 8 17 8q12 0 12 -11q0 -5 -6 -21l-35 -102h216v455z" />
    <glyph glyph-name="uni21B6" unicode="&#x21b6;" 
d="M367 711q81 0 138 -57t57 -138v-516h-63v516q0 56 -38.5 95.5t-93.5 39.5t-93.5 -39.5t-38.5 -95.5v-115l99 34q18 6 21 6q11 0 11 -12q0 -4 -8 -17l-135 -203q-7 -12 -19 -12t-19 12l-137 203q-8 13 -8 17q0 12 11 12q5 0 21 -6l100 -34v115q0 81 57 138t138 57z" />
    <glyph glyph-name="uni21B7" unicode="&#x21b7;" 
d="M565 441q11 0 11 -12q0 -4 -8 -17l-137 -203q-7 -12 -19 -12t-19 12l-135 203q-8 13 -8 17q0 12 11 12q3 0 21 -6l99 -34v115q0 56 -38.5 95.5t-93.5 39.5t-93.5 -39.5t-38.5 -95.5v-516h-63v516q0 81 57 138t138 57t138 -57t57 -138v-115l100 34q16 6 21 6z" />
    <glyph glyph-name="uni21B8" unicode="&#x21b8;" 
d="M44 638v62h528v-62h-528zM517 7l-344 359l-48 -99q-10 -22 -19 -22q-11 0 -15 22l-45 235q-2 10 -2 14q0 19 19 19q4 0 14 -2l236 -45q21 -5 21 -15q0 -8 -21 -18l-101 -49l360 -344z" />
    <glyph glyph-name="uni21B9" unicode="&#x21b9;" 
d="M428 371q-4 0 -17 8l-203 137q-12 7 -12 19q0 11 12 19l203 138q13 8 17 8q12 0 12 -11q0 -5 -6 -21l-36 -105l148 11v-78l-148 11l36 -104q6 -18 6 -21q0 -11 -12 -11zM70 379v311h70v-311h-70zM188 -200q-12 0 -12 11q0 3 6 21l36 104l-148 -11v78l148 -11l-36 105
q-6 16 -6 21q0 11 12 11q4 0 17 -8l203 -138q12 -7 12 -19t-12 -19l-203 -137q-13 -8 -17 -8zM476 -192v311h70v-311h-70z" />
    <glyph glyph-name="uni21BA" unicode="&#x21ba;" 
d="M595 602q21 -5 21 -15q0 -8 -21 -18l-96 -47q67 -72 67 -172q0 -106 -76 -182t-182 -76t-182 76t-76 182t76 182l46 -47q-56 -58 -56 -135q0 -79 56.5 -135.5t135.5 -56.5t135.5 56.5t56.5 135.5q0 70 -47 125l-46 -94q-10 -22 -19 -22q-11 0 -15 22l-45 235q-2 10 -2 14
q0 19 19 19q4 0 14 -2z" />
    <glyph glyph-name="uni21DA" unicode="&#x21da;" 
d="M551 425h-292l-15 -45h307v-40h-307l16 -45h291v-40h-277l9 -27q6 -18 6 -21q0 -11 -12 -11q-4 0 -17 8l-203 137q-12 7 -12 19q0 11 12 19l203 138q13 8 17 8q12 0 12 -11q0 -5 -6 -21l-10 -28h278v-40z" />
    <glyph glyph-name="uni21DB" unicode="&#x21db;" 
d="M559 379q12 -7 12 -19t-12 -19l-203 -137q-13 -8 -17 -8q-12 0 -12 11q0 3 6 21l9 27h-277v40h291l16 45h-307v40h307l-15 45h-292v40h278l-10 28q-6 16 -6 21q0 11 12 11q4 0 17 -8z" />
    <glyph glyph-name="uni21DC" unicode="&#x21dc;" 
d="M529 391h32v-62h-66l-7 29l-24 -107h-52l-24 108l-25 -108h-52l-18 78h-45l35 -101q6 -18 6 -21q0 -11 -12 -11q-4 0 -17 8l-203 137q-12 7 -12 19q0 11 12 19l203 138q13 8 17 8q12 0 12 -11q0 -5 -6 -21l-35 -102h79l10 -51l25 131h51l25 -131l25 131h51z" />
    <glyph glyph-name="uni21DD" unicode="&#x21dd;" 
d="M559 379q12 -7 12 -19t-12 -19l-203 -137q-13 -8 -17 -8q-12 0 -12 11q0 3 6 21l35 101h-45l-18 -78h-52l-24 108l-25 -108h-52l-24 107l-7 -29h-66v62h32l15 80h51l25 -131l25 131h51l25 -131l10 51h79l-35 102q-6 16 -6 21q0 11 12 11q4 0 17 -8z" />
    <glyph glyph-name="uni21DE" unicode="&#x21de;" 
d="M440 462l-99 34v-148h121v-62h-121v-96h121v-62h-121v-128h-66v128h-121v62h121v96h-121v62h121v148l-99 -34q-16 -6 -21 -6q-11 0 -11 12q0 4 8 17l137 203q7 12 19 12t19 -12l137 -203q8 -13 8 -17q0 -12 -11 -12q-3 0 -21 6z" />
    <glyph glyph-name="uni21DF" unicode="&#x21df;" 
d="M461 244q11 0 11 -12q0 -4 -8 -17l-137 -203q-7 -12 -19 -12t-19 12l-137 203q-8 13 -8 17q0 12 11 12q5 0 21 -6l99 -34v148h-121v62h121v96h-121v62h121v128h66v-128h121v-62h-121v-96h121v-62h-121v-148l99 34q18 6 21 6z" />
    <glyph glyph-name="uni21E0" unicode="&#x21e0;" 
d="M277 196q-4 0 -17 8l-203 137q-12 7 -12 19q0 11 12 19l203 137q13 8 17 8q12 0 12 -11q0 -5 -6 -21l-34 -99h64v-66h-64l34 -99q6 -18 6 -21q0 -11 -12 -11zM375 327v66h62v-66h-62zM499 327v66h62v-66h-62z" />
    <glyph glyph-name="uni21E1" unicode="&#x21e1;" 
d="M275 380v116l-99 -34q-16 -6 -21 -6q-11 0 -11 12q0 4 8 17l137 203q7 12 19 12t19 -12l137 -203q8 -13 8 -17q0 -12 -11 -12q-3 0 -21 6l-99 34v-116h-66zM275 190v116h66v-116h-66zM275 0v116h66v-116h-66z" />
    <glyph glyph-name="uni21E2" unicode="&#x21e2;" 
d="M339 196q-12 0 -12 11q0 3 6 21l34 99h-64v66h64l-34 99q-6 16 -6 21q0 11 12 11q4 0 17 -8l203 -137q12 -7 12 -19t-12 -19l-203 -137q-13 -8 -17 -8zM55 327v66h62v-66h-62zM179 327v66h62v-66h-62z" />
    <glyph glyph-name="uni21E3" unicode="&#x21e3;" 
d="M275 584v116h66v-116h-66zM275 394v116h66v-116h-66zM308 0q-12 0 -19 12l-137 203q-8 13 -8 17q0 12 11 12q5 0 21 -6l99 -34v116h66v-116l99 34q18 6 21 6q11 0 11 -12q0 -4 -8 -17l-137 -203q-7 -12 -19 -12z" />
    <glyph glyph-name="uni21E4" unicode="&#x21e4;" 
d="M70 104v511h70v-511h-70zM428 196q-4 0 -17 8l-203 137q-12 7 -12 19q0 11 12 19l203 138q13 8 17 8q12 0 12 -11q0 -5 -6 -21l-36 -105l148 11v-78l-148 11l36 -104q6 -18 6 -21q0 -11 -12 -11z" />
    <glyph glyph-name="uni21E5" unicode="&#x21e5;" 
d="M476 104v511h70v-511h-70zM188 196q-12 0 -12 11q0 3 6 21l36 104l-148 -11v78l148 -11l-36 105q-6 16 -6 21q0 11 12 11q4 0 17 -8l203 -138q12 -8 12 -19q0 -12 -12 -19l-203 -137q-13 -8 -17 -8z" />
    <glyph glyph-name="universal" unicode="&#x2200;" 
d="M496 700h71l-233 -700h-54l-231 700h73l57 -181h259zM327 177l90 280h-218l89 -280q14 -43 19 -63q2 10 20 63z" />
    <glyph glyph-name="uni2201" unicode="&#x2201;" 
d="M330 -11q-60 0 -108.5 17.5t-78.5 46.5t-50.5 67.5t-28.5 78t-8 81.5v141q0 42 8 81.5t28.5 78t50.5 67.5t78.5 46.5t108.5 17.5q103 0 169.5 -64.5t66.5 -162.5h-70q0 70 -46 114.5t-120 44.5q-98 0 -151 -58t-53 -165v-141q0 -107 53 -165t151 -58q74 0 120 44.5
t46 114.5h70q0 -98 -66.5 -162.5t-169.5 -64.5z" />
    <glyph glyph-name="partialdiff" unicode="&#x2202;" 
d="M276 -12q-94 0 -151.5 55.5t-57.5 139.5q0 113 70.5 182.5t165.5 69.5q119 0 178 -105q3 27 3 51q0 68 -19 119.5t-53 82t-74.5 46.5t-88.5 18l16 65q149 -17 216 -111t67 -268q0 -56 -9 -105.5t-30 -94t-51.5 -76.5t-77 -50.5t-104.5 -18.5zM272 56q85 0 134 46t49 124
q0 139 -149 139q-78 0 -123 -42t-45 -117q0 -69 37.5 -109.5t96.5 -40.5z" />
    <glyph glyph-name="existential" unicode="&#x2203;" 
d="M96 0v68h359v202h-359v68h359v200h-359v68h429v-606h-429z" />
    <glyph glyph-name="uni2204" unicode="&#x2204;" 
d="M525 606v-606h-302l-23 -68h-66l23 68h-61v68h84l69 202h-153v68h177l68 200h-245v68h268l23 67h66l-23 -67h95zM455 338v200h-48l-68 -200h116zM455 68v202h-140l-69 -202h209z" />
    <glyph glyph-name="emptyset" unicode="&#x2205;" 
d="M510 581q50 -43 78 -103.5t28 -128.5q0 -127 -91 -217.5t-218 -90.5q-79 0 -148 39l-56 -80h-80l82 117q-105 94 -105 232q0 128 90 218.5t217 90.5q80 0 149 -39l57 81h80zM70 349q0 -103 75 -175l272 389q-52 27 -110 27q-98 0 -167.5 -70.5t-69.5 -170.5zM307 109
q98 0 168.5 70.5t70.5 169.5q0 105 -76 176l-272 -389q52 -27 109 -27z" />
    <glyph glyph-name="uni2206" unicode="&#x2206;" 
d="M37 0l243 700h54l245 -700h-542zM132 65h353l-165 477q-9 27 -13 42q-1 -4 -13 -43z" />
    <glyph glyph-name="gradient" unicode="&#x2207;" 
d="M37 700h542l-245 -700h-54zM132 635l162 -476q12 -39 13 -43q4 15 13 42l165 477h-353z" />
    <glyph glyph-name="element" unicode="&#x2208;" 
d="M333 443q-82 0 -134 -40.5t-59 -112.5h401v-68h-401q7 -72 59 -113t134 -41h208v-68h-208q-114 0 -191 68t-77 178v20q0 110 77 177.5t191 67.5h208v-68h-208z" />
    <glyph glyph-name="notelement" unicode="&#x2209;" 
d="M541 443h-93l-52 -153h145v-68h-168l-53 -154h13h208v-68h-208q-13 0 -35 2l-33 -96h-66l37 109q-77 25 -124 86t-47 145v20q0 110 77 177.5t191 67.5h72l35 102h66l-35 -102h70v-68zM330 290l52 153h-49q-82 0 -134 -40.5t-59 -112.5h190zM258 79l49 143h-167
q9 -109 118 -143z" />
    <glyph glyph-name="uni220A" unicode="&#x220a;" 
d="M277 363q-134 0 -148 -113h422v-68h-421q14 -114 147 -114h274v-68h-271q-103 0 -164 56.5t-61 152.5v16q0 94 61 150t164 56h271v-68h-274z" />
    <glyph glyph-name="suchthat" unicode="&#x220b;" 
d="M283 511q114 0 191 -67.5t77 -177.5v-20q0 -110 -77 -178t-191 -68h-208v68h208q82 0 134 41t59 113h-401v68h401q-7 72 -59 112.5t-134 40.5h-208v68h208z" />
    <glyph glyph-name="uni220C" unicode="&#x220c;" 
d="M376 497q79 -24 127 -85t48 -146v-20q0 -110 -77 -178t-191 -68h-76l-32 -94h-66l32 94h-66v68h89l52 154h-141v68h165l52 153h-9h-208v68h208q21 0 31 -1l32 93h66zM354 434l-48 -144h170q-5 54 -37 91.5t-85 52.5zM283 68q82 0 134 41t59 113h-194l-52 -154h53z" />
    <glyph glyph-name="uni220D" unicode="&#x220d;" 
d="M336 431q103 0 164 -56t61 -150v-16q0 -96 -61 -152.5t-164 -56.5h-271v68h274q133 0 147 114h-421v68h422q-14 113 -148 113h-274v68h271z" />
    <glyph glyph-name="uni220E" unicode="&#x220e;" 
d="M114 0v511h371v-511h-371z" />
    <glyph glyph-name="product" unicode="&#x220f;" 
d="M492 -140v770h-369v-770h-71v840h512v-840h-72z" />
    <glyph glyph-name="uni2210" unicode="&#x2210;" 
d="M492 700h72v-840h-512v840h71v-770h369v770z" />
    <glyph glyph-name="summation" unicode="&#x2211;" 
d="M48 -142v59l271 371l-257 351v59h486v-68h-393l251 -340l-266 -363h428v-69h-520z" />
    <glyph glyph-name="minus" unicode="&#x2212;" 
d="M73 308v68h470v-68h-470z" />
    <glyph glyph-name="uni2213" unicode="&#x2213;" 
d="M73 511v68h470v-68h-470zM343 200v-200h-72v200h-198v68h198v202h72v-202h200v-68h-200z" />
    <glyph glyph-name="uni2214" unicode="&#x2214;" 
d="M308 538q-26 0 -44.5 19t-18.5 44t18.5 44t44.5 19t44.5 -19t18.5 -44t-18.5 -44t-44.5 -19zM343 200v-200h-72v200h-198v68h198v202h72v-202h200v-68h-200z" />
    <glyph glyph-name="uni2215" unicode="&#x2215;" 
d="M32 -12l478 724h74l-478 -724h-74z" />
    <glyph glyph-name="uni2216" unicode="&#x2216;" 
d="M510 -12l-478 724h74l478 -724h-74z" />
    <glyph glyph-name="asteriskmath" unicode="&#x2217;" 
d="M220 130l-59 34l60 104l57 64l-83 -17h-116v68h116l83 -17l-56 64l-60 104l59 34l60 -104l27 -81l27 81l60 104l59 -34l-60 -104l-56 -64l83 17h116v-68h-116l-83 17l56 -64l60 -104l-59 -34l-60 104l-27 81l-28 -81z" />
    <glyph glyph-name="uni2218" unicode="&#x2218;" 
d="M308 238q-47 0 -81 34t-34 80t34 78.5t81 32.5t81 -32.5t34 -78.5t-34 -80t-81 -34zM308 290q24 0 40 17.5t16 44.5t-16 43t-40 16q-23 0 -39.5 -16.5t-16.5 -42.5q0 -27 16.5 -44.5t39.5 -17.5z" />
    <glyph glyph-name="uni2219" unicode="&#x2219;" 
d="M308 286q-26 0 -44.5 19t-18.5 44t18.5 44t44.5 19t44.5 -19t18.5 -44t-18.5 -44t-44.5 -19z" />
    <glyph glyph-name="radical" unicode="&#x221a;" 
d="M281 0l-139 269l-54 -27l-30 58l118 60l135 -262l179 602h74l-212 -700h-71z" />
    <glyph glyph-name="uni221B" unicode="&#x221b;" 
d="M239 415q-96 0 -138 73l55 23q29 -46 88 -46q27 0 43.5 13t16.5 32q0 31 -56 31h-34v50h22q29 0 40.5 6t11.5 24q0 14 -13.5 24.5t-36.5 10.5q-50 0 -76 -44l-53 18q16 33 50.5 54.5t77.5 21.5q51 0 82.5 -21t31.5 -58q0 -21 -14.5 -37t-32.5 -18q24 -3 44 -18.5
t20 -48.5q0 -38 -34 -64t-95 -26zM281 0l-139 269l-54 -27l-30 58l118 60l135 -262l179 602h74l-212 -700h-71z" />
    <glyph glyph-name="uni221C" unicode="&#x221c;" 
d="M261 433v58h-178v40l182 174h57v-159h52v-55h-52v-58h-61zM281 0l-139 269l-54 -27l-30 58l118 60l135 -262l179 602h74l-212 -700h-71zM261 546v89l-91 -89h91z" />
    <glyph glyph-name="proportional" unicode="&#x221d;" 
d="M564 475q-32 0 -55.5 -31.5t-54.5 -95.5q21 -43 33.5 -65t33.5 -42t43 -20v-75q-45 0 -78.5 34.5t-67.5 97.5q-70 -124 -166 -124q-82 0 -136 55.5t-54 138.5t54 138.5t136 55.5q96 0 166 -124q34 63 67.5 97.5t78.5 34.5v-75zM250 217q38 0 67.5 33.5t63.5 97.5
q-34 64 -63.5 97.5t-67.5 33.5q-49 0 -81.5 -37.5t-32.5 -93.5t32.5 -93.5t81.5 -37.5z" />
    <glyph glyph-name="infinity" unicode="&#x221e;" 
d="M443 588q64 0 113 -63t49 -168q0 -103 -47 -166t-103 -63q-49 0 -78 35.5t-60 112.5q-25 -69 -60.5 -108.5t-91.5 -39.5q-60 0 -107.5 62.5t-47.5 166.5q0 105 47.5 168t107.5 63q17 0 30.5 -3.5t25.5 -14.5t19.5 -19t18 -28t15 -30t16 -37.5t15.5 -37.5
q30 85 60.5 127.5t77.5 42.5zM173 191q37 0 57.5 34.5t51.5 127.5q-8 17 -22 49.5t-22 49t-19.5 36.5t-22.5 28.5t-23 8.5q-33 0 -62.5 -47.5t-29.5 -120.5t29.5 -119.5t62.5 -46.5zM442 191q33 0 62 46.5t29 119.5t-29.5 120.5t-61.5 47.5q-16 0 -29.5 -12t-26 -39.5
t-20.5 -49.5t-21 -64q-1 -4 -2 -6.5t-2 -6t-2 -6.5q5 -12 13 -33t13 -32t12.5 -27t13.5 -24.5t14 -17.5t17 -12.5t20 -3.5z" />
    <glyph glyph-name="orthogonal" unicode="&#x221f;" 
d="M64 0v606h70v-538h446v-68h-516z" />
    <glyph glyph-name="angle" unicode="&#x2220;" 
d="M180 68h386v-68h-516l412 569l58 -37z" />
    <glyph glyph-name="uni2221" unicode="&#x2221;" 
d="M566 68v-68h-73q-3 -54 -18 -109l-68 17q12 48 15 92h-372l227 314q-44 31 -103 52l23 64q66 -24 121 -60l144 199l58 -37l-150 -205q110 -104 122 -259h74zM422 68q-12 121 -93 203l-149 -203h242z" />
    <glyph glyph-name="uni2222" unicode="&#x2222;" 
d="M541 379q0 -104 -53 -198l63 -34l-33 -60l-67 36q-30 -38 -61 -68l-48 49q18 17 48 53l-356 192l382 215q-17 27 -37 52l54 43q28 -35 43 -60l42 23l34 -59l-44 -25q33 -78 33 -159zM176 350l251 -136q44 80 44 165q0 63 -24 124z" />
    <glyph glyph-name="uni2223" unicode="&#x2223;" 
d="M273 0v700h70v-700h-70z" />
    <glyph glyph-name="uni2224" unicode="&#x2224;" 
d="M493 417l-150 -103v-314h-70v266l-111 -76l-44 64l155 106v340h70v-292l106 73z" />
    <glyph glyph-name="uni2225" unicode="&#x2225;" 
d="M198 0v700h70v-700h-70zM348 0v700h70v-700h-70z" />
    <glyph glyph-name="uni2226" unicode="&#x2226;" 
d="M575 487l-157 -101v-386h-70v341l-80 -51v-290h-70v245l-115 -74l-39 61l154 99v369h70v-324l80 52v272h70v-227l118 76z" />
    <glyph glyph-name="logicaland" unicode="&#x2227;" 
d="M69 0l214 441h50l214 -441h-80l-159 339l-159 -339h-80z" />
    <glyph glyph-name="logicalor" unicode="&#x2228;" 
d="M69 441h80l159 -339l159 339h80l-214 -441h-50z" />
    <glyph glyph-name="intersection" unicode="&#x2229;" 
d="M79 0v315q0 96 65 152t164 56q98 0 163.5 -56t65.5 -152v-315h-70v315q0 64 -43 102t-116 38t-116 -37.5t-43 -102.5v-315h-70z" />
    <glyph glyph-name="union" unicode="&#x222a;" 
d="M308 -12q-103 0 -170.5 58.5t-67.5 158.5v306h70v-306q0 -68 45 -108.5t123 -40.5t123 40.5t45 108.5v306h70v-306q0 -100 -67.5 -158.5t-170.5 -58.5z" />
    <glyph glyph-name="integral" unicode="&#x222b;" 
d="M237 -140q-53 0 -93 22v52q42 -14 73 -14q33 0 44 16t11 43v619q0 114 105 114q50 0 94 -24v-52q-53 16 -73 16q-55 0 -55 -61v-617q0 -114 -106 -114z" />
    <glyph glyph-name="uni222C" unicode="&#x222c;" 
d="M98 -140q-53 0 -93 22v52q42 -14 73 -14q33 0 44 16t11 43v619q0 114 105 114q50 0 94 -24v-52q-53 16 -73 16q-55 0 -55 -61v-617q0 -114 -106 -114zM377 -140q-53 0 -93 22v52q42 -14 73 -14q33 0 44 16t11 43v619q0 114 105 114q50 0 94 -24v-52q-53 16 -73 16
q-55 0 -55 -61v-617q0 -114 -106 -114z" />
    <glyph glyph-name="uni222D" unicode="&#x222d;" horiz-adv-x="1232" 
d="M235 -140q-53 0 -93 22v52q42 -14 73 -14q33 0 44 16t11 43v619q0 114 105 114q50 0 94 -24v-52q-53 16 -73 16q-55 0 -55 -61v-617q0 -114 -106 -114zM545 -140q-53 0 -93 22v52q42 -14 73 -14q33 0 44 16t11 43v619q0 114 105 114q50 0 94 -24v-52q-53 16 -73 16
q-55 0 -55 -61v-617q0 -114 -106 -114zM855 -140q-53 0 -93 22v52q42 -14 73 -14q33 0 44 16t11 43v619q0 114 105 114q50 0 94 -24v-52q-53 16 -73 16q-55 0 -55 -61v-617q0 -114 -106 -114z" />
    <glyph glyph-name="uni222E" unicode="&#x222e;" 
d="M549 284q0 -90 -59 -157.5t-147 -80.5v-72q0 -114 -106 -114q-53 0 -93 22v52q42 -14 73 -14q33 0 44 16t11 43v67q-88 13 -146.5 80.5t-58.5 157.5t58.5 157.5t146.5 80.5v76q0 114 105 114q50 0 94 -24v-52q-53 16 -73 16q-55 0 -55 -61v-69q88 -13 147 -80.5
t59 -157.5zM343 115q58 12 97 59.5t39 109.5t-39 109.5t-97 59.5v-338zM137 284q0 -62 38.5 -109t96.5 -60v338q-58 -13 -96.5 -60t-38.5 -109z" />
    <glyph glyph-name="uni222F" unicode="&#x222f;" horiz-adv-x="1232" 
d="M944 285q0 -109 -153 -139v-172q0 -114 -106 -114q-53 0 -93 22v52q42 -14 73 -14q33 0 44 16t11 43v157q-41 -4 -104 -4t-104 4v-162q0 -114 -106 -114q-53 0 -93 22v52q42 -14 73 -14q33 0 44 16t11 43v167q-154 29 -154 139q0 109 154 139v174q0 114 105 114
q50 0 94 -24v-52q-53 16 -73 16q-55 0 -55 -61v-158q41 4 104 4t104 -4v165q0 114 105 114q50 0 94 -24v-52q-53 16 -73 16q-55 0 -55 -61v-168q153 -29 153 -138zM616 200q64 0 104 4v161q-40 4 -104 4t-104 -4v-161q40 -4 104 -4zM357 285q0 -53 84 -71v141
q-84 -19 -84 -70zM791 214q83 19 83 71q0 51 -83 70v-141z" />
    <glyph glyph-name="uni2230" unicode="&#x2230;" horiz-adv-x="1232" 
d="M1220 286q0 -84 -61 -131t-198 -67v-114q0 -114 -106 -114q-53 0 -93 22v52q42 -14 73 -14q33 0 44 16t11 43v101q-96 -8 -239 -10v-96q0 -114 -106 -114q-53 0 -93 22v52q42 -14 73 -14q33 0 44 16t11 43v91q-143 2 -239 10v-106q0 -114 -106 -114q-53 0 -93 22v52
q42 -14 73 -14q33 0 44 16t11 43v110q-135 20 -195 66.5t-60 130.5q0 83 60 129.5t195 66.5v116q0 114 105 114q50 0 94 -24v-52q-53 16 -73 16q-55 0 -55 -61v-100q96 8 239 10v97q0 114 105 114q50 0 94 -24v-52q-53 16 -73 16q-55 0 -55 -61v-90q143 -2 239 -10v107
q0 114 105 114q50 0 94 -24v-52q-53 16 -73 16q-55 0 -55 -61v-108q137 -20 198 -66.5t61 -130.5zM651 138q147 2 239 10v275q-92 8 -239 10v-295zM341 148q90 -8 239 -10v295q-149 -2 -239 -10v-275zM961 156q102 15 145.5 46.5t43.5 83.5t-43.5 83t-145.5 46v-259zM85 286
q0 -51 42.5 -82.5t142.5 -46.5v257q-100 -15 -142.5 -46t-42.5 -82z" />
    <glyph glyph-name="uni2231" unicode="&#x2231;" 
d="M549 284h55l-93 -93l-94 93h62q0 62 -39 109.5t-97 59.5v-479q0 -114 -106 -114q-53 0 -93 22v52q42 -14 73 -14q33 0 44 16t11 43v474q-58 -13 -96.5 -60t-38.5 -109h-70q0 90 58.5 157.5t146.5 80.5v76q0 114 105 114q50 0 94 -24v-52q-53 16 -73 16q-55 0 -55 -61v-69
q88 -13 147 -80.5t59 -157.5z" />
    <glyph glyph-name="uni2232" unicode="&#x2232;" 
d="M541 221q-19 -69 -73 -117t-125 -58v-72q0 -114 -106 -114q-53 0 -93 22v52q42 -14 73 -14q33 0 44 16t11 43v67q-88 13 -146.5 80.5t-58.5 157.5t58.5 157.5t146.5 80.5v76q0 114 105 114q50 0 94 -24v-52q-53 16 -73 16q-55 0 -55 -61v-69q88 -13 147 -80.5t59 -157.5
h55zM343 115q45 9 79.5 40.5t48.5 75.5l-54 53h62q0 62 -39 109.5t-97 59.5v-338zM137 284q0 -62 38.5 -109t96.5 -60v338q-58 -13 -96.5 -60t-38.5 -109z" />
    <glyph glyph-name="uni2233" unicode="&#x2233;" 
d="M549 283q0 -90 -59 -157.5t-147 -79.5v-72q0 -114 -106 -114q-53 0 -93 22v52q42 -14 73 -14q33 0 44 16t11 43v67q-88 13 -146.5 80.5t-58.5 157.5t58.5 157.5t146.5 80.5v76q0 114 105 114q50 0 94 -24v-52q-53 16 -73 16q-55 0 -55 -61v-69q70 -10 123.5 -57
t73.5 -115l67 -67h-58zM343 115q58 12 97 59.5t39 108.5h-59l52 51q-13 45 -48 77t-81 42v-338zM137 284q0 -62 38.5 -109t96.5 -60v338q-58 -13 -96.5 -60t-38.5 -109z" />
    <glyph glyph-name="therefore" unicode="&#x2234;" 
d="M308 438q-26 0 -44.5 19t-18.5 44t18.5 44t44.5 19t44.5 -19t18.5 -44t-18.5 -44t-44.5 -19zM128 138q-26 0 -44.5 19t-18.5 44t18.5 44t44.5 19t44.5 -19t18.5 -44t-18.5 -44t-44.5 -19zM488 138q-26 0 -44.5 19t-18.5 44t18.5 44t44.5 19t44.5 -19t18.5 -44t-18.5 -44
t-44.5 -19z" />
    <glyph glyph-name="uni2235" unicode="&#x2235;" 
d="M128 438q-26 0 -44.5 19t-18.5 44t18.5 44t44.5 19t44.5 -19t18.5 -44t-18.5 -44t-44.5 -19zM488 438q-26 0 -44.5 19t-18.5 44t18.5 44t44.5 19t44.5 -19t18.5 -44t-18.5 -44t-44.5 -19zM308 138q-26 0 -44.5 19t-18.5 44t18.5 44t44.5 19t44.5 -19t18.5 -44t-18.5 -44
t-44.5 -19z" />
    <glyph glyph-name="uni2236" unicode="&#x2236;" 
d="M308 386q-26 0 -44.5 19t-18.5 44t18.5 44t44.5 19t44.5 -19t18.5 -44t-18.5 -44t-44.5 -19zM308 86q-26 0 -44.5 19t-18.5 44t18.5 44t44.5 19t44.5 -19t18.5 -44t-18.5 -44t-44.5 -19z" />
    <glyph glyph-name="uni2237" unicode="&#x2237;" 
d="M138 437q-26 0 -44.5 19t-18.5 44t18.5 44t44.5 19t44.5 -19t18.5 -44t-18.5 -44t-44.5 -19zM478 437q-26 0 -44.5 19t-18.5 44t18.5 44t44.5 19t44.5 -19t18.5 -44t-18.5 -44t-44.5 -19zM138 137q-26 0 -44.5 19t-18.5 44t18.5 44t44.5 19t44.5 -19t18.5 -44t-18.5 -44
t-44.5 -19zM478 137q-26 0 -44.5 19t-18.5 44t18.5 44t44.5 19t44.5 -19t18.5 -44t-18.5 -44t-44.5 -19z" />
    <glyph glyph-name="uni2238" unicode="&#x2238;" 
d="M308 381q-26 0 -44.5 19t-18.5 44t18.5 44t44.5 19t44.5 -19t18.5 -44t-18.5 -44t-44.5 -19zM73 208v68h470v-68h-470z" />
    <glyph glyph-name="uni2239" unicode="&#x2239;" 
d="M469 441q-26 0 -44.5 19t-18.5 44t18.5 44t44.5 19t44.5 -19t18.5 -44t-18.5 -44t-44.5 -19zM64 316v67h270v-67h-270zM469 132q-26 0 -44.5 19t-18.5 44t18.5 44t44.5 19t44.5 -19t18.5 -44t-18.5 -44t-44.5 -19z" />
    <glyph glyph-name="uni223A" unicode="&#x223a;" 
d="M138 465q-26 0 -44.5 19t-18.5 44t18.5 44t44.5 19t44.5 -19t18.5 -44t-18.5 -44t-44.5 -19zM478 465q-26 0 -44.5 19t-18.5 44t18.5 44t44.5 19t44.5 -19t18.5 -44t-18.5 -44t-44.5 -19zM73 317v67h470v-67h-470zM138 110q-26 0 -44.5 19t-18.5 44t18.5 44t44.5 19
t44.5 -19t18.5 -44t-18.5 -44t-44.5 -19zM478 110q-26 0 -44.5 19t-18.5 44t18.5 44t44.5 19t44.5 -19t18.5 -44t-18.5 -44t-44.5 -19z" />
    <glyph glyph-name="uni223B" unicode="&#x223b;" 
d="M308 457q-26 0 -44.5 19t-18.5 44t18.5 44t44.5 19t44.5 -19t18.5 -44t-18.5 -44t-44.5 -19zM421 278q-40 0 -113 38t-114 38q-75 0 -121 -71v70q46 71 131 71q48 0 121.5 -38t105.5 -38q75 0 112 73v-70q-37 -73 -122 -73zM308 127q-26 0 -44.5 19t-18.5 44t18.5 44
t44.5 19t44.5 -19t18.5 -44t-18.5 -44t-44.5 -19z" />
    <glyph glyph-name="similar" unicode="&#x223c;" 
d="M421 227q-40 0 -113 38t-114 38q-75 0 -121 -71v70q46 71 131 71q48 0 121.5 -38t105.5 -38q75 0 112 73v-70q-37 -73 -122 -73z" />
    <glyph glyph-name="uni223D" unicode="&#x223d;" 
d="M421 373q85 0 122 -73v-70q-37 73 -112 73q-32 0 -105.5 -38t-121.5 -38q-85 0 -131 71v70q46 -71 121 -71q41 0 114 38t113 38z" />
    <glyph glyph-name="uni223E" unicode="&#x223e;" 
d="M194 196q-51 10 -91.5 56t-40.5 101q0 65 39.5 107t100.5 42q38 0 67 -24.5t46.5 -59.5t32.5 -70.5t34 -60t43 -24.5q28 0 43.5 23t15.5 57q0 27 -19.5 54t-62.5 40l20 65q51 -10 91.5 -56t40.5 -101q0 -65 -39.5 -107t-100.5 -42q-38 0 -67 24.5t-46.5 59.5t-32.5 70.5
t-34 60t-43 24.5q-28 0 -43.5 -23t-15.5 -57q0 -27 19.5 -54t62.5 -40z" />
    <glyph glyph-name="uni223F" unicode="&#x223f;" 
d="M426 38q-66 0 -107.5 56.5t-45.5 150.5q-4 69 -27 107t-56 38q-35 0 -61.5 -38t-28.5 -98h-70q2 89 47 146.5t113 57.5q66 0 107.5 -56.5t45.5 -150.5q4 -69 27 -107t56 -38q36 0 62 38t28 98h70q-2 -89 -47 -146.5t-113 -57.5z" />
    <glyph glyph-name="uni2240" unicode="&#x2240;" 
d="M309 114q-73 37 -73 122q0 40 38 113t38 114q0 75 -71 121h70q71 -46 71 -131q0 -48 -38 -121.5t-38 -105.5q0 -75 73 -112h-70z" />
    <glyph glyph-name="uni2241" unicode="&#x2241;" 
d="M431 297q75 0 112 73v-70q-37 -73 -122 -73q-39 0 -95 29l-32 -96h-69l42 125q-41 18 -73 18q-75 0 -121 -71v70q46 71 131 71q39 0 86 -21l33 98h69l-43 -127q52 -26 82 -26z" />
    <glyph glyph-name="uni2242" unicode="&#x2242;" 
d="M73 444v67h470v-67h-470zM421 209q-40 0 -113 38t-114 38q-75 0 -121 -71v70q46 71 131 71q48 0 121.5 -38t105.5 -38q75 0 112 73v-70q-37 -73 -122 -73z" />
    <glyph glyph-name="uni2243" unicode="&#x2243;" 
d="M421 356q-40 0 -113 38t-114 38q-75 0 -121 -71v70q46 71 131 71q48 0 121.5 -38t105.5 -38q75 0 112 73v-70q-37 -73 -122 -73zM73 199v67h470v-67h-470z" />
    <glyph glyph-name="uni2244" unicode="&#x2244;" 
d="M421 356q-32 0 -67 16l-46 -106h235v-67h-264l-58 -134h-70l58 134h-136v67h165l58 134q-62 32 -102 32q-75 0 -121 -71v70q46 71 131 71q46 0 120 -37l54 124h70l-66 -152q25 -11 49 -11q75 0 112 73v-70q-37 -73 -122 -73z" />
    <glyph glyph-name="congruent" unicode="&#x2245;" 
d="M421 461q-40 0 -113 38t-114 38q-75 0 -121 -71v70q46 71 131 71q48 0 121.5 -38t105.5 -38q75 0 112 73v-70q-37 -73 -122 -73zM73 311v68h470v-68h-470zM73 151v68h470v-68h-470z" />
    <glyph glyph-name="uni2246" unicode="&#x2246;" 
d="M431 563q75 0 112 73v-70q-37 -73 -122 -73q-40 0 -113 38t-114 38q-75 0 -121 -71v70q46 71 131 71q48 0 121.5 -38t105.5 -38zM406 458l-21 -54h158v-68h-184l-36 -92h220v-68h-246l-21 -54h-66l21 54h-158v68h184l36 92h-220v68h246l21 54h66z" />
    <glyph glyph-name="uni2247" unicode="&#x2247;" 
d="M421 457q-21 0 -40 6l-30 -88h192v-68h-216l-31 -92h247v-68h-270l-32 -93h-66l32 93h-134v68h157l31 92h-188v68h212l38 112q-2 1 -23.5 12t-28 14t-23 9.5t-29 8.5t-25.5 2q-75 0 -121 -71v70q46 71 131 71q13 0 27.5 -2.5t23 -4.5t25.5 -9.5t21 -9.5t25 -13l20 -10
l27 80h66l-35 -103q12 -4 27 -4q75 0 112 73v-70q-37 -73 -122 -73z" />
    <glyph glyph-name="approxequal" unicode="&#x2248;" 
d="M417 367q-43 0 -117.5 31.5t-106.5 31.5q-33 0 -54.5 -17.5t-23.5 -45.5h-40q0 56 30 92t94 36q45 0 120 -31.5t104 -31.5q33 0 54.5 18t23.5 45h40q0 -56 -30.5 -92t-93.5 -36zM417 190q-43 0 -117.5 31.5t-106.5 31.5q-33 0 -54.5 -17.5t-23.5 -45.5h-40q0 56 30 93
t94 37q45 0 120 -31.5t104 -31.5q33 0 54.5 17.5t23.5 45.5h40q0 -56 -30.5 -93t-93.5 -37z" />
    <glyph glyph-name="uni2249" unicode="&#x2249;" 
d="M421 327q-29 0 -60 13l-40 -93q3 -2 18 -9.5t20 -9.5t17.5 -7.5t19 -7.5t16.5 -4t19 -2q75 0 112 73v-70q-37 -73 -122 -73q-13 0 -25.5 2t-28.5 8.5t-22.5 9.5t-27.5 14t-24 12l-72 -166h-70l82 190q-18 6 -39 6q-75 0 -121 -71v70q46 71 131 71q28 0 58 -10l41 95
q-68 35 -109 35q-75 0 -121 -71v70q46 71 131 71q49 0 127 -41l66 153h70l-78 -180q22 -8 42 -8q75 0 112 73v-70q-37 -73 -122 -73z" />
    <glyph glyph-name="uni224A" unicode="&#x224a;" 
d="M421 438q-40 0 -113 38t-114 38q-75 0 -121 -71v70q46 71 131 71q48 0 121.5 -38t105.5 -38q75 0 112 73v-70q-37 -73 -122 -73zM421 278q-40 0 -113 38t-114 38q-75 0 -121 -71v70q46 71 131 71q48 0 121.5 -38t105.5 -38q75 0 112 73v-70q-37 -73 -122 -73zM73 150v67
h470v-67h-470z" />
    <glyph glyph-name="uni224B" unicode="&#x224b;" 
d="M421 427q-40 0 -113 38t-114 38q-75 0 -121 -71v70q46 71 131 71q48 0 121.5 -38t105.5 -38q75 0 112 73v-70q-37 -73 -122 -73zM421 277q-40 0 -113 38t-114 38q-75 0 -121 -71v70q46 71 131 71q48 0 121.5 -38t105.5 -38q75 0 112 73v-70q-37 -73 -122 -73zM421 127
q-40 0 -113 38t-114 38q-75 0 -121 -71v70q46 71 131 71q48 0 121.5 -38t105.5 -38q75 0 112 73v-70q-37 -73 -122 -73z" />
    <glyph glyph-name="uni224C" unicode="&#x224c;" 
d="M194 349q-51 10 -91.5 56t-40.5 101q0 65 39.5 107t100.5 42q38 0 67 -24.5t46.5 -59.5t32.5 -70.5t34 -60t43 -24.5q28 0 43.5 23t15.5 57q0 27 -19.5 54t-62.5 40l20 65q51 -10 91.5 -56t40.5 -101q0 -65 -39.5 -107t-100.5 -42q-38 0 -67 24.5t-46.5 59.5t-32.5 70.5
t-34 60t-43 24.5q-28 0 -43.5 -23t-15.5 -57q0 -27 19.5 -54t62.5 -40zM73 203v68h470v-68h-470zM73 45v68h470v-68h-470z" />
    <glyph glyph-name="uni224D" unicode="&#x224d;" 
d="M308 378q-105 0 -187.5 46t-114.5 124l65 26q23 -58 88 -93t149 -35t149 35t88 93l65 -26q-32 -78 -114.5 -124t-187.5 -46zM71 122l-65 26q32 78 114.5 124t187.5 46t187.5 -46t114.5 -124l-65 -26q-23 58 -88 93t-149 35t-149 -35t-88 -93z" />
    <glyph glyph-name="uni224E" unicode="&#x224e;" 
d="M73 388v67h118q0 48 34 81.5t83 33.5t83 -33.5t34 -81.5h118v-67h-188v67q0 19 -13.5 33t-33.5 14t-33.5 -14t-13.5 -33v-67h-188zM308 114q-49 0 -83 33.5t-34 81.5h-118v67h188v-67q0 -19 13.5 -33t33.5 -14t33.5 14t13.5 33v67h188v-67h-118q0 -48 -34 -81.5
t-83 -33.5z" />
    <glyph glyph-name="uni224F" unicode="&#x224f;" 
d="M73 388v67h118q0 48 34 81.5t83 33.5t83 -33.5t34 -81.5h118v-67h-188v67q0 19 -13.5 33t-33.5 14t-33.5 -14t-13.5 -33v-67h-188zM73 229v67h470v-67h-470z" />
    <glyph glyph-name="uni2250" unicode="&#x2250;" 
d="M308 536q-26 0 -44.5 19t-18.5 44t18.5 44t44.5 19t44.5 -19t18.5 -44t-18.5 -44t-44.5 -19zM73 412v68h470v-68h-470zM73 204v68h470v-68h-470z" />
    <glyph glyph-name="uni2251" unicode="&#x2251;" 
d="M308 536q-26 0 -44.5 19t-18.5 44t18.5 44t44.5 19t44.5 -19t18.5 -44t-18.5 -44t-44.5 -19zM73 392v68h470v-68h-470zM73 234v68h470v-68h-470zM308 22q-26 0 -44.5 19t-18.5 44t18.5 44t44.5 19t44.5 -19t18.5 -44t-18.5 -44t-44.5 -19z" />
    <glyph glyph-name="uni2252" unicode="&#x2252;" 
d="M138 544q-26 0 -44.5 19t-18.5 44t18.5 44t44.5 19t44.5 -19t18.5 -44t-18.5 -44t-44.5 -19zM73 395v68h470v-68h-470zM73 237v68h470v-68h-470zM478 30q-26 0 -44.5 19t-18.5 44t18.5 44t44.5 19t44.5 -19t18.5 -44t-18.5 -44t-44.5 -19z" />
    <glyph glyph-name="uni2253" unicode="&#x2253;" 
d="M478 544q-26 0 -44.5 19t-18.5 44t18.5 44t44.5 19t44.5 -19t18.5 -44t-18.5 -44t-44.5 -19zM543 395h-470v68h470v-68zM543 237h-470v68h470v-68zM138 30q-26 0 -44.5 19t-18.5 44t18.5 44t44.5 19t44.5 -19t18.5 -44t-18.5 -44t-44.5 -19z" />
    <glyph glyph-name="uni2254" unicode="&#x2254;" 
d="M91 383q-26 0 -44.5 19t-18.5 44t18.5 44t44.5 19t44.5 -19t18.5 -44t-18.5 -44t-44.5 -19zM186 412v68h407v-68h-407zM91 175q-26 0 -44.5 19t-18.5 44t18.5 44t44.5 19t44.5 -19t18.5 -44t-18.5 -44t-44.5 -19zM186 204v68h407v-68h-407z" />
    <glyph glyph-name="uni2255" unicode="&#x2255;" 
d="M520 383q-26 0 -44.5 19t-18.5 44t18.5 44t44.5 19t44.5 -19t18.5 -44t-18.5 -44t-44.5 -19zM425 412h-407v68h407v-68zM520 175q-26 0 -44.5 19t-18.5 44t18.5 44t44.5 19t44.5 -19t18.5 -44t-18.5 -44t-44.5 -19zM425 204h-407v68h407v-68z" />
    <glyph glyph-name="uni2256" unicode="&#x2256;" 
d="M543 488v-68h-116q19 -33 19 -70t-19 -70h116v-68h-470v68h116q-19 33 -19 70t19 70h-116v68h470zM376 350q0 29 -20 49.5t-48 20.5t-48 -20.5t-20 -49.5t20 -49.5t48 -20.5t48 20.5t20 49.5z" />
    <glyph glyph-name="uni2257" unicode="&#x2257;" 
d="M308 473q-47 0 -81 34t-34 80t34 78.5t81 32.5t81 -32.5t34 -78.5t-34 -80t-81 -34zM308 525q24 0 40 17.5t16 44.5t-16 43t-40 16q-23 0 -39.5 -16.5t-16.5 -42.5q0 -27 16.5 -44.5t39.5 -17.5zM73 259v68h470v-68h-470zM73 51v68h470v-68h-470z" />
    <glyph glyph-name="uni2258" unicode="&#x2258;" 
d="M171 506l-65 26q27 64 82 98.5t120 34.5t120 -34.5t82 -98.5l-65 -26q-18 44 -55.5 67.5t-81.5 23.5t-81.5 -23.5t-55.5 -67.5zM73 259v68h470v-68h-470zM73 51v68h470v-68h-470z" />
    <glyph glyph-name="uni2259" unicode="&#x2259;" 
d="M308 653l-111 -194h-70l151 252h60l151 -252h-70zM73 327h470v-68h-470v68zM73 51v68h470v-68h-470z" />
    <glyph glyph-name="uni225A" unicode="&#x225a;" 
d="M338 459h-60l-151 252h70l111 -194l111 194h70zM73 327h470v-68h-470v68zM73 51v68h470v-68h-470z" />
    <glyph glyph-name="uni225B" unicode="&#x225b;" 
d="M443 623l-81 -59l39 -108l-94 67l-94 -67l40 108l-82 59h103l33 91l34 -91h102zM73 259v68h470v-68h-470zM73 51v68h470v-68h-470z" />
    <glyph glyph-name="uni225C" unicode="&#x225c;" 
d="M124 459l151 253h66l151 -253h-368zM242 519h132l-55 105q-9 18 -11 24q-2 -6 -11 -24zM73 259v68h470v-68h-470zM73 51v68h470v-68h-470z" />
    <glyph glyph-name="uni225D" unicode="&#x225d;" 
d="M151 455q-35 0 -56 25.5t-21 68.5t21 68t56 25q27 0 42 -15v64l42 21v-253h-42v13q-13 -17 -42 -17zM427 459v38h28v103h-28v38h28v17q0 54 54 54q20 0 40 -9v-37q-18 8 -35 8t-17 -17v-16h39v-38h-39v-103h39v-38h-109zM338 455q-37 0 -61 26.5t-24 67.5q0 43 23 68
t62 25q37 0 58 -23.5t21 -63.5q0 -15 -2 -25h-117q5 -37 42 -37q23 0 40 16l25 -30q-30 -24 -67 -24zM297 568h77q-4 36 -36 36q-37 0 -41 -36zM158 494q23 0 35 19v73q-14 17 -35 17q-40 0 -40 -54q0 -25 11 -40t29 -15zM73 259v68h470v-68h-470zM73 51v68h470v-68h-470z
" />
    <glyph glyph-name="uni225E" unicode="&#x225e;" 
d="M243 558v-99h-42v179h40v-13q12 17 34 17q26 0 39 -19q17 19 44 19q57 0 57 -67v-116h-42v106q0 38 -20 38q-24 0 -24 -45v-99h-42v106q0 38 -20 38q-24 0 -24 -45zM73 327h470v-68h-470v68zM73 51v68h470v-68h-470z" />
    <glyph glyph-name="uni225F" unicode="&#x225f;" 
d="M284 530v11q0 23 9.5 39.5t21.5 24t21.5 18t9.5 23.5q0 12 -10.5 20t-27.5 8q-44 0 -44 -45h-42q0 37 23 60t63 23q36 0 59 -18t23 -47q0 -28 -16 -44.5t-32 -29.5t-16 -32v-11h-42zM305 455q-13 0 -22 9t-9 21t9 21t22 9t22 -9t9 -21t-9 -21t-22 -9zM73 259v68h470v-68
h-470zM73 51v68h470v-68h-470z" />
    <glyph glyph-name="notequal" unicode="&#x2260;" 
d="M543 412h-176l-55 -140h231v-68h-258l-80 -204h-70l80 204h-142v68h169l55 140h-224v68h251l87 220h70l-87 -220h149v-68z" />
    <glyph glyph-name="equivalence" unicode="&#x2261;" 
d="M73 476v67h470v-67h-470zM73 317v67h470v-67h-470zM73 158v67h470v-67h-470z" />
    <glyph glyph-name="uni2262" unicode="&#x2262;" 
d="M543 476h-146l-40 -92h186v-67h-215l-40 -92h255v-67h-284l-61 -141h-70l61 141h-116v67h145l40 92h-185v67h214l40 92h-254v67h283l59 137h70l-59 -137h117v-67z" />
    <glyph glyph-name="uni2263" unicode="&#x2263;" 
d="M73 396v68h470v-68h-470zM73 264v68h470v-68h-470zM73 132v68h470v-68h-470zM73 0v68h470v-68h-470z" />
    <glyph glyph-name="lessequal" unicode="&#x2264;" 
d="M543 231l-468 169v70l468 171v-80l-358 -125l358 -127v-78zM73 79v67h470v-67h-470z" />
    <glyph glyph-name="greaterequal" unicode="&#x2265;" 
d="M73 231v78l368 127l-368 125v80l468 -171v-70zM73 79v67h470v-67h-470z" />
    <glyph glyph-name="uni2266" unicode="&#x2266;" 
d="M543 345l-470 149v66l470 150v-67l-393 -115l393 -117v-66zM543 205h-470v68h470v-68zM543 47h-470v68h470v-68z" />
    <glyph glyph-name="uni2267" unicode="&#x2267;" 
d="M73 345v66l393 117l-393 115v67l470 -150v-66zM73 205v68h470v-68h-470zM73 47v68h470v-68h-470z" />
    <glyph glyph-name="uni2268" unicode="&#x2268;" 
d="M543 710v-67l-393 -115l393 -117v-66l-470 149v66zM424 336l-27 -63h146v-68h-176l-38 -90h214v-68h-244l-32 -75h-64l32 75h-162v68h192l38 90h-230v68h260l27 63h64z" />
    <glyph glyph-name="uni2269" unicode="&#x2269;" 
d="M73 710l470 -150v-66l-470 -149v66l393 117l-393 115v67zM424 354l-35 -81h154v-68h-184l-38 -90h222v-68h-252l-35 -81h-64l35 81h-154v68h184l38 90h-222v68h252l35 81h64z" />
    <glyph glyph-name="uni226A" unicode="&#x226a;" horiz-adv-x="1232" 
d="M181 316v66l470 190v-67l-393 -155l393 -157v-66zM581 316v66l470 190v-67l-393 -155l393 -157v-66z" />
    <glyph glyph-name="uni226B" unicode="&#x226b;" horiz-adv-x="1232" 
d="M651 316l-470 -189v66l393 157l-393 155v67l470 -190v-66zM1051 316l-470 -189v66l393 157l-393 155v67l470 -190v-66z" />
    <glyph glyph-name="uni226C" unicode="&#x226c;" 
d="M460 297q0 -145 -116 -244q40 -34 84 -53h-76q-30 16 -44 26q-14 -10 -44 -26h-76q45 19 83 53q-115 101 -115 244q0 150 115 251q-42 37 -92 58h77q27 -13 52 -30q28 18 53 30h75q-52 -22 -91 -58q115 -101 115 -251zM226 297q0 -112 82 -207q82 98 82 207
q0 117 -82 213q-82 -96 -82 -213z" />
    <glyph glyph-name="uni226D" unicode="&#x226d;" 
d="M343 317q94 -8 166 -53t101 -116l-65 -26q-21 52 -75 85.5t-127 40.5v-229h-70v229q-73 -7 -127 -40.5t-75 -85.5l-65 26q29 71 101 116t166 53v62q-94 8 -166 53t-101 116l65 26q21 -52 75 -85.5t127 -40.5v229h70v-229q73 7 127 40.5t75 85.5l65 -26q-29 -71 -101 -116
t-166 -53v-62z" />
    <glyph glyph-name="uni226E" unicode="&#x226e;" 
d="M543 572v-67l-393 -155l393 -155v-68l-216 87l-73 -214h-66l81 237l-196 79v66l284 115l69 203h66l-59 -172z" />
    <glyph glyph-name="uni226F" unicode="&#x226f;" 
d="M543 382v-66l-271 -109l-71 -207h-66l60 176l-122 -49v66l393 157l-393 155v67l225 -91l75 219h66l-82 -243z" />
    <glyph glyph-name="uni2270" unicode="&#x2270;" 
d="M543 641v-80l-358 -125l358 -127v-78l-217 78l-50 -163h267v-67h-288l-36 -119h-66l36 119h-116v67h137l56 185l-191 69v70l263 96l50 164h66l-41 -137z" />
    <glyph glyph-name="uni2271" unicode="&#x2271;" 
d="M543 146v-67h-293l-36 -119h-66l36 119h-111v67h132l45 149l-177 -64v78l368 127l-368 125v80l255 -93l55 182h66l-62 -204l154 -56v-70l-216 -78l-54 -176h272z" />
    <glyph glyph-name="uni2272" unicode="&#x2272;" 
d="M543 231l-468 169v70l468 171v-80l-368 -125l368 -127v-78zM421 37q-40 0 -113 38t-114 38q-75 0 -121 -71v70q46 71 131 71q48 0 121.5 -38t105.5 -38q75 0 112 73v-70q-37 -73 -122 -73z" />
    <glyph glyph-name="uni2273" unicode="&#x2273;" 
d="M75 231v78l368 127l-368 125v80l468 -171v-70zM421 37q-40 0 -113 38t-114 38q-75 0 -121 -71v70q46 71 131 71q48 0 121.5 -38t105.5 -38q75 0 112 73v-70q-37 -73 -122 -73z" />
    <glyph glyph-name="uni2274" unicode="&#x2274;" 
d="M543 641v-80l-368 -125l368 -127v-78l-226 81l-43 -143q20 -8 52 -25t57 -27t48 -10q75 0 112 73v-70q-37 -73 -122 -73q-27 0 -54.5 10.5t-61.5 28.5t-52 25l-43 -141h-66l47 153q-74 -2 -118 -71v70q46 71 131 71h8l46 151l-183 66v70l252 92l52 168h66l-43 -140z" />
    <glyph glyph-name="uni2275" unicode="&#x2275;" 
d="M543 400l-221 -80l-46 -152q20 -8 51.5 -24.5t56.5 -26.5t47 -10q75 0 112 73v-70q-37 -73 -122 -73q-26 0 -53.5 10t-61 28t-50.5 25l-43 -140h-66l46 153q-74 0 -120 -71v70q46 71 131 71h10l34 110l-173 -62v78l368 127l-368 125v80l253 -92l55 181h66l-63 -203
l157 -57v-70z" />
    <glyph glyph-name="uni2276" unicode="&#x2276;" 
d="M543 680v-70l-361 -115l361 -115v-70l-470 152v66zM73 320v70l470 -152v-66l-470 -152v70l361 115z" />
    <glyph glyph-name="uni2277" unicode="&#x2277;" 
d="M73 680l470 -152v-66l-470 -152v70l361 115l-361 115v70zM73 172v66l470 152v-70l-361 -115l361 -115v-70z" />
    <glyph glyph-name="uni2278" unicode="&#x2278;" 
d="M543 680v-70l-361 -115l361 -115v-70l-206 67v-72l206 -67v-66l-206 -67v-136h-58v118l-206 -67v70l361 115l-361 115v70l206 -67v72l-206 67v66l206 67v134h58v-116z" />
    <glyph glyph-name="uni2279" unicode="&#x2279;" 
d="M543 462l-206 -67v-72l206 67v-70l-361 -115l361 -115v-70l-206 67v-118h-58v136l-206 67v66l206 67v72l-206 -67v70l361 115l-361 115v70l206 -67v116h58v-134l206 -67v-66z" />
    <glyph glyph-name="uni227A" unicode="&#x227a;" 
d="M543 598v-101q-158 -108 -365 -147q210 -41 365 -149v-101q-157 140 -470 211v77q160 37 273 86t197 124z" />
    <glyph glyph-name="uni227B" unicode="&#x227b;" 
d="M73 598q84 -75 197 -124t273 -86v-77q-313 -71 -470 -211v101q155 108 365 149q-207 39 -365 147v101z" />
    <glyph glyph-name="uni227C" unicode="&#x227c;" 
d="M543 688v-101q-158 -108 -365 -147q210 -41 365 -149v-101q-157 140 -470 211v77q160 37 273 86t197 124zM73 242v79q290 -58 470 -220v-89q-103 88 -214 143t-256 87z" />
    <glyph glyph-name="uni227D" unicode="&#x227d;" 
d="M73 688q84 -75 197 -124t273 -86v-77q-313 -71 -470 -211v101q155 108 365 149q-207 39 -365 147v101zM73 12v89q180 162 470 220v-79q-145 -32 -256 -87t-214 -143z" />
    <glyph glyph-name="uni227E" unicode="&#x227e;" 
d="M543 160q-157 140 -470 211v77q160 37 273 86t197 124v-101q-158 -108 -365 -147q210 -41 365 -149v-101zM421 -12q-40 0 -113 38t-114 38q-75 0 -121 -71v70q46 71 131 71q48 0 121.5 -38t105.5 -38q75 0 112 73v-70q-37 -73 -122 -73z" />
    <glyph glyph-name="uni227F" unicode="&#x227f;" 
d="M73 659q84 -75 197 -124t273 -86v-77q-313 -71 -470 -211v101q155 108 365 149q-207 39 -365 147v101zM431 58q75 0 112 73v-70q-37 -73 -122 -73q-40 0 -113 38t-114 38q-75 0 -121 -71v70q46 71 131 71q48 0 121.5 -38t105.5 -38z" />
    <glyph glyph-name="uni2280" unicode="&#x2280;" 
d="M543 598v-101q-158 -108 -365 -147q210 -41 365 -149v-101q-85 76 -202 127l-77 -227h-66l85 250q-83 32 -210 61v77q168 38 288 93l75 219h66l-60 -176q59 36 101 74z" />
    <glyph glyph-name="uni2281" unicode="&#x2281;" 
d="M543 388v-77q-158 -36 -264 -82l-78 -229h-66l64 189q-72 -41 -126 -89v101q155 108 365 149q-207 39 -365 147v101q89 -79 219 -134l81 236h66l-88 -258q87 -30 192 -54z" />
    <glyph glyph-name="propersubset" unicode="&#x2282;" 
d="M543 119h-238q-58 0 -105 19.5t-75.5 52t-44 73.5t-15.5 83.5t15.5 83.5t44 73.5t75.5 52t105 19.5h238v-68h-238q-47 0 -84 -17.5t-56 -46t-27.5 -62.5t0 -68.5t27.5 -63t56 -46t84 -17.5h238v-68z" />
    <glyph glyph-name="propersuperset" unicode="&#x2283;" 
d="M73 119v68h238q47 0 84 17.5t56 46t27.5 62.5t0 68.5t-27.5 63t-56 46t-84 17.5h-238v68h238q58 0 105 -19.5t75.5 -52t44 -73.5t15.5 -83.5t-15.5 -83.5t-44 -73.5t-75.5 -52t-105 -19.5h-238z" />
    <glyph glyph-name="notsubset" unicode="&#x2284;" 
d="M543 508h-149l-92 -321h3h238v-68h-238q-15 0 -23 1l-34 -120h-66l38 131q-56 18 -94 58.5t-52 89.5t-6 102t35 96t80 71t122 28h42l28 97h66l-28 -97h130v-68zM239 198l89 310h-23q-58 0 -100 -26.5t-57 -67t-13 -83.5t30 -80t74 -53z" />
    <glyph glyph-name="uni2285" unicode="&#x2285;" 
d="M376 569q61 -14 103 -53.5t59 -89t11 -104t-32.5 -99.5t-80.5 -74.5t-125 -29.5h-64l-34 -119h-66l34 119h-108v68h128l92 321h-220v68h238h1l28 97h66zM311 187q51 0 89 20.5t57 52.5t23.5 70t-7.5 73t-42 62.5t-74 37.5l-90 -316h44z" />
    <glyph glyph-name="reflexsubset" unicode="&#x2286;" 
d="M543 131h-238q-58 0 -105 19.5t-75.5 52t-44 73.5t-15.5 83.5t15.5 83.5t44 73.5t75.5 52t105 19.5h238v-68h-238q-47 0 -84 -17.5t-56 -46t-27.5 -62.5t0 -68.5t27.5 -63t56 -46t84 -17.5h238v-68zM77 0v68h466v-68h-466z" />
    <glyph glyph-name="reflexsuperset" unicode="&#x2287;" 
d="M73 131v68h238q47 0 84 17.5t56 46t27.5 62.5t0 68.5t-27.5 63t-56 46t-84 17.5h-238v68h238q58 0 105 -19.5t75.5 -52t44 -73.5t15.5 -83.5t-15.5 -83.5t-44 -73.5t-75.5 -52t-105 -19.5h-238zM539 0h-466v68h466v-68z" />
    <glyph glyph-name="uni2288" unicode="&#x2288;" 
d="M543 520h-126l-109 -321h235v-68h-238q-13 0 -20 1l-22 -64h280v-68h-303l-25 -74h-66l25 74h-97v68h120l26 75q-49 15 -85 47t-52.5 72t-20.5 85.5t12 88t44 76.5t76 55t108 21h69l26 75h66l-26 -75h103v-68zM245 208l106 312h-46q-59 0 -101 -27.5t-57 -68.5t-12 -84.5
t32.5 -80.5t77.5 -51z" />
    <glyph glyph-name="uni2289" unicode="&#x2289;" 
d="M275 131l-22 -63h278v-68h-301l-25 -74h-66l25 74h-99v68h122l22 63h-144v68h167l108 318q-16 3 -37 3h-238v68h238q32 0 59 -6l28 81h66l-34 -101q47 -24 77 -66t39.5 -89t-1 -96.5t-38.5 -89t-79 -65t-117 -25.5h-28zM399 496l-101 -297h5q67 0 111.5 36t55 84t-7 99
t-63.5 78z" />
    <glyph glyph-name="uni228A" unicode="&#x228a;" 
d="M305 520q-54 0 -94 -23.5t-58 -59t-18.5 -77t17 -77t57 -59.5t93.5 -25l26 99h66l-26 -99h175v-68h-194l-16 -63h210v-68h-229l-26 -99h-66l26 99h-171v68h190l17 64q-72 5 -123.5 41t-74 86.5t-20.5 108t27.5 106.5t81 81.5t130.5 32.5h238v-68h-238z" />
    <glyph glyph-name="uni228B" unicode="&#x228b;" 
d="M315 131l-16 -63h240v-68h-259l-26 -99h-66l26 99h-141v68h160l16 63h-176v68h195l26 99h66l-26 -98q49 5 84 31t50 61.5t13 75.5t-20.5 73.5t-57.5 56t-92 22.5h-238v68h238q76 0 132 -33.5t81.5 -84t26 -109.5t-24.5 -109.5t-80 -85t-131 -35.5z" />
    <glyph glyph-name="uni228C" unicode="&#x228c;" 
d="M476 511h70v-306q0 -100 -67.5 -158.5t-170.5 -58.5t-170.5 58.5t-67.5 158.5v306h70v-306q0 -68 45 -108.5t123 -40.5t123 40.5t45 108.5v306zM311 194v-48l-80 81l80 80v-48h64v-65h-64z" />
    <glyph glyph-name="uni228D" unicode="&#x228d;" 
d="M308 -12q-103 0 -170.5 58.5t-67.5 158.5v306h70v-306q0 -68 45 -108.5t123 -40.5t123 40.5t45 108.5v306h70v-306q0 -100 -67.5 -158.5t-170.5 -58.5zM308 163q-26 0 -44.5 19t-18.5 44t18.5 44t44.5 19t44.5 -19t18.5 -44t-18.5 -44t-44.5 -19z" />
    <glyph glyph-name="uni228E" unicode="&#x228e;" 
d="M476 511h70v-306q0 -100 -67.5 -158.5t-170.5 -58.5t-170.5 58.5t-67.5 158.5v306h70v-306q0 -68 45 -108.5t123 -40.5t123 40.5t45 108.5v306zM275 131v62h-60v65h60v59h67v-59h59v-65h-59v-62h-67z" />
    <glyph glyph-name="uni228F" unicode="&#x228f;" 
d="M81 0v511h479v-68h-409v-375h409v-68h-479z" />
    <glyph glyph-name="uni2290" unicode="&#x2290;" 
d="M541 0h-479v68h409v375h-409v68h479v-511z" />
    <glyph glyph-name="uni2291" unicode="&#x2291;" 
d="M81 130v511h479v-68h-409v-375h409v-68h-479zM81 0v68h479v-68h-479z" />
    <glyph glyph-name="uni2292" unicode="&#x2292;" 
d="M55 136v68h441v301h-441v68h511v-437h-511zM55 0v68h511v-68h-511z" />
    <glyph glyph-name="uni2293" unicode="&#x2293;" 
d="M53 479h511v-479h-68v409h-375v-409h-68v479z" />
    <glyph glyph-name="uni2294" unicode="&#x2294;" 
d="M564 0h-511v479h68v-409h375v409h68v-479z" />
    <glyph glyph-name="circleplus" unicode="&#x2295;" 
d="M308 578q120 0 206 -86t86 -206q0 -121 -86 -207t-206 -86q-121 0 -207 86t-86 207q0 120 86 206t207 86zM308 61q91 0 156.5 66t65.5 159q0 92 -65.5 158t-156.5 66q-92 0 -157.5 -66t-65.5 -158q0 -93 65.5 -159t157.5 -66zM342 320h134v-68h-134v-134h-68v134h-134v68
h134v134h68v-134z" />
    <glyph glyph-name="uni2296" unicode="&#x2296;" 
d="M308 -7q-121 0 -207 86t-86 207q0 120 86 206t207 86q120 0 206 -86t86 -206q0 -121 -86 -207t-206 -86zM308 61q91 0 156.5 66t65.5 159q0 92 -65.5 158t-156.5 66q-92 0 -157.5 -66t-65.5 -158q0 -93 65.5 -159t157.5 -66zM140 252v68h336v-68h-336z" />
    <glyph glyph-name="circlemultiply" unicode="&#x2297;" 
d="M308 578q120 0 206 -86t86 -206q0 -121 -86 -207t-206 -86q-121 0 -207 86t-86 207q0 120 86 206t207 86zM308 61q91 0 156.5 66t65.5 159q0 92 -65.5 158t-156.5 66q-92 0 -157.5 -66t-65.5 -158q0 -93 65.5 -159t157.5 -66zM403 429l48 -48l-95 -95l95 -95l-48 -48
l-95 95l-95 -95l-48 48l95 95l-95 95l48 48l95 -95z" />
    <glyph glyph-name="uni2298" unicode="&#x2298;" 
d="M308 -7q-121 0 -207 86t-86 207q0 120 86 206t207 86q120 0 206 -86t86 -206q0 -121 -86 -207t-206 -86zM308 61q91 0 156.5 66t65.5 159q0 92 -65.5 158t-156.5 66q-92 0 -157.5 -66t-65.5 -158q0 -93 65.5 -159t157.5 -66zM213 143l-48 48l238 238l48 -48z" />
    <glyph glyph-name="uni2299" unicode="&#x2299;" 
d="M308 -7q-121 0 -207 86t-86 207q0 120 86 206t207 86q120 0 206 -86t86 -206q0 -121 -86 -207t-206 -86zM308 61q91 0 156.5 66t65.5 159q0 92 -65.5 158t-156.5 66q-92 0 -157.5 -66t-65.5 -158q0 -93 65.5 -159t157.5 -66zM308 223q-26 0 -44.5 19t-18.5 44t18.5 44
t44.5 19t44.5 -19t18.5 -44t-18.5 -44t-44.5 -19z" />
    <glyph glyph-name="uni229A" unicode="&#x229a;" 
d="M308 -7q-121 0 -207 86t-86 207q0 120 86 206t207 86q120 0 206 -86t86 -206q0 -121 -86 -207t-206 -86zM308 61q91 0 156.5 66t65.5 159q0 92 -65.5 158t-156.5 66q-92 0 -157.5 -66t-65.5 -158q0 -93 65.5 -159t157.5 -66zM308 174q-47 0 -81 34t-34 80t34 78.5
t81 32.5t81 -32.5t34 -78.5t-34 -80t-81 -34zM308 226q24 0 40 17.5t16 44.5t-16 43t-40 16q-23 0 -39.5 -16.5t-16.5 -42.5q0 -27 16.5 -44.5t39.5 -17.5z" />
    <glyph glyph-name="uni229B" unicode="&#x229b;" 
d="M308 -7q-121 0 -207 86t-86 207q0 120 86 206t207 86q120 0 206 -86t86 -206q0 -121 -86 -207t-206 -86zM308 61q91 0 156.5 66t65.5 159q0 92 -65.5 158t-156.5 66q-92 0 -157.5 -66t-65.5 -158q0 -93 65.5 -159t157.5 -66zM241 103l-59 34l39 68l57 64l-83 -17h-76v68
h76l83 -17l-56 64l-38 66l59 34l38 -66l27 -81l27 81l38 66l59 -34l-38 -66l-56 -64l83 17h76v-68h-76l-83 17l56 -64l39 -66l-59 -34l-39 66l-27 81l-28 -81z" />
    <glyph glyph-name="uni229C" unicode="&#x229c;" 
d="M308 -7q-121 0 -207 86t-86 207q0 120 86 206t207 86q120 0 206 -86t86 -206q0 -121 -86 -207t-206 -86zM308 61q91 0 156.5 66t65.5 159q0 92 -65.5 158t-156.5 66q-92 0 -157.5 -66t-65.5 -158q0 -93 65.5 -159t157.5 -66zM159 322v68h297v-68h-297zM159 182v68h297
v-68h-297z" />
    <glyph glyph-name="uni229D" unicode="&#x229d;" 
d="M308 -7q-121 0 -207 86t-86 207q0 120 86 206t207 86q120 0 206 -86t86 -206q0 -121 -86 -207t-206 -86zM308 61q91 0 156.5 66t65.5 159q0 92 -65.5 158t-156.5 66q-92 0 -157.5 -66t-65.5 -158q0 -93 65.5 -159t157.5 -66zM140 252v68h336v-68h-336z" />
    <glyph glyph-name="uni229E" unicode="&#x229e;" 
d="M25 565h566v-565h-566v565zM274 497h-179v-180h179v180zM521 317v180h-179v-180h179zM95 249v-181h179v181h-179zM342 68h179v181h-179v-181z" />
    <glyph glyph-name="uni229F" unicode="&#x229f;" 
d="M25 565h566v-565h-566v565zM521 497h-426v-180h426v180zM95 68h426v181h-426v-181z" />
    <glyph glyph-name="uni22A0" unicode="&#x22a0;" 
d="M25 565h566v-565h-566v565zM142 497l166 -166l166 166h-332zM260 283l-165 165v-330zM356 283l165 -165v330zM308 235l-167 -167h334z" />
    <glyph glyph-name="uni22A1" unicode="&#x22a1;" 
d="M25 0v565h566v-565h-566zM95 68h426v429h-426v-429zM308 222q-26 0 -44.5 19t-18.5 44t18.5 44t44.5 19t44.5 -19t18.5 -44t-18.5 -44t-44.5 -19z" />
    <glyph glyph-name="uni22A2" unicode="&#x22a2;" 
d="M596 385v-68l-501 -1v-268h-70v606h70v-270z" />
    <glyph glyph-name="uni22A3" unicode="&#x22a3;" 
d="M521 550h70v-550h-70v241h-496v68h496v241z" />
    <glyph glyph-name="uni22A4" unicode="&#x22a4;" 
d="M591 550v-68h-248v-482h-70v482h-248v68h566z" />
    <glyph glyph-name="uni22A5" unicode="&#x22a5;" 
d="M343 68h248v-68h-566v68h248v482h70v-482z" />
    <glyph glyph-name="uni22A6" unicode="&#x22a6;" 
d="M475 385v-68l-238 -1v-268h-70v606h70v-270z" />
    <glyph glyph-name="uni22A7" unicode="&#x22a7;" 
d="M464 401l-242 -1v-102l242 1v-68l-242 -1v-182h-70v606h70v-186l242 1v-68z" />
    <glyph glyph-name="uni22A8" unicode="&#x22a8;" 
d="M596 401l-501 -1v-102l501 1v-68l-501 -1v-182h-70v606h70v-186l501 1v-68z" />
    <glyph glyph-name="uni22A9" unicode="&#x22a9;" 
d="M30 0v700h70v-700h-70zM596 385v-68l-346 -1v-316h-70v700h70v-316z" />
    <glyph glyph-name="uni22AA" unicode="&#x22aa;" horiz-adv-x="1232" 
d="M280 48v606h70v-606h-70zM439 48v606h70v-606h-70zM1037 385v-68l-369 -1v-268h-70v606h70v-270z" />
    <glyph glyph-name="uni22AB" unicode="&#x22ab;" horiz-adv-x="1232" 
d="M230 45v606h70v-606h-70zM1002 398l-543 -1v-102l543 1v-68l-543 -1v-182h-70v606h70v-186l543 1v-68z" />
    <glyph glyph-name="uni22AC" unicode="&#x22ac;" 
d="M596 385v-68h-238l-97 -269h-66l97 268h-197v-268h-70v606h70v-270h222l98 270h66l-98 -269h213z" />
    <glyph glyph-name="uni22AD" unicode="&#x22ad;" 
d="M596 401h-205l-37 -102h242v-68h-267l-66 -183h-66l66 182h-168v-182h-70v606h70v-186l255 1l67 185h66l-67 -185h180v-68zM288 298l37 102h-230v-102h193z" />
    <glyph glyph-name="uni22AE" unicode="&#x22ae;" horiz-adv-x="1232" 
d="M332 48v606h70v-606h-70zM1058 385v-68h-231l-98 -269h-66l97 268h-199v-268h-70v606h70v-270h224l98 270h66l-98 -269h207z" />
    <glyph glyph-name="uni22AF" unicode="&#x22af;" horiz-adv-x="1232" 
d="M230 45v606h70v-606h-70zM1002 398h-234l-37 -102h271v-68l-296 -1l-66 -182h-66l66 182h-181v-182h-70v606h70v-186l268 1l67 185h66l-67 -185h209v-68zM665 295l37 102h-243v-102h206z" />
    <glyph glyph-name="uni22B0" unicode="&#x22b0;" 
d="M398 352q159 -36 159 -152q0 -62 -38.5 -98.5t-89.5 -36.5q-48 0 -83.5 32.5t-40.5 92.5l68 14q4 -32 21 -49.5t38 -17.5q22 0 38.5 17t16.5 46q0 118 -269 118h-152v68h152q269 0 269 118q0 29 -16.5 46t-38.5 17q-21 0 -38 -17.5t-21 -49.5l-68 14q5 60 40.5 92.5
t83.5 32.5q51 0 89.5 -36.5t38.5 -98.5q0 -116 -159 -152z" />
    <glyph glyph-name="uni22B1" unicode="&#x22b1;" 
d="M398 386h152v-68h-152q-269 0 -269 -118q0 -29 16.5 -46t38.5 -17q21 0 38 17.5t21 49.5l68 -14q-5 -60 -40.5 -92.5t-83.5 -32.5q-51 0 -89.5 36.5t-38.5 98.5q0 116 159 152q-159 36 -159 152q0 62 38.5 98.5t89.5 36.5q48 0 83.5 -32.5t40.5 -92.5l-68 -14
q-4 32 -21 49.5t-38 17.5q-22 0 -38.5 -17t-16.5 -46q0 -118 269 -118z" />
    <glyph glyph-name="uni22B2" unicode="&#x22b2;" 
d="M586 148l-566 202l566 202v-404zM516 254v192l-281 -96z" />
    <glyph glyph-name="uni22B3" unicode="&#x22b3;" 
d="M30 148v404l566 -202zM100 254l281 96l-281 96v-192z" />
    <glyph glyph-name="uni22B4" unicode="&#x22b4;" 
d="M586 148l-566 202l566 202v-404zM516 254v192l-281 -96zM586 39h-561v67h561v-67z" />
    <glyph glyph-name="uni22B5" unicode="&#x22b5;" 
d="M30 148v404l566 -202zM100 254l281 96l-281 96v-192zM30 39v67h561v-67h-561z" />
    <glyph glyph-name="uni22B6" unicode="&#x22b6;" 
d="M506 381q41 0 70.5 -29.5t29.5 -70.5q0 -42 -29.5 -71.5t-70.5 -29.5q-33 0 -59 19.5t-36 49.5h-206q-10 -30 -36 -49.5t-59 -19.5q-41 0 -70.5 29.5t-29.5 71.5q0 41 29.5 70.5t70.5 29.5q32 0 58 -19t37 -49h206q11 30 37 49t58 19zM110 220q25 0 42.5 18t17.5 43
t-17.5 42.5t-42.5 17.5t-42.5 -17.5t-17.5 -42.5t17.5 -43t42.5 -18z" />
    <glyph glyph-name="uni22B7" unicode="&#x22b7;" 
d="M506 381q41 0 70.5 -29.5t29.5 -70.5q0 -42 -29.5 -71.5t-70.5 -29.5q-33 0 -59 19.5t-36 49.5h-206q-10 -30 -36 -49.5t-59 -19.5q-41 0 -70.5 29.5t-29.5 71.5q0 41 29.5 70.5t70.5 29.5q32 0 58 -19t37 -49h206q11 30 37 49t58 19zM506 220q25 0 42.5 18t17.5 43
t-17.5 42.5t-42.5 17.5t-42.5 -17.5t-17.5 -42.5t17.5 -43t42.5 -18z" />
    <glyph glyph-name="uni22B8" unicode="&#x22b8;" 
d="M506 381q41 0 70.5 -29.5t29.5 -70.5q0 -42 -29.5 -71.5t-70.5 -29.5q-33 0 -59 19.5t-36 49.5h-401v64h401q11 30 37 49t58 19zM506 220q25 0 42.5 18t17.5 43t-17.5 42.5t-42.5 17.5t-42.5 -17.5t-17.5 -42.5t17.5 -43t42.5 -18z" />
    <glyph glyph-name="uni22B9" unicode="&#x22b9;" 
d="M268 442v184h80v-184h-80zM30 310v76h184v-76h-184zM402 310v76h184v-76h-184zM268 70v184h80v-184h-80z" />
    <glyph glyph-name="uni22BA" unicode="&#x22ba;" 
d="M478 606v-68h-135v-538h-70v538h-135v68h340z" />
    <glyph glyph-name="uni22BB" unicode="&#x22bb;" 
d="M308 108l-278 415h80l198 -296l198 296h80zM43 0v67h530v-67h-530z" />
    <glyph glyph-name="uni22BC" unicode="&#x22bc;" 
d="M10 511v68h596v-68h-596zM10 0l298 446l298 -446h-90l-208 317l-208 -317h-90z" />
    <glyph glyph-name="uni22BD" unicode="&#x22bd;" 
d="M10 511v68h596v-68h-596zM308 -17l-298 446h90l208 -317l208 317h90z" />
    <glyph glyph-name="uni22BE" unicode="&#x22be;" 
d="M417 68h134v-68h-473v471h70v-134q112 0 190.5 -78.5t78.5 -190.5zM148 68h199q0 83 -58.5 142t-140.5 59v-201z" />
    <glyph glyph-name="uni22BF" unicode="&#x22bf;" 
d="M20 0l546 541v-541h-546zM498 64v316l-319 -316h319z" />
    <glyph glyph-name="uni22C0" unicode="&#x22c0;" 
d="M49 0l231 700h54l233 -700h-71l-169 523q-18 53 -20 63q-5 -20 -19 -63l-166 -523h-73z" />
    <glyph glyph-name="uni22C1" unicode="&#x22c1;" 
d="M280 0l-231 700h73l166 -523q14 -43 19 -63q2 10 20 63l169 523h71l-233 -700h-54z" />
    <glyph glyph-name="uni22C2" unicode="&#x22c2;" 
d="M70 0v495q0 100 68 158.5t170 58.5t170 -58.5t68 -158.5v-495h-70v495q0 68 -45.5 108.5t-122.5 40.5t-122.5 -40.5t-45.5 -108.5v-495h-70z" />
    <glyph glyph-name="uni22C3" unicode="&#x22c3;" 
d="M308 -12q-102 0 -170 58.5t-68 158.5v495h70v-495q0 -68 45.5 -108.5t122.5 -40.5t122.5 40.5t45.5 108.5v495h70v-495q0 -100 -68 -158.5t-170 -58.5z" />
    <glyph glyph-name="uni22C4" unicode="&#x22c4;" 
d="M308 142l-140 182l140 182l140 -182zM308 249l56 75l-56 75l-56 -75z" />
    <glyph glyph-name="dotmath" unicode="&#x22c5;" 
d="M308 286q-26 0 -44.5 19t-18.5 44t18.5 44t44.5 19t44.5 -19t18.5 -44t-18.5 -44t-44.5 -19z" />
    <glyph glyph-name="uni22C6" unicode="&#x22c6;" 
d="M489 400l-108 -78l52 -144l-125 90l-125 -90l52 144l-108 78h137l44 122l44 -122h137z" />
    <glyph glyph-name="uni22C7" unicode="&#x22c7;" 
d="M538 383v-72h-143l138 -138l-51 -51l-174 174l-174 -174l-51 51l138 138h-143v72h143l-138 138l51 51l174 -174l174 174l51 -51l-138 -138h143zM308 459q-20 0 -35 15.5t-15 34.5q0 20 14.5 35.5t35.5 15.5t36 -15.5t15 -35.5q0 -19 -15 -34.5t-36 -15.5zM308 240
q21 0 36 -15.5t15 -35.5q0 -19 -15 -34.5t-36 -15.5q-20 0 -35 15.5t-15 34.5q0 20 14.5 35.5t35.5 15.5z" />
    <glyph glyph-name="uni22C8" unicode="&#x22c8;" 
d="M520 606h66v-606h-66l-212 247l-212 -247h-66v606h66l212 -247zM100 117l160 186l-160 186v-372zM516 489l-160 -186l160 -186v372z" />
    <glyph glyph-name="uni22C9" unicode="&#x22c9;" 
d="M575 557l-218 -254l218 -254l-55 -49l-212 247l-212 -247h-66v606h66l212 -247l212 247zM100 117l160 186l-160 186v-372z" />
    <glyph glyph-name="uni22CA" unicode="&#x22ca;" 
d="M520 606h66v-606h-66l-212 247l-212 -247l-55 49l218 254l-218 254l55 49l212 -247zM516 489l-160 -186l160 -186v372z" />
    <glyph glyph-name="uni22CB" unicode="&#x22cb;" 
d="M592 51l-50 -49l-234 234l-236 -237l-49 49l237 237l-236 236l49 49z" />
    <glyph glyph-name="uni22CC" unicode="&#x22cc;" 
d="M592 48l-49 -49l-236 237l-234 -234l-50 49l519 519l49 -49l-236 -236z" />
    <glyph glyph-name="uni22CD" unicode="&#x22cd;" 
d="M421 523q85 0 122 -73v-70q-37 73 -112 73q-32 0 -105.5 -38t-121.5 -38q-85 0 -131 71v70q46 -71 121 -71q41 0 114 38t113 38zM73 205v67h470v-67h-470z" />
    <glyph glyph-name="uni22CE" unicode="&#x22ce;" 
d="M457 585h101q-140 -157 -211 -470h-77q-37 160 -86 273t-124 197h101q108 -158 147 -365q41 210 149 365z" />
    <glyph glyph-name="uni22CF" unicode="&#x22cf;" 
d="M562 115h-101q-108 158 -147 365q-41 -210 -149 -365h-101q140 157 211 470h77q37 -160 86 -273t124 -197z" />
    <glyph glyph-name="uni22D0" unicode="&#x22d0;" 
d="M657 63h-263q-120 0 -190 81.5t-70 204.5t70 204.5t190 81.5h263v-70h-263q-88 0 -140 -58.5t-52 -157.5t52 -157.5t140 -58.5h263v-70zM657 205h-240q-72 0 -108 40t-36 104t36 104t108 40h240v-70h-240q-38 0 -57 -20.5t-19 -53.5t19 -53.5t57 -20.5h240v-70z" />
    <glyph glyph-name="uni22D1" unicode="&#x22d1;" 
d="M-41 63v70h263q88 0 140 58.5t52 157.5t-52 157.5t-140 58.5h-263v70h263q120 0 190 -81.5t70 -204.5t-70 -204.5t-190 -81.5h-263zM-41 205v70h240q38 0 57 20.5t19 53.5t-19 53.5t-57 20.5h-240v70h240q72 0 108 -40t36 -104t-36 -104t-108 -40h-240z" />
    <glyph glyph-name="uni22D2" unicode="&#x22d2;" 
d="M22 0v263q0 120 81.5 190t204.5 70t204.5 -70t81.5 -190v-263h-70v263q0 88 -58.5 140t-157.5 52t-157.5 -52t-58.5 -140v-263h-70zM164 0v240q0 72 40 108t104 36t104 -36t40 -108v-240h-70v240q0 38 -20.5 57t-53.5 19t-53.5 -19t-20.5 -57v-240h-70z" />
    <glyph glyph-name="uni22D3" unicode="&#x22d3;" 
d="M308 -12q-123 0 -204.5 70t-81.5 190v263h70v-263q0 -88 58.5 -140t157.5 -52t157.5 52t58.5 140v263h70v-263q0 -120 -81.5 -190t-204.5 -70zM308 127q-64 0 -104 36t-40 108v240h70v-240q0 -38 20.5 -57t53.5 -19t53.5 19t20.5 57v240h70v-240q0 -72 -40 -108t-104 -36
z" />
    <glyph glyph-name="uni22D4" unicode="&#x22d4;" 
d="M343 521q86 -10 140 -64.5t54 -141.5v-315h-70v315q0 56 -33 92.5t-91 44.5v-452h-70v453q-58 -9 -91 -45.5t-33 -92.5v-315h-70v315q0 87 54 141.5t140 64.5v179h70v-179z" />
    <glyph glyph-name="uni22D5" unicode="&#x22d5;" 
d="M543 412h-125v-140h125v-68h-125v-204h-70v204h-80v-204h-70v204h-125v68h125v140h-125v68h125v220h70v-220h80v220h70v-220h125v-68zM348 272v140h-80v-140h80z" />
    <glyph glyph-name="uni22D6" unicode="&#x22d6;" 
d="M73 316v66l470 190v-67l-393 -155l393 -157v-66zM480 286q-26 0 -44.5 19t-18.5 44t18.5 44t44.5 19t44.5 -19t18.5 -44t-18.5 -44t-44.5 -19z" />
    <glyph glyph-name="uni22D7" unicode="&#x22d7;" 
d="M543 316l-470 -189v66l393 157l-393 155v67l470 -190v-66zM136 286q-26 0 -44.5 19t-18.5 44t18.5 44t44.5 19t44.5 -19t18.5 -44t-18.5 -44t-44.5 -19z" />
    <glyph glyph-name="uni22D8" unicode="&#x22d8;" horiz-adv-x="1232" 
d="M519 127l-470 189v66l470 190v-67l-393 -155l393 -157v-66zM849 127l-470 189v66l470 190v-67l-393 -155l393 -157v-66zM1179 127l-470 189v66l470 190v-67l-393 -155l393 -157v-66z" />
    <glyph glyph-name="uni22D9" unicode="&#x22d9;" horiz-adv-x="1232" 
d="M53 127v66l393 157l-393 155v67l470 -190v-66zM383 127v66l393 157l-393 155v67l470 -190v-66zM713 127v66l393 157l-393 155v67l470 -190v-66z" />
    <glyph glyph-name="uni22DA" unicode="&#x22da;" 
d="M543 712v-67l-387 -85l387 -85v-68l-470 119v66zM73 316v67h470v-67h-470zM73 226v67l470 -120v-66l-470 -119v68l387 85z" />
    <glyph glyph-name="uni22DB" unicode="&#x22db;" 
d="M73 712l470 -120v-66l-470 -119v68l387 85l-387 85v67zM73 316v67h470v-67h-470zM73 107v66l470 120v-67l-387 -85l387 -85v-68z" />
    <glyph glyph-name="uni22DC" unicode="&#x22dc;" 
d="M73 564v67h470v-67h-470zM543 69l-468 171v70l468 169v-78l-378 -127l378 -125v-80z" />
    <glyph glyph-name="uni22DD" unicode="&#x22dd;" 
d="M73 564v67h470v-67h-470zM73 69v80l378 125l-378 127v78l468 -169v-70z" />
    <glyph glyph-name="uni22DE" unicode="&#x22de;" 
d="M73 458q145 32 256 87t214 143v-89q-180 -162 -470 -220v79zM73 222v77q313 71 470 211v-101q-155 -108 -365 -149q207 -39 365 -147v-101q-84 75 -197 124t-273 86z" />
    <glyph glyph-name="uni22DF" unicode="&#x22df;" 
d="M73 688q103 -88 214 -143t256 -87v-79q-290 58 -470 220v89zM73 409v101q157 -140 470 -211v-77q-160 -37 -273 -86t-197 -124v101q158 108 365 147q-210 41 -365 149z" />
    <glyph glyph-name="uni22E0" unicode="&#x22e0;" 
d="M543 688v-101q-158 -108 -365 -147q210 -41 365 -149v-101q-92 82 -223 136l-22 -73q147 -62 245 -152v-89q-127 109 -267 168l-67 -220h-66l73 242q-64 23 -143 40v79q86 -18 166 -45l22 72q-79 28 -188 53v77q153 35 251 77l54 175h66l-42 -139q79 41 141 97z" />
    <glyph glyph-name="uni22E1" unicode="&#x22e1;" 
d="M543 401q-101 -23 -183 -51l-28 -91q99 40 211 62v-79q-133 -29 -240 -79l-62 -203h-66l49 161q-75 -44 -151 -109v89q78 69 181 123l30 97q-124 -53 -211 -131v101q155 108 365 149q-207 39 -365 147v101q111 -98 277 -156l60 198h66l-66 -217q47 -15 133 -35v-77z" />
    <glyph glyph-name="uni22E2" unicode="&#x22e2;" 
d="M554 505h-162l-71 -301h233v-68h-249l-17 -68h266v-68h-282l-18 -77h-67l18 77h-162v68h178l17 68h-195v437h299l19 82h67l-19 -82h145v-68zM254 204l71 301h-212v-301h141z" />
    <glyph glyph-name="uni22E3" unicode="&#x22e3;" 
d="M566 136h-260l-17 -68h277v-68h-293l-18 -77h-67l18 77h-151v68h167l17 68h-184v68h200l71 301h-271v68h288l19 82h67l-19 -82h156v-437zM393 505l-71 -301h174v301h-103z" />
    <glyph glyph-name="uni22E4" unicode="&#x22e4;" 
d="M561 505h-441v-301h183l25 94h66l-25 -94h192v-68h-210l-18 -68h228v-68h-247l-26 -99h-66l26 99h-198v68h217l18 68h-235v437h511v-68z" />
    <glyph glyph-name="uni22E5" unicode="&#x22e5;" 
d="M566 136h-215l-18 -68h233v-68h-252l-26 -99h-66l26 99h-193v68h212l18 68h-230v68h248l25 94h66l-25 -94h127v301h-441v68h511v-437z" />
    <glyph glyph-name="uni22E6" unicode="&#x22e6;" 
d="M543 207l-470 189v66l470 190v-67l-393 -155l393 -155v-68zM431 97q75 0 112 73v-70q-37 -73 -122 -73q-39 0 -95 29l-32 -96h-69l42 125q-41 18 -73 18q-75 0 -121 -71v70q46 71 131 71q39 0 86 -21l33 98h69l-43 -127q52 -26 82 -26z" />
    <glyph glyph-name="uni22E7" unicode="&#x22e7;" 
d="M543 396l-470 -189v66l393 157l-393 155v67l470 -190v-66zM431 97q75 0 112 73v-70q-37 -73 -122 -73q-39 0 -95 29l-32 -96h-69l42 125q-41 18 -73 18q-75 0 -121 -71v70q46 71 131 71q39 0 86 -21l33 98h69l-43 -127q52 -26 82 -26z" />
    <glyph glyph-name="uni22E8" unicode="&#x22e8;" 
d="M543 698v-101q-158 -108 -365 -147q210 -41 365 -149v-101q-157 140 -470 211v77q160 37 273 86t197 124zM431 97q75 0 112 73v-70q-37 -73 -122 -73q-39 0 -95 29l-32 -96h-69l42 125q-41 18 -73 18q-75 0 -121 -71v70q46 71 131 71q39 0 86 -21l33 98h69l-43 -127
q52 -26 82 -26z" />
    <glyph glyph-name="uni22E9" unicode="&#x22e9;" 
d="M73 698q84 -75 197 -124t273 -86v-77q-313 -71 -470 -211v101q155 108 365 149q-207 39 -365 147v101zM431 97q75 0 112 73v-70q-37 -73 -122 -73q-39 0 -95 29l-32 -96h-69l42 125q-41 18 -73 18q-75 0 -121 -71v70q46 71 131 71q39 0 86 -21l33 98h69l-43 -127
q52 -26 82 -26z" />
    <glyph glyph-name="uni22EA" unicode="&#x22ea;" 
d="M586 552v-404l-195 70l-33 -140h-66l38 161l-310 111l368 131l34 143h66l-28 -117zM516 254v192l-281 -96z" />
    <glyph glyph-name="uni22EB" unicode="&#x22eb;" 
d="M596 350l-370 -132l-38 -158h-66l31 132l-123 -44v404l193 -69l29 123h66l-34 -145zM100 446v-192l281 96z" />
    <glyph glyph-name="uni22EC" unicode="&#x22ec;" 
d="M586 148l-204 73l-27 -115h231v-67h-247l-12 -51h-66l12 51h-248v67h264l32 136l-301 108l356 127l31 129h66l-25 -103l138 49v-404zM516 446l-281 -96l281 -96v192z" />
    <glyph glyph-name="uni22ED" unicode="&#x22ed;" 
d="M226 218l-26 -112h391v-67h-407l-12 -51h-66l12 51h-88v67h104l21 86l-125 -44v404l193 -69l29 123h66l-34 -145l312 -111zM100 446v-192l281 96z" />
    <glyph glyph-name="uni22EE" unicode="&#x22ee;" 
d="M308 586q-26 0 -44.5 19t-18.5 44t18.5 44t44.5 19t44.5 -19t18.5 -44t-18.5 -44t-44.5 -19zM308 286q-26 0 -44.5 19t-18.5 44t18.5 44t44.5 19t44.5 -19t18.5 -44t-18.5 -44t-44.5 -19zM308 -14q-26 0 -44.5 19t-18.5 44t18.5 44t44.5 19t44.5 -19t18.5 -44t-18.5 -44
t-44.5 -19z" />
    <glyph glyph-name="uni22EF" unicode="&#x22ef;" 
d="M103 287q-26 0 -44.5 19t-18.5 44t18.5 44t44.5 19t44.5 -19t18.5 -44t-18.5 -44t-44.5 -19zM308 287q-26 0 -44.5 19t-18.5 44t18.5 44t44.5 19t44.5 -19t18.5 -44t-18.5 -44t-44.5 -19zM513 287q-26 0 -44.5 19t-18.5 44t18.5 44t44.5 19t44.5 -19t18.5 -44t-18.5 -44
t-44.5 -19z" />
    <glyph glyph-name="uni22F0" unicode="&#x22f0;" 
d="M588 566q-26 0 -44.5 19t-18.5 44t18.5 44t44.5 19t44.5 -19t18.5 -44t-18.5 -44t-44.5 -19zM308 286q-26 0 -44.5 19t-18.5 44t18.5 44t44.5 19t44.5 -19t18.5 -44t-18.5 -44t-44.5 -19zM28 6q-26 0 -44.5 19t-18.5 44t18.5 44t44.5 19t44.5 -19t18.5 -44t-18.5 -44
t-44.5 -19z" />
    <glyph glyph-name="uni22F1" unicode="&#x22f1;" 
d="M28 566q-26 0 -44.5 19t-18.5 44t18.5 44t44.5 19t44.5 -19t18.5 -44t-18.5 -44t-44.5 -19zM308 286q-26 0 -44.5 19t-18.5 44t18.5 44t44.5 19t44.5 -19t18.5 -44t-18.5 -44t-44.5 -19zM588 6q-26 0 -44.5 19t-18.5 44t18.5 44t44.5 19t44.5 -19t18.5 -44t-18.5 -44
t-44.5 -19z" />
    <glyph glyph-name="uni22F2" unicode="&#x22f2;" 
d="M388 443q-82 0 -134 -40.5t-59 -112.5h401v-68h-401q7 -72 59 -113t134 -41h208v-68h-208q-107 0 -182.5 61t-84.5 161h-111v68h111q9 100 84.5 160.5t182.5 60.5h208v-68h-208z" />
    <glyph glyph-name="uni22F3" unicode="&#x22f3;" 
d="M333 443q-82 0 -134 -40.5t-59 -112.5h335v63h66v-194h-66v63h-335q7 -72 59 -113t134 -41h208v-68h-208q-114 0 -191 68t-77 178v20q0 110 77 177.5t191 67.5h208v-68h-208z" />
    <glyph glyph-name="uni22F4" unicode="&#x22f4;" 
d="M277 363q-134 0 -148 -113h360v35h62v-138h-62v35h-359q14 -114 147 -114h274v-68h-271q-103 0 -164 56.5t-61 152.5v16q0 94 61 150t164 56h271v-68h-274z" />
    <glyph glyph-name="uni22F5" unicode="&#x22f5;" 
d="M370 586q-26 0 -44.5 19t-18.5 44t18.5 44t44.5 19t44.5 -19t18.5 -44t-18.5 -44t-44.5 -19zM333 443q-82 0 -134 -40.5t-59 -112.5h401v-68h-401q7 -72 59 -113t134 -41h208v-68h-208q-114 0 -191 68t-77 178v20q0 110 77 177.5t191 67.5h208v-68h-208z" />
    <glyph glyph-name="uni22F6" unicode="&#x22f6;" 
d="M122 575v67h414v-67h-414zM328 443q-82 0 -134 -40.5t-59 -112.5h401v-68h-401q7 -72 59 -113t134 -41h208v-68h-208q-114 0 -191 68t-77 178v20q0 110 77 177.5t191 67.5h208v-68h-208z" />
    <glyph glyph-name="uni22F7" unicode="&#x22f7;" 
d="M94 554h457v-68h-457v68zM55 225q0 94 61 150t164 56h271v-68h-274q-134 0 -148 -113h422v-68h-421q14 -114 147 -114h274v-68h-271q-103 0 -164 56.5t-61 152.5v16z" />
    <glyph glyph-name="uni22F8" unicode="&#x22f8;" 
d="M328 443q-82 0 -134 -40.5t-59 -112.5h401v-68h-401q7 -72 59 -113t134 -41h208v-68h-208q-114 0 -191 68t-77 178v20q0 110 77 177.5t191 67.5h208v-68h-208zM107 -131v67h429v-67h-429z" />
    <glyph glyph-name="uni22F9" unicode="&#x22f9;" 
d="M542 222v-68h-382q48 -86 173 -86h208v-68h-208q-114 0 -191 68t-77 178v20q0 110 77 177.5t191 67.5h208v-68h-208q-124 0 -173 -85h381v-68h-401q-1 -6 -1 -19v-30q0 -13 1 -19h402z" />
    <glyph glyph-name="uni22FA" unicode="&#x22fa;" 
d="M606 290v-68h-111q-9 -100 -84.5 -161t-182.5 -61h-208v68h208q82 0 134 41t59 113h-401v68h401q-7 72 -59 112.5t-134 40.5h-208v68h208q107 0 182.5 -60.5t84.5 -160.5h111z" />
    <glyph glyph-name="uni22FB" unicode="&#x22fb;" 
d="M283 511q114 0 191 -67.5t77 -177.5v-20q0 -110 -77 -178t-191 -68h-208v68h208q82 0 134 41t59 113h-335v-63h-66v194h66v-63h335q-7 72 -59 112.5t-134 40.5h-208v68h208z" />
    <glyph glyph-name="uni22FC" unicode="&#x22fc;" 
d="M336 431q103 0 164 -56t61 -150v-16q0 -96 -61 -152.5t-164 -56.5h-271v68h274q133 0 147 114h-359v-35h-62v138h62v-35h360q-14 113 -148 113h-274v68h271z" />
    <glyph glyph-name="uni22FD" unicode="&#x22fd;" 
d="M80 575v67h429v-67h-429zM288 443h-208v68h208q114 0 191 -67.5t77 -177.5v-20q0 -110 -77 -178t-191 -68h-208v68h208q82 0 134 41t59 113h-401v68h401q-7 72 -59 112.5t-134 40.5z" />
    <glyph glyph-name="uni22FE" unicode="&#x22fe;" 
d="M522 554v-68h-457v68h457zM336 431q103 0 164 -56t61 -150v-16q0 -96 -61 -152.5t-164 -56.5h-271v68h274q133 0 147 114h-421v68h422q-14 113 -148 113h-274v68h271z" />
    <glyph glyph-name="uni22FF" unicode="&#x22ff;" 
d="M525 0h-429v606h429v-68h-359v-200h359v-68h-359v-202h359v-68z" />
    <glyph glyph-name="house" unicode="&#x2302;" 
d="M40 0h536v433l-269 267l-267 -267v-433zM110 64v339l197 197l199 -197v-339h-396z" />
    <glyph glyph-name="revlogicalnot" unicode="&#x2310;" 
d="M73 176v287h470v-67h-398v-220h-72z" />
    <glyph glyph-name="integraltp" unicode="&#x2320;" 
d="M272 -378v976q0 114 105 114q50 0 94 -24v-52q-53 16 -73 16q-55 0 -55 -61v-969h-71z" />
    <glyph glyph-name="integralbt" unicode="&#x2321;" 
d="M237 -140q-53 0 -93 22v52q42 -14 73 -14q33 0 44 16t11 43v963h71v-968q0 -114 -106 -114z" />
    <glyph glyph-name="uni2326" unicode="&#x2326;" 
d="M425 601l181 -251l-181 -251h-390v502h390zM390 169l130 181l-130 181h-285v-362h285zM340 463l48 -48l-65 -65l65 -65l-48 -48l-65 65l-65 -65l-48 48l65 65l-65 65l48 48l65 -65z" />
    <glyph glyph-name="uni232B" unicode="&#x232b;" 
d="M191 601h390v-502h-390l-181 251zM511 169v362h-285l-130 -181l130 -181h285zM276 237l-48 48l65 65l-65 65l48 48l65 -65l65 65l48 -48l-65 -65l65 -65l-48 -48l-65 65z" />
    <glyph glyph-name="uni23BD" unicode="&#x23bd;" 
d="M-10 0v78h636v-78h-636z" />
    <glyph glyph-name="power" unicode="&#x23fb;" 
d="M273 359v353h70v-353h-70zM307 93q-110 0 -188 78t-78 188q0 73 36.5 134.5t96.5 96.5l35 -60q-45 -26 -71.5 -71.5t-26.5 -99.5q0 -82 57 -139t139 -57t140 57t58 139q0 54 -27 99t-72 71l35 61q61 -36 97.5 -97.5t36.5 -133.5q0 -110 -79 -188t-189 -78z" />
    <glyph glyph-name="uni2500" unicode="&#x2500;" 
d="M-10 248v68h636v-68h-636z" />
    <glyph glyph-name="uni2501" unicode="&#x2501;" 
d="M626 214h-636v136h636v-136z" />
    <glyph glyph-name="uni2502" unicode="&#x2502;" 
d="M274 942h68v-1320h-68v1320z" />
    <glyph glyph-name="uni2503" unicode="&#x2503;" 
d="M238 -378v1320h140v-1320h-140z" />
    <glyph glyph-name="uni2504" unicode="&#x2504;" 
d="M34 248v68h137v-68h-137zM239 248v68h138v-68h-138zM445 248v68h137v-68h-137z" />
    <glyph glyph-name="uni2505" unicode="&#x2505;" 
d="M-10 214v136h165v-136h-165zM225 214v136h166v-136h-166zM461 214v136h165v-136h-165z" />
    <glyph glyph-name="uni2506" unicode="&#x2506;" 
d="M276 898h68v-365h-68v365zM276 465h68v-366h-68v366zM276 31h68v-365h-68v365z" />
    <glyph glyph-name="uni2507" unicode="&#x2507;" 
d="M238 898h140v-365h-140v365zM238 465h140v-366h-140v366zM238 31h140v-365h-140v365z" />
    <glyph glyph-name="uni2508" unicode="&#x2508;" 
d="M34 248v68h86v-68h-86zM188 248v68h86v-68h-86zM342 248v68h86v-68h-86zM496 248v68h86v-68h-86z" />
    <glyph glyph-name="uni2509" unicode="&#x2509;" 
d="M-10 214v136h136v-136h-136zM157 214v136h136v-136h-136zM324 214v136h136v-136h-136zM490 214v136h136v-136h-136z" />
    <glyph glyph-name="uni250A" unicode="&#x250a;" 
d="M273 898h70v-257h-70v257zM273 573h70v-257h-70v257zM273 248h70v-257h-70v257zM273 -77h70v-257h-70v257z" />
    <glyph glyph-name="uni250B" unicode="&#x250b;" 
d="M238 898h140v-257h-140v257zM238 573h140v-257h-140v257zM238 248h140v-257h-140v257zM238 -77h140v-257h-140v257z" />
    <glyph glyph-name="uni250C" unicode="&#x250c;" 
d="M273 316h353v-68h-283v-626h-70v694z" />
    <glyph glyph-name="uni250D" unicode="&#x250d;" 
d="M626 350v-136h-283v-474h-70v610h353z" />
    <glyph glyph-name="uni250E" unicode="&#x250e;" 
d="M626 316v-68h-248v-626h-140v694h388z" />
    <glyph glyph-name="uni250F" unicode="&#x250f;" 
d="M626 214h-248v-592h-140v728h388v-136z" />
    <glyph glyph-name="uni2510" unicode="&#x2510;" 
d="M-10 248v68h353v-694h-70v626h-283z" />
    <glyph glyph-name="uni2511" unicode="&#x2511;" 
d="M-10 214v136h353v-728h-70v592h-283z" />
    <glyph glyph-name="uni2512" unicode="&#x2512;" 
d="M378 316v-694h-140v626h-248v68h388z" />
    <glyph glyph-name="uni2513" unicode="&#x2513;" 
d="M-10 214v136h388v-728h-140v592h-248z" />
    <glyph glyph-name="uni2514" unicode="&#x2514;" 
d="M273 942h70v-626h283v-68h-353v694z" />
    <glyph glyph-name="uni2515" unicode="&#x2515;" 
d="M273 942h70v-592h283v-136h-353v728z" />
    <glyph glyph-name="uni2516" unicode="&#x2516;" 
d="M626 248h-388v694h140v-626h248v-68z" />
    <glyph glyph-name="uni2517" unicode="&#x2517;" 
d="M626 214h-386v728h140v-592h246v-136z" />
    <glyph glyph-name="uni2518" unicode="&#x2518;" 
d="M-10 248v68h283v626h70v-694h-353z" />
    <glyph glyph-name="uni2519" unicode="&#x2519;" 
d="M-10 214v136h283v592h70v-728h-353z" />
    <glyph glyph-name="uni251A" unicode="&#x251a;" 
d="M-10 248v68h248v626h140v-694h-388z" />
    <glyph glyph-name="uni251B" unicode="&#x251b;" 
d="M-10 214v136h248v592h140v-728h-388z" />
    <glyph glyph-name="uni251C" unicode="&#x251c;" 
d="M273 942h70v-626h283v-68h-283v-626h-70v1320z" />
    <glyph glyph-name="uni251D" unicode="&#x251d;" 
d="M273 942h70v-592h283v-136h-283v-592h-70v1320z" />
    <glyph glyph-name="uni251E" unicode="&#x251e;" 
d="M378 942v-626h248v-68h-283v-626h-70v694h-35v626h140z" />
    <glyph glyph-name="uni251F" unicode="&#x251f;" 
d="M341 316h285v-68h-248v-626h-140v626h33v694h70v-626z" />
    <glyph glyph-name="uni2520" unicode="&#x2520;" 
d="M238 -378v1320h140v-626h248v-68h-248v-626h-140z" />
    <glyph glyph-name="uni2521" unicode="&#x2521;" 
d="M626 350v-136h-283v-474h-70v474h-35v546h140v-410h248z" />
    <glyph glyph-name="uni2522" unicode="&#x2522;" 
d="M238 -378v728h35v592h70v-592h283v-136h-248v-592h-140z" />
    <glyph glyph-name="uni2523" unicode="&#x2523;" 
d="M240 -378v1320h140v-592h246v-136h-246v-592h-140z" />
    <glyph glyph-name="uni2524" unicode="&#x2524;" 
d="M-10 248v68h283v626h70v-1320h-70v626h-283z" />
    <glyph glyph-name="uni2525" unicode="&#x2525;" 
d="M-10 214v136h283v592h70v-1320h-70v592h-283z" />
    <glyph glyph-name="uni2526" unicode="&#x2526;" 
d="M238 316v626h140v-626h-35v-694h-70v626h-283v68h248z" />
    <glyph glyph-name="uni2527" unicode="&#x2527;" 
d="M345 248h33v-626h-140v626h-248v68h285v626h70v-694z" />
    <glyph glyph-name="uni2528" unicode="&#x2528;" 
d="M-10 248v68h248v626h140v-1320h-140v626h-248z" />
    <glyph glyph-name="uni2529" unicode="&#x2529;" 
d="M238 350v410h140v-546h-35v-474h-70v474h-283v136h248z" />
    <glyph glyph-name="uni252A" unicode="&#x252a;" 
d="M-10 214v136h283v592h70v-592h35v-728h-140v592h-248z" />
    <glyph glyph-name="uni252B" unicode="&#x252b;" 
d="M238 -378v592h-248v136h248v592h140v-1320h-140z" />
    <glyph glyph-name="uni252C" unicode="&#x252c;" 
d="M-10 248v68h636v-68h-283v-626h-70v626h-283z" />
    <glyph glyph-name="uni252D" unicode="&#x252d;" 
d="M-10 214v136h286v-34h350v-68h-281v-626h-70v592h-285z" />
    <glyph glyph-name="uni252E" unicode="&#x252e;" 
d="M-10 248v68h352v34h284v-136h-283v-592h-70v626h-283z" />
    <glyph glyph-name="uni252F" unicode="&#x252f;" 
d="M626 350v-136h-283v-592h-70v592h-283v136h636z" />
    <glyph glyph-name="uni2530" unicode="&#x2530;" 
d="M626 316v-68h-248v-626h-140v626h-248v68h636z" />
    <glyph glyph-name="uni2531" unicode="&#x2531;" 
d="M378 248v-626h-140v592h-248v136h388v-34h248v-68h-248z" />
    <glyph glyph-name="uni2532" unicode="&#x2532;" 
d="M-10 248v68h243v34h393v-136h-253v-592h-140v626h-243z" />
    <glyph glyph-name="uni2533" unicode="&#x2533;" 
d="M-10 214v136h636v-136h-248v-592h-140v592h-248z" />
    <glyph glyph-name="uni2534" unicode="&#x2534;" 
d="M-10 248v68h283v626h70v-626h283v-68h-636z" />
    <glyph glyph-name="uni2535" unicode="&#x2535;" 
d="M276 248v-34h-286v136h285v592h70v-626h281v-68h-350z" />
    <glyph glyph-name="uni2536" unicode="&#x2536;" 
d="M-10 248v68h284v626h68v-592h284v-136h-284v34h-352z" />
    <glyph glyph-name="uni2537" unicode="&#x2537;" 
d="M-10 214v136h285v592h70v-592h281v-136h-636z" />
    <glyph glyph-name="uni2538" unicode="&#x2538;" 
d="M-10 248v68h248v626h140v-626h248v-68h-636z" />
    <glyph glyph-name="uni2539" unicode="&#x2539;" 
d="M390 248v-34h-400v136h260v592h140v-626h236v-68h-236z" />
    <glyph glyph-name="uni253A" unicode="&#x253a;" 
d="M-10 248v68h250v626h140v-592h246v-136h-386v34h-250z" />
    <glyph glyph-name="uni253B" unicode="&#x253b;" 
d="M-10 214v136h248v592h140v-592h248v-136h-636z" />
    <glyph glyph-name="uni253C" unicode="&#x253c;" 
d="M-10 248v68h283v626h70v-626h283v-68h-283v-626h-70v626h-283z" />
    <glyph glyph-name="uni253D" unicode="&#x253d;" 
d="M-10 214v136h283v592h70v-626h283v-68h-283v-626h-70v592h-283z" />
    <glyph glyph-name="uni253E" unicode="&#x253e;" 
d="M-10 248v68h284v626h68v-592h284v-136h-284v-592h-68v626h-284z" />
    <glyph glyph-name="uni253F" unicode="&#x253f;" 
d="M-10 214v136h283v592h70v-592h283v-136h-283v-592h-70v592h-283z" />
    <glyph glyph-name="uni2540" unicode="&#x2540;" 
d="M-10 248v68h250v626h140v-626h246v-68h-281v-626h-70v626h-285z" />
    <glyph glyph-name="uni2541" unicode="&#x2541;" 
d="M344 316h282v-68h-247v-626h-140v626h-249v68h284v626h70v-626z" />
    <glyph glyph-name="uni2542" unicode="&#x2542;" 
d="M-10 248v68h248v626h140v-626h248v-68h-248v-626h-140v626h-248z" />
    <glyph glyph-name="uni2543" unicode="&#x2543;" 
d="M-10 214v136h248v592h140v-626h248v-68h-283v-626h-70v592h-283z" />
    </font>
</defs>
</svg>
